<svg width="125" height="125" viewBox="11 10 100 40" fill="none" xmlns="http://www.w3.org/2000/svg">
<path d="M72.2266 40.8789C73.7153 41.8598 81.7535 43.1445 92.1876 33.7782C102.999 24.0603 109.727 14.4162 111.215 10.536C112.678 6.75996 108.646 -1.0699 99.6485 3.18357C93.7501 5.97871 81.224 14.49 75.0999 23.8824C68.8239 33.5265 68.7761 38.5872 72.2266 40.8789Z" fill="#FFA227"/>
<path d="M111.011 9.47696C109.978 12.45 107.865 14.6679 106.098 17.233C104.184 20.0282 101.866 22.4197 99.8005 25.0412C97.6303 27.7842 94.7093 29.5985 92.2614 32.016C91.0808 33.2009 90.1694 34.6072 88.711 35.5664C87.1963 36.5733 85.6121 37.3806 84.0713 38.2834C82.5088 39.2165 81.198 39.694 79.5617 40.1757C78.7805 40.4014 78.0513 40.6011 77.244 40.8051C76.6624 40.931 76.3109 41.2304 75.9072 41.5342C79.5097 41.4822 85.356 39.924 92.2137 33.7521C103.025 24.0342 109.753 14.3902 111.241 10.5099C111.541 9.70699 111.619 8.72175 111.441 7.74084C111.263 8.44831 111.137 9.15143 111.011 9.47696Z" fill="#D88921"/>
<path d="M99.6962 3.28342C93.8021 6.07856 81.276 14.5898 75.1519 23.9822C70.5642 31.0091 69.3056 35.5925 70.2865 38.4614C70.638 38.6133 71.1198 38.6871 71.7231 38.661C75.1997 38.5352 79.7396 37.3286 81.8533 34.7852C83.9974 32.2157 85.7118 30.8051 88.9627 29.6984C91.0807 28.9952 92.2396 25.293 94.1536 24.1862C97.1528 22.4718 99.5443 19.7504 100.629 16.4518C101.51 13.7348 101.966 12.3242 104.284 10.4622C105.872 9.17752 106.931 8.11849 108.494 6.75998C109.275 6.07856 109.779 5.3494 109.978 4.59419C108.138 2.27648 104.687 0.91797 99.6962 3.28342Z" fill="#F5892F" fill-opacity="0.6"/>
<path d="M77.8733 26.5776C82.5608 25.6705 88.9367 28.088 88.9367 28.088C88.9367 28.088 85.2301 23.6566 81.5756 23.049C79.6876 22.7495 77.04 22.9231 75.6294 23.075C75.4558 23.3267 75.3039 23.5524 75.152 23.8085C74.0929 25.4188 73.2379 26.9031 72.5044 28.2616C73.8412 27.6844 75.8334 26.9813 77.8733 26.5776Z" fill="#E8B964"/>
<path d="M81.3498 23.5307C83.9714 23.9561 86.6189 26.3736 87.9036 27.6844C88.6328 27.9101 89.0625 28.088 89.0625 28.088C89.0625 28.088 85.3559 23.6566 81.7057 23.049C79.8134 22.7495 77.1658 22.9231 75.7552 23.075C75.6554 23.2269 75.5295 23.4049 75.4297 23.5524C76.8663 23.4049 79.4618 23.2269 81.3498 23.5307Z" fill="#C17829"/>
<path d="M83.2683 19.8546C86.1155 20.0543 93.698 23.2791 93.698 23.2791C93.698 23.2791 91.1806 18.5178 88.2292 17.411C86.4931 16.7556 83.6676 16.378 81.6277 16.1523C80.165 17.5629 78.7804 19.0473 77.5435 20.5838C78.8542 20.1541 80.9245 19.7027 83.2683 19.8546Z" fill="#E8B964"/>
<path d="M88.2291 17.411C86.493 16.7556 83.6675 16.378 81.6276 16.1523C81.4496 16.3043 81.3021 16.4779 81.1501 16.6298C83.1901 16.8294 85.9114 17.2331 87.5998 17.8624C89.7179 18.6697 91.6059 21.3129 92.4913 22.7756C93.2205 23.0751 93.6979 23.2791 93.6979 23.2791C93.6979 23.2791 91.1805 18.5178 88.2291 17.411Z" fill="#C17829"/>
<path d="M90.3733 13.7826C94.6051 14.1385 98.7414 16.7817 98.7414 16.7817C98.7414 16.7817 96.5235 12.2244 93.2726 10.9136C91.9358 10.3841 90.4254 10.0586 89.1146 9.85461C87.5999 10.9874 86.0634 12.2244 84.5747 13.5091C86.3412 13.5569 89.3881 13.6827 90.3733 13.7826Z" fill="#E8B964"/>
<path d="M93.2466 10.8876C91.9098 10.3581 90.3994 10.0325 89.0886 9.83289C88.9367 9.93271 88.8108 10.0325 88.6589 10.1584C89.8959 10.3581 91.2544 10.6879 92.4654 11.1654C94.731 12.0725 96.5235 14.6159 97.3786 16.0265C98.2119 16.4518 98.7154 16.7817 98.7154 16.7817C98.7154 16.7817 96.4975 12.1983 93.2466 10.8876Z" fill="#C17829"/>
<path d="M97.4783 7.66711C99.9262 8.52215 102.596 10.9136 102.596 10.9136C102.596 10.9136 101.411 7.01173 99.8221 5.85288C99.145 5.37545 98.086 4.91972 97.0747 4.54211C95.8681 5.22354 94.5052 6.05253 93.0686 6.98569C94.3794 7.05948 96.2934 7.26347 97.4783 7.66711Z" fill="#E8B964"/>
<path d="M99.822 5.85288C99.1449 5.37545 98.0859 4.91972 97.0746 4.54211C96.9488 4.62024 96.8229 4.69402 96.697 4.74611C97.6302 5.09767 98.6371 5.52736 99.2708 5.97875C100.404 6.80774 101.337 8.99958 101.762 10.2105C102.292 10.6098 102.595 10.9136 102.595 10.9136C102.595 10.9136 101.411 7.03777 99.822 5.85288Z" fill="#C17829"/>
<path d="M77.1918 28.4136C76.3628 28.5134 75.6553 28.3137 74.9262 28.6392C74.3706 28.891 73.1857 29.1948 72.8081 29.6245C71.5234 30.8571 69.6831 35.8658 72.0529 36.4735C72.9817 36.7252 75.2517 34.911 75.8072 34.1037C76.3367 33.3267 76.7621 32.5195 77.4696 31.9162C78.0512 31.4127 80.013 30.2278 79.9392 29.3728C79.8871 28.5134 78.6284 28.2616 77.1918 28.4136Z" fill="#F7BF31" fill-opacity="0.498"/>
<path d="M83.6935 20.8355C82.6345 20.6098 81.5754 20.8876 80.5208 20.9613C79.5876 21.0351 78.4504 20.5056 77.6692 21.1133L77.4695 21.4127C77.3176 21.7686 76.94 22.2461 77.4435 22.5238C77.8471 22.7235 78.4765 22.3459 78.8324 22.194C79.7395 21.8424 80.7725 21.8164 81.7534 22.0681C82.5867 22.2721 83.5937 22.8494 84.5008 22.5716C85.7595 22.1462 84.3749 20.9874 83.6935 20.8355Z" fill="#F7BF31" fill-opacity="0.498"/>
<path d="M90.2995 14.7417C89.2882 14.2382 87.678 14.5638 86.5669 14.4639C85.8855 14.3902 83.7934 13.6349 83.5417 14.6158L83.2683 14.7678C83.0382 15.1714 82.6346 15.4709 83.1164 15.8224C83.494 16.1002 84.0495 15.9266 84.4488 15.8224C85.408 15.6228 86.3412 15.7747 87.2743 16.0264C88.0556 16.2261 89.2882 17.0073 90.1216 16.6818C90.9506 16.404 91.1545 15.1714 90.2995 14.7417Z" fill="#F7BF31" fill-opacity="0.498"/>
<path d="M96.5494 8.42226C95.7161 8.19657 94.9348 8.21827 94.1015 8.04466C93.1944 7.86671 92.2873 7.96653 91.5841 8.29639L91.4062 8.52209C90.3732 9.12539 90.677 10.0065 91.8836 9.75473C93.1466 9.47695 93.8758 9.68094 95.0867 10.2105C95.868 10.562 97.1006 11.0394 97.6041 10.1063C98.1857 9.07764 97.4565 8.64796 96.5494 8.42226Z" fill="#F7BF31" fill-opacity="0.498"/>
<path d="M103.906 2.40229C102.318 2.60629 100.708 2.98389 99.3447 3.78684L99.0669 3.83893C98.3855 4.06462 98.8673 4.51601 99.2926 4.64188C99.7744 4.79379 100.152 4.76775 100.603 5.09761C101.033 5.42313 101.185 5.77903 101.762 5.70091C102.166 5.65316 102.622 5.37538 102.947 5.12365C103.629 4.64188 104.232 3.99084 104.839 3.46132C105.747 2.65403 104.813 2.30247 103.906 2.40229Z" fill="#F7BF31" fill-opacity="0.498"/>
<path d="M74.4183 26.5993C74.7221 26.2999 75.0997 26.0959 75.4556 25.8702C75.6553 25.7443 75.4773 25.4188 75.2516 25.5447C74.848 25.7704 74.4704 26.0221 74.1188 26.3259C73.9669 26.4995 74.2447 26.7773 74.4183 26.5993Z" fill="#D3A55E"/>
<path d="M75.9809 24.7634C76.2587 24.7114 76.5625 24.6897 76.8663 24.7374C77.1181 24.7895 77.1918 24.4379 76.9662 24.3598C76.6146 24.286 76.237 24.3121 75.9071 24.3858C75.6293 24.4379 75.7292 24.8155 75.9809 24.7634Z" fill="#D3A55E"/>
<path d="M76.237 25.97C76.4627 25.8442 76.6884 25.7704 76.9401 25.7183C77.1919 25.6705 77.0921 25.319 76.8403 25.3407C76.5625 25.3928 76.2848 25.4926 76.033 25.6185C75.8334 25.7443 76.033 26.0742 76.237 25.97Z" fill="#D3A55E"/>
<path d="M78.3031 26.0221C78.6546 26.0221 79.0062 26.0481 79.3621 25.97C79.6138 25.9223 79.5097 25.5447 79.2579 25.5924C78.9324 25.6445 78.6025 25.6445 78.3031 25.6185C78.0513 25.6185 78.0513 25.9961 78.3031 26.0221Z" fill="#D3A55E"/>
<path d="M78.2248 24.6376C78.5286 24.5855 78.8324 24.6376 79.158 24.6376C79.4097 24.6376 79.4097 24.26 79.158 24.26C78.8541 24.26 78.5547 24.2079 78.2248 24.26C78.125 24.286 78.0251 24.3337 78.0251 24.4596C78.0512 24.5377 78.125 24.6636 78.2248 24.6376Z" fill="#D3A55E"/>
<path d="M79.9913 25.0151C80.2908 25.2669 80.6684 25.4926 81.0981 25.4665C81.3498 25.4665 81.3498 25.0672 81.0981 25.0889C80.7726 25.0889 80.4948 24.9413 80.2691 24.7374C80.0911 24.5637 79.8134 24.8372 79.9913 25.0151Z" fill="#D3A55E"/>
<path d="M81.1502 24.082C81.3021 24.3338 81.4497 24.5638 81.6797 24.7374C81.8794 24.8893 82.0573 24.5378 81.8533 24.4119C81.6797 24.286 81.5756 24.082 81.4497 23.9084C81.3759 23.6827 81.0504 23.8824 81.1502 24.082Z" fill="#D3A55E"/>
<path d="M82.9124 26.0481C83.2423 26.0481 83.5678 26.0481 83.8977 25.97C84.1494 25.9223 84.0496 25.5447 83.7935 25.5924C83.494 25.6445 83.1902 25.6445 82.9124 25.6445C82.6607 25.6705 82.6607 26.0481 82.9124 26.0481Z" fill="#D3A55E"/>
<path d="M83.8975 25.4666C84.0234 25.5447 84.1492 25.5925 84.2751 25.6706C84.3489 25.7183 84.4748 25.6966 84.5268 25.5925C84.5746 25.4926 84.5529 25.3928 84.4487 25.3407C84.3228 25.2669 84.197 25.2149 84.0711 25.1411C83.9973 25.089 83.8715 25.115 83.8194 25.2149C83.7716 25.293 83.8194 25.4189 83.8975 25.4666Z" fill="#D3A55E"/>
<path d="M85.3342 26.4518C85.4818 26.5256 85.612 26.6515 85.7379 26.7773C85.9115 26.9553 86.1632 26.6775 86.0113 26.4995C85.8638 26.3476 85.7118 26.2218 85.5339 26.1219C85.3082 26.0221 85.1042 26.3476 85.3342 26.4518Z" fill="#D3A55E"/>
<path d="M79.2102 19.7504C79.4619 19.6028 79.7397 19.5247 80.0131 19.4509C80.2692 19.3988 80.165 19.0212 79.9133 19.0733C79.5878 19.1471 79.284 19.2469 79.0062 19.3988C78.8065 19.5507 79.0062 19.8762 79.2102 19.7504Z" fill="#D3A55E"/>
<path d="M80.3689 18.2921C80.6206 18.1401 80.8463 17.9882 81.1241 17.9145C81.3498 17.8407 81.2499 17.4587 81.0242 17.5368C80.7204 17.6367 80.4426 17.8146 80.1649 17.9665C79.9652 18.0924 80.1649 18.4179 80.3689 18.2921Z" fill="#D3A55E"/>
<path d="M81.3021 19.121C81.6016 19.121 81.8793 19.121 82.1832 19.1471C82.4349 19.1731 82.4349 18.7955 82.1832 18.7694C81.8793 18.7434 81.6016 18.7434 81.3021 18.7434C81.0503 18.7434 81.0503 19.121 81.3021 19.121Z" fill="#D3A55E"/>
<path d="M82.1051 17.7886C82.3091 18.0143 82.5348 18.1923 82.7605 18.3919C82.9645 18.5438 83.2162 18.266 83.0383 18.1141C82.8126 17.9405 82.5869 17.7365 82.3829 17.5108C82.231 17.3112 81.9575 17.589 82.1051 17.7886Z" fill="#D3A55E"/>
<path d="M84.5009 19.3511C84.8307 19.3988 85.1562 19.4509 85.4601 19.5247C85.7118 19.5768 85.7856 19.2252 85.5599 19.1471C85.2561 19.0733 84.9306 19.0212 84.6007 18.9735C84.349 18.9474 84.2491 19.325 84.5009 19.3511Z" fill="#D3A55E"/>
<path d="M86.3152 18.1922H86.3412C86.3933 18.1922 86.3152 18.1922 86.3672 18.1922C86.415 18.1922 86.441 18.2182 86.4931 18.2182C86.5669 18.2399 86.645 18.266 86.7188 18.292C86.8186 18.318 86.9185 18.266 86.9445 18.1661C86.9705 18.0663 86.9185 17.9665 86.8186 17.9404C86.6667 17.8884 86.5192 17.8146 86.3412 17.8146C86.2414 17.8146 86.1372 17.8884 86.1372 18.0142C86.1372 18.1141 86.2153 18.1922 86.3152 18.1922Z" fill="#D3A55E"/>
<path d="M88.0817 19.2989C88.2553 19.4986 88.481 19.6505 88.7371 19.7503C88.9628 19.8545 89.1364 19.5246 88.9107 19.4248C88.685 19.325 88.507 19.1991 88.3334 19.0212C88.1815 18.8476 87.9298 19.121 88.0817 19.2989Z" fill="#D3A55E"/>
<path d="M88.0556 20.2799C88.355 20.3797 88.6328 20.4839 88.9366 20.5577C89.1623 20.6098 89.2621 20.2539 89.0365 20.1801C88.737 20.1063 88.4332 20.0282 88.1554 19.9023C87.9036 19.8285 87.8038 20.1801 88.0556 20.2799Z" fill="#D3A55E"/>
<path d="M86.1891 13.1055C86.4669 13.0057 86.7186 12.9275 86.9964 12.8017C87.2221 12.7279 87.1223 12.3503 86.8966 12.4241C86.6188 12.5239 86.3671 12.6281 86.0893 12.7279C85.8636 12.8017 85.9634 13.1793 86.1891 13.1055Z" fill="#D3A55E"/>
<path d="M88.9628 11.0395C88.9888 11.0395 89.0105 11.0395 89.0366 11.0395C89.0626 11.0395 89.0887 11.0395 89.0366 11.0395H89.0626H89.0887C89.1147 11.0395 89.0366 11.0134 89.0887 11.0395C89.1147 11.0395 89.1364 11.0655 89.1624 11.0916C89.2406 11.1393 89.3664 11.1133 89.4142 11.0134C89.4663 10.9136 89.4402 10.8138 89.3404 10.7617C89.2145 10.6879 89.0887 10.6619 88.9628 10.6619C88.863 10.6619 88.7588 10.7357 88.7588 10.8615C88.7848 10.9396 88.863 11.0395 88.9628 11.0395Z" fill="#D3A55E"/>
<path d="M88.3334 11.8728C88.533 11.9987 88.7587 12.1462 88.9888 12.1983C89.2145 12.2721 89.3143 11.8945 89.0886 11.8207C88.8846 11.7686 88.711 11.6428 88.533 11.5169C88.3334 11.391 88.1294 11.7469 88.3334 11.8728Z" fill="#D3A55E"/>
<path d="M89.1883 12.9796C89.388 12.9796 89.5659 13.0056 89.7699 13.0056C90.0216 13.0273 90.0216 12.628 89.7699 12.628C89.5659 12.628 89.388 12.602 89.1883 12.602C88.9366 12.576 88.9366 12.9536 89.1883 12.9796Z" fill="#D3A55E"/>
<path d="M92.1355 13.2573C92.4914 13.4309 92.869 13.509 93.2466 13.5307C93.4983 13.5568 93.4983 13.1531 93.2466 13.1531C92.9167 13.1314 92.6173 13.0533 92.3395 12.9274C92.1138 12.8016 91.9358 13.1314 92.1355 13.2573Z" fill="#D3A55E"/>
<path d="M90.6771 11.9466C90.9028 11.9987 91.1285 11.9987 91.3542 12.0464C91.6059 12.0985 91.6841 11.747 91.4584 11.6688C91.2283 11.6211 91.0026 11.6211 90.7769 11.569C90.5513 11.5169 90.4471 11.8945 90.6771 11.9466Z" fill="#D3A55E"/>
<path d="M94.0755 13.1532C94.3055 13.3312 94.5312 13.5308 94.7829 13.7348C94.9869 13.8867 95.2387 13.6089 95.0607 13.457C94.835 13.2791 94.605 13.0794 94.3532 12.8798C94.1536 12.7279 93.9018 13.0056 94.0755 13.1532Z" fill="#D3A55E"/>
<path d="M94.8351 14.312C94.987 14.4639 95.1346 14.6158 95.2865 14.7938C95.4645 14.9674 95.7162 14.6896 95.5643 14.516C95.4124 14.3641 95.2605 14.2122 95.1129 14.0342C94.9089 13.8606 94.6572 14.1384 94.8351 14.312Z" fill="#D3A55E"/>
<path d="M95.0348 6.70784C95.3386 6.6601 95.6381 6.63406 95.9419 6.60802C96.1937 6.58198 96.0939 6.20437 95.8421 6.23041C95.5383 6.2825 95.2388 6.3042 94.935 6.33024C94.7093 6.35628 94.8091 6.73389 95.0348 6.70784Z" fill="#D3A55E"/>
<path d="M96.7231 5.62709C97.0529 5.8007 97.3524 5.95261 97.7083 6.07848C97.934 6.1783 98.0338 5.8007 97.8081 5.70087C97.5043 5.575 97.2005 5.44914 96.9271 5.27552C96.697 5.17136 96.4974 5.50122 96.7231 5.62709Z" fill="#D3A55E"/>
<path d="M97.5304 6.95962C97.7821 7.03775 98.0078 7.16361 98.2378 7.31118C98.3116 7.38931 98.4375 7.38931 98.5113 7.31118C98.5894 7.2374 98.5894 7.11153 98.5113 7.03775C98.2595 6.83375 97.9601 6.68184 97.6562 6.58202C97.4045 6.50823 97.3047 6.88584 97.5304 6.95962Z" fill="#D3A55E"/>
<path d="M99.6484 7.94046C99.7742 8.06633 99.8741 8.21824 99.9478 8.37015C100.074 8.57414 100.404 8.39619 100.278 8.1705C100.178 7.99255 100.052 7.79289 99.9001 7.66703C99.7482 7.48907 99.4704 7.76685 99.6484 7.94046Z" fill="#D3A55E"/>
<path d="M98.789 6.60799C98.967 6.88577 99.1666 7.1375 99.4184 7.33716C99.5963 7.48907 99.8741 7.23733 99.6961 7.05938C99.4705 6.85973 99.2925 6.66007 99.1449 6.40834C98.993 6.20434 98.6632 6.40834 98.789 6.60799Z" fill="#D3A55E"/>
<path d="M74.8481 25.115C75.1779 25.1931 75.5035 25.1931 75.8333 25.141C75.9332 25.115 75.9809 24.9891 75.9592 24.9153C75.9332 24.8155 75.8333 24.7634 75.7292 24.7895C75.4774 24.8155 75.1997 24.8155 74.9479 24.7634C74.7222 24.6896 74.6224 25.0673 74.8481 25.115Z" fill="#FFC871"/>
<path d="M75.5295 26.9292C75.6554 26.8554 75.7812 26.7772 75.8811 26.7252C76.0851 26.5993 75.9071 26.2738 75.6814 26.3996C75.5555 26.4734 75.4297 26.5515 75.3255 26.5993C75.1259 26.7252 75.3255 27.055 75.5295 26.9292Z" fill="#FFC871"/>
<path d="M77.3439 26.3477C77.3959 26.326 77.4697 26.2739 77.5218 26.2478C77.6216 26.2001 77.6477 26.0742 77.5956 25.9961C77.5435 25.8963 77.4176 25.8702 77.3439 25.9223C77.2918 25.9484 77.218 25.9961 77.1659 26.0221C77.0661 26.0742 77.04 26.2001 77.0921 26.2739C77.1182 26.3737 77.244 26.4258 77.3439 26.3477Z" fill="#FFC871"/>
<path d="M77.6694 25.2408C77.7996 25.2668 77.9471 25.2668 78.0513 25.2148C78.1511 25.167 78.1772 25.0412 78.1251 24.963C78.073 24.8632 77.9471 24.8372 77.8733 24.8892C77.8473 24.8892 77.9254 24.8632 77.8733 24.8892H77.8473C77.8994 24.8892 77.8733 24.8892 77.8473 24.8892C77.8213 24.8892 77.8213 24.8892 77.7996 24.8892H77.7735C77.8213 24.8892 77.7996 24.8892 77.7735 24.8892C77.6694 24.8632 77.5695 24.9153 77.5435 25.0151C77.5218 25.1149 77.5695 25.2148 77.6694 25.2408Z" fill="#FFC871"/>
<path d="M77.2916 24.1601C77.4956 24.1601 77.6952 24.1862 77.8992 24.1601C78.151 24.1341 78.151 23.7565 77.8992 23.7825C77.6952 23.7825 77.4956 23.7825 77.2916 23.7825C77.0398 23.7565 77.0398 24.1601 77.2916 24.1601Z" fill="#FFC871"/>
<path d="M79.2839 23.9083C79.3837 24.0602 79.5877 24.134 79.7613 24.134C79.8655 24.134 79.9653 24.0602 79.9653 23.9344C79.9653 23.8302 79.8872 23.7304 79.7613 23.7304C79.7396 23.7304 79.7135 23.7304 79.6875 23.7304C79.6615 23.7304 79.6615 23.7304 79.6875 23.7304C79.6615 23.7304 79.6615 23.7304 79.6354 23.7304C79.6137 23.7304 79.6137 23.7304 79.6354 23.7304C79.6354 23.7304 79.6137 23.7304 79.6137 23.7043C79.5877 23.7043 79.5877 23.7043 79.6137 23.7043C79.5877 23.6826 79.6354 23.7304 79.6137 23.7043C79.5616 23.6306 79.4358 23.5785 79.362 23.6306C79.2578 23.6826 79.2318 23.8085 79.2839 23.9083Z" fill="#FFC871"/>
<path d="M79.5356 25.1931C79.6615 25.2148 79.7873 25.293 79.9132 25.3668C80.013 25.4188 80.1172 25.3928 80.1649 25.293C80.217 25.2148 80.191 25.0673 80.0911 25.0412C79.9392 24.9631 79.7873 24.8893 79.6354 24.8372C79.4097 24.7374 79.3099 25.115 79.5356 25.1931Z" fill="#FFC871"/>
<path d="M80.1649 26.0742C80.4166 26.0742 80.6466 26.0482 80.8723 25.9483C81.098 25.8225 80.8984 25.4926 80.6683 25.6185C80.5208 25.6966 80.3428 25.7183 80.1649 25.6966C79.9392 25.6706 79.9392 26.0742 80.1649 26.0742Z" fill="#FFC871"/>
<path d="M80.3167 19.6766C80.4426 19.6028 80.5945 19.5247 80.7204 19.4249C80.9244 19.299 80.7464 18.9735 80.5207 19.0993C80.3949 19.1731 80.2429 19.2469 80.1171 19.3511C79.9131 19.4509 80.1171 19.7764 80.3167 19.6766Z" fill="#FFC871"/>
<path d="M80.3428 18.7695C80.6467 18.7435 80.8984 18.6436 81.1501 18.5178C81.3758 18.3919 81.1762 18.0664 80.9461 18.1922C80.7465 18.2921 80.5425 18.3919 80.3168 18.3919C80.1171 18.3919 80.1171 18.7695 80.3428 18.7695Z" fill="#FFC871"/>
<path d="M81.7275 18.6176C81.8534 18.6176 81.9792 18.6436 82.1051 18.6436C82.2093 18.6436 82.3091 18.5698 82.3091 18.444C82.3091 18.3441 82.231 18.24 82.1051 18.24C81.9792 18.24 81.8534 18.2183 81.7275 18.2183C81.6277 18.2183 81.5278 18.292 81.5278 18.4179C81.5539 18.5438 81.6277 18.6176 81.7275 18.6176Z" fill="#FFC871"/>
<path d="M83.0902 17.589C83.2898 17.589 83.4938 17.589 83.6674 17.6628C83.7716 17.7148 83.8714 17.6888 83.9192 17.589C83.9712 17.5109 83.9452 17.3589 83.8454 17.3329C83.6197 17.2331 83.3419 17.207 83.0902 17.207C82.8384 17.207 82.8384 17.6107 83.0902 17.589Z" fill="#FFC871"/>
<path d="M83.5677 18.1662C83.6676 18.3181 83.7934 18.3659 83.9714 18.3659C84.0712 18.3659 84.1754 18.2921 84.1754 18.1662C84.1754 18.0664 84.0972 17.9666 83.9714 17.9666C83.9453 17.9666 83.9193 17.9666 83.9193 17.9666C83.8976 17.9666 83.8715 17.9666 83.9193 17.9666H83.8976C83.8715 17.9666 83.9453 17.9883 83.8976 17.9666C83.8715 17.9666 83.8715 17.9405 83.8976 17.9666L83.8715 17.9405C83.9193 17.9883 83.8976 17.9666 83.8715 17.9405C83.8195 17.8407 83.6936 17.8147 83.6198 17.8624C83.5417 17.9405 83.4939 18.0664 83.5677 18.1662Z" fill="#FFC871"/>
<path d="M83.2899 19.325C83.4939 19.1992 83.3159 18.8693 83.0902 18.9952C82.8862 19.121 83.0902 19.4509 83.2899 19.325Z" fill="#FFC871"/>
<path d="M83.2682 19.351C83.4158 19.325 83.5416 19.325 83.6935 19.325C83.9453 19.351 83.9453 18.9474 83.6935 18.9474C83.5199 18.9474 83.342 18.9474 83.164 18.9734C83.0642 18.9951 83.0121 19.0993 83.0382 19.1991C83.0382 19.325 83.138 19.3727 83.2682 19.351Z" fill="#FFC871"/>
<path d="M85.1563 18.444C85.3082 18.5959 85.4601 18.7218 85.6337 18.8216C85.8638 18.9215 86.0374 18.5959 85.8117 18.4918C85.6598 18.418 85.5339 18.2921 85.408 18.1662C85.2301 17.9883 84.9783 18.2661 85.1563 18.444Z" fill="#FFC871"/>
<path d="M86.0634 19.9804C86.2631 20.0803 86.467 20.128 86.6927 20.0803C86.7926 20.0542 86.8446 19.9284 86.8186 19.8546C86.7926 19.7504 86.6927 19.7027 86.5929 19.7287C86.5408 19.7287 86.4931 19.7287 86.441 19.7287C86.3672 19.7027 86.3151 19.7027 86.2631 19.6506C86.1632 19.6028 86.0634 19.6245 86.0113 19.7287C85.9375 19.8025 85.9636 19.9284 86.0634 19.9804Z" fill="#FFC871"/>
<path d="M86.7708 18.9735C86.8707 19.1472 86.9965 19.2991 87.1745 19.3989C87.4002 19.5248 87.5738 19.1732 87.3481 19.0734C87.2222 18.9952 87.1484 18.8954 87.0963 18.7956C86.9965 18.5439 86.6667 18.7435 86.7708 18.9735Z" fill="#FFC871"/>
<path d="M87.3219 13.2313C87.552 13.1532 87.7516 13.1054 88.0034 13.1315C88.2551 13.1532 88.2551 12.7756 88.0034 12.7539C87.7256 12.7278 87.4738 12.8016 87.2221 12.8797C86.9964 12.9535 87.0962 13.3051 87.3219 13.2313Z" fill="#FFC871"/>
<path d="M87.1961 12.0985C87.322 12.0204 87.4479 11.9466 87.5998 11.9466C87.8515 11.9466 87.8515 11.569 87.5998 11.569C87.3741 11.569 87.1744 11.6688 86.9965 11.7686C86.7925 11.8945 86.9965 12.2244 87.1961 12.0985Z" fill="#FFC871"/>
<path d="M87.8776 12.5238C88.0556 12.5499 88.2292 12.628 88.4332 12.628C88.533 12.628 88.6328 12.5238 88.6328 12.424C88.6328 12.3242 88.5591 12.2504 88.4332 12.2243C88.2552 12.1983 88.0816 12.1245 87.8776 12.1245C87.7778 12.1245 87.678 12.2243 87.678 12.3242C87.6997 12.45 87.7778 12.5021 87.8776 12.5238Z" fill="#FFC871"/>
<path d="M88.2552 11.1913C88.4809 11.2911 88.737 11.3432 88.9627 11.3432C89.2144 11.3172 89.2144 10.9396 88.9627 10.9656C88.7848 10.9656 88.6068 10.9396 88.4332 10.8615C88.2075 10.7356 88.0296 11.0915 88.2552 11.1913Z" fill="#FFC871"/>
<path d="M89.566 11.8728C89.8437 11.7209 90.1215 11.543 90.447 11.4692C90.6988 11.4171 90.5989 11.0395 90.3472 11.0916C89.9957 11.1654 89.6918 11.3433 89.388 11.5169C89.1623 11.6688 89.3663 11.9987 89.566 11.8728Z" fill="#FFC871"/>
<path d="M91.4323 11.5689C91.5842 11.621 91.7318 11.6948 91.8837 11.7469C91.9879 11.7946 92.0877 11.7686 92.1354 11.6688C92.1875 11.595 92.1615 11.4431 92.0617 11.417C91.8837 11.3432 91.7101 11.2391 91.5321 11.1913C91.3064 11.1393 91.2066 11.4952 91.4323 11.5689Z" fill="#FFC871"/>
<path d="M90.1476 12.5021C90.2734 12.5238 90.3993 12.6019 90.4991 12.6757C90.5729 12.7538 90.6988 12.7538 90.7769 12.6757C90.8507 12.6019 90.8507 12.4761 90.7769 12.3979C90.625 12.2721 90.4471 12.1722 90.2474 12.1245C90.0217 12.0724 89.9175 12.424 90.1476 12.5021Z" fill="#FFC871"/>
<path d="M90.5729 13.3572C90.7509 13.4049 90.9288 13.483 91.1285 13.483C91.2283 13.483 91.3325 13.3832 91.3325 13.279C91.3325 13.1792 91.2543 13.1054 91.1285 13.0794C90.9766 13.0794 90.8247 13.0056 90.6771 12.9535C90.4471 12.9014 90.3472 13.279 90.5729 13.3572Z" fill="#FFC871"/>
<path d="M91.684 12.8536C91.8098 12.8536 91.9097 12.8276 92.0355 12.8276C92.1354 12.8276 92.2395 12.7538 92.2395 12.6279C92.2395 12.5238 92.1614 12.424 92.0355 12.424C91.9097 12.424 91.8098 12.45 91.684 12.45C91.5841 12.45 91.48 12.5238 91.48 12.6496C91.506 12.7538 91.5841 12.8536 91.684 12.8536Z" fill="#FFC871"/>
<path d="M92.8689 12.5499C92.9947 12.5759 93.1206 12.602 93.2204 12.6757C93.3202 12.7278 93.4244 12.7018 93.4722 12.602C93.5242 12.5021 93.4982 12.398 93.3984 12.3502C93.2725 12.2721 93.1206 12.2244 92.9687 12.1983C92.8689 12.1723 92.769 12.2243 92.743 12.3242C92.7169 12.424 92.769 12.5238 92.8689 12.5499Z" fill="#FFC871"/>
<path d="M92.2135 13.8086C92.3394 13.8346 92.4392 13.8346 92.5651 13.8086C92.6649 13.8086 92.7691 13.7348 92.7691 13.6089C92.7691 13.5091 92.691 13.4049 92.5651 13.4049C92.513 13.4049 92.4653 13.4049 92.4132 13.4049C92.3871 13.4049 92.3654 13.4049 92.3394 13.4049C92.3134 13.4049 92.3134 13.4049 92.3394 13.4049H92.3134C92.2135 13.3832 92.1137 13.431 92.0877 13.5308C92.0356 13.6567 92.1137 13.7825 92.2135 13.8086Z" fill="#FFC871"/>
<path d="M94.0279 6.93357C94.1537 6.91186 94.2535 6.93357 94.3794 6.98565C94.6051 7.03773 94.7093 6.68183 94.4792 6.60804C94.3056 6.55596 94.1277 6.53426 93.928 6.55596C93.8239 6.582 93.7761 6.70787 93.8022 6.786C93.8022 6.91186 93.928 6.95961 94.0279 6.93357Z" fill="#FFC871"/>
<path d="M95.7899 7.0377C95.9939 7.01166 96.2196 6.98562 96.4192 6.95958C96.6753 6.93354 96.6753 6.55593 96.4192 6.58198C96.2196 6.60802 95.9939 6.63406 95.7899 6.6601C95.5381 6.6601 95.5381 7.05941 95.7899 7.0377Z" fill="#FFC871"/>
<path d="M96.7491 6.1046C96.6232 5.97873 96.5234 5.8789 96.4713 5.72699C96.3976 5.5013 96.02 5.60113 96.0937 5.82682C96.1675 6.05252 96.3194 6.23047 96.4713 6.38238C96.6493 6.55599 96.9271 6.28255 96.7491 6.1046Z" fill="#FFC871"/>
<path d="M50.126 10.3363L74.4966 0.765991L86.7449 30.128L74.6485 32.6453L57.2093 29.7243L50.126 10.3363Z" fill="#4D82A3"/>
<path d="M74.4966 0.765991L78.3247 3.56113L87.6997 25.8441L84.5009 29.0689L74.4966 0.765991Z" fill="#3B657A"/>
<path d="M78.98 43.5221L81.6015 50.0195L91.9618 18.9214L88.8107 14.0603L78.98 43.5221Z" fill="#70BBF2"/>
<path d="M104.839 22.5976L91.9618 18.9214L81.6016 50.0195L94.605 53.2183L104.839 22.5976Z" fill="#5D98A8"/>
<path d="M88.8108 14.0603L91.9618 18.9214L92.717 13.7087L88.8108 14.0603Z" fill="#5D98A8"/>
<path d="M104.362 13.5828L93.8499 10.3363L92.717 13.7087L103.351 17.233L104.362 13.5828Z" fill="#5D98A8"/>
<path d="M93.3724 25.8224C93.5503 25.5707 93.6979 25.4925 93.9757 25.5924L94.2274 25.6705C94.5312 25.7703 94.6311 26.0221 94.5312 26.3259L93.8498 28.3658C93.75 28.6392 93.5503 28.7174 93.3203 28.6392C93.0946 28.5655 92.9687 28.3658 93.0425 28.1141L93.4983 26.7295L92.5911 28.1358C92.4653 28.3137 92.3654 28.3398 92.1354 28.2616C91.9097 28.1879 91.862 28.1141 91.862 27.884L91.9618 26.2217L91.5061 27.6106C91.4062 27.884 91.2066 27.9622 90.9766 27.884C90.7248 27.8102 90.625 27.6106 90.6988 27.3589L91.3802 25.3189C91.48 25.0151 91.7101 24.8632 92.0095 24.9891L92.2613 25.0672C92.5391 25.167 92.6432 25.2929 92.6172 25.5924L92.5391 27.1288L93.3724 25.8224Z" fill="white"/>
<path d="M95.1345 26.5256C95.2387 26.2217 95.4644 26.0959 95.7421 26.174C96.0199 26.2738 96.1458 26.4995 96.0416 26.8033L95.4123 28.7651C95.3124 29.069 95.0867 29.1948 94.809 29.121C94.5312 29.0169 94.4053 28.7912 94.5052 28.4917L95.1345 26.5256Z" fill="white"/>
<path d="M98.0079 29.3207C98.2379 29.3945 98.3638 29.5724 98.2856 29.8242C98.2118 30.0498 98.0079 30.154 97.7822 30.0759L96.4454 29.6462C96.0938 29.5203 95.994 29.3207 96.0938 28.9431L96.6971 27.0811C96.8013 26.7773 97.0269 26.6514 97.3047 26.7295C97.5825 26.8294 97.7084 27.0551 97.6042 27.3589L97.053 29.0169L98.0079 29.3207Z" fill="white"/>
<path d="M101.033 28.1879C101.285 28.0621 101.385 28.01 101.537 28.0621C101.788 28.1359 101.866 28.4136 101.814 28.5655C101.762 28.6914 101.688 28.7435 101.537 28.8433L100.959 29.1688L101.311 30.4796C101.337 30.5794 101.337 30.6793 101.311 30.7834C101.237 31.0091 100.959 31.135 100.708 31.0569C100.556 31.0091 100.456 30.931 100.404 30.7313L100.1 29.5725L99.7483 29.7721L99.6225 30.1758C99.5226 30.4796 99.2926 30.6055 99.0192 30.5317C98.7414 30.4275 98.6155 30.2018 98.7154 29.9023L99.3447 27.9362C99.4445 27.6324 99.6746 27.5065 99.948 27.5846C100.226 27.6845 100.352 27.9102 100.252 28.214L100.074 28.7652L101.033 28.1879Z" fill="white"/>
<path d="M103.451 16.8294L92.7171 13.7087L91.9619 18.9214L104.84 22.5976L103.451 16.8294Z" fill="#70BBF2"/>
<path d="M100.503 33.0968C100.43 33.3485 100.152 33.5004 99.9002 33.4266L90.1693 30.4536C89.9175 30.3798 89.77 30.102 89.8437 29.8503C89.9175 29.5985 90.1953 29.4466 90.447 29.5204L100.178 32.4935C100.43 32.5673 100.582 32.845 100.503 33.0968Z" fill="white"/>
<path d="M96.2717 24.108C95.8941 24.5638 94.4792 25.5707 95.9158 25.9223C96.901 26.148 96.5495 24.6375 96.2934 24.2079L96.2717 24.108Z" fill="white"/>
<path d="M96.1936 43.9518C96.02 43.7478 96.1936 42.9188 95.6901 43.0447C95.638 42.9449 95.5903 42.8668 95.5642 42.8451C95.4644 42.6671 95.3385 42.5152 95.2127 42.3416C95.1128 42.2157 95.0347 42.0638 94.9609 41.9379C94.9609 41.8598 94.9609 41.786 94.9609 41.7339C94.8568 41.0308 94.1536 40.727 93.5243 40.6011C92.9167 40.4753 91.1024 39.8459 91.1545 39.694C91.2283 39.4683 91.2804 39.1905 91.3325 38.9128C91.5061 38.865 91.684 38.7869 91.862 38.661C92.1875 38.4093 92.5911 37.7582 92.3134 37.3806C92.0877 37.7799 91.684 37.9579 91.2283 37.9579C91.1285 37.6324 90.7769 37.3806 90.4253 37.3025C90.0955 37.2287 89.77 37.1506 89.4922 37.2765C89.1146 36.977 88.9887 36.6992 88.9887 36.2695C88.559 36.6471 88.3811 37.6324 88.8368 37.9579C88.4592 38.8911 87.9297 39.7982 88.6068 40.1975C89.0885 40.5013 89.3663 40.5273 89.3663 40.5273C89.3403 40.8268 88.6068 43.3485 88.6328 43.622C88.6589 43.8737 89.3403 44.1037 89.6441 44.0256C89.8958 43.9518 90.1215 42.3633 90.3212 42.4674C90.8767 42.7409 92.9427 43.2704 93.2205 43.5482C93.2943 43.622 92.8429 44.8329 92.8429 45.0326C93.0686 45.1845 93.6502 45.3885 93.9279 45.3624C94.1016 44.9067 94.6571 43.3963 94.8568 42.4674C95.0347 42.7409 95.2865 43.0447 95.4904 43.2227C95.4123 43.3225 95.4123 43.4744 95.5121 43.6003C95.638 43.7739 95.8681 43.7999 96.0417 43.8997C96.0937 43.9518 96.1675 43.9996 96.2196 44.0256C96.2196 43.9779 96.1936 43.9518 96.1936 43.9518Z" fill="white"/>
<path d="M102.622 33.5265L125 43.3963L124.345 44.4553L103.151 35.0109L102.622 33.5265Z" fill="#FFAA2E"/>
<path d="M22.5825 33.5265L0 42.9926L0.681423 44.4553L21.5972 35.3147L22.5825 33.5265Z" fill="#FFAA2E"/>
<path d="M55.2692 13.4831C55.2432 13.3312 55.2432 13.1532 55.2432 12.9796C55.2432 12.8016 55.2692 12.602 55.3169 12.424C55.369 12.2504 55.4168 12.0725 55.4949 11.8945C55.5687 11.7209 55.6685 11.569 55.7944 11.4431C55.8465 11.3911 55.8725 11.3694 55.9246 11.3173C55.9723 11.2912 56.0244 11.2391 56.0982 11.2391C56.1503 11.2174 56.2241 11.1914 56.2762 11.1914C56.3239 11.1914 56.376 11.1914 56.4281 11.1914C56.4758 11.1914 56.5279 11.2174 56.5539 11.2652C56.6017 11.2912 56.6277 11.3433 56.6538 11.4171C56.6798 11.4692 56.6798 11.5169 56.6798 11.569C56.6798 11.6211 56.6798 11.6688 56.6798 11.7209C56.6798 11.7687 56.6538 11.8207 56.6017 11.8468C56.5756 11.8728 56.5279 11.9206 56.4758 11.9206C56.4281 11.9466 56.402 11.9466 56.3499 11.9466C56.3022 11.9466 56.2762 11.9466 56.2241 11.9466C56.198 11.9466 56.1763 11.9466 56.1763 11.9466C56.1503 11.9466 56.1242 11.9466 56.1242 11.9466C56.0722 11.9987 55.9984 12.0725 55.9723 12.1723C55.9246 12.2504 55.8985 12.3503 55.8465 12.424C55.8204 12.5239 55.7944 12.602 55.7727 12.7018C55.7466 12.8016 55.7466 12.8798 55.7206 12.9796C55.7206 13.0794 55.6946 13.1532 55.7206 13.2313C55.7206 13.3051 55.7206 13.3832 55.7206 13.457C55.7206 13.5091 55.7206 13.5569 55.7466 13.635C55.7466 13.6827 55.7727 13.7609 55.7944 13.8086C55.8204 13.8346 55.8204 13.8867 55.8465 13.9084C55.8725 13.9345 55.8985 13.9605 55.9246 13.9865C55.9463 14.0126 55.9723 14.0126 56.0244 14.0126C56.0505 14.0126 56.0982 14.0126 56.1242 13.9865C56.198 13.9605 56.2501 13.9345 56.3022 13.8867C56.3499 13.8346 56.4281 13.8086 56.4758 13.7609C56.5279 13.7088 56.5756 13.6567 56.6277 13.6089C56.6798 13.5569 56.7275 13.4831 56.7536 13.431C56.7796 13.4049 56.8057 13.3572 56.8317 13.3312C56.8534 13.2791 56.8794 13.2574 56.9055 13.2313C56.9315 13.2053 56.9576 13.1793 56.9793 13.1532C57.0053 13.1315 57.0314 13.1315 57.0574 13.1055C57.0834 13.1055 57.1051 13.0794 57.1312 13.1055C57.1572 13.1055 57.1833 13.1315 57.2093 13.1532C57.2093 13.1793 57.231 13.2053 57.231 13.2313C57.231 13.3051 57.231 13.3832 57.2093 13.457C57.1833 13.5308 57.1572 13.6089 57.1051 13.6567C57.0834 13.7348 57.0314 13.7826 56.9793 13.8607C56.9315 13.9084 56.8794 13.9865 56.8317 14.0343C56.7275 14.1385 56.6277 14.2383 56.5279 14.3121C56.4281 14.3902 56.3239 14.4379 56.2501 14.464C56.2241 14.464 56.198 14.49 56.1503 14.49C56.0982 14.49 56.0722 14.49 56.0505 14.49C55.8725 14.49 55.7206 14.4379 55.6208 14.3641C55.5209 14.286 55.4168 14.1602 55.369 14.0126C55.343 13.9345 55.3169 13.8867 55.2909 13.8086C55.2909 13.635 55.2692 13.5569 55.2692 13.4831Z" fill="#70BBF2"/>
<path d="M57.7388 12.5499C57.7127 12.424 57.7127 12.2982 57.7388 12.1462C57.7388 11.9987 57.7605 11.8468 57.8126 11.6688C57.8646 11.4952 57.9124 11.3433 58.0122 11.1393C58.0903 10.9657 58.2162 10.7877 58.3421 10.6098C58.3681 10.5881 58.3942 10.562 58.4419 10.51C58.494 10.4622 58.5417 10.4362 58.6198 10.4101C58.6676 10.3103 58.7457 10.2322 58.8716 10.1844C59.0235 10.1324 59.1494 10.1063 59.2752 10.1584C59.4011 10.1844 59.527 10.2582 59.6268 10.358C59.6528 10.3841 59.7006 10.4362 59.7266 10.4622C59.7527 10.4839 59.8047 10.536 59.8308 10.562C59.8525 10.6098 59.8785 10.6358 59.9046 10.6879C59.9306 10.7357 59.9567 10.7877 59.9784 10.8615C60.0304 11.0134 60.0825 11.1653 60.0825 11.3433C60.0825 11.5169 60.0825 11.6949 60.0565 11.8728C60.0304 12.0464 59.9784 12.2244 59.9046 12.398C59.8308 12.5759 59.7527 12.7539 59.6268 12.9275C59.553 13.0273 59.4749 13.1315 59.349 13.2313C59.2492 13.3051 59.1233 13.3832 58.9714 13.457C58.8195 13.5091 58.6936 13.5308 58.5678 13.5308C58.4419 13.5308 58.3421 13.5091 58.2422 13.457C58.1381 13.4049 58.0643 13.3572 57.9905 13.2574C57.9124 13.1792 57.8646 13.0534 57.8126 12.9535C57.7865 12.8277 57.7605 12.7018 57.7388 12.5499ZM58.2162 12.424C58.2162 12.4761 58.2422 12.5238 58.2422 12.5499C58.2422 12.602 58.2683 12.628 58.2683 12.6758C58.29 12.7278 58.316 12.8016 58.3681 12.8537C58.3942 12.9015 58.4419 12.9275 58.494 12.9535C58.5417 12.9796 58.5938 13.0056 58.6676 13.0056C58.7197 13.0056 58.7935 12.9796 58.8716 12.9535C59.0235 12.9015 59.1233 12.8016 59.2231 12.7018C59.323 12.5759 59.4011 12.4501 59.4488 12.2982C59.5009 12.1462 59.553 11.9987 59.553 11.8468C59.5747 11.6949 59.5747 11.569 59.553 11.4431C59.553 11.3693 59.527 11.2912 59.527 11.2391C59.527 11.1914 59.5009 11.1133 59.4749 11.0655C59.4488 11.0134 59.4271 10.9657 59.4011 10.9396C59.3751 10.9136 59.323 10.8615 59.2752 10.8138C59.2492 10.7877 59.2231 10.7617 59.1754 10.7357C59.1494 10.714 59.1233 10.6879 59.0973 10.6619C59.0973 10.6879 59.0973 10.714 59.0712 10.7357C59.0712 10.7617 59.0495 10.7877 59.0235 10.8138C58.9974 10.8398 58.9454 10.8615 58.8976 10.9136C58.8455 10.9396 58.7718 10.9874 58.6676 11.0395C58.6198 11.0916 58.5678 11.1393 58.52 11.2174C58.4679 11.2912 58.4159 11.3693 58.3942 11.4431C58.3421 11.5169 58.316 11.6211 58.29 11.6949C58.2683 11.7947 58.2422 11.8728 58.2162 11.9466C58.1902 12.0204 58.1902 12.1245 58.1902 12.1983C58.2162 12.2721 58.2162 12.3502 58.2162 12.424Z" fill="#70BBF2"/>
<path d="M60.7856 11.391C60.7596 11.2651 60.7596 11.1393 60.7856 10.9874C60.7856 10.8398 60.8117 10.6879 60.8638 10.5099C60.9115 10.3363 60.9636 10.1584 61.0634 9.98042C61.1372 9.80681 61.2631 9.62886 61.3933 9.45524C61.415 9.4292 61.441 9.40316 61.4931 9.35108C61.5409 9.30334 61.5929 9.27729 61.6667 9.25125C61.7188 9.15143 61.7926 9.07764 61.9185 9.02556C62.0704 8.97347 62.1962 8.95177 62.3221 8.99952C62.448 9.02556 62.5738 9.09934 62.678 9.20351C62.6997 9.22521 62.7518 9.27729 62.7778 9.30333C62.8039 9.32938 62.8516 9.37712 62.8777 9.40316C62.9037 9.45524 62.9297 9.47695 62.9558 9.52903C62.9775 9.58111 63.0035 9.62885 63.0296 9.70698C63.0817 9.85455 63.1294 10.0065 63.1294 10.1844C63.1294 10.358 63.1294 10.536 63.1034 10.7139C63.0817 10.8875 63.0296 11.0655 62.9558 11.2391C62.8777 11.417 62.8039 11.595 62.678 11.7686C62.5999 11.8728 62.5261 11.9726 62.4002 12.0724C62.3004 12.1462 62.1745 12.2243 62.0226 12.2981C61.8707 12.3502 61.7448 12.3763 61.619 12.3763C61.4931 12.3763 61.3933 12.3502 61.2891 12.2981C61.1893 12.2504 61.1155 12.1983 61.0374 12.0985C60.9636 12.0203 60.9115 11.8945 60.8638 11.7947C60.8377 11.6688 60.8117 11.5429 60.7856 11.391ZM61.2631 11.2391C61.2631 11.2912 61.2891 11.3433 61.2891 11.3693C61.2891 11.4171 61.3152 11.4431 61.3152 11.4952C61.3412 11.5429 61.3672 11.621 61.415 11.6688C61.441 11.7209 61.4931 11.7469 61.5409 11.7686C61.5929 11.7947 61.645 11.8207 61.7188 11.8207C61.7709 11.8207 61.8447 11.7947 61.9185 11.7686C62.0704 11.7209 62.1745 11.621 62.2744 11.5169C62.3742 11.391 62.448 11.2651 62.5001 11.1132C62.5521 10.9657 62.5999 10.8138 62.5999 10.6618C62.6259 10.5099 62.6259 10.3841 62.5999 10.2582C62.5999 10.1844 62.5738 10.1063 62.5738 10.0585C62.5738 10.0065 62.5521 9.93267 62.5261 9.88059C62.5001 9.83285 62.474 9.78076 62.448 9.75472C62.4263 9.72868 62.3742 9.68094 62.3221 9.62886C62.3004 9.60281 62.2744 9.58111 62.2223 9.55507C62.1962 9.52903 62.1745 9.50299 62.1485 9.47695C62.1485 9.50299 62.1485 9.52903 62.1224 9.55507C62.1224 9.58111 62.0964 9.60281 62.0704 9.62886C62.0443 9.6549 61.9966 9.68094 61.9445 9.72868C61.8968 9.75472 61.8186 9.80681 61.7188 9.85455C61.6667 9.90663 61.619 9.95872 61.5669 10.0325C61.5192 10.1063 61.4671 10.1844 61.441 10.2582C61.3933 10.3363 61.3672 10.4361 61.3412 10.5099C61.3152 10.6098 61.2891 10.6879 61.2631 10.7617C61.2414 10.8398 61.2414 10.9396 61.2414 11.0134C61.2631 11.1132 61.2631 11.1914 61.2631 11.2391Z" fill="#70BBF2"/>
<path d="M64.8699 9.50298C64.8438 9.52903 64.7917 9.55507 64.744 9.58111C64.6919 9.60281 64.6659 9.65489 64.6181 9.70698C64.5921 9.75472 64.54 9.78076 64.5183 9.83285C64.4923 9.88059 64.4662 9.90663 64.4141 9.93267L64.54 11.0394C64.54 11.0915 64.54 11.1132 64.5183 11.1653C64.4923 11.1914 64.4662 11.2174 64.4141 11.2391C64.3143 11.2912 64.2405 11.2912 64.1884 11.2651C64.1364 11.2391 64.0886 11.1914 64.0626 11.1393C64.0626 11.1132 64.0365 11.0915 64.0365 11.0394C64.0365 11.0134 64.0365 10.9657 64.0105 10.9396V10.8875C64.0105 10.8398 63.9888 10.7617 63.9888 10.6879C63.9888 10.6098 63.9628 10.5099 63.9628 10.4101C63.9628 10.3103 63.9367 10.2322 63.9367 10.1323C63.9367 10.0325 63.9107 9.95871 63.9107 9.85455C63.9107 9.78076 63.8846 9.65489 63.8846 9.50298C63.8846 9.35107 63.8629 9.17746 63.8369 8.97347C63.8108 8.77382 63.8108 8.57416 63.7848 8.37017C63.7588 8.17052 63.7371 7.96653 63.7371 7.76687C63.711 7.56288 63.711 7.41531 63.685 7.2634C63.6589 7.11149 63.6589 7.01167 63.6589 6.93354C63.6589 6.91184 63.685 6.85976 63.711 6.83371C63.7371 6.80767 63.7848 6.78597 63.8369 6.75993C63.8629 6.73389 63.9107 6.73389 63.9367 6.73389C63.9888 6.73389 64.0105 6.73389 64.0365 6.73389C64.0626 6.73389 64.1147 6.75993 64.1364 6.78597C64.1624 6.80767 64.1884 6.83371 64.2145 6.85975C64.2145 6.8858 64.2405 6.91184 64.2405 6.95958C64.2405 7.33719 64.2622 7.71479 64.2883 8.09239C64.3143 8.49604 64.3404 8.87364 64.3881 9.27729C64.4141 9.25125 64.4402 9.20351 64.4923 9.12538C64.54 9.0516 64.5921 8.97347 64.6442 8.87364C64.6919 8.77382 64.744 8.70003 64.8178 8.59587C64.8699 8.49604 64.9176 8.42226 64.9437 8.34413C64.9697 8.29639 64.9957 8.2443 65.0218 8.19222C65.0435 8.14448 65.0695 8.09239 65.0956 8.04465C65.1216 7.99257 65.1477 7.94048 65.1477 7.91878C65.1694 7.8667 65.1694 7.84066 65.1694 7.81462C65.1954 7.76687 65.2214 7.71479 65.2475 7.66705C65.2735 7.61496 65.3213 7.58892 65.3473 7.56288C65.3994 7.54118 65.4254 7.54118 65.4732 7.54118C65.5253 7.54118 65.5513 7.54118 65.573 7.56288C65.599 7.56288 65.6251 7.58892 65.6511 7.61496C65.6772 7.64101 65.6989 7.66705 65.6989 7.68875C65.6989 7.71479 65.7249 7.74083 65.7249 7.79291C65.7249 7.81462 65.7249 7.8667 65.7249 7.89274C65.7249 7.91878 65.6989 7.96653 65.6989 7.99257C65.6989 8.01861 65.6772 8.04465 65.6772 8.06635C65.6511 8.14448 65.599 8.19222 65.5513 8.27035C65.4992 8.34413 65.4471 8.42226 65.4254 8.52208C65.3733 8.59587 65.3213 8.70003 65.2735 8.77382C65.2214 8.8476 65.1694 8.92573 65.1216 8.99951C65.2735 9.02555 65.3994 9.07764 65.5253 9.15142C65.6511 9.22521 65.7509 9.32937 65.8508 9.45524C65.9506 9.58111 66.0287 9.70698 66.1025 9.83285C66.1806 9.98041 66.2284 10.1063 66.3065 10.2582C66.3065 10.2582 66.3065 10.2842 66.3325 10.3103C66.3325 10.3363 66.3325 10.358 66.3542 10.3841C66.3542 10.4101 66.3542 10.4622 66.3542 10.4839C66.3542 10.5099 66.3542 10.562 66.3325 10.5881C66.3065 10.6098 66.3065 10.6358 66.2805 10.6618C66.2544 10.6879 66.2284 10.7139 66.1806 10.7139C66.1286 10.7356 66.1025 10.7356 66.0548 10.7356C66.0287 10.7356 65.9766 10.7139 65.9506 10.7139C65.9289 10.6879 65.9029 10.6618 65.8768 10.6358C65.8508 10.6098 65.8508 10.5881 65.8247 10.562C65.803 10.4622 65.7509 10.358 65.6989 10.2842C65.6511 10.1844 65.599 10.0846 65.5513 10.0065C65.4992 9.93267 65.4471 9.83284 65.3733 9.75472C65.3213 9.68093 65.2475 9.62885 65.1694 9.58111C65.1216 9.55507 65.0695 9.52903 65.0435 9.50298C64.9957 9.47694 64.9437 9.47694 64.8699 9.50298Z" fill="#70BBF2"/>
<path d="M66.7839 9.72871C66.7578 9.60284 66.7578 9.47697 66.7318 9.30336C66.7101 9.15145 66.7101 8.9735 66.684 8.79989C66.658 8.62194 66.658 8.44832 66.6319 8.24433C66.6059 8.06638 66.5842 7.86673 66.5842 7.71482C66.5842 7.71482 66.5842 7.68877 66.5842 7.66707C66.5842 7.64103 66.6059 7.61499 66.6059 7.58895C66.6319 7.56291 66.6319 7.54121 66.658 7.51516C66.684 7.48912 66.7101 7.46308 66.7578 7.46308C66.7839 7.46308 66.8359 7.43704 66.862 7.43704C66.8837 7.43704 66.9358 7.43704 66.9618 7.43704C66.9878 7.43704 67.0095 7.46308 67.0356 7.46308C67.0616 7.48912 67.0877 7.51516 67.0877 7.54121C67.0877 7.54121 67.0877 7.54121 67.0877 7.56291V7.58895L67.1137 7.91881C67.1615 8.29641 67.1875 8.64798 67.2396 9.02558C67.2613 9.40318 67.3134 9.75475 67.3655 10.1324C67.3655 10.1584 67.3655 10.1584 67.3655 10.1844C67.3655 10.2105 67.3655 10.2322 67.3655 10.2322C67.3655 10.2582 67.3394 10.2843 67.3394 10.2843C67.3134 10.3103 67.3134 10.3103 67.2873 10.3363C67.2396 10.358 67.1875 10.358 67.1354 10.358C67.0877 10.358 67.0616 10.3363 67.0095 10.3103C66.9878 10.2843 66.9358 10.2582 66.9097 10.2322C66.8837 10.2105 66.862 10.1844 66.862 10.1324V10.1063V10.0846L66.7839 9.72871ZM66.4062 6.55596C66.4062 6.50822 66.4062 6.45614 66.4062 6.40839C66.4062 6.33027 66.4323 6.28253 66.48 6.2044C66.5061 6.17836 66.5321 6.15666 66.5842 6.10457C66.6059 6.07853 66.658 6.05249 66.658 6.05249C66.684 6.05249 66.7101 6.05249 66.7318 6.05249C66.7578 6.05249 66.7839 6.07853 66.8099 6.07853C66.8359 6.07853 66.862 6.10457 66.8837 6.13062C66.9358 6.10457 66.9618 6.13062 66.9878 6.15666C67.0095 6.17836 67.0356 6.2044 67.0356 6.25648C67.0356 6.28253 67.0616 6.30423 67.0616 6.33027C67.0616 6.35631 67.0616 6.38235 67.0616 6.40839C67.0616 6.45614 67.0616 6.48218 67.0356 6.53426C67.0095 6.582 66.9878 6.60805 66.9618 6.66013C66.9358 6.70787 66.8837 6.73391 66.862 6.75996C66.8099 6.786 66.7839 6.8077 66.7578 6.83374C66.7101 6.85978 66.684 6.85978 66.658 6.85978C66.6319 6.85978 66.5842 6.83374 66.5321 6.8077C66.5061 6.786 66.48 6.786 66.48 6.75996C66.48 6.73391 66.4583 6.73391 66.4583 6.70787C66.4583 6.68183 66.4323 6.66013 66.4323 6.66013C66.4323 6.582 66.4062 6.55596 66.4062 6.55596Z" fill="#70BBF2"/>
<path d="M67.9948 8.62189C67.9688 8.54811 67.9688 8.46999 67.9688 8.3962C67.9948 8.32242 68.0425 8.27033 68.0946 8.21825C68.0946 8.1705 68.1207 8.09238 68.1207 8.0186C68.1467 7.94047 68.1684 7.84064 68.1944 7.71478C68.2205 7.61495 68.2726 7.48908 68.3203 7.38926C68.3724 7.26339 68.4245 7.16356 68.4983 7.05939C68.572 6.95957 68.6502 6.85974 68.75 6.78596C68.8498 6.70783 68.9497 6.63405 69.0755 6.58196C69.1797 6.53422 69.2795 6.50818 69.3793 6.50818C69.4792 6.50818 69.5573 6.50818 69.6311 6.53422C69.7092 6.55592 69.7569 6.60801 69.809 6.66009C69.8568 6.70783 69.9089 6.78596 69.9349 6.85974C69.9609 6.93353 69.987 6.98561 69.987 7.05939C70.0087 7.18526 69.987 7.28943 69.9349 7.38926C69.8828 7.48908 69.8351 7.58891 69.7569 7.68873C69.6832 7.7929 69.605 7.86669 69.5052 7.96651C69.4054 8.04464 69.3056 8.11842 69.2057 8.19655C69.1016 8.27033 69.0017 8.32241 68.9019 8.37016C68.8021 8.42224 68.724 8.46998 68.6502 8.49603C68.6502 8.54811 68.6502 8.59585 68.6502 8.64794C68.6502 8.70002 68.6762 8.74776 68.6979 8.79985C68.75 8.89967 68.8238 8.97346 68.928 8.9995C69.0278 9.02554 69.1797 8.9995 69.3316 8.95176C69.4054 8.92571 69.5052 8.87363 69.5833 8.82589C69.6571 8.7738 69.7309 8.72172 69.783 8.67398C69.8351 8.62189 69.9089 8.54811 69.9609 8.49603C70.0087 8.44828 70.0608 8.37016 70.0868 8.32241C70.1345 8.24429 70.1866 8.19655 70.2387 8.14446C70.2865 8.09238 70.3385 8.04464 70.3863 8.04464C70.4384 8.0186 70.4644 8.0186 70.4905 8.04464C70.5122 8.06634 70.5382 8.09238 70.5382 8.11842C70.5382 8.14446 70.5382 8.14446 70.5642 8.17051C70.5642 8.19655 70.5642 8.19655 70.5642 8.19655C70.5642 8.24429 70.5642 8.29637 70.5642 8.37016C70.5642 8.42224 70.5382 8.49603 70.5122 8.54811C70.3863 8.7738 70.2127 8.95175 70.0347 9.09932C69.8568 9.25123 69.6571 9.35106 69.4054 9.45523C69.3533 9.47693 69.3056 9.47693 69.2535 9.50297C69.1797 9.52901 69.1276 9.52901 69.0538 9.55505C68.9757 9.55505 68.9019 9.55505 68.8238 9.55505C68.75 9.55505 68.6762 9.52901 68.5981 9.50297C68.5243 9.47693 68.4722 9.42919 68.3984 9.35106C68.3464 9.27728 68.2943 9.20349 68.2465 9.09932C68.2205 9.02554 68.1944 8.89967 68.1684 8.79985C68.1467 8.79985 68.1207 8.79985 68.0946 8.79985C68.0425 8.70002 68.0208 8.67398 67.9948 8.62189ZM69.4575 7.16356V7.13752V7.11148C69.4314 7.05939 69.4054 7.03769 69.3533 7.01165C69.3056 7.01165 69.2535 7.01165 69.2057 7.03769C69.1276 7.05939 69.0538 7.11148 68.9757 7.18526C68.9019 7.26339 68.8498 7.33717 68.8238 7.437C68.776 7.54116 68.75 7.61495 68.724 7.71478C68.6979 7.8146 68.6762 7.89273 68.6762 7.96651C68.8021 7.91877 68.928 7.84064 69.0278 7.76686C69.1276 7.68873 69.2057 7.64099 69.2795 7.56287C69.3533 7.48908 69.4054 7.4153 69.4314 7.36321C69.4575 7.28943 69.4792 7.23735 69.4575 7.16356Z" fill="#70BBF2"/>
<path d="M71.1676 8.09243C71.1937 8.09243 71.1937 8.09243 71.2197 8.09243C71.2457 8.09243 71.2457 8.09243 71.2718 8.09243C71.2935 8.09243 71.2935 8.09243 71.3195 8.09243C71.3456 8.09243 71.3716 8.09244 71.3977 8.06639C71.4714 8.04469 71.5713 7.99261 71.6754 7.91882C71.7753 7.86674 71.8751 7.79295 71.9489 7.71483C72.027 7.64105 72.1008 7.58896 72.1529 7.51518C72.2006 7.43705 72.2266 7.38931 72.2266 7.33723C72.2266 7.31119 72.2266 7.28948 72.2006 7.28948C72.2006 7.26344 72.1529 7.2374 72.1268 7.21136C72.0747 7.18532 72.027 7.18532 71.9749 7.16362C71.9272 7.16362 71.849 7.13757 71.8013 7.13757C71.7232 7.13757 71.6754 7.13757 71.6233 7.13757H71.5235C71.4714 7.13757 71.4194 7.13757 71.3456 7.11153C71.2935 7.11153 71.2457 7.08549 71.1676 7.05945C71.1199 7.03775 71.0678 7.01171 71.02 6.98566C70.968 6.95962 70.9159 6.91188 70.8942 6.8598C70.8681 6.83375 70.8681 6.80771 70.8421 6.78601C70.8161 6.75997 70.8161 6.73393 70.79 6.70789C70.7683 6.66014 70.7683 6.60806 70.7683 6.53427C70.7683 6.45615 70.79 6.38236 70.8161 6.30424C70.8421 6.23045 70.8942 6.13063 70.9419 6.0525C70.994 5.97872 71.0417 5.90493 71.1199 5.82681C71.1676 5.77907 71.1937 5.70094 71.2457 5.6532C71.2935 5.60111 71.3195 5.54903 71.3716 5.50129C71.4194 5.44921 71.4714 5.42316 71.5235 5.37542C71.5713 5.34938 71.6233 5.2973 71.6971 5.2973C71.7492 5.27559 71.823 5.24955 71.8751 5.24955C71.9489 5.22351 72.0009 5.22351 72.0747 5.22351C72.1268 5.22351 72.2006 5.24955 72.2527 5.27559C72.3048 5.2973 72.3525 5.34938 72.3786 5.42316C72.3786 5.44921 72.4046 5.47525 72.4046 5.50129C72.4046 5.52733 72.4046 5.57507 72.4046 5.60111C72.4046 5.6532 72.4046 5.6749 72.3786 5.70094C72.3786 5.72698 72.3525 5.75302 72.3308 5.75302C72.2787 5.77907 72.2527 5.77907 72.2006 5.77907C72.1789 5.77907 72.1268 5.75302 72.1008 5.75302C72.0747 5.75302 72.053 5.72698 72.0009 5.72698C71.9749 5.72698 71.9272 5.72698 71.9011 5.72698C71.849 5.75302 71.8013 5.77907 71.7492 5.80077C71.6971 5.85285 71.6494 5.87889 71.5973 5.92664C71.5496 5.97872 71.4975 6.0308 71.4454 6.07855C71.3977 6.13063 71.3716 6.20441 71.3456 6.2565C71.3195 6.30424 71.2935 6.35632 71.2718 6.40841C71.2457 6.45615 71.2457 6.48219 71.2718 6.53427C71.2718 6.55598 71.2935 6.58202 71.3195 6.60806C71.3456 6.6341 71.3716 6.6341 71.4194 6.6341C71.4714 6.6341 71.5235 6.6341 71.5973 6.66014C71.6494 6.66014 71.7232 6.66014 71.7753 6.66014C71.823 6.66014 71.9011 6.66014 71.9489 6.66014C72.0009 6.66014 72.053 6.66014 72.1008 6.66014C72.1529 6.66014 72.2266 6.68184 72.2787 6.68184C72.3308 6.68184 72.3786 6.70789 72.4046 6.73393C72.4567 6.75997 72.4784 6.78601 72.5044 6.80771C72.5305 6.83375 72.5565 6.88584 72.5825 6.93358C72.5825 6.95962 72.6042 6.98566 72.6042 7.01171C72.6042 7.03775 72.6042 7.05945 72.6303 7.11153C72.6303 7.13757 72.6303 7.18532 72.6303 7.21136C72.6303 7.26344 72.6303 7.28948 72.6303 7.33723C72.6303 7.38931 72.6303 7.41535 72.6303 7.46309C72.6303 7.48914 72.6303 7.51518 72.6042 7.54122C72.5565 7.64105 72.5044 7.74087 72.4306 7.81466C72.3525 7.91882 72.2787 7.99261 72.1789 8.09243C72.0747 8.17056 72.0009 8.24434 71.9011 8.32247C71.8013 8.39625 71.6971 8.44834 71.6233 8.47004C71.5713 8.49608 71.5235 8.49608 71.4714 8.49608C71.4194 8.49608 71.3456 8.49608 71.2935 8.47004C71.2457 8.47004 71.1937 8.44834 71.1459 8.4223C71.0938 8.39625 71.0678 8.37021 71.0417 8.32247C71.0417 8.29643 71.0417 8.27039 71.0417 8.24434C71.0417 8.2183 71.0417 8.1966 71.0678 8.17056C71.0678 8.14452 71.0938 8.11848 71.0938 8.09243C71.1459 8.09243 71.1676 8.09243 71.1676 8.09243Z" fill="#70BBF2"/>
<path d="M70.868 22.9492C72.0269 23.8824 72.8819 25.2409 72.8342 26.6515C73.5894 25.7443 74.9262 25.4188 76.1588 25.2409C76.7882 25.1671 77.4436 25.089 78.0729 25.2669C78.8542 25.4666 79.5095 26.0221 79.7873 26.7252C80.1172 27.5586 79.8394 28.5395 79.2578 29.2469C78.6805 29.9761 77.8212 30.4796 76.9141 30.8311C74.9479 31.6384 72.6562 31.812 70.5382 31.3346C69.8351 31.1827 69.1536 30.931 68.5981 30.5056C67.7908 29.8502 67.4653 28.8693 67.1354 27.9622C66.7578 26.9032 66.3064 25.8962 65.7769 24.8893C65.2474 23.9084 63.9887 21.5386 65.8507 20.9874C66.6319 20.7617 67.6172 21.2391 68.2943 21.5169C69.2274 21.8945 70.1128 22.3459 70.868 22.9492Z" fill="#3B657A"/>
<path d="M68.4723 21.9943C70.2388 23.3008 72.5825 27.4327 69.8351 30.8051C67.0617 34.2296 63.0817 34.4075 60.0565 32.4197C56.9055 30.3537 55.395 25.2669 59.1971 21.6428C62.2483 18.7218 65.803 20.0021 68.4723 21.9943Z" fill="#F49A0B"/>
<path d="M61.467 21.9162C61.6667 21.8164 61.8967 21.6167 61.7188 21.4127C61.5191 21.2391 61.263 21.4388 61.0634 21.4908C60.8116 21.7426 60.9115 22.194 61.467 21.9162Z" fill="#FCBC08"/>
<path d="M61.0635 21.4909L61.3933 21.365C61.2414 21.391 61.1373 21.4127 61.0635 21.4909Z" fill="#FCBC08"/>
<path d="M60.4817 22.3979C60.5598 22.3458 60.6597 22.22 60.5598 22.1462C60.4817 22.0941 60.4079 22.1201 60.3558 22.1939C60.2821 22.246 60.23 22.2938 60.23 22.3719C60.23 22.5238 60.4079 22.4717 60.4817 22.3979Z" fill="#FCBC08"/>
<path d="M61.8447 22.2937C61.7709 22.272 61.7188 22.272 61.645 22.2937C61.5409 22.2937 61.4411 22.3458 61.415 22.4196C61.415 22.4457 61.415 22.4457 61.415 22.4717L61.3933 22.4977L61.415 22.4717C61.4411 22.5455 61.645 22.4977 61.7188 22.4717C61.8187 22.4717 62.0227 22.3719 61.8447 22.2937Z" fill="#FCBC08"/>
<path d="M62.3003 21.8424C62.1961 21.8685 62.0963 21.9683 62.1744 22.0421C62.2222 22.1462 62.4262 22.0942 62.4999 22.0421C62.7777 21.8945 62.4001 21.7686 62.3003 21.8424Z" fill="#FCBC08"/>
<path d="M62.652 21.2868C62.5999 21.2868 62.474 21.2391 62.4263 21.3128C62.4002 21.3389 62.4002 21.391 62.4263 21.4127C62.4263 21.4648 62.5261 21.5385 62.5738 21.5646C62.678 21.6167 63.1294 21.7686 63.1554 21.5906C63.2075 21.391 62.7778 21.2868 62.652 21.2868Z" fill="#FCBC08"/>
<path d="M62.1744 20.9874C62.2742 21.0351 62.5997 21.0134 62.6258 20.8876C62.6518 20.7617 62.4478 20.7096 62.348 20.7357C62.322 20.7357 62.2482 20.7834 62.1961 20.8094C62.1223 20.8615 62.0442 20.9093 62.1744 20.9874Z" fill="#FCBC08"/>
<path d="M60.5598 21.7686C60.7378 21.6428 60.5598 21.5647 60.434 21.5907C60.3558 21.5907 60.1562 21.6645 60.2083 21.7903C60.256 21.8945 60.4817 21.8164 60.5598 21.7686Z" fill="#FCBC08"/>
<path d="M59.8308 22.5716C59.9046 22.4978 60.0825 22.168 59.8525 22.168C59.8048 22.168 59.7787 22.194 59.7266 22.2201C59.6268 22.2938 59.527 22.4457 59.501 22.5456C59.4272 22.8494 59.7006 22.7235 59.8308 22.5716Z" fill="#FCBC08"/>
<path d="M61.0373 22.6714C60.9635 22.6497 60.8376 22.6497 60.7378 22.6975C60.5599 22.7496 60.3559 22.8754 60.3342 23.0013C60.256 23.3008 60.8116 23.0751 60.9114 23.049C61.1154 23.0013 61.289 22.7756 61.0373 22.6714Z" fill="#FCBC08"/>
<path d="M61.9444 22.9232C61.8706 22.9492 61.7708 23.0273 61.7708 23.1011C61.7708 23.253 62.0702 23.2009 62.1744 23.1749C62.4999 23.0013 62.0702 22.8494 61.9444 22.9232Z" fill="#FCBC08"/>
<path d="M64.0884 21.2131C64.0363 21.2131 63.9886 21.2131 63.9365 21.2651C64.0363 21.4387 64.466 21.4648 64.5659 21.2651C64.44 21.1132 64.2403 21.1132 64.0884 21.2131Z" fill="#FCBC08"/>
<path d="M63.2075 21.9943C63.3811 22.068 63.8846 22.0941 63.9367 21.8163C63.8369 21.7425 63.6329 21.6904 63.533 21.7686C63.3811 21.7903 63.2075 21.8424 63.2075 21.9943Z" fill="#FCBC08"/>
<path d="M63.559 20.6358C63.4591 20.5056 63.3072 20.5056 63.1814 20.5837C63.1293 20.6098 63.1032 20.6358 63.0815 20.6835C63.2291 20.8094 63.4808 20.7617 63.559 20.6358Z" fill="#FCBC08"/>
<path d="M64.9436 21.7166C64.566 21.7166 65.0434 22.194 65.2474 22.0421C65.447 21.9162 65.0955 21.6167 64.9436 21.7166Z" fill="#FCBC08"/>
<path d="M59.6267 23.253C59.5008 23.1532 59.427 23.253 59.3489 23.3528C59.0972 23.5048 58.7933 23.8824 59.0494 23.9822C59.3489 24.1081 59.6267 23.4527 59.6267 23.253Z" fill="#FCBC08"/>
<path d="M58.9453 22.7755C58.6198 22.8233 58.7717 23.3788 59.0712 23.0012C59.2752 22.7755 59.0712 22.6974 58.9453 22.7755Z" fill="#FCBC08"/>
<path d="M60.7855 23.7564C60.7378 23.7825 60.6857 23.8302 60.6597 23.9084C60.7855 23.9821 61.0894 24.0082 61.1892 23.8302C61.289 23.6045 60.8854 23.5525 60.7855 23.7564Z" fill="#FCBC08"/>
<path d="M63.6327 22.8754L63.6067 22.8493C63.6067 22.8754 63.585 22.9014 63.585 22.9231C63.5589 22.9492 63.5589 22.9752 63.585 23.0012C63.6587 23.1749 64.0103 23.1749 63.9365 22.9492C63.8844 22.7235 63.7108 22.7973 63.6327 22.8754Z" fill="#FCBC08"/>
<path d="M66.9359 22.398C66.7102 22.0941 66.2805 22.398 66.5583 22.4978C66.7102 22.6237 67.1355 22.6974 66.9359 22.398Z" fill="#FCBC08"/>
<path d="M59.2232 25.2408L59.2753 25.1671C59.1494 25.2408 59.0713 25.3928 59.0496 25.5447C59.1754 25.5707 59.553 25.319 59.553 25.1671C59.527 24.9153 59.349 25.0889 59.2232 25.2408Z" fill="#FCBC08"/>
<path d="M62.5999 24.4118C62.6519 24.4596 62.678 24.4596 62.7257 24.4379C62.8776 24.4596 63.1815 24.4118 63.0556 24.2599C62.9297 24.082 62.6519 24.286 62.5999 24.4118Z" fill="#FCBC08"/>
<path d="M57.9384 24.2339C57.9124 24.2859 57.9124 24.312 57.9124 24.3597C58.1163 24.4379 58.5938 24.3597 58.4158 24.0603C58.29 23.7825 58.0122 24.0082 57.9384 24.2339Z" fill="#FCBC08"/>
<path d="M58.6198 23.4266C58.5199 23.4049 58.4418 23.4526 58.4158 23.5785C58.5416 23.6306 58.6935 23.5785 58.7456 23.4526C58.6935 23.4266 58.6458 23.4266 58.6198 23.4266Z" fill="#FCBC08"/>
<path d="M59.6528 23.1011C58.6936 19.1471 54.5096 16.6297 54.0843 15.0933C53.6546 13.5568 53.4506 1.77295 53.4506 1.77295L46.3716 3.03163L39.2622 4.09066C39.2622 4.09066 42.8429 15.345 42.9167 16.9335C42.9948 18.5177 39.8438 22.246 40.1954 26.2999C40.5513 30.3537 43.8021 54.503 45.0087 55.7096C46.1459 56.8424 52.1442 56.5429 55.0652 56.0611C58.0903 55.5577 63.7587 53.9735 64.4922 52.5368C65.2214 50.9743 60.612 27.0551 59.6528 23.1011Z" fill="#D8E1EA"/>
<path d="M53.2769 15.2452C53.0512 14.4379 52.8473 10.7617 52.6953 7.51514L41.8099 9.30333C42.691 12.424 43.6762 15.9743 43.724 16.8077C43.8238 18.3658 41.1806 21.9162 41.5582 25.8702C41.9358 29.8242 45.1867 53.3919 46.2457 54.6028C47.2526 55.7356 52.3698 55.5577 54.8872 55.1323C57.487 54.7026 62.3221 53.266 62.9037 51.8815C63.533 50.3971 59.0973 27.029 58.2162 23.1532C57.3091 19.299 53.6806 16.7556 53.2769 15.2452Z" fill="#C65885"/>
<path d="M52.6953 7.54121C52.7213 7.74086 50.3255 8.29642 47.3307 8.79989C44.3316 9.27732 41.8619 9.52905 41.8359 9.30336C41.8099 9.09936 44.2057 8.54815 47.2005 8.04468C50.1996 7.56291 52.6692 7.33721 52.6953 7.54121Z" fill="#F46EAB"/>
<path d="M47.5824 52.7148C46.4453 52.4631 45.4904 51.4301 45.4123 50.2712C45.3385 49.1124 46.1198 47.9275 47.2265 47.6019C46.6753 47.0985 46.4453 46.2912 46.5972 45.562C46.7491 44.8328 47.2005 44.1775 47.8081 43.7261C48.7413 42.9926 50.1258 42.6931 51.1328 43.3224C51.7404 42.4153 52.8211 41.8337 53.9323 41.8858C55.013 41.9379 56.072 42.5933 56.5755 43.5742C56.9053 43.1445 57.4609 42.9448 58.0121 42.9188C59.375 42.8667 60.6597 43.9518 60.8637 45.2842C61.0633 46.621 60.1041 48.0316 58.7934 48.3572C59.1753 49.5421 58.6675 50.9526 57.6128 51.6558C56.5755 52.3372 55.0651 52.2591 54.1059 51.4561C54.006 51.3519 53.8802 51.2521 53.7283 51.2521C53.6024 51.2521 53.5026 51.3042 53.4027 51.3519C52.8993 51.608 52.3437 51.6818 51.7882 51.6297C51.1849 51.582 50.9071 51.3519 50.3776 51.7078C49.4965 52.3111 48.8411 52.9665 47.5824 52.7148Z" fill="#8C4B68"/>
<path d="M48.1119 53.266C47.2264 52.7885 46.6752 51.7556 46.7751 50.7486C46.8228 50.2712 47.0268 49.7677 47.4565 49.516C47.782 49.338 48.1856 49.338 48.5112 49.1905C49.1665 48.9127 49.4964 48.1314 50.1518 47.8016C50.7811 47.4761 51.5884 47.7017 52.1179 48.1575C52.6474 48.6349 52.9252 49.3163 53.0988 49.9934C53.177 50.2712 53.2247 50.549 53.1987 50.8267C53.0251 52.8146 49.6961 54.1471 48.1119 53.266Z" fill="#AF4383"/>
<path d="M56.8534 48.5611C56.198 48.6349 55.5427 49.0125 55.2692 49.6158C55.0131 50.1714 55.0652 50.8267 55.317 51.3519C55.5947 51.8814 56.0722 52.3111 56.6017 52.5629C57.4871 52.9925 58.5678 53.0403 59.4749 52.6627C60.3821 52.2851 61.1373 51.5038 61.4671 50.575C61.567 50.2451 61.6451 49.9196 61.567 49.5898C61.4932 49.2642 61.2631 48.9604 60.9376 48.8866C60.7119 48.8346 60.4819 48.8866 60.2562 48.9387C59.6529 49.0646 59.1234 49.2903 58.5678 49.0646C57.9906 48.8346 57.5609 48.457 56.8534 48.5611Z" fill="#AF4383"/>
<path d="M58.8196 44.2513C58.4159 44.4032 58.0644 44.707 57.8126 45.0586C57.5869 45.3624 57.5869 47.5282 58.1902 47.9536C58.7935 48.3833 59.5748 48.5352 60.2822 48.4093C60.8378 48.3312 61.3673 48.0794 61.6928 47.6541C62.0444 47.1506 62.0704 46.4952 61.9185 45.8919C61.8187 45.4362 61.593 44.9848 61.1894 44.8069C60.8118 44.6289 60.3821 44.6072 60.0045 44.4293C59.6008 44.2296 59.323 44.0777 58.8196 44.2513Z" fill="#AF4383"/>
<path d="M53.277 48.9865C54.2839 49.5681 55.6468 49.338 56.5018 48.5611C57.3568 47.7799 57.7127 46.5212 57.5608 45.3624C57.487 44.733 57.231 44.1037 56.7275 43.7C56.224 43.2964 55.4428 43.2226 54.9653 43.6479C54.6615 43.8997 54.5096 44.3033 54.2839 44.6288C53.6806 45.536 52.4436 45.3363 52.1658 46.4952C51.9662 47.45 52.4436 48.5091 53.277 48.9865Z" fill="#AF4383"/>
<path d="M47.96 27.7582C47.8819 27.7842 47.8081 27.7582 47.73 27.7582C47.6562 27.7365 47.5824 27.7105 47.5303 27.6584C47.4782 27.6106 47.4305 27.5586 47.3784 27.4587C47.3306 27.3806 47.3046 27.2808 47.2786 27.1809C47.2525 27.0811 47.2525 26.9813 47.2786 26.9032C47.3046 26.8294 47.3306 26.7513 47.3523 26.6775C47.4044 26.5994 47.4565 26.5516 47.5043 26.5256C47.5824 26.4735 47.6562 26.4518 47.73 26.4518C47.782 26.4518 47.8081 26.4518 47.8558 26.4518C47.9079 26.4518 47.9339 26.4518 47.96 26.4518C47.9817 26.4518 48.0077 26.4518 48.0598 26.4735C48.0859 26.4735 48.1119 26.4995 48.1596 26.4995L48.1857 26.7035H48.1596C48.1336 26.7035 48.1119 26.6775 48.0859 26.6514C48.0598 26.6254 48.0338 26.6254 47.9817 26.5994C47.96 26.5994 47.9079 26.5777 47.8558 26.5777C47.8081 26.5777 47.782 26.5777 47.73 26.5777C47.6822 26.5777 47.6301 26.5994 47.5824 26.6254C47.5303 26.6514 47.5043 26.7035 47.4782 26.7513C47.4565 26.8033 47.4305 26.8554 47.4305 26.9292C47.4305 27.003 47.4305 27.0811 47.4305 27.1549C47.4565 27.233 47.4565 27.3068 47.5043 27.3806C47.5303 27.4327 47.5824 27.4848 47.6041 27.5325C47.6562 27.5586 47.7083 27.5846 47.756 27.6106C47.8081 27.6323 47.8558 27.6323 47.9079 27.6106C47.96 27.6106 48.0077 27.5846 48.0338 27.5586C48.0859 27.5325 48.1119 27.5065 48.1336 27.4848C48.1596 27.4587 48.1857 27.4327 48.2117 27.4066C48.2378 27.3806 48.2378 27.3589 48.2595 27.3589H48.2855L48.3116 27.5586C48.2855 27.5846 48.2595 27.5846 48.2378 27.6106C48.2117 27.6323 48.1857 27.6323 48.1596 27.6584C48.1336 27.6844 48.0859 27.6844 48.0598 27.7105C48.0338 27.7582 48.0077 27.7582 47.96 27.7582Z" fill="#8C6B58"/>
<path d="M49.4443 27.5065L49.2707 27.5326L49.1666 26.9032L48.5893 27.0031L48.6891 27.6324L48.5112 27.6584L48.3115 26.3737L48.4895 26.3477L48.5633 26.8555L49.1449 26.7513L49.0667 26.2478L49.2447 26.2218L49.4443 27.5065Z" fill="#8C6B58"/>
<path d="M49.6962 27.4587L49.4966 26.174L50.3039 26.0481L50.3256 26.2L49.6962 26.2998L49.7483 26.6514L50.3256 26.5516L50.3516 26.7035L49.7744 26.8033L49.8481 27.2807L50.4775 27.1809L50.5035 27.3328L49.6962 27.4587Z" fill="#8C6B58"/>
<path d="M51.1587 26.2738C51.1587 26.2477 51.1327 26.2 51.1327 26.174C51.1067 26.1479 51.085 26.1219 51.0589 26.1219C51.0329 26.1219 51.0068 26.0958 50.9591 26.0958C50.9331 26.0958 50.881 26.0958 50.8332 26.0958L50.6553 26.1219L50.7291 26.5993L50.881 26.5776C50.9331 26.5776 50.9808 26.5516 51.0068 26.5516C51.0329 26.5255 51.085 26.4995 51.1067 26.4734C51.1327 26.4517 51.1327 26.4257 51.1587 26.3736C51.1587 26.3476 51.1587 26.3259 51.1587 26.2738Z" fill="#8C6B58"/>
<path d="M52.27 26.0959C52.27 26.0742 52.244 26.0221 52.244 25.996C52.2179 25.97 52.1919 25.9483 52.1659 25.9483C52.1442 25.9483 52.1181 25.9222 52.066 25.9222C52.04 25.9222 51.9922 25.9222 51.9402 25.9222L51.7622 25.9483L51.8403 26.4257L51.9922 26.3997C52.04 26.3997 52.0921 26.3736 52.1181 26.3736C52.1442 26.3476 52.1919 26.3259 52.2179 26.2998C52.244 26.2738 52.244 26.2478 52.27 26.2C52.27 26.174 52.27 26.1479 52.27 26.0959Z" fill="#8C6B58"/>
<path d="M59.6008 23.1011C58.6459 19.1471 54.4619 16.6297 54.0322 15.0933C53.6025 13.5568 53.4029 1.77295 53.4029 1.77295L49.5227 2.45437C49.5704 4.76774 49.7483 13.9084 50.1259 15.2452C50.5556 16.7816 54.7397 19.299 55.6945 23.253C56.6537 27.207 61.2631 51.1262 60.5079 52.6627C59.8048 54.0993 54.106 55.6835 51.0852 56.187C50.4558 56.2912 49.6746 56.391 48.8152 56.4648C50.9332 56.5169 53.3768 56.2912 54.9654 56.0394C57.9905 55.536 63.6589 53.9474 64.3881 52.5108C65.1954 50.9526 60.586 27.0551 59.6008 23.1011Z" fill="#47332F" fill-opacity="0.2471"/>
<path d="M38.7586 2.73218C38.7586 2.73218 38.2812 3.08374 38.4592 3.78687C38.9887 5.87888 44.3316 4.66794 46.7751 4.29034C53.2508 3.25735 54.006 2.37627 54.1059 1.59503C54.2578 0.640163 53.2248 0.388428 53.2248 0.388428L38.7586 2.73218Z" fill="#2E2A29"/>
<path d="M46.4974 0.440448C41.862 1.09149 38.7587 2.07673 38.6849 3.03159C38.6068 3.9908 42.8169 3.50902 47.0747 2.75382C50.6033 2.12448 54.8394 1.44739 53.6545 0.566316C52.4436 -0.31476 49.6485 -0.0152813 46.4974 0.440448Z" fill="#423D3C"/>
<path d="M39.388 2.9578C39.4661 3.08367 39.644 3.13142 39.8177 3.15746C41.4062 3.36145 43.0425 3.05763 44.631 2.73211C45.1128 2.62794 45.6163 2.52812 46.0677 2.37621C46.1675 2.35451 46.2717 2.30242 46.2934 2.22864C46.2934 2.17655 46.2717 2.12447 46.2196 2.07673C46.0199 1.89878 45.664 1.92482 45.3645 1.95086C44.7829 2.02464 44.2274 2.15051 43.6501 2.25034C43.2204 2.30242 42.7908 2.32846 42.3654 2.27638C42.1875 2.25034 41.9357 2.22864 41.7838 2.12447C41.6579 2.02464 41.1805 1.95086 40.1475 2.32846C39.8697 2.40225 39.2144 2.60624 39.388 2.9578Z" fill="white" fill-opacity="0.4784"/>
<path d="M42.3871 8.11839C43.2942 10.1583 43.9496 12.2981 44.3055 14.516C44.3533 14.8154 44.4054 15.0932 44.5312 15.371C44.6831 15.6227 44.9349 15.8484 45.2126 15.8484C45.5382 15.8484 45.842 15.5967 45.9679 15.2712C46.0677 14.9413 46.0416 14.5897 45.9679 14.2642C45.7682 13.3311 45.3125 12.476 44.9609 11.595C44.631 10.7356 44.4314 9.8328 44.3316 8.92569C44.2534 8.11839 44.1276 6.73385 43.1684 6.43003C42.0356 6.05242 42.0876 7.41527 42.3871 8.11839Z" fill="white" fill-opacity="0.4784"/>
<path d="M42.9689 22.9014C42.9168 23.2791 42.9168 23.6827 43.0947 24.0082C43.2727 24.3337 43.698 24.5855 44.0539 24.4379C44.3317 24.3337 44.4793 24.0343 44.5314 23.7565C44.5835 23.4787 44.5574 23.1749 44.6052 22.9014C44.6833 22.1462 45.1347 21.4648 45.5123 20.8094C45.6642 20.5317 45.8161 20.2061 45.6902 19.9284C45.5904 19.7027 45.3387 19.6028 45.0869 19.5768C43.6763 19.4987 43.1208 21.7686 42.9689 22.9014Z" fill="white" fill-opacity="0.4784"/>
<path d="M46.9749 52.259C47.0531 52.6366 47.1268 53.0403 47.4567 53.266C47.8821 53.5438 48.4897 53.2443 48.7154 52.7886C48.9411 52.3372 48.8933 51.7816 48.8152 51.2781C48.3378 48.0316 47.0531 44.9587 46.6494 41.6861C46.5496 40.8788 46.3977 38.6132 45.0869 38.713C44.0279 38.7868 45.0088 41.4821 45.1347 42.2156C45.7683 45.588 46.3716 48.9387 46.9749 52.259Z" fill="white" fill-opacity="0.4784"/>
<path d="M25.0001 27.0551C23.9411 27.1072 22.7822 27.2547 21.9489 26.6254C21.3716 26.2 21.0678 25.4448 21.1937 24.7634C21.2935 24.0603 21.823 23.4526 22.5045 23.2269C22.9819 23.075 23.5374 23.075 23.8673 22.6974C23.9932 22.5455 24.0409 22.3459 24.119 22.1679C24.5227 21.1393 25.3777 20.2322 26.4628 20.0021C27.5435 19.7764 28.8065 20.4318 29.0583 21.5169C29.1581 21.8945 29.106 22.3198 29.2319 22.6974C29.488 23.5308 30.369 23.9344 31.0505 24.4856C32.613 25.7183 33.2423 27.8103 33.6676 29.7721C33.8196 30.4535 33.9454 31.161 33.6937 31.812C33.3161 32.7712 32.1051 33.2487 31.0982 32.9969C30.0913 32.7452 29.284 31.9379 28.8326 31.0351C28.3508 30.102 28.3768 28.8172 27.7736 28.0099C27.0921 27.1549 25.9333 27.003 25.0001 27.0551Z" fill="#73BA65"/>
<path d="M45.5904 19.325C46.3977 18.7434 47.5565 18.6436 48.4376 19.0993C48.7154 19.2469 49.0192 19.4509 49.3187 19.4509C49.6746 19.4509 50.0001 19.2252 50.3517 19.0993C51.3846 18.7434 52.6216 19.7286 52.5218 20.8094C53.3508 20.7356 54.0583 21.5906 54.106 22.4196C54.1581 23.2529 53.7544 24.0602 53.277 24.7373C52.244 26.2738 50.7553 27.6106 48.9411 27.9361C48.2857 28.062 47.5305 28.088 47.0747 28.5654C46.7753 28.891 46.6494 29.3727 46.3456 29.6982C46.1459 29.9239 45.8421 30.0759 45.5643 30.2278C44.1277 30.9569 42.665 31.5863 41.1286 32.1158C39.9437 32.5194 38.5852 32.8449 37.5261 32.2156C36.4671 31.5863 36.0635 30.1757 36.3152 28.9951C36.5669 27.7842 37.3482 26.7772 38.2076 25.8701C39.4923 24.5116 41.0027 23.3528 42.6433 22.4456C43.2206 22.1201 44.0018 21.9161 44.3794 21.3649C44.8829 20.7095 44.757 19.9283 45.5904 19.325Z" fill="#568E4C"/>
<path d="M26.4366 26.3477C25.7291 26.0222 24.9261 25.6966 24.6961 24.9631C24.4183 24.0821 25.2256 23.1012 24.9478 22.2201C24.6484 21.339 23.4114 20.9874 23.2595 20.0543C23.1336 19.247 23.9669 18.5959 24.1449 17.7887C24.2187 17.4371 24.1666 17.0595 24.2187 16.7036C24.3966 15.8225 25.3254 15.2713 26.2109 15.2192C27.0919 15.1932 27.947 15.5708 28.7282 16.0265C29.3836 16.4041 30.3168 16.8077 30.8202 16.2522C31.0242 16.0265 31.098 15.7227 31.2499 15.4449C31.7274 14.49 32.9643 14.2383 34.0234 14.0864C34.5529 14.0126 35.1562 13.9605 35.5338 14.3381C35.6857 14.49 35.7595 14.668 35.8853 14.8156C36.0893 15.0456 36.3931 15.1932 36.6666 15.319C37.4478 15.6966 38.2551 16.0742 39.0364 16.4518C39.414 16.6298 39.7916 16.8295 40.0954 17.1072C40.7768 17.7887 40.8506 18.8694 40.6249 19.8025C40.3992 20.7357 39.9175 21.5907 39.6657 22.4979C39.618 22.6975 39.5659 22.9232 39.618 23.1272C39.6918 23.3268 39.8437 23.4788 40.0216 23.6307C40.4991 24.1081 40.9027 24.7114 41.0806 25.3668C41.4062 26.5256 41.1544 27.8104 40.4991 28.8173C39.8437 29.8242 38.8107 30.5534 37.6996 31.0091C35.7117 31.8121 33.394 31.7123 31.4496 30.7574C30.3949 30.2279 29.4357 29.4466 28.2768 29.1689C27.9991 29.0951 27.6952 29.069 27.4695 28.8694C27.0181 28.4397 27.6952 28.1142 27.6692 27.6845C27.6475 27.0812 26.914 26.5777 26.4366 26.3477Z" fill="#568E4C"/>
<path d="M33.1381 27.2547C33.1164 26.9292 33.1164 26.5994 33.2422 26.3259C33.52 25.7443 34.349 25.5186 34.553 24.8893C34.7526 24.286 34.3013 23.5525 34.6789 23.049C34.9306 22.6974 35.4818 22.6237 35.612 22.22C35.6598 22.0421 35.612 21.8685 35.6858 21.7165C35.8377 21.4127 36.2414 21.4127 36.4671 21.187C36.9705 20.6836 36.1632 19.7504 36.5408 19.1731C36.8447 18.7217 37.5738 18.8693 38.0296 18.5438C38.4332 18.266 38.507 17.7148 38.711 17.2591C39.2405 16.1783 40.9506 15.9266 41.7839 16.8077C41.9618 16.9813 42.0877 17.207 42.2874 17.3329C42.5912 17.5369 42.9948 17.4848 43.3724 17.4848C44.0018 17.4848 44.7092 17.7365 44.8829 18.3181C44.961 18.5959 44.8829 18.8954 44.961 19.1731C45.1606 19.9283 46.2717 20.1801 46.3716 20.9353C46.3976 21.161 46.3455 21.4127 46.3716 21.6645C46.4193 21.9683 46.6494 22.194 46.8013 22.4197C47.0747 22.8233 47.2266 23.3268 47.0747 23.7825C46.9749 24.082 46.7752 24.3337 46.5712 24.5855C46.2457 24.9891 45.9158 25.3928 45.6164 25.7704C45.2127 26.2478 44.783 26.7513 44.2058 26.9813C44.0018 27.0551 43.8021 27.1072 43.6502 27.233C43.4245 27.4066 43.3724 27.7365 43.3464 28.0099C43.1684 29.3467 42.895 30.9092 41.6841 31.5386C41.3542 31.7122 40.9766 31.7903 40.6771 32.016C40.4471 32.1896 40.2995 32.4414 40.1216 32.6931C39.4922 33.5264 38.5591 34.1818 37.5261 34.2079C34.7787 34.2816 33.316 29.3207 33.1381 27.2547Z" fill="#73BA65"/>
<path d="M21.823 29.9239C22.4306 28.9691 23.5374 28.3875 24.6485 28.1358C25.7553 27.8623 26.9141 27.8363 28.0513 27.6844C29.9654 27.4066 31.8317 26.7035 33.7718 26.5993C35.8378 26.4734 37.9037 27.0029 39.9176 27.5585C43.2466 28.4396 46.6494 29.3467 49.5964 31.1349C49.6963 31.2087 49.8221 31.2868 49.8742 31.3866C49.9263 31.5125 49.8742 31.6384 49.8482 31.7642C47.882 38.2616 45.9159 44.7547 43.9758 51.226C43.8239 51.7338 43.6503 52.259 43.1685 52.4891C42.843 52.6366 42.4914 52.6149 42.1355 52.5889C39.5661 52.3371 37.0227 51.9595 34.4749 51.4561C31.7536 50.9266 28.9584 50.1713 26.8881 48.3311C25.8334 47.4022 25.1259 46.5429 25.152 45.1323C25.178 43.3701 25.152 41.634 24.9263 39.8719C24.4185 36.4213 23.3855 33.0229 21.823 29.9239Z" fill="#B2C1DB"/>
<path d="M44.5052 34.9848C44.4054 34.2817 44.2274 33.4744 44.7309 32.9709C44.8828 32.819 45.1128 32.7192 45.2127 32.5456C45.4644 32.168 45.2127 31.6124 45.4644 31.2088C45.6163 30.957 45.9158 30.8312 46.0937 30.6055C46.3715 30.2539 46.2934 29.7721 46.0937 29.3468C44.1276 28.5916 42.0616 28.036 40.0217 27.4848C38.0035 26.9553 35.9635 26.3997 33.8715 26.5256C31.9314 26.6515 30.0651 27.3329 28.151 27.6107C27.8993 27.6324 27.6693 27.6845 27.4175 27.7105C27.27 28.0621 26.6363 28.1358 26.5885 28.5395C26.5625 28.9171 27.118 29.069 27.2439 29.4206C27.4436 29.9761 26.5104 30.4275 26.6146 31.0091C26.6363 31.1827 26.7621 31.3346 26.888 31.4605C27.4175 32.0161 28.0252 32.5195 28.6805 32.8971C29.184 33.1749 29.8134 33.5786 29.7135 34.1558C29.6354 34.6072 29.0842 34.885 29.0582 35.3407C29.0321 35.5664 29.158 35.7661 29.2578 35.9701C29.5356 36.4735 29.8134 37.003 30.0911 37.5065C30.243 37.7799 30.395 38.0838 30.4948 38.3876C30.5425 38.5872 30.5686 38.8129 30.5686 39.0169C30.5946 39.7461 30.4687 40.4753 30.5425 41.2044C30.6467 41.9379 31.0243 42.6931 31.7057 42.9188C32.0052 43.0187 32.3568 43.0187 32.6606 43.0968C33.2899 43.2964 33.7196 43.8737 33.9453 44.4813C34.197 45.0846 34.2752 45.74 34.5269 46.3694C35.0564 47.7799 36.5191 48.9605 38.0035 48.7088C38.3333 48.661 38.6328 48.5352 38.9106 48.3312C39.2404 48.0794 39.4401 47.7539 39.6658 47.4023C40.2474 46.4692 40.8246 45.536 41.4323 44.6072C41.8359 43.9518 42.2396 43.2964 42.4653 42.5933C42.5651 42.2374 42.6432 41.8598 42.8429 41.5343C43.1207 41.1046 43.572 40.8529 43.8498 40.4275C44.0538 40.0977 44.1276 39.7201 44.1797 39.3685C44.4792 37.9579 44.7092 36.4475 44.5052 34.9848Z" fill="#8DA87B"/>
<path d="M37.4261 25.97C36.9704 25.7964 36.4929 25.6706 36.1631 25.319C36.4669 25.2409 36.7447 25.4188 37.0225 25.5447C37.6778 25.8702 38.407 26.0221 39.1362 26.0482C39.2143 26.0482 39.2881 26.0482 39.3402 25.9961C39.3879 25.97 39.3879 25.9223 39.414 25.8702C39.6179 25.2409 39.1145 24.6115 38.6067 24.1862C38.1032 23.7565 37.4999 23.3529 37.3219 22.6975C37.8254 22.7756 38.1032 23.2791 38.407 23.6827C38.7369 24.1081 39.1362 24.4857 39.6179 24.7374C39.7916 24.8372 39.9956 24.9154 40.1692 24.8893C40.5251 24.8372 40.7247 24.3858 40.6509 24.0343C40.5728 23.6827 40.3471 23.3789 40.1214 23.1011C39.414 22.22 38.7846 21.161 38.9105 20.0542C39.3662 20.8876 39.8436 21.7166 40.2994 22.5239C40.3992 22.6714 40.5251 22.8754 40.6987 22.8233C40.9027 22.7756 40.9027 22.4718 40.8245 22.2721C40.5728 21.391 40.3992 20.5056 40.2994 19.6028C40.2733 19.3511 40.2473 19.0473 40.4252 18.8476C40.4469 18.8216 40.473 18.7956 40.499 18.7956C40.5988 18.7695 40.6509 18.9214 40.6509 19.0213C40.6987 19.9284 40.8028 20.8355 40.9504 21.7426C40.9765 21.9423 41.0285 22.1463 41.2065 22.22C41.3801 22.3199 41.6318 22.194 41.7317 21.9943C41.8358 21.8164 41.8358 21.5907 41.8619 21.391C41.9096 20.5056 42.1874 19.5508 42.8949 19.0213C43.0685 18.8954 43.3462 18.8216 43.4461 19.0213C43.4982 19.1211 43.4721 19.2252 43.4244 19.299C43.2942 19.6029 43.1206 19.8546 42.9686 20.128C42.4912 20.9353 42.2395 21.8424 41.9877 22.7496C41.9357 22.9492 41.8836 23.2009 42.0615 23.3008C42.1613 23.3789 42.3133 23.3529 42.4391 23.3268C43.1466 23.1749 43.9018 23.0013 44.5572 23.3008C44.3054 23.6827 43.7499 23.6567 43.2725 23.6306C42.7169 23.6306 42.1613 23.7305 41.6579 23.9561C41.506 24.0343 41.3324 24.1601 41.3541 24.3338C41.3801 24.4857 41.532 24.5638 41.6579 24.6115C42.3393 24.8633 43.1466 24.7895 43.6761 25.2669C42.6171 25.7183 41.3324 25.293 40.2994 25.7964C40.2212 25.8442 40.1214 25.8963 40.0693 25.97C39.9956 26.1219 40.1214 26.3259 40.2733 26.3997C40.4252 26.4735 40.6249 26.4735 40.7768 26.4735C41.1284 26.5256 41.4582 26.6775 41.71 26.9032C41.3063 27.1289 40.8245 27.207 40.3992 27.1289C40.0216 27.0551 39.644 26.8772 39.262 26.9813C39.0884 27.0291 38.9105 27.1549 38.7108 27.1549C38.3549 27.1549 38.3549 26.7035 38.1813 26.4996C38.0554 26.2478 37.7256 26.0959 37.4261 25.97Z" fill="#85D375"/>
<path d="M29.1579 26.7035C29.006 26.7035 28.8064 26.6254 28.8324 26.4735C28.8541 26.3997 28.9583 26.3736 29.0321 26.3476C30.039 26.0959 31.0503 25.7443 32.0312 25.3406C32.2091 25.2669 32.4088 25.1931 32.5347 25.0412C32.6605 24.8893 32.7604 24.6896 32.6866 24.4856C32.5607 24.134 32.0572 24.1601 31.7057 24.2599C30.1171 24.7113 28.5286 25.4926 26.888 25.2669C26.7404 25.2408 26.5624 25.2148 26.4366 25.1149C26.3107 25.0151 26.2369 24.8372 26.2847 24.6896C26.3367 24.5637 26.4887 24.4856 26.6362 24.4379C27.092 24.286 27.5954 24.3337 28.0729 24.3337C29.2578 24.3337 30.4426 24.108 31.5538 23.6827C31.7274 23.6045 31.9314 23.5307 32.0051 23.3528C32.105 23.1531 32.0312 22.8754 31.8315 22.7235C31.6536 22.5715 31.4019 22.5238 31.1501 22.4978C30.013 22.4196 28.9322 23.075 27.7994 22.9491C27.5954 22.9231 27.3697 22.8493 27.3176 22.6714C28.7803 22.22 30.4947 22.4978 31.8055 21.6905C31.3758 21.0134 30.4427 20.8875 29.6614 20.8354C28.8541 20.7616 27.947 20.6097 27.5433 19.9023C27.4696 19.7764 27.4435 19.6028 27.5433 19.5247C27.5954 19.4986 27.6475 19.4769 27.7213 19.4769C28.2769 19.4248 28.8064 19.6505 29.3098 19.8545C29.8871 20.1063 30.4687 20.332 31.0503 20.5837C31.3498 20.7096 31.7274 20.8354 31.9791 20.6358C32.2091 20.4578 32.2091 20.128 32.1571 19.8545C32.0052 18.7695 31.4279 17.6627 31.8532 16.6557C31.8793 16.5776 31.9314 16.4778 32.0312 16.4518C32.1571 16.404 32.2829 16.5038 32.335 16.6037C32.3828 16.7035 32.3828 16.8554 32.3828 16.9813C32.3828 17.9665 32.4869 18.9214 32.6866 19.8762C32.7126 19.9804 32.7387 20.0802 32.8124 20.154C32.9123 20.2799 33.1163 20.2799 33.2682 20.2061C33.4157 20.128 33.5199 20.0021 33.6458 19.9023C34.2491 19.299 34.9565 18.7955 35.7378 18.4439C35.8854 18.3658 36.0894 18.3441 36.1631 18.47C36.263 18.5959 36.1371 18.7695 36.0112 18.8953C35.0564 19.8024 33.9973 20.6097 32.8385 21.2391C32.6345 21.3649 32.3828 21.5169 32.4088 21.7686C32.4348 21.9422 32.6128 22.0681 32.7864 22.0681C32.9644 22.0941 33.138 22.0203 33.3159 21.9682C33.8975 21.7686 34.4487 21.5386 35.0303 21.3389C34.9305 21.7165 34.5529 21.9682 34.1753 22.1462C33.8194 22.3198 33.4157 22.4717 33.164 22.7972C32.9383 23.1271 32.9904 23.6827 33.368 23.8085C33.5937 23.8823 33.8194 23.7825 34.0494 23.7304C34.401 23.6827 34.1753 24.0082 34.0711 24.134C33.9713 24.2599 33.8194 24.2339 33.7456 24.4118C33.6935 24.5637 33.8194 24.6896 33.7933 24.8372C33.7196 25.2929 33.2682 25.2148 32.8862 25.3927C31.6536 25.8702 30.5946 26.6514 29.1579 26.7035Z" fill="#73BA65"/>
<path d="M24.3447 32.0161C24.6225 32.4675 25.1997 32.6715 25.7292 32.6454C26.2588 32.6194 26.7622 32.3937 27.244 32.168C29.5357 31.135 31.9575 30.1541 34.4749 30.2279C35.7596 30.2539 37.0443 30.5794 38.3334 30.4796C38.685 30.4536 39.1147 30.3017 39.1364 29.9501C39.1624 29.6246 38.7848 29.4206 38.481 29.3468C36.4671 28.8173 34.323 29.6463 32.2831 29.2947C31.402 29.1428 30.5209 28.7652 29.6355 28.9432C29.0062 29.069 28.4766 29.4466 27.9471 29.7721C27.3959 30.076 26.7405 30.3277 26.1329 30.1541C25.5035 29.9501 25.152 29.7244 24.6963 30.2539C24.2709 30.6793 24.0192 31.4605 24.3447 32.0161Z" fill="white" fill-opacity="0.4667"/>
<path d="M85.4601 28.9431C86.5409 30.8571 86.9966 35.5663 83.0903 37.5542C79.158 39.5464 75.4558 38.0837 73.5113 35.0108C71.4975 31.838 72.1789 26.5993 77.1442 24.8372C81.1242 23.4266 83.8195 26.0481 85.4601 28.9431Z" fill="#FF8C03"/>
<path d="M79.0842 26.0221C79.3099 26.0221 79.6137 25.9223 79.5095 25.6705C79.4097 25.4188 79.0842 25.4926 78.8802 25.4666C78.5546 25.5707 78.4765 26.0482 79.0842 26.0221Z" fill="#FCBC08"/>
<path d="M78.9062 25.4666L79.2318 25.4926C79.1059 25.4188 79.0061 25.4188 78.9062 25.4666Z" fill="#FCBC08"/>
<path d="M77.9992 26.0482C78.099 26.0221 78.2509 25.97 78.1772 25.8442C78.1251 25.7704 78.0513 25.7704 77.9732 25.7964C77.8994 25.7964 77.8213 25.8442 77.7996 25.8963C77.7214 26.0742 77.8994 26.0742 77.9992 26.0482Z" fill="#FCBC08"/>
<path d="M79.2838 26.5256C79.2317 26.4735 79.184 26.4518 79.1059 26.4518C79.0061 26.4257 78.9062 26.3997 78.8541 26.4735C78.8324 26.4995 78.8324 26.4995 78.8324 26.5256H78.8064H78.8324C78.8324 26.6254 79.0321 26.6514 79.1059 26.6514C79.184 26.6514 79.4097 26.6514 79.2838 26.5256Z" fill="#FCBC08"/>
<path d="M79.8872 26.2739C79.7874 26.2478 79.6615 26.2999 79.6876 26.3997C79.6876 26.4996 79.9132 26.5516 79.9914 26.5516C80.3169 26.5256 80.0131 26.2478 79.8872 26.2739Z" fill="#FCBC08"/>
<path d="M80.4428 25.9223C80.395 25.8962 80.2909 25.8225 80.2431 25.8442C80.191 25.8702 80.191 25.8962 80.191 25.9483C80.165 25.9961 80.2431 26.0959 80.2692 26.1219C80.3169 26.2001 80.6945 26.5256 80.7726 26.3997C80.8985 26.2478 80.5426 25.97 80.4428 25.9223Z" fill="#FCBC08"/>
<path d="M80.1171 25.4449C80.1909 25.5187 80.4947 25.6445 80.5685 25.5447C80.6466 25.4449 80.4687 25.319 80.3949 25.293C80.3688 25.293 80.2907 25.293 80.2169 25.319C80.1431 25.319 80.039 25.3407 80.1171 25.4449Z" fill="#FCBC08"/>
<path d="M78.3245 25.4926C78.5285 25.4448 78.4027 25.319 78.2768 25.2929C78.1987 25.2408 77.999 25.2669 77.999 25.3667C77.999 25.4926 78.2508 25.5186 78.3245 25.4926Z" fill="#FCBC08"/>
<path d="M77.3177 25.9484C77.4175 25.8963 77.7213 25.6966 77.5217 25.5924C77.4957 25.5707 77.4436 25.5707 77.3958 25.5924C77.27 25.6185 77.1181 25.7183 77.066 25.7964C76.8663 26.0221 77.1658 26.0221 77.3177 25.9484Z" fill="#FCBC08"/>
<path d="M78.4027 26.5256C78.3506 26.4735 78.2247 26.4257 78.1249 26.4257C77.9469 26.3997 77.7213 26.4518 77.6475 26.5516C77.4435 26.8033 78.0251 26.8294 78.1509 26.8294C78.3246 26.8554 78.6023 26.7252 78.4027 26.5256Z" fill="#FCBC08"/>
<path d="M79.1321 27.1288C79.0322 27.1288 78.9324 27.1549 78.9064 27.207C78.8543 27.3589 79.1581 27.4327 79.2319 27.4327C79.6138 27.4327 79.2579 27.1071 79.1321 27.1288Z" fill="#FCBC08"/>
<path d="M81.7796 26.4258C81.7275 26.3997 81.6798 26.3997 81.6277 26.4258C81.6277 26.6254 82.0313 26.8294 82.1832 26.6775C82.1312 26.4996 81.9575 26.3997 81.7796 26.4258Z" fill="#FCBC08"/>
<path d="M80.6467 26.8033C80.7943 26.9292 81.224 27.1809 81.3759 26.9553C81.3021 26.8554 81.1502 26.7296 81.0243 26.7513C80.8985 26.6775 80.7205 26.6514 80.6467 26.8033Z" fill="#FCBC08"/>
<path d="M81.5539 25.6966C81.5278 25.5447 81.3499 25.4926 81.224 25.5186C81.1763 25.5186 81.1242 25.5447 81.0981 25.5707C81.1763 25.7183 81.402 25.7704 81.5539 25.6966Z" fill="#FCBC08"/>
<path d="M82.3567 27.2548C82.0051 27.1072 82.2568 27.7365 82.5086 27.6845C82.7386 27.6324 82.5346 27.2331 82.3567 27.2548Z" fill="#FCBC08"/>
<path d="M76.8662 26.4995C76.7881 26.3736 76.6622 26.3997 76.5624 26.4735C76.2586 26.5256 75.8332 26.7512 76.0068 26.9292C76.2586 27.1549 76.7881 26.6775 76.8662 26.4995Z" fill="#FCBC08"/>
<path d="M76.4628 25.7704C76.1329 25.6966 76.0591 26.2478 76.4888 26.0482C76.7405 25.8963 76.5886 25.7444 76.4628 25.7704Z" fill="#FCBC08"/>
<path d="M77.7214 27.4066C77.6476 27.4066 77.5955 27.4326 77.5435 27.4847C77.6216 27.6106 77.8994 27.7365 78.0513 27.6323C78.2509 27.4847 77.8994 27.2807 77.7214 27.4066Z" fill="#FCBC08"/>
<path d="M80.6683 27.7582V27.7365C80.6466 27.7582 80.6466 27.7582 80.6206 27.7842C80.5945 27.8102 80.5685 27.8363 80.5945 27.8623C80.5945 28.0359 80.9244 28.2139 80.9461 27.9621C80.9721 27.7365 80.7942 27.7365 80.6683 27.7582Z" fill="#FCBC08"/>
<path d="M83.8715 28.6914C83.7934 28.3398 83.2682 28.4136 83.4939 28.6176C83.5937 28.7912 83.9453 29.043 83.8715 28.6914Z" fill="#FCBC08"/>
<path d="M75.7074 28.1358L75.7812 28.0881C75.6293 28.0881 75.5034 28.2139 75.4036 28.3398C75.5034 28.4136 75.9591 28.3398 76.0069 28.1879C76.085 27.9362 75.855 28.036 75.7074 28.1358Z" fill="#FCBC08"/>
<path d="M79.106 28.7434C79.132 28.8172 79.158 28.8172 79.2101 28.8172C79.336 28.891 79.6138 28.9691 79.5877 28.7651C79.5356 28.5915 79.2101 28.6393 79.106 28.7434Z" fill="#FCBC08"/>
<path d="M74.9263 26.7035C74.9002 26.7296 74.8742 26.7773 74.8481 26.8034C75.0001 26.9292 75.4558 27.0811 75.4558 26.7252C75.4297 26.4258 75.0738 26.5256 74.9263 26.7035Z" fill="#FCBC08"/>
<path d="M75.8551 26.2217C75.7553 26.174 75.6815 26.174 75.6294 26.2738C75.7292 26.3736 75.8811 26.3997 75.981 26.2999C75.9593 26.2738 75.9072 26.2478 75.8551 26.2217Z" fill="#FCBC08"/>
<path d="M73.6893 32.6193C72.8343 32.7973 75.0262 36.5994 77.1659 37.4544C79.9393 38.5612 82.6347 37.4023 83.7197 36.4996C84.8048 35.5924 86.0895 32.1897 85.2822 32.1159C85.0045 32.0898 84.8048 33.3485 83.0123 34.5855C81.4498 35.6662 79.2579 36.4475 77.2701 35.4405C74.5704 34.056 74.2449 32.4935 73.6893 32.6193Z" fill="#F28106" fill-opacity="0.698"/>
<path d="M84.3013 27.5846C84.3013 27.5846 83.8455 27.4066 83.8195 27.9101C83.7935 28.4136 84.553 29.5985 84.9046 29.6245C85.2561 29.6462 85.4341 29.2947 85.1303 28.7652C84.8525 28.2139 84.6789 27.8103 84.3013 27.5846Z" fill="#7C6A13"/>
<path d="M84.6006 28.3876C84.6006 28.3876 86.3931 27.6584 86.9704 27.359C87.5259 27.0291 89.1622 25.5925 89.1622 25.5925C89.1622 25.5925 89.3402 25.4926 89.4921 25.5708C89.6179 25.6706 89.4921 25.8702 89.4921 25.8702C89.4921 25.8702 87.8515 27.2331 87.3002 27.5586C86.1631 28.214 84.7525 28.8694 84.7525 28.8694L84.6006 28.3876Z" fill="#7C6A13"/>
<path d="M87.8038 26.9552C87.7257 26.9032 85.8854 25.7964 85.8854 25.7964L85.7595 25.8702L86.6927 26.4735L87.6258 27.0811L87.8038 26.9552Z" fill="#7C6A13"/>
<path d="M82.5609 27.3588C80.2432 26.9552 77.8213 24.0819 77.8213 24.0819C77.8213 24.0819 80.9723 22.5976 82.8126 23.2269C84.6529 23.8302 87.0965 26.6253 87.0965 26.6253C87.0965 26.6253 84.9046 27.7582 82.5609 27.3588Z" fill="#7C6A13"/>
<path d="M84.2752 27.7104C84.2752 27.7104 84.0235 27.8624 84.0495 28.1141C84.0712 28.4657 84.5269 29.069 84.5269 29.069L84.7526 28.7174C84.7526 28.7174 84.6528 28.5394 84.6788 28.4396C84.7005 28.3398 84.7526 28.2877 84.7526 28.2877L84.2752 27.7104Z" fill="#937B18"/>
<path d="M86.3932 26.3476C86.3932 26.3476 84.6006 25.3189 82.8645 24.8154C81.1241 24.312 78.3246 24.0081 78.3029 24.134C78.2769 24.2599 81.3758 24.4378 82.7387 24.9413C84.0972 25.4448 86.3932 26.5776 86.3932 26.5776V26.3476Z" fill="#937B18"/>
<path d="M85.5338 26.0481C85.5338 26.0481 85.3819 26.2477 84.9045 26.5255C84.4271 26.8033 83.8455 27.1549 83.8976 27.1809C83.9713 27.207 84.6267 26.8293 84.9566 26.6254C85.2821 26.4257 85.7118 26.1479 85.7118 26.1479L85.5338 26.0481Z" fill="#937B18"/>
<path d="M83.9193 25.3407C83.9193 25.3407 83.7934 25.6445 83.0903 26.2218C82.4089 26.8034 82.1571 26.9553 82.2309 27.003C82.309 27.0551 82.8385 26.6254 83.1901 26.2999C83.5417 25.97 84.1493 25.4188 84.1493 25.4188L83.9193 25.3407Z" fill="#937B18"/>
<path d="M82.257 24.7634C82.257 24.7634 82.1832 25.0152 81.7796 25.4666C81.3759 25.9483 81.0504 26.148 81.0982 26.2218C81.1502 26.2999 81.5756 25.8702 81.8534 25.5186C82.1312 25.1671 82.5088 24.7634 82.5088 24.7634H82.257Z" fill="#937B18"/>
<path d="M80.3948 24.4119C80.3948 24.4119 80.3167 24.5855 80.091 24.8372C79.8653 25.0672 79.5876 25.2929 79.6353 25.2929C79.6874 25.319 79.9652 25.141 80.1431 24.9153C80.3167 24.6896 80.5424 24.4379 80.5424 24.4379L80.3948 24.4119Z" fill="#937B18"/>
<path d="M85.7596 26.0959C85.7596 26.0959 85.6858 25.6445 85.408 25.2408C85.1823 24.8893 84.8308 24.5377 84.7526 24.5637C84.7006 24.5854 85.1303 24.9413 85.2561 25.141C85.382 25.3406 85.6337 26.0481 85.6337 26.0481L85.7596 26.0959Z" fill="#937B18"/>
<path d="M84.0972 25.2929C84.0972 25.2929 84.1493 24.8372 83.8975 24.4118C83.6458 23.9821 83.0903 23.4787 82.9644 23.4787C82.8385 23.4526 83.6675 24.108 83.7717 24.4118C83.8975 24.7113 83.8455 25.2408 83.8455 25.2408L84.0972 25.2929Z" fill="#937B18"/>
<path d="M82.5346 24.7894C82.5346 24.7894 82.2829 24.108 82.0572 23.8563C81.8315 23.6045 81.3758 23.253 81.2499 23.2269C81.1501 23.2009 81.8532 23.7044 82.0051 23.9821C82.157 24.2339 82.335 24.7634 82.335 24.7634L82.5346 24.7894Z" fill="#937B18"/>
<path d="M80.3949 24.3598C80.3949 24.3598 80.4166 24.2079 80.1171 23.9084C79.8133 23.6046 79.6353 23.4267 79.7134 23.4527C79.7612 23.4788 79.9652 23.6307 80.1431 23.8086C80.3428 23.9822 80.5685 24.3859 80.5685 24.3859L80.3949 24.3598Z" fill="#937B18"/>
<path d="M71.5711 28.1618C73.3375 29.4726 75.6813 33.6002 72.9339 36.9769C70.1605 40.4014 66.1804 40.575 63.1553 38.5872C60.0042 36.5212 58.4938 31.4344 62.3002 27.8103C65.3471 24.9153 68.8757 26.2 71.5711 28.1618Z" fill="#E57A05"/>
<path d="M64.566 28.1141C64.77 28.0099 64.9957 27.8103 64.8177 27.6106C64.6181 27.4326 64.3663 27.6323 64.1623 27.6844C63.8846 27.9361 64.0104 28.3875 64.566 28.1141Z" fill="#FCBC08"/>
<path d="M64.1624 27.6845L64.4922 27.5586C64.3403 27.5586 64.2405 27.6107 64.1624 27.6845Z" fill="#FCBC08"/>
<path d="M63.585 28.5915C63.6588 28.5394 63.7586 28.4136 63.6588 28.3398C63.585 28.2877 63.5069 28.3138 63.4591 28.3875C63.381 28.4396 63.3333 28.4917 63.3333 28.5655C63.3333 28.7174 63.5069 28.6653 63.585 28.5915Z" fill="#FCBC08"/>
<path d="M64.9436 28.4917C64.8698 28.4657 64.8177 28.4657 64.7439 28.4917C64.6441 28.4917 64.5399 28.5394 64.5182 28.6176C64.5182 28.6393 64.5182 28.6393 64.5182 28.6653L64.4922 28.6914L64.5182 28.6653C64.5399 28.7434 64.7439 28.6914 64.8177 28.6653C64.8958 28.6393 65.0955 28.5655 64.9436 28.4917Z" fill="#FCBC08"/>
<path d="M65.3732 28.01C65.2734 28.036 65.1692 28.1359 65.2473 28.214C65.2994 28.3138 65.499 28.2617 65.5728 28.214C65.8767 28.0881 65.499 27.9622 65.3732 28.01Z" fill="#FCBC08"/>
<path d="M65.7508 27.4848C65.6988 27.4848 65.5729 27.4327 65.5251 27.5065C65.4991 27.5325 65.4991 27.5846 65.5251 27.6106C65.5251 27.6584 65.625 27.7365 65.6771 27.7582C65.7769 27.8103 66.2283 27.9622 66.2543 27.7842C66.2804 27.5846 65.8507 27.4848 65.7508 27.4848Z" fill="#FCBC08"/>
<path d="M65.2474 27.1549C65.3472 27.207 65.6771 27.1809 65.6988 27.055C65.7249 26.9292 65.5252 26.8771 65.4254 26.9031C65.3993 26.9031 65.3212 26.9552 65.2735 26.9813C65.2214 27.029 65.1476 27.1071 65.2474 27.1549Z" fill="#FCBC08"/>
<path d="M63.6329 27.9622C63.8109 27.8364 63.6329 27.7583 63.5071 27.7843C63.4333 27.7843 63.2293 27.8624 63.2814 27.9883C63.3551 28.0621 63.5852 28.01 63.6329 27.9622Z" fill="#FCBC08"/>
<path d="M62.9298 28.7652C63.0036 28.6914 63.1815 28.3658 62.9558 28.3658C62.9037 28.3658 62.8777 28.3875 62.8256 28.4136C62.7258 28.4917 62.626 28.6393 62.5999 28.7434C62.5261 29.0429 62.8039 28.891 62.9298 28.7652Z" fill="#FCBC08"/>
<path d="M64.1362 28.8694C64.0624 28.8433 63.9365 28.8433 63.8367 28.8911C63.6587 28.9431 63.4591 29.069 63.433 29.1949C63.3549 29.4987 63.9105 29.2687 64.0103 29.247C64.1882 29.1949 64.3879 28.9692 64.1362 28.8694Z" fill="#FCBC08"/>
<path d="M65.0435 29.121C64.9697 29.1427 64.8699 29.2208 64.8699 29.2946C64.8699 29.4465 65.1694 29.3944 65.2735 29.3727C65.599 29.1948 65.1694 29.0429 65.0435 29.121Z" fill="#FCBC08"/>
<path d="M67.1614 27.4067C67.1137 27.4067 67.0616 27.4067 67.0095 27.4587C67.1137 27.6324 67.539 27.6584 67.6432 27.4587C67.513 27.3068 67.3394 27.3068 67.1614 27.4067Z" fill="#FCBC08"/>
<path d="M66.3064 28.1879C66.48 28.2617 66.9878 28.2877 67.0356 28.0099C66.9357 27.9361 66.7317 27.884 66.6319 27.9622C66.4583 27.9622 66.3064 28.036 66.3064 28.1879Z" fill="#FCBC08"/>
<path d="M66.6581 26.8294C66.5583 26.7035 66.4064 26.7035 66.2805 26.7773C66.2284 26.8033 66.2067 26.8294 66.1807 26.8771C66.3326 27.003 66.5843 26.9552 66.6581 26.8294Z" fill="#FCBC08"/>
<path d="M68.0425 27.9102C67.6649 27.9102 68.1467 28.3876 68.3463 28.24C68.5243 28.1142 68.1944 27.8104 68.0425 27.9102Z" fill="#FCBC08"/>
<path d="M62.7256 29.4466C62.5998 29.3468 62.526 29.4466 62.4479 29.5464C62.1961 29.6984 61.8966 30.076 62.1484 30.1758C62.4262 30.3017 62.7256 29.6463 62.7256 29.4466Z" fill="#FCBC08"/>
<path d="M62.0441 28.9691C61.7186 29.0169 61.8705 29.5724 62.1744 29.1948C62.374 28.9691 62.1744 28.891 62.0441 28.9691Z" fill="#FCBC08"/>
<path d="M63.8629 29.9501C63.8108 29.9761 63.7588 30.0282 63.7371 30.102C63.8629 30.1758 64.1624 30.2018 64.2622 30.0282C64.3881 29.7982 63.9628 29.7504 63.8629 29.9501Z" fill="#FCBC08"/>
<path d="M66.71 29.069L66.684 29.0429C66.684 29.069 66.658 29.095 66.658 29.121C66.6319 29.1427 66.6319 29.1688 66.658 29.1948C66.7317 29.3728 67.0876 29.3728 67.0095 29.1427C66.9878 28.917 66.8099 28.9691 66.71 29.069Z" fill="#FCBC08"/>
<path d="M70.0086 28.5916C69.7829 28.2877 69.3532 28.5916 69.631 28.6914C69.809 28.8173 70.2386 28.891 70.0086 28.5916Z" fill="#FCBC08"/>
<path d="M62.322 31.4344L62.3741 31.3607C62.2483 31.4344 62.1745 31.5864 62.1484 31.7383C62.2743 31.7643 62.6519 31.5126 62.6519 31.3607C62.5998 31.1089 62.4262 31.2869 62.322 31.4344Z" fill="#FCBC08"/>
<path d="M65.6987 30.6054C65.7508 30.6575 65.7769 30.6575 65.8246 30.6314C65.9765 30.6575 66.2803 30.6054 66.1545 30.4535C66.0286 30.2799 65.7508 30.4795 65.6987 30.6054Z" fill="#FCBC08"/>
<path d="M61.0373 30.4275C61.0112 30.4795 61.0112 30.5056 61.0112 30.5533C61.2152 30.6315 61.6927 30.5533 61.519 30.2539C61.3932 29.9761 61.0894 30.2018 61.0373 30.4275Z" fill="#FCBC08"/>
<path d="M61.6928 29.6245C61.593 29.5985 61.5192 29.6462 61.4932 29.7721C61.619 29.8242 61.7709 29.7721 61.8187 29.6462C61.7926 29.6245 61.7449 29.6245 61.6928 29.6245Z" fill="#FCBC08"/>
<path d="M22.5825 33.5265H102.648V77.2157H22.5825V33.5265Z" fill="#FF9800"/>
<path d="M22.5825 49.3164H102.622V57.7756L22.5825 51.352V49.3164Z" fill="#FF7A00"/>
<path d="M22.5825 33.5265L13.9888 49.3164H108.064L102.622 33.5265H22.5825Z" fill="#FFAA2E"/>
<path d="M71.7232 11.9466C71.2197 11.8945 70.6902 12.1246 70.3647 12.5022C70.0348 12.9015 69.909 13.457 69.9611 13.9865C70.0088 14.5161 70.2128 15.0195 70.4385 15.4709C70.6642 15.9006 70.6381 16.556 70.942 16.9553C71.1199 17.1853 71.4715 17.3112 71.8491 17.3329C73.0861 16.2522 74.6486 15.6966 75.5817 14.3381C75.7553 14.0864 75.8812 13.7826 75.8552 13.4831C75.8335 12.9015 75.0262 11.9206 73.7414 11.8945C73.06 11.8945 74.1928 12.2244 73.5374 12.424C73.1338 12.5499 73.0861 12.6497 72.7302 12.4501C72.3526 12.2504 72.1789 11.9987 71.7232 11.9466Z" fill="#C99E59"/>
<path d="M70.8941 11.4952C70.3863 11.4431 69.8567 11.6688 69.5312 12.0464C69.2057 12.4501 69.0755 13.0056 69.1276 13.5308C69.1797 14.0603 69.3793 14.5638 69.605 15.0195C69.9609 15.7227 70.4123 16.378 70.9418 16.9553C72.1788 15.8746 73.8411 15.2452 74.7482 13.8867C74.9262 13.635 75.0738 13.3312 75.026 13.0273C75 12.7279 74.8003 12.4761 74.5703 12.2982C74.0408 11.8728 73.3376 11.7947 72.7083 11.9727C72.3047 12.0985 72.2526 12.1983 71.901 11.9987C71.5495 11.7947 71.3455 11.5169 70.8941 11.4952Z" fill="#E8B964"/>
<path d="M64.3142 14.7417C63.9626 14.5898 63.533 14.6419 63.2291 14.8415C62.9036 15.0455 62.6779 15.4231 62.5998 15.8007C62.526 16.1783 62.5521 16.5776 62.5998 16.9813C62.6519 17.3328 62.5 17.7886 62.6258 18.1401C62.6996 18.3441 62.9297 18.5177 63.1814 18.6176C64.2882 18.1141 65.5512 18.0924 66.506 17.3328C66.684 17.1853 66.8359 17.0073 66.9097 16.7816C67.0356 16.3519 66.684 15.4969 65.7508 15.1714C65.2734 15.0195 65.9765 15.4969 65.4991 15.4969C65.1953 15.4969 65.1215 15.549 64.9175 15.319C64.6918 15.0933 64.618 14.8676 64.3142 14.7417Z" fill="#C99E59"/>
<path d="M63.8367 14.2122C63.4808 14.0602 63.0555 14.1123 62.7516 14.312C62.4261 14.516 62.1961 14.8936 62.1223 15.2712C62.0442 15.6488 62.0702 16.0524 62.1223 16.4517C62.2221 17.0333 62.4001 17.5889 62.6258 18.1401C63.7369 17.6366 65.0694 17.5628 66.0286 16.8076C66.2065 16.6557 66.3801 16.4778 66.4322 16.2521C66.4799 16.0264 66.4062 15.8224 66.2803 15.6227C66.0025 15.1931 65.5251 14.9674 65.0216 14.9674C64.7178 14.9674 64.644 15.0194 64.44 14.7937C64.2143 14.5637 64.1362 14.3641 63.8367 14.2122Z" fill="#E8B964"/>
<path d="M73.1119 21.161C72.96 21.5169 72.9817 21.9423 73.1857 22.2461C73.3854 22.5716 73.763 22.7973 74.1449 22.8754C74.5225 22.9753 74.9262 22.9492 75.3255 22.8754C75.6814 22.8233 76.1327 22.9753 76.4887 22.8754C76.6883 22.7973 76.8663 22.5716 76.9661 22.3199C76.4887 21.1871 76.4626 19.9544 75.7074 18.9735C75.5555 18.7956 75.3775 18.6176 75.1518 18.5699C74.7222 18.444 73.8411 18.7956 73.5373 19.7027C73.3637 20.1801 73.8932 19.477 73.8671 19.9544C73.8671 20.2539 73.9149 20.332 73.6892 20.5317C73.4635 20.7834 73.2378 20.8615 73.1119 21.161Z" fill="#C99E59"/>
<path d="M72.5825 21.6427C72.4306 21.9943 72.4566 22.4196 72.6562 22.7235C72.8559 23.049 73.2378 23.279 73.6154 23.3528C73.9931 23.4526 74.3967 23.4266 74.8003 23.3528C75.3776 23.279 75.9332 23.1011 76.4887 22.8754C76.0069 21.7426 75.9592 20.4318 75.1996 19.4509C75.0521 19.2729 74.8741 19.0993 74.6484 19.0472C74.4444 18.9952 74.2187 19.0733 74.0191 19.1992C73.5894 19.4769 73.3637 19.9544 73.3377 20.4578C73.3377 20.7617 73.3854 20.8354 73.1597 21.0351C72.9601 21.2391 72.73 21.3129 72.5825 21.6427Z" fill="#E8B964"/>
</svg>
