<svg width="450" height="450" viewBox="0 0 450 450" fill="none" xmlns="http://www.w3.org/2000/svg">
<path d="M450 344.16H0V344.385H450V344.16Z" fill="#EBEBEB"/>
<path d="M404.91 358.641H326.7V358.866H404.91V358.641Z" fill="#EBEBEB"/>
<path d="M329.715 350.289H321.894V350.514H329.715V350.289Z" fill="#EBEBEB"/>
<path d="M269.379 357.75H252.108V357.975H269.379V357.75Z" fill="#EBEBEB"/>
<path d="M66.654 351.801H47.214V352.026H66.654V351.801Z" fill="#EBEBEB"/>
<path d="M99.8011 351.801H74.6641V352.026H99.8011V351.801Z" fill="#EBEBEB"/>
<path d="M229.059 355.491H186.903V355.716H229.059V355.491Z" fill="#EBEBEB"/>
<path d="M213.3 304.02H39.519C38.1577 304.018 36.8528 303.475 35.891 302.512C34.9292 301.548 34.389 300.242 34.389 298.881V54.594C34.4009 53.2404 34.9463 51.9462 35.9068 50.9924C36.8674 50.0386 38.1654 49.5023 39.519 49.5H213.3C214.663 49.5 215.97 50.0414 216.934 51.0052C217.898 51.9689 218.439 53.2761 218.439 54.639V298.881C218.439 300.244 217.898 301.551 216.934 302.515C215.97 303.479 214.663 304.02 213.3 304.02V304.02ZM39.519 49.68C38.2173 49.6824 36.9697 50.2012 36.0501 51.1225C35.1305 52.0437 34.614 53.2923 34.614 54.594V298.881C34.614 300.183 35.1305 301.431 36.0501 302.353C36.9697 303.274 38.2173 303.793 39.519 303.795H213.3C214.603 303.793 215.851 303.274 216.772 302.353C217.693 301.432 218.212 300.184 218.214 298.881V54.594C218.212 53.2915 217.693 52.0429 216.772 51.1219C215.851 50.2009 214.603 49.6824 213.3 49.68H39.519Z" fill="#EBEBEB"/>
<path d="M407.979 304.02H234.189C232.827 304.018 231.521 303.475 230.558 302.512C229.595 301.549 229.052 300.243 229.05 298.881V54.594C229.064 53.2396 229.612 51.9454 230.574 50.9918C231.536 50.0383 232.835 49.5023 234.189 49.5H407.979C409.331 49.5047 410.627 50.042 411.585 50.9956C412.544 51.9491 413.088 53.242 413.1 54.594V298.881C413.1 300.241 412.561 301.545 411.601 302.508C410.641 303.472 409.339 304.015 407.979 304.02V304.02ZM234.189 49.68C232.886 49.6824 231.638 50.2009 230.717 51.1219C229.796 52.0429 229.277 53.2915 229.275 54.594V298.881C229.277 300.184 229.796 301.432 230.717 302.353C231.638 303.274 232.886 303.793 234.189 303.795H407.979C409.282 303.793 410.53 303.274 411.451 302.353C412.372 301.432 412.891 300.184 412.893 298.881V54.594C412.891 53.2915 412.372 52.0429 411.451 51.1219C410.53 50.2009 409.282 49.6824 407.979 49.68H234.189Z" fill="#EBEBEB"/>
<path d="M187.776 65.646H48.609V264.663H187.776V65.646Z" fill="#E6E6E6"/>
<path d="M191.952 65.646H50.562V264.663H191.952V65.646Z" fill="#F0F0F0"/>
<path d="M187.776 264.663H48.609V268.308H187.776V264.663Z" fill="#E6E6E6"/>
<path d="M194.175 264.663H52.785V268.308H194.175V264.663Z" fill="#F0F0F0"/>
<path d="M186.111 258.813V71.4868L56.412 71.4868V258.813H186.111Z" fill="#FAFAFA"/>
<path d="M116.334 258.813L147.798 71.4961H163.998L132.534 258.813H116.334Z" fill="white"/>
<path d="M75.4561 258.813L106.92 71.4961H123.12L91.6561 258.813H75.4561Z" fill="white"/>
<path d="M59.112 164.79C58.869 164.79 58.671 164.493 58.671 164.124V75.51C58.671 75.141 58.869 74.853 59.112 74.853C59.355 74.853 59.562 75.141 59.562 75.51V164.124C59.562 164.493 59.4 164.79 59.112 164.79Z" fill="#F0F0F0"/>
<path d="M136.017 258.813L167.481 71.4961H173.79L142.326 258.813H136.017Z" fill="white"/>
<path d="M186.111 258.822V71.4961H185.373V258.822H186.111Z" fill="#E6E6E6"/>
<path opacity="0.5" d="M193.338 88.3892H54.171L53.631 73.7642H192.798L193.338 88.3892Z" fill="#E0E0E0"/>
<path opacity="0.5" d="M193.338 112.419H54.171L53.631 97.8032H192.798L193.338 112.419Z" fill="#E0E0E0"/>
<path opacity="0.5" d="M193.338 136.458H54.171L53.631 121.842H192.798L193.338 136.458Z" fill="#E0E0E0"/>
<path opacity="0.5" d="M193.338 160.497H54.171L53.631 145.872H192.798L193.338 160.497Z" fill="#E0E0E0"/>
<path opacity="0.5" d="M193.338 184.527H54.171L53.631 169.911H192.798L193.338 184.527Z" fill="#E0E0E0"/>
<path opacity="0.5" d="M193.338 208.566H54.171L53.631 193.95H192.798L193.338 208.566Z" fill="#E0E0E0"/>
<path opacity="0.5" d="M193.338 100.404H54.171L53.631 85.7788H192.798L193.338 100.404Z" fill="#E0E0E0"/>
<path opacity="0.5" d="M193.338 124.443H54.171L53.631 109.818H192.798L193.338 124.443Z" fill="#E0E0E0"/>
<path opacity="0.5" d="M193.338 148.473H54.171L53.631 133.857H192.798L193.338 148.473Z" fill="#E0E0E0"/>
<path opacity="0.5" d="M193.338 172.512H54.171L53.631 157.896H192.798L193.338 172.512Z" fill="#E0E0E0"/>
<path opacity="0.5" d="M193.338 196.551H54.171L53.631 181.926H192.798L193.338 196.551Z" fill="#E0E0E0"/>
<path opacity="0.5" d="M193.338 220.59H54.171L53.631 205.965H192.798L193.338 220.59Z" fill="#E0E0E0"/>
<path d="M267.363 202.095H239.625V341.1H267.363V202.095Z" fill="#F0F0F0"/>
<path d="M381.735 341.1H244.953V344.16H381.735V341.1Z" fill="#F0F0F0"/>
<path d="M267.354 341.1H387.045V202.095L267.354 202.095V341.1Z" fill="#F5F5F5"/>
<path d="M373.284 280.413H281.115C280.24 280.411 279.401 280.062 278.782 279.443C278.163 278.824 277.814 277.985 277.812 277.11V255.6C277.812 254.723 278.16 253.882 278.779 253.261C279.398 252.641 280.238 252.291 281.115 252.288H296.352C296.967 252.298 297.566 252.477 298.086 252.806C298.605 253.134 299.023 253.6 299.295 254.151C299.591 254.697 300.029 255.153 300.563 255.47C301.097 255.787 301.707 255.953 302.328 255.951H352.089C352.998 255.949 353.868 255.587 354.51 254.943C354.77 254.677 354.988 254.374 355.158 254.043C355.43 253.503 355.846 253.048 356.361 252.73C356.876 252.412 357.469 252.244 358.074 252.243H373.284C374.162 252.243 375.005 252.592 375.626 253.213C376.247 253.834 376.596 254.677 376.596 255.555V277.11C376.594 277.987 376.244 278.827 375.623 279.446C375.002 280.065 374.161 280.413 373.284 280.413V280.413ZM281.115 253.197C280.477 253.2 279.866 253.455 279.415 253.907C278.965 254.359 278.712 254.971 278.712 255.609V277.11C278.714 277.747 278.968 278.357 279.418 278.807C279.869 279.257 280.478 279.511 281.115 279.513H373.284C373.922 279.513 374.534 279.26 374.986 278.81C375.438 278.359 375.694 277.748 375.696 277.11V255.6C375.696 254.96 375.442 254.347 374.99 253.895C374.537 253.442 373.924 253.188 373.284 253.188H358.074C357.638 253.187 357.21 253.305 356.837 253.531C356.464 253.756 356.16 254.08 355.959 254.466C355.748 254.883 355.472 255.263 355.14 255.591C354.74 255.993 354.265 256.312 353.741 256.53C353.218 256.748 352.656 256.86 352.089 256.86H302.328C301.543 256.861 300.773 256.648 300.1 256.246C299.426 255.843 298.874 255.266 298.503 254.574C298.306 254.168 298.001 253.825 297.621 253.58C297.242 253.336 296.803 253.2 296.352 253.188L281.115 253.197Z" fill="#EBEBEB"/>
<path d="M373.284 317.97H281.115C280.24 317.968 279.401 317.619 278.782 317C278.163 316.381 277.814 315.542 277.812 314.667V293.166C277.812 292.289 278.16 291.448 278.779 290.827C279.398 290.206 280.238 289.856 281.115 289.854H296.352C296.967 289.864 297.566 290.043 298.086 290.371C298.605 290.7 299.023 291.166 299.295 291.717C299.591 292.263 300.029 292.719 300.563 293.036C301.097 293.353 301.707 293.519 302.328 293.517H352.089C352.538 293.519 352.983 293.431 353.397 293.257C353.811 293.084 354.187 292.83 354.501 292.509C354.767 292.246 354.988 291.942 355.158 291.609C355.43 291.068 355.846 290.614 356.361 290.296C356.876 289.978 357.469 289.81 358.074 289.809H373.284C374.162 289.809 375.005 290.158 375.626 290.779C376.247 291.4 376.596 292.243 376.596 293.121V314.622C376.601 315.06 376.519 315.495 376.354 315.901C376.19 316.307 375.947 316.676 375.639 316.987C375.331 317.299 374.964 317.546 374.56 317.715C374.156 317.883 373.722 317.97 373.284 317.97V317.97ZM281.115 290.754C280.477 290.756 279.866 291.012 279.415 291.464C278.965 291.916 278.712 292.528 278.712 293.166V314.667C278.714 315.304 278.968 315.914 279.418 316.364C279.869 316.814 280.478 317.068 281.115 317.07H373.284C373.922 317.07 374.534 316.817 374.986 316.367C375.438 315.916 375.694 315.305 375.696 314.667V293.166C375.696 292.526 375.442 291.913 374.99 291.461C374.537 291.008 373.924 290.754 373.284 290.754H358.074C357.638 290.753 357.21 290.871 356.837 291.096C356.464 291.322 356.16 291.646 355.959 292.032C355.748 292.449 355.472 292.828 355.14 293.157C354.742 293.562 354.267 293.882 353.743 294.1C353.219 294.318 352.657 294.429 352.089 294.426H302.328C301.543 294.427 300.773 294.214 300.1 293.812C299.426 293.409 298.874 292.831 298.503 292.14C298.306 291.734 298.001 291.391 297.621 291.146C297.242 290.902 296.803 290.766 296.352 290.754H281.115Z" fill="#EBEBEB"/>
<path d="M376.596 334.692H277.812V326.7H376.596V334.692ZM278.712 333.792H375.696V327.6H278.712V333.792Z" fill="#EBEBEB"/>
<path d="M373.284 242.865H281.115C280.24 242.862 279.401 242.514 278.782 241.895C278.163 241.276 277.814 240.437 277.812 239.562V218.061C277.812 217.184 278.16 216.343 278.779 215.722C279.398 215.101 280.238 214.751 281.115 214.749H296.352C296.966 214.758 297.565 214.935 298.084 215.262C298.603 215.589 299.022 216.053 299.295 216.603C299.59 217.149 300.028 217.606 300.562 217.923C301.097 218.24 301.707 218.406 302.328 218.403H352.089C352.998 218.401 353.868 218.038 354.51 217.395C354.77 217.129 354.988 216.826 355.158 216.495C355.43 215.954 355.846 215.5 356.361 215.182C356.876 214.864 357.469 214.695 358.074 214.695H373.284C373.719 214.695 374.15 214.78 374.551 214.947C374.953 215.113 375.318 215.357 375.626 215.665C375.934 215.972 376.177 216.338 376.344 216.739C376.51 217.141 376.596 217.572 376.596 218.007V239.508C376.602 239.947 376.521 240.382 376.357 240.789C376.193 241.196 375.95 241.567 375.642 241.879C375.334 242.191 374.967 242.439 374.562 242.608C374.157 242.778 373.723 242.865 373.284 242.865ZM281.115 215.649C280.477 215.651 279.866 215.906 279.415 216.358C278.965 216.811 278.712 217.423 278.712 218.061V239.562C278.714 240.198 278.968 240.808 279.418 241.258C279.869 241.709 280.478 241.962 281.115 241.965H373.284C373.922 241.965 374.534 241.712 374.986 241.262C375.438 240.811 375.694 240.2 375.696 239.562V218.061C375.696 217.421 375.442 216.808 374.99 216.355C374.537 215.903 373.924 215.649 373.284 215.649H358.074C357.638 215.647 357.21 215.766 356.837 215.991C356.464 216.217 356.16 216.54 355.959 216.927C355.748 217.343 355.472 217.723 355.14 218.052C354.741 218.455 354.266 218.774 353.742 218.992C353.218 219.21 352.656 219.322 352.089 219.321H302.328C301.544 219.32 300.774 219.108 300.1 218.705C299.427 218.303 298.875 217.726 298.503 217.035C298.306 216.629 298.001 216.285 297.621 216.041C297.242 215.797 296.803 215.661 296.352 215.649H281.115Z" fill="#EBEBEB"/>
<path d="M390.753 199.854H267.363V202.095H390.753V199.854Z" fill="#F0F0F0"/>
<path d="M235.755 202.095H267.363V199.854H235.755V202.095Z" fill="#E6E6E6"/>
<path d="M363.888 70.4429H258.021V175.518H363.888V70.4429Z" fill="#E6E6E6"/>
<path d="M369.603 70.4429H259.101V175.518H369.603V70.4429Z" fill="#F0F0F0"/>
<path d="M364.5 170.424V75.5459H264.204V170.424H364.5Z" fill="white"/>
<path d="M314.352 162.045C306.627 162.045 299.075 159.754 292.651 155.462C286.228 151.17 281.222 145.07 278.265 137.932C275.309 130.795 274.535 122.941 276.043 115.365C277.55 107.788 281.27 100.828 286.732 95.3652C292.195 89.9026 299.155 86.1825 306.732 84.6753C314.309 83.1682 322.162 83.9417 329.3 86.8981C336.437 89.8544 342.537 94.8609 346.829 101.284C351.121 107.708 353.412 115.259 353.412 122.985C353.4 133.341 349.281 143.269 341.958 150.591C334.636 157.914 324.708 162.033 314.352 162.045V162.045ZM314.352 84.5998C306.76 84.5998 299.339 86.8511 293.026 91.0689C286.714 95.2867 281.794 101.282 278.889 108.296C275.984 115.309 275.223 123.027 276.705 130.473C278.186 137.919 281.841 144.759 287.21 150.127C292.578 155.495 299.418 159.151 306.863 160.632C314.309 162.113 322.027 161.353 329.041 158.448C336.055 155.543 342.05 150.623 346.268 144.31C350.486 137.998 352.737 130.577 352.737 122.985C352.727 112.807 348.68 103.05 341.484 95.8531C334.287 88.6565 324.529 84.6094 314.352 84.5998V84.5998Z" fill="#F5F5F5"/>
<path d="M225 384.804C321.374 384.804 399.501 380.243 399.501 374.616C399.501 368.99 321.374 364.428 225 364.428C128.626 364.428 50.499 368.99 50.499 374.616C50.499 380.243 128.626 384.804 225 384.804Z" fill="#F5F5F5"/>
<path d="M61.002 323.622H281.403L297.243 186.507H76.851L61.002 323.622Z" fill="#FCCD06"/>
<path opacity="0.4" d="M61.002 323.622H281.403L297.243 186.507H76.851L61.002 323.622Z" fill="white"/>
<path d="M324.693 328.761H104.292L76.851 186.507H297.243L324.693 328.761Z" fill="#FCCD06"/>
<path opacity="0.6" d="M324.693 328.761H104.292L76.851 186.507H297.243L324.693 328.761Z" fill="white"/>
<path d="M316.251 321.129H109.782L87.615 206.19H294.084L316.251 321.129Z" fill="white"/>
<g opacity="0.5">
<path d="M125.856 234.063H104.265L100.098 212.463H121.689L125.856 234.063Z" fill="#FCCD06"/>
<path d="M288.189 234.063H266.589L262.431 212.463H284.022L288.189 234.063Z" fill="#FCCD06"/>
<path d="M261.126 234.063H239.535L235.368 212.463H256.968L261.126 234.063Z" fill="#FCCD06"/>
<path d="M234.072 234.063H212.481L208.314 212.463H229.914L234.072 234.063Z" fill="#FCCD06"/>
<path d="M207.018 234.063H185.427L181.26 212.463H202.851L207.018 234.063Z" fill="#FCCD06"/>
<path d="M179.964 234.063H158.373L154.206 212.463H175.797L179.964 234.063Z" fill="#FCCD06"/>
<path d="M152.91 234.063H131.319L127.152 212.463H148.743L152.91 234.063Z" fill="#FCCD06"/>
<path opacity="0.5" d="M131.049 260.991H109.458L105.291 239.4H126.882L131.049 260.991Z" fill="#FCCD06"/>
<path d="M293.382 260.991H271.791L267.624 239.4H289.215L293.382 260.991Z" fill="#FCCD06"/>
<path opacity="0.5" d="M266.328 260.991H244.737L240.57 239.4H262.161L266.328 260.991Z" fill="#FCCD06"/>
<path d="M239.274 260.991H217.674L213.516 239.4H235.107L239.274 260.991Z" fill="#FCCD06"/>
<path d="M212.211 260.991H190.62L186.453 239.4H208.053L212.211 260.991Z" fill="#FCCD06"/>
<path d="M185.157 260.991H163.566L159.399 239.4H180.99L185.157 260.991Z" fill="#FCCD06"/>
<path d="M158.103 260.991H136.512L132.345 239.4H153.936L158.103 260.991Z" fill="#FCCD06"/>
<path d="M136.242 287.92H114.651L110.484 266.329H132.075L136.242 287.92Z" fill="#FCCD06"/>
<path d="M298.575 287.92H276.984L272.817 266.329H294.408L298.575 287.92Z" fill="#FCCD06"/>
<path d="M271.521 287.92H249.93L245.763 266.329H267.354L271.521 287.92Z" fill="#FCCD06"/>
<path d="M244.467 287.92H222.876L218.709 266.329H240.3L244.467 287.92Z" fill="#FCCD06"/>
<path d="M217.413 287.92H195.813L191.655 266.329H213.246L217.413 287.92Z" fill="#FCCD06"/>
<path d="M190.35 287.92H168.759L164.592 266.329H186.192L190.35 287.92Z" fill="#FCCD06"/>
<path d="M163.296 287.92H141.705L137.538 266.329H159.129L163.296 287.92Z" fill="#FCCD06"/>
<path d="M141.435 314.856H119.844L115.677 293.256H137.277L141.435 314.856Z" fill="#FCCD06"/>
<path d="M303.768 314.856H282.177L278.01 293.256H299.601L303.768 314.856Z" fill="#FCCD06"/>
<path d="M276.714 314.856H255.123L250.956 293.256H272.547L276.714 314.856Z" fill="#FCCD06"/>
<path d="M249.66 314.856H228.069L223.902 293.256H245.493L249.66 314.856Z" fill="#FCCD06"/>
<path d="M222.606 314.856H201.015L196.848 293.256H218.439L222.606 314.856Z" fill="#FCCD06"/>
<path d="M195.552 314.856H173.952L169.794 293.256H191.385L195.552 314.856Z" fill="#FCCD06"/>
<path opacity="0.5" d="M168.498 314.856H146.898L142.74 293.256H164.331L168.498 314.856Z" fill="#FCCD06"/>
</g>
<path d="M104.031 196.272L103.752 194.841C106.299 194.841 107.721 191.025 106.848 186.507C105.975 181.989 103.086 178.164 100.548 178.164C98.01 178.164 96.579 181.989 97.443 186.507H96.021C94.959 181.026 96.831 176.742 100.269 176.742C103.707 176.742 107.235 181.026 108.288 186.507C109.341 191.988 107.469 196.272 104.031 196.272Z" fill="#263238"/>
<path d="M125.343 196.272L125.064 194.841C127.611 194.841 129.033 191.025 128.16 186.507C127.287 181.989 124.398 178.164 121.86 178.164C119.322 178.164 117.891 181.989 118.755 186.507H117.333C116.271 181.026 118.143 176.742 121.581 176.742C125.019 176.742 128.547 181.026 129.6 186.507C130.653 191.988 128.781 196.272 125.343 196.272Z" fill="#263238"/>
<path d="M146.7 196.272L146.421 194.841C148.968 194.841 150.39 191.025 149.517 186.507C148.644 181.989 145.755 178.164 143.217 178.164C140.679 178.164 139.239 181.989 140.112 186.507H138.6C137.538 181.026 139.41 176.742 142.848 176.742C146.286 176.742 149.814 181.026 150.867 186.507C151.92 191.988 150.093 196.272 146.7 196.272Z" fill="#263238"/>
<path d="M167.958 196.272L167.688 194.841C170.235 194.841 171.657 191.025 170.784 186.507C169.911 181.989 167.022 178.164 164.484 178.164C161.946 178.164 160.515 181.989 161.388 186.507H159.957C158.904 181.026 160.776 176.742 164.214 176.742C167.652 176.742 171.171 181.026 172.233 186.507C173.295 191.988 171.405 196.272 167.958 196.272Z" fill="#263238"/>
<path d="M189.27 196.272L189 194.841C191.547 194.841 192.969 191.025 192.096 186.507C191.223 181.989 188.334 178.164 185.796 178.164C183.258 178.164 181.827 181.989 182.7 186.507H181.269C180.216 181.026 182.088 176.742 185.526 176.742C188.964 176.742 192.483 181.026 193.545 186.507C194.607 191.988 192.717 196.272 189.27 196.272Z" fill="#263238"/>
<path d="M210.6 196.272L210.33 194.841C212.877 194.841 214.299 191.025 213.426 186.507C212.553 181.989 209.664 178.164 207.126 178.164C204.588 178.164 203.157 181.989 204.03 186.507H202.599C201.546 181.026 203.409 176.742 206.856 176.742C210.303 176.742 213.813 181.026 214.875 186.507C215.937 191.988 214.029 196.272 210.6 196.272Z" fill="#263238"/>
<path d="M231.894 196.272L231.624 194.841C234.171 194.841 235.593 191.025 234.72 186.507C233.847 181.989 230.958 178.164 228.42 178.164C225.882 178.164 224.451 181.989 225.324 186.507H223.893C222.84 181.026 224.703 176.742 228.15 176.742C231.597 176.742 235.107 181.026 236.169 186.507C237.231 191.988 235.341 196.272 231.894 196.272Z" fill="#263238"/>
<path d="M253.206 196.272L252.936 194.841C255.483 194.841 256.905 191.025 256.032 186.507C255.159 181.989 252.27 178.164 249.732 178.164C247.194 178.164 245.763 181.989 246.636 186.507H245.205C244.152 181.026 246.015 176.742 249.462 176.742C252.909 176.742 256.419 181.026 257.481 186.507C258.543 191.988 256.644 196.272 253.206 196.272Z" fill="#263238"/>
<path d="M274.5 196.272L274.23 194.841C276.777 194.841 278.199 191.025 277.326 186.507C276.453 181.989 273.564 178.164 271.026 178.164C268.488 178.164 267.057 181.989 267.93 186.507H266.499C265.446 181.026 267.309 176.742 270.756 176.742C274.203 176.742 277.713 181.026 278.766 186.507C279.819 191.988 277.956 196.272 274.5 196.272Z" fill="#263238"/>
<path d="M182.421 231.021H106.713L102.546 209.43H178.254L182.421 231.021Z" fill="#FCCD06"/>
<path d="M214.686 257.958H193.086L188.928 236.358H210.519L214.686 257.958Z" fill="#FCCD06"/>
<path d="M282.24 285.606L281.07 284.589C278.669 282.486 275.996 280.715 273.123 279.324L273.87 277.119C276.546 278.414 279.064 280.011 281.376 281.88C285.362 275.969 290.582 270.992 296.676 267.291L298.287 269.487C292.084 273.256 286.83 278.402 282.933 284.526L282.24 285.606Z" fill="#FCCD06"/>
<path d="M206.766 239.931H204.813L201.546 245.844L196.011 239.931H194.058L200.826 247.158L196.839 254.376H198.801L202.059 248.472L207.594 254.376H209.556L202.779 247.158L206.766 239.931Z" fill="white"/>
<path d="M246.789 291.654L250.389 310.383H231.669L228.069 291.654H246.798M247.959 290.223H226.359L230.526 311.823H252.126L247.968 290.223H247.959Z" fill="#FCCD06"/>
<path d="M192.807 284.886H144.162L139.995 263.295H188.64L192.807 284.886Z" fill="#263238"/>
<path d="M159.3 271.908C159.43 272.41 159.44 272.935 159.33 273.441C159.221 273.947 158.994 274.421 158.669 274.824C158.344 275.227 157.929 275.549 157.457 275.763C156.985 275.977 156.47 276.078 155.952 276.057C154.783 276.013 153.662 275.582 152.766 274.831C151.87 274.079 151.249 273.051 151.002 271.908C150.874 271.407 150.865 270.882 150.976 270.377C151.086 269.871 151.313 269.398 151.638 268.996C151.963 268.593 152.377 268.272 152.848 268.057C153.319 267.842 153.833 267.74 154.35 267.759C155.518 267.804 156.638 268.236 157.534 268.987C158.43 269.738 159.051 270.766 159.3 271.908Z" fill="white"/>
<path d="M160.299 275.832C159.841 276.468 159.234 276.982 158.531 277.329C157.828 277.676 157.051 277.845 156.267 277.821C154.481 277.778 152.774 277.072 151.479 275.841C150.678 276.274 150.034 276.95 149.639 277.771C149.245 278.592 149.12 279.517 149.283 280.413H164.259C163.988 279.4 163.491 278.461 162.805 277.668C162.119 276.874 161.262 276.247 160.299 275.832V275.832Z" fill="white"/>
<path d="M184.698 272.745H168.138L167.679 270.36H184.239L184.698 272.745Z" fill="white"/>
<path d="M180.135 277.812H169.119L168.66 275.427H179.676L180.135 277.812Z" fill="white"/>
<path d="M267.084 211.446C271.35 211.446 277.389 212.067 281.952 215.046C282.781 215.535 283.504 216.185 284.077 216.958C284.651 217.731 285.064 218.611 285.291 219.546C286.092 223.083 284.211 226.944 282.132 229.041C278.847 232.353 273.735 234.441 267.732 234.855C267.048 234.909 266.346 234.936 265.653 234.936C261.426 234.899 257.244 234.069 253.323 232.488C249.462 230.949 245.367 228.888 244.215 224.874C243.914 223.949 243.822 222.969 243.945 222.004C244.068 221.04 244.403 220.114 244.926 219.294C245.606 218.253 246.506 217.375 247.563 216.72C252.55 213.636 258.232 211.856 264.087 211.545C265.086 211.482 266.094 211.446 267.084 211.446M266.814 210.06C265.743 210.06 264.708 210.06 263.736 210.168C257.678 210.487 251.797 212.325 246.636 215.514C245.45 216.253 244.439 217.242 243.675 218.412C243.065 219.385 242.675 220.48 242.533 221.62C242.392 222.759 242.502 223.916 242.856 225.009C244.206 229.671 248.823 232.092 253.017 233.757C257.117 235.414 261.492 236.281 265.914 236.313C266.643 236.313 267.363 236.313 268.083 236.241C273.789 235.827 279.477 233.883 283.221 230.103C286.965 226.323 289.35 218.304 282.555 213.903C277.974 210.942 271.98 210.06 266.805 210.06H266.814Z" fill="#263238"/>
<path d="M348.318 368.244L354.762 366.534L351.621 351.378L345.177 353.097L348.318 368.244Z" fill="#B55B52"/>
<path d="M354.969 365.346L347.85 367.686C347.728 367.72 347.625 367.8 347.563 367.91C347.5 368.02 347.484 368.149 347.517 368.271L349.029 374.022C349.124 374.319 349.333 374.566 349.609 374.709C349.886 374.852 350.208 374.881 350.505 374.787C352.971 373.887 354.105 373.392 357.237 372.366C359.163 371.727 363.825 370.296 366.48 369.423C369.135 368.55 368.208 365.949 367.002 366.075C361.602 366.669 358.443 366.192 356.202 365.382C355.807 365.229 355.372 365.216 354.969 365.346V365.346Z" fill="#263238"/>
<path opacity="0.2" d="M345.177 353.097L351.621 351.378L353.241 359.19L346.788 360.909L345.177 353.097Z" fill="black"/>
<path d="M328.653 198.648C328.653 198.648 337.653 252.963 340.353 271.908C343.278 292.653 354.231 355.059 354.231 355.059L343.431 359.145C343.431 359.145 326.196 297.792 321.435 277.623C316.26 255.726 304.866 198.648 304.866 198.648H328.653Z" fill="#263238"/>
<path opacity="0.3" d="M314.19 220.923C318.798 232.434 319.32 252 317.448 260.019C314.622 246.852 311.382 231.102 308.889 218.853C309.78 215.712 311.4 213.921 314.19 220.923Z" fill="black"/>
<path d="M342.945 360.675L355.482 356.913L355.122 351.783L340.2 356.148L342.945 360.675Z" fill="#263238"/>
<path d="M357.579 365.715C356.992 365.887 356.389 365.996 355.779 366.039C355.749 366.042 355.72 366.036 355.693 366.023C355.666 366.011 355.643 365.991 355.626 365.967C355.611 365.941 355.603 365.912 355.603 365.882C355.603 365.852 355.611 365.822 355.626 365.796C355.779 365.589 357.174 363.771 358.047 363.816C358.146 363.823 358.241 363.855 358.324 363.909C358.408 363.962 358.476 364.036 358.524 364.122C358.621 364.249 358.68 364.401 358.695 364.561C358.709 364.72 358.678 364.88 358.605 365.022C358.356 365.367 357.992 365.613 357.579 365.715ZM356.148 365.715C357.363 365.562 358.182 365.256 358.38 364.869C358.42 364.777 358.435 364.677 358.424 364.577C358.413 364.478 358.376 364.383 358.317 364.302C358.294 364.259 358.261 364.222 358.22 364.195C358.179 364.169 358.132 364.153 358.083 364.149C357.615 364.104 356.733 364.986 356.148 365.697V365.715Z" fill="#FCCD06"/>
<path d="M355.851 366.03C355.828 366.039 355.802 366.039 355.779 366.03C355.754 366.026 355.729 366.016 355.709 366C355.689 365.984 355.672 365.964 355.662 365.94C355.662 365.859 354.888 364.086 355.32 363.24C355.377 363.134 355.457 363.042 355.553 362.971C355.649 362.899 355.76 362.85 355.878 362.826C356.007 362.788 356.145 362.796 356.269 362.846C356.393 362.897 356.496 362.988 356.562 363.105C356.94 363.744 356.427 365.382 355.923 365.958C355.896 366.012 355.878 366.03 355.851 366.03ZM355.851 363.177C355.735 363.219 355.639 363.302 355.581 363.411C355.43 364.136 355.515 364.89 355.824 365.562C356.263 364.89 356.424 364.074 356.274 363.285C356.229 363.204 356.148 363.114 355.923 363.159L355.851 363.177Z" fill="#FCCD06"/>
<path d="M327.285 142.731C327.546 143.154 327.906 143.748 328.239 144.261L329.265 145.881C329.976 146.952 330.678 148.023 331.425 149.076C332.892 151.173 334.44 153.207 336.042 155.142C337.605 157.034 339.295 158.817 341.1 160.479C342.732 162.004 344.546 163.322 346.5 164.403L345.078 163.998C346.472 164.285 347.9 164.366 349.317 164.241C350.091 164.169 350.883 164.07 351.693 163.926C352.503 163.782 353.322 163.584 354.15 163.359C355.854 162.895 357.528 162.327 359.163 161.658C360 161.316 360.837 160.965 361.674 160.587C362.511 160.209 363.366 159.786 364.095 159.444L364.338 159.327C365.036 158.993 365.839 158.95 366.569 159.206C367.3 159.462 367.899 159.998 368.235 160.695C368.487 161.233 368.571 161.834 368.477 162.42C368.382 163.006 368.113 163.55 367.704 163.98C366.885 164.826 366.165 165.501 365.355 166.212C364.545 166.923 363.735 167.553 362.88 168.183C361.139 169.455 359.297 170.58 357.372 171.549C355.34 172.57 353.2 173.358 350.991 173.898C349.805 174.171 348.602 174.366 347.391 174.483C346.118 174.591 344.839 174.591 343.566 174.483C343.204 174.448 342.85 174.36 342.513 174.222L342.153 174.069C339.179 172.782 336.401 171.082 333.9 169.02C331.529 167.108 329.322 165.001 327.303 162.72C325.331 160.536 323.486 158.24 321.777 155.844C320.931 154.644 320.115 153.444 319.329 152.244C318.942 151.623 318.555 151.011 318.177 150.372C317.799 149.733 317.457 149.139 317.043 148.365C316.277 147.018 316.077 145.421 316.488 143.927C316.899 142.432 317.887 141.162 319.235 140.396C320.582 139.63 322.179 139.43 323.673 139.841C325.168 140.252 326.438 141.24 327.204 142.587L327.285 142.731Z" fill="#263238"/>
<path opacity="0.3" d="M332.829 159.192C329.319 151.992 323.334 152.406 320.922 154.629L321.606 155.628C323.24 157.944 325.001 160.167 326.88 162.288C328.805 164.469 330.886 166.505 333.108 168.381C333.81 168.957 334.539 169.524 335.277 170.064C335.177 166.316 334.345 162.622 332.829 159.192Z" fill="black"/>
<path d="M366.093 158.4L370.593 154.647L373.293 160.47C373.293 160.47 366.588 165.267 365.049 163.575L364.869 161.406C364.818 160.844 364.903 160.277 365.116 159.754C365.329 159.231 365.664 158.767 366.093 158.4V158.4Z" fill="#B55B52"/>
<path d="M376.596 155.358L378.009 159.858L373.257 160.443L370.575 154.62L376.596 155.358Z" fill="#B55B52"/>
<path d="M291.942 368.028H298.611L299.475 352.575H292.806L291.942 368.028Z" fill="#B55B52"/>
<path d="M298.962 367.254H291.465C291.402 367.252 291.34 367.262 291.281 367.284C291.222 367.305 291.168 367.339 291.122 367.381C291.076 367.424 291.039 367.475 291.013 367.532C290.987 367.589 290.972 367.651 290.97 367.713L290.601 373.644C290.601 373.956 290.724 374.256 290.943 374.478C291.162 374.7 291.459 374.828 291.771 374.832C294.381 374.787 295.632 374.634 298.926 374.634C300.951 374.634 306.54 374.841 309.339 374.841C312.138 374.841 312.039 372.069 310.878 371.817C305.55 370.701 301.995 369.117 300.078 367.668C299.764 367.408 299.37 367.262 298.962 367.254Z" fill="#263238"/>
<path opacity="0.2" d="M292.806 352.584H299.475L299.025 360.549H292.356L292.806 352.584Z" fill="black"/>
<path d="M315.621 198.648C315.621 198.648 315.045 256.617 313.965 275.724C312.777 296.64 301.887 358.623 301.887 358.623H289.665C289.665 358.623 294.993 298.323 294.255 277.623C293.454 255.123 292.968 198.648 292.968 198.648H315.621Z" fill="#263238"/>
<path d="M288.684 358.623H303.588L304.317 353.988L288.054 354.708L288.684 358.623Z" fill="#263238"/>
<path d="M301.32 368.415C300.713 368.401 300.11 368.323 299.52 368.181C299.49 368.175 299.462 368.161 299.441 368.139C299.419 368.117 299.404 368.09 299.399 368.06C299.393 368.03 299.396 367.999 299.408 367.971C299.42 367.942 299.44 367.919 299.466 367.902C299.682 367.749 301.563 366.462 302.382 366.786C302.474 366.821 302.555 366.879 302.618 366.955C302.681 367.031 302.724 367.121 302.742 367.218C302.784 367.363 302.789 367.517 302.756 367.665C302.723 367.813 302.653 367.95 302.553 368.064C302.199 368.328 301.76 368.453 301.32 368.415ZM299.97 367.956C301.167 368.19 302.049 368.154 302.355 367.848C302.423 367.774 302.47 367.683 302.49 367.585C302.511 367.487 302.504 367.385 302.472 367.29C302.465 367.241 302.444 367.195 302.412 367.157C302.381 367.119 302.339 367.09 302.292 367.074C301.86 366.903 300.744 367.461 299.97 367.956V367.956Z" fill="#FCCD06"/>
<path d="M299.583 368.181C299.56 368.19 299.534 368.19 299.511 368.181C299.487 368.17 299.467 368.152 299.453 368.13C299.439 368.107 299.431 368.082 299.43 368.055C299.43 367.974 299.268 366.057 299.943 365.409C300.03 365.326 300.133 365.264 300.247 365.227C300.361 365.189 300.481 365.178 300.6 365.193C300.733 365.198 300.861 365.246 300.963 365.331C301.066 365.415 301.137 365.532 301.167 365.661C301.32 366.39 300.321 367.785 299.664 368.181C299.638 368.189 299.609 368.189 299.583 368.181V368.181ZM300.483 365.481C300.359 365.481 300.239 365.529 300.15 365.616C299.78 366.255 299.625 366.997 299.709 367.731C300.294 367.245 300.951 366.183 300.852 365.706C300.852 365.616 300.78 365.508 300.555 365.481H300.483Z" fill="#FCCD06"/>
<path d="M325.845 144.441C325.509 143.316 324.873 142.303 324.006 141.51C323.139 140.718 322.073 140.176 320.922 139.941C319.277 139.552 317.608 139.267 315.927 139.086C310.876 138.798 305.813 138.798 300.762 139.086C298.116 139.212 295.416 139.536 293.265 139.851H293.184C292.619 139.931 292.075 140.123 291.585 140.417C291.096 140.711 290.67 141.101 290.334 141.563C289.999 142.025 289.759 142.549 289.63 143.106C289.501 143.662 289.486 144.239 289.584 144.801C291.279 153.752 292.388 162.805 292.905 171.9C293.427 185.103 292.716 195.471 292.968 198.657H328.653C330.822 166.428 328.023 151.785 325.845 144.441Z" fill="#E6E6E6"/>
<path d="M301.77 138.492C304.578 149.886 307.17 178.758 307.125 201.33H292.041C291.771 197.964 292.527 187.038 291.978 173.115C291.437 163.544 290.28 154.017 288.513 144.594C288.41 144.004 288.427 143.399 288.561 142.814C288.696 142.23 288.945 141.679 289.296 141.193C289.646 140.707 290.09 140.295 290.602 139.983C291.113 139.671 291.682 139.464 292.275 139.374H292.356C294.624 139.041 297.468 138.699 300.258 138.564L301.77 138.492Z" fill="#263238"/>
<path d="M327.681 144.603C327.297 143.359 326.598 142.236 325.652 141.342C324.706 140.447 323.545 139.813 322.281 139.5C319.896 139.125 317.493 138.879 315.081 138.762C317.934 148.662 323.532 178.821 321.867 201.33H331.389C333.648 167.553 329.805 150.777 327.681 144.603Z" fill="#263238"/>
<path d="M383.301 175.806L312.3 206.19L303.768 186.354L374.778 155.97L383.301 175.806Z" fill="#FCCD06"/>
<path d="M323.379 187.335C323.702 188.089 323.794 188.922 323.644 189.728C323.494 190.535 323.108 191.279 322.535 191.866C321.962 192.453 321.228 192.857 320.425 193.027C319.623 193.197 318.788 193.126 318.026 192.821C317.265 192.517 316.61 191.994 316.145 191.318C315.681 190.642 315.427 189.843 315.416 189.023C315.406 188.203 315.638 187.398 316.085 186.71C316.531 186.022 317.172 185.481 317.925 185.157C318.426 184.942 318.965 184.827 319.51 184.82C320.056 184.812 320.597 184.913 321.104 185.115C321.61 185.318 322.072 185.618 322.462 185.999C322.853 186.38 323.164 186.834 323.379 187.335V187.335Z" fill="white"/>
<path d="M325.17 190.845C324.906 191.634 324.478 192.359 323.914 192.971C323.35 193.583 322.663 194.069 321.898 194.397C321.134 194.725 320.308 194.888 319.476 194.874C318.644 194.861 317.824 194.672 317.07 194.319C316.431 195.045 315.999 195.929 315.819 196.879C315.638 197.829 315.716 198.81 316.044 199.719L329.814 193.833C329.38 192.963 328.72 192.227 327.903 191.701C327.085 191.175 326.141 190.879 325.17 190.845Z" fill="white"/>
<path d="M373.203 166.932L331.704 184.689L330.768 182.493L372.267 164.736L373.203 166.932Z" fill="white"/>
<path d="M370.116 173.763L333.711 189.342L332.766 187.146L369.171 171.567L370.116 173.763Z" fill="white"/>
<path opacity="0.3" d="M296.703 156.15C296.451 148.581 290.862 145.692 289.287 147.726C289.218 147.808 289.155 147.896 289.098 147.987C290.079 153.819 291.276 161.847 291.798 169.758C294.453 168.228 296.937 163.341 296.703 156.15Z" fill="black"/>
<path d="M315.207 139.068C310.797 138.024 310.023 135.297 310.32 132.3C310.39 131.55 310.507 130.804 310.671 130.068L305.145 125.478L301.086 122.112C302.211 126.999 303.48 135.9 300.186 139.158C300.186 139.158 302.886 143.658 310.473 143.262C316.8 142.911 315.207 139.068 315.207 139.068Z" fill="#B55B52"/>
<path d="M307.44 147.285C307.961 145.785 308.81 144.42 309.924 143.289C306.537 142.178 303.455 140.292 300.924 137.781L298.611 138.681C298.611 138.681 299.43 144.558 307.44 147.285Z" fill="white"/>
<path d="M313.614 146.277C312.612 145.028 311.354 144.009 309.924 143.289C312.147 142.659 313.011 138.15 313.011 138.15L315.18 138.6C315.18 138.6 319.185 144.477 313.614 146.277Z" fill="white"/>
<path opacity="0.2" d="M310.671 130.068C310.507 130.804 310.39 131.549 310.32 132.3C308.259 131.886 305.505 129.69 305.217 127.584C305.116 126.887 305.092 126.181 305.145 125.478L310.671 130.068Z" fill="black"/>
<path d="M313.245 106.065C316.026 105.561 319.266 108.477 317.745 114.399C316.224 120.321 308.997 106.83 313.245 106.065Z" fill="#263238"/>
<path d="M299.412 115.083C300.825 121.572 301.32 125.433 305.154 128.394C306.389 129.369 307.868 129.987 309.429 130.182C310.99 130.378 312.575 130.142 314.012 129.502C315.45 128.862 316.685 127.841 317.584 126.549C318.483 125.258 319.011 123.745 319.113 122.175C319.617 116.136 317.232 106.542 310.401 104.706C308.933 104.269 307.377 104.225 305.887 104.579C304.397 104.934 303.027 105.674 301.913 106.725C300.8 107.776 299.983 109.102 299.544 110.569C299.105 112.036 299.059 113.593 299.412 115.083V115.083Z" fill="#B55B52"/>
<path d="M302.022 122.112C302.976 119.862 303.822 113.598 303.048 110.997C306.153 110.898 312.678 110.322 315.396 107.298C319.572 102.654 314.064 97.1641 307.134 101.538C302.634 104.355 292.923 103.797 294.534 106.938C289.8 112.149 295.119 118.035 302.022 122.112Z" fill="#263238"/>
<path d="M294.525 107.172C294.492 107.172 294.46 107.164 294.431 107.15C294.401 107.136 294.375 107.116 294.354 107.091C293.778 106.38 293.598 105.786 293.796 105.291C294.273 104.103 296.748 103.779 299.601 103.419C302.301 103.077 305.289 102.69 306.243 101.475C306.286 101.436 306.342 101.414 306.4 101.414C306.459 101.414 306.515 101.436 306.558 101.475C306.579 101.495 306.597 101.52 306.608 101.547C306.62 101.574 306.626 101.603 306.626 101.633C306.626 101.662 306.62 101.691 306.608 101.718C306.597 101.745 306.579 101.77 306.558 101.79C305.487 103.149 302.508 103.527 299.628 103.896C297.135 104.22 294.561 104.544 294.228 105.498C294.093 105.84 294.228 106.299 294.705 106.866C294.746 106.908 294.769 106.965 294.769 107.024C294.769 107.082 294.746 107.139 294.705 107.181C294.646 107.199 294.582 107.196 294.525 107.172V107.172Z" fill="#263238"/>
<path d="M298.413 120.321C299.188 121.533 300.358 122.439 301.725 122.886C303.462 123.408 304.056 121.806 303.354 120.114C302.715 118.584 301.041 116.469 299.412 116.694C297.783 116.919 297.432 118.8 298.413 120.321Z" fill="#B55B52"/>
<path d="M308.7 115.731C308.781 116.262 309.132 116.631 309.483 116.631C309.834 116.631 310.041 116.127 309.96 115.596C309.879 115.065 309.528 114.696 309.177 114.696C308.826 114.696 308.619 115.2 308.7 115.731Z" fill="#263238"/>
<path d="M314.739 115.011C314.82 115.542 315.171 115.911 315.522 115.911C315.873 115.911 316.089 115.398 315.999 114.867C315.909 114.336 315.567 113.967 315.225 113.967C314.883 113.967 314.658 114.48 314.739 115.011Z" fill="#263238"/>
<path d="M313.812 115.506C314.705 117.061 315.8 118.489 317.07 119.754C316.738 120.058 316.344 120.285 315.914 120.418C315.485 120.552 315.032 120.59 314.586 120.528L313.812 115.506Z" fill="#A02724"/>
<path d="M312.624 122.229C312 122.238 311.38 122.119 310.803 121.881C310.226 121.643 309.703 121.29 309.267 120.843C309.253 120.828 309.243 120.81 309.236 120.791C309.23 120.771 309.227 120.751 309.228 120.73C309.229 120.71 309.235 120.69 309.244 120.671C309.253 120.653 309.265 120.636 309.28 120.623C309.296 120.609 309.314 120.599 309.333 120.592C309.353 120.585 309.373 120.583 309.394 120.584C309.414 120.585 309.434 120.59 309.452 120.599C309.471 120.608 309.487 120.621 309.501 120.636C309.986 121.109 310.571 121.466 311.213 121.681C311.855 121.896 312.537 121.963 313.209 121.878C313.23 121.874 313.251 121.875 313.272 121.88C313.292 121.885 313.312 121.894 313.329 121.906C313.345 121.919 313.36 121.935 313.37 121.953C313.38 121.972 313.387 121.992 313.389 122.013C313.391 122.033 313.39 122.054 313.385 122.073C313.379 122.093 313.37 122.111 313.357 122.127C313.345 122.143 313.329 122.156 313.311 122.166C313.294 122.176 313.274 122.182 313.254 122.184C313.045 122.212 312.835 122.227 312.624 122.229V122.229Z" fill="#263238"/>
<path d="M306.729 114.012C306.675 114.008 306.623 113.993 306.576 113.967C306.54 113.946 306.508 113.919 306.483 113.886C306.457 113.853 306.438 113.816 306.427 113.775C306.417 113.735 306.414 113.693 306.419 113.652C306.425 113.611 306.438 113.571 306.459 113.535C306.691 113.096 307.028 112.722 307.439 112.444C307.85 112.166 308.323 111.994 308.817 111.942C308.858 111.94 308.9 111.945 308.939 111.959C308.978 111.973 309.014 111.994 309.045 112.021C309.076 112.049 309.101 112.082 309.119 112.12C309.137 112.157 309.148 112.198 309.15 112.239C309.152 112.28 309.147 112.322 309.133 112.361C309.119 112.4 309.098 112.436 309.071 112.467C309.043 112.498 309.01 112.523 308.972 112.541C308.935 112.559 308.894 112.57 308.853 112.572C308.464 112.618 308.093 112.759 307.771 112.981C307.45 113.204 307.188 113.502 307.008 113.85C306.98 113.9 306.94 113.941 306.891 113.969C306.842 113.998 306.786 114.013 306.729 114.012V114.012Z" fill="#263238"/>
<path d="M317.448 112.635C317.396 112.636 317.344 112.622 317.299 112.597C317.253 112.572 317.215 112.536 317.187 112.491C316.968 112.151 316.675 111.865 316.328 111.656C315.982 111.447 315.592 111.32 315.189 111.285C315.105 111.285 315.025 111.252 314.966 111.193C314.907 111.134 314.874 111.054 314.874 110.97C314.874 110.887 314.907 110.807 314.966 110.748C315.025 110.688 315.105 110.655 315.189 110.655V110.655C315.695 110.691 316.187 110.843 316.624 111.101C317.061 111.359 317.433 111.714 317.709 112.14C317.754 112.211 317.77 112.297 317.753 112.379C317.736 112.461 317.688 112.534 317.619 112.581C317.568 112.615 317.509 112.634 317.448 112.635Z" fill="#263238"/>
<path d="M297.522 149.175C297.567 149.121 297.522 149.175 297.522 149.175L297.459 149.274L297.306 149.526L296.982 150.093C296.757 150.498 296.541 150.912 296.325 151.344C295.911 152.244 295.506 153.144 295.146 154.044C294.427 155.929 293.856 157.867 293.436 159.84C292.6 163.915 292.355 168.088 292.707 172.233C292.756 173.105 292.873 173.972 293.058 174.825C293.263 175.687 293.549 176.528 293.913 177.336C294.748 179.182 295.77 180.937 296.964 182.574C299.592 186.128 302.532 189.441 305.748 192.474L305.874 192.6C306.375 193.086 306.684 193.736 306.746 194.432C306.809 195.127 306.619 195.821 306.213 196.389C305.807 196.956 305.21 197.359 304.532 197.525C303.854 197.69 303.139 197.606 302.517 197.289C300.26 196.135 298.099 194.802 296.055 193.302C293.976 191.8 292.017 190.139 290.196 188.334C288.264 186.412 286.572 184.264 285.156 181.935C284.379 180.668 283.731 179.326 283.221 177.93C282.724 176.518 282.359 175.063 282.132 173.583C281.666 170.978 281.425 168.337 281.412 165.69C281.371 163.01 281.572 160.332 282.015 157.689C282.461 155.006 283.163 152.372 284.112 149.823C284.596 148.524 285.152 147.253 285.777 146.016C286.101 145.386 286.434 144.765 286.812 144.144C287.001 143.829 287.199 143.514 287.406 143.19L287.739 142.704L288.189 142.083C289.142 140.897 290.519 140.13 292.028 139.942C293.537 139.755 295.06 140.162 296.274 141.079C297.488 141.995 298.297 143.348 298.53 144.851C298.763 146.354 298.401 147.889 297.522 149.13V149.175Z" fill="#263238"/>
<path d="M307.656 192.546L311.373 192.348L307.062 199.548C307.062 199.548 301.05 198.783 301.662 195.714L302.499 194.814C303.868 193.431 305.711 192.62 307.656 192.546V192.546Z" fill="#B55B52"/>
<path d="M315.225 194.931L311.985 202.581L307.062 199.575L311.373 192.348L315.225 194.931Z" fill="#B55B52"/>
</svg>
