<svg width="444" height="444" viewBox="0 0 444 444" fill="none" xmlns="http://www.w3.org/2000/svg">
<path d="M444 339.571H0V339.793H444V339.571Z" fill="#EBEBEB"/>
<path d="M399.511 353.859H370.101V354.081H399.511V353.859Z" fill="#EBEBEB"/>
<path d="M294.123 356.274H286.407V356.496H294.123V356.274Z" fill="#EBEBEB"/>
<path d="M369.213 345.618H352.172V345.84H369.213V345.618Z" fill="#EBEBEB"/>
<path d="M84.9372 347.11H46.5845V347.332H84.9372V347.11Z" fill="#EBEBEB"/>
<path d="M98.4703 347.11H92.8492V347.332H98.4703V347.11Z" fill="#EBEBEB"/>
<path d="M199.933 350.857H116.745V351.079H199.933V350.857Z" fill="#EBEBEB"/>
<path d="M210.456 299.966H38.992C37.6488 299.964 36.3614 299.429 35.4124 298.478C34.4634 297.527 33.9304 296.239 33.9304 294.896V53.8659C33.9421 52.5304 34.4803 51.2534 35.428 50.3123C36.3757 49.3713 37.6564 48.8421 38.992 48.8398H210.456C211.801 48.8398 213.09 49.3741 214.041 50.325C214.992 51.2759 215.526 52.5655 215.526 53.9103V294.896C215.526 296.241 214.992 297.53 214.041 298.481C213.09 299.432 211.801 299.966 210.456 299.966V299.966ZM38.992 49.0174C37.7077 49.0198 36.4767 49.5317 35.5694 50.4407C34.662 51.3497 34.1524 52.5816 34.1524 53.8659V294.896C34.1524 296.18 34.662 297.412 35.5694 298.321C36.4767 299.23 37.7077 299.742 38.992 299.744H210.456C211.741 299.742 212.973 299.23 213.882 298.322C214.79 297.413 215.302 296.181 215.304 294.896V53.8659C215.302 52.5807 214.79 51.3489 213.882 50.4401C212.973 49.5314 211.741 49.0198 210.456 49.0174H38.992Z" fill="#EBEBEB"/>
<path d="M402.539 299.966H231.066C229.722 299.964 228.434 299.429 227.484 298.479C226.533 297.528 225.998 296.24 225.996 294.896V53.8659C226.01 52.5296 226.55 51.2526 227.499 50.3118C228.448 49.371 229.73 48.8421 231.066 48.8398H402.539C403.873 48.8445 405.152 49.3746 406.098 50.3155C407.043 51.2563 407.58 52.5319 407.592 53.8659V294.896C407.592 296.237 407.06 297.524 406.113 298.475C405.166 299.425 403.881 299.962 402.539 299.966V299.966ZM231.066 49.0174C229.781 49.0198 228.549 49.5314 227.641 50.4401C226.732 51.3489 226.22 52.5807 226.218 53.8659V294.896C226.22 296.181 226.732 297.413 227.641 298.322C228.549 299.23 229.781 299.742 231.066 299.744H402.539C403.824 299.742 405.056 299.23 405.965 298.322C406.874 297.413 407.385 296.181 407.388 294.896V53.8659C407.385 52.5807 406.874 51.3489 405.965 50.4401C405.056 49.5314 403.824 49.0198 402.539 49.0174H231.066Z" fill="#EBEBEB"/>
<path d="M237.789 339.571H268.958V223.483H237.789V339.571Z" fill="#E6E6E6"/>
<path d="M242.974 339.571H237.789V329.119H248.418L242.974 339.571Z" fill="#F0F0F0"/>
<path d="M364.648 339.571H395.817V223.483H364.648V339.571Z" fill="#E6E6E6"/>
<path d="M237.789 335.557H369.177V223.483H237.789V335.557Z" fill="#F0F0F0"/>
<path d="M241.82 259.18H365.155V228.447H241.82V259.18Z" fill="#E6E6E6"/>
<path d="M297.658 237.984H309.308C314.37 237.984 319.209 234.192 322.69 227.497H284.275C287.756 234.21 292.596 237.984 297.658 237.984Z" fill="#F0F0F0"/>
<path d="M363.991 339.571H369.177V329.119H358.548L363.991 339.571Z" fill="#F0F0F0"/>
<path d="M241.82 294.887H365.155V264.153H241.82V294.887Z" fill="#E6E6E6"/>
<path d="M297.658 273.699H309.308C314.37 273.699 319.209 269.907 322.69 263.212H284.275C287.756 269.952 292.596 273.699 297.658 273.699Z" fill="#F0F0F0"/>
<path d="M241.82 330.593H365.155V299.86H241.82V330.593Z" fill="#E6E6E6"/>
<path d="M297.658 309.406H309.308C314.37 309.406 319.209 305.614 322.69 298.918H284.275C287.756 305.614 292.596 309.406 297.658 309.406Z" fill="#F0F0F0"/>
<path d="M69.2551 197.154L188.283 197.154L188.283 76.7144L69.2551 76.7144L69.2551 197.154Z" fill="#E6E6E6"/>
<path d="M60.9878 197.154L186.089 197.154L186.089 76.7144L60.9878 76.7144L60.9878 197.154Z" fill="#F0F0F0"/>
<path d="M175.62 186.675V87.1924H71.484V186.675H175.62Z" fill="white"/>
<path d="M122.828 100.344L103.718 119.489C99.1005 124.118 96.5072 130.39 96.5072 136.929C96.5072 143.468 99.1005 149.74 103.718 154.37L122.828 173.488C122.921 173.582 123.032 173.656 123.154 173.706C123.276 173.757 123.407 173.783 123.539 173.783C123.671 173.783 123.801 173.757 123.923 173.706C124.045 173.656 124.156 173.582 124.249 173.488L143.368 154.37C147.986 149.74 150.579 143.468 150.579 136.929C150.579 130.39 147.986 124.118 143.368 119.489L124.258 100.344C124.067 100.157 123.81 100.052 123.543 100.052C123.276 100.052 123.019 100.157 122.828 100.344V100.344ZM105.139 152.913C100.899 148.662 98.5183 142.903 98.5183 136.898C98.5183 130.894 100.899 125.135 105.139 120.883V152.913ZM141.947 152.913V120.919C146.187 125.17 148.568 130.929 148.568 136.934C148.568 142.938 146.187 148.697 141.947 152.949V152.913Z" fill="#F0F0F0"/>
<path d="M361.283 182.04H294.781L290.989 221.307H357.491L361.283 182.04Z" fill="#E6E6E6"/>
<path d="M357.491 221.307L357.225 223.483H290.713L290.989 221.307H357.491Z" fill="#E6E6E6"/>
<path d="M359.24 182.04H292.738L288.938 221.307H355.44L359.24 182.04Z" fill="#F0F0F0"/>
<path d="M354.099 218.75L356.878 184.704C356.885 184.591 356.87 184.477 356.831 184.37C356.793 184.263 356.734 184.165 356.656 184.082C356.579 183.999 356.486 183.933 356.382 183.887C356.278 183.841 356.166 183.817 356.052 183.816H294.914C294.704 183.815 294.502 183.893 294.347 184.035C294.192 184.176 294.097 184.371 294.079 184.58L291.264 218.617C291.257 218.731 291.273 218.845 291.311 218.952C291.35 219.06 291.41 219.158 291.489 219.242C291.567 219.325 291.661 219.391 291.766 219.436C291.871 219.482 291.984 219.505 292.099 219.505H353.237C353.451 219.515 353.66 219.442 353.82 219.301C353.981 219.16 354.081 218.963 354.099 218.75V218.75Z" fill="white"/>
<path d="M338.115 221.307L337.849 223.483H264.615L264.882 221.307H338.115Z" fill="#F0F0F0"/>
<path d="M248.72 161.047L373.599 161.047V78.0282L248.72 78.0282V161.047Z" fill="#E6E6E6"/>
<path d="M245.949 161.047L370.829 161.047V78.0282L245.949 78.0282V161.047Z" fill="#F5F5F5"/>
<path d="M365.847 155.453V83.6318H250.931V155.453H365.847Z" fill="white"/>
<path d="M253.018 155.444V83.623H250.922V155.444H253.018Z" fill="#E6E6E6"/>
<path d="M248.009 145.925L368.769 145.925V138.412L248.009 138.412V145.925Z" fill="#F5F5F5"/>
<path d="M240.515 68.7754H379.043C379.245 68.7777 379.437 68.8589 379.58 69.0016C379.723 69.1443 379.804 69.3372 379.806 69.5391V69.5391C379.806 69.7416 379.726 69.9359 379.583 70.0791C379.44 70.2223 379.245 70.3028 379.043 70.3028H240.515C240.414 70.3039 240.313 70.285 240.22 70.2472C240.126 70.2093 240.041 70.1533 239.969 70.0822C239.897 70.0112 239.84 69.9266 239.801 69.8334C239.762 69.7401 239.742 69.6401 239.742 69.5391V69.5391C239.745 69.3357 239.827 69.1415 239.972 68.9985C240.116 68.8556 240.311 68.7754 240.515 68.7754V68.7754Z" fill="#E6E6E6"/>
<path d="M237.833 69.5392C237.833 69.9182 237.945 70.2887 238.156 70.6039C238.366 70.9191 238.665 71.165 239.015 71.3104C239.365 71.4558 239.75 71.4943 240.122 71.421C240.494 71.3477 240.836 71.1659 241.104 70.8986C241.373 70.6312 241.556 70.2903 241.631 69.9188C241.706 69.5473 241.67 69.1619 241.526 68.8113C241.382 68.4607 241.137 68.1605 240.823 67.9487C240.509 67.7368 240.139 67.6229 239.76 67.6211C239.507 67.6199 239.257 67.6687 239.023 67.7646C238.789 67.8604 238.577 68.0015 238.398 68.1798C238.219 68.358 238.077 68.5698 237.98 68.8031C237.883 69.0364 237.833 69.2866 237.833 69.5392V69.5392Z" fill="#E6E6E6"/>
<path d="M372.56 73.8368C372.833 73.8368 373.094 73.7298 373.289 73.5388C373.483 73.3478 373.595 73.0881 373.599 72.8156V70.5956C373.599 70.32 373.49 70.0558 373.295 69.8609C373.1 69.6661 372.836 69.5566 372.56 69.5566V69.5566C372.424 69.5566 372.29 69.5836 372.164 69.6359C372.039 69.6882 371.925 69.7649 371.829 69.8615C371.733 69.9581 371.657 70.0727 371.606 70.1987C371.555 70.3247 371.529 70.4596 371.53 70.5956V72.8156C371.535 73.0865 371.645 73.3449 371.838 73.5357C372.03 73.7265 372.289 73.8345 372.56 73.8368V73.8368Z" fill="#E6E6E6"/>
<path d="M252.077 73.8368C252.342 73.8256 252.594 73.7139 252.78 73.5243C252.966 73.3347 253.074 73.0813 253.08 72.8156V70.5956C253.08 70.32 252.971 70.0558 252.776 69.8609C252.581 69.6661 252.317 69.5566 252.041 69.5566C251.905 69.5566 251.77 69.5836 251.645 69.6359C251.519 69.6882 251.405 69.7649 251.31 69.8615C251.214 69.9581 251.138 70.0727 251.087 70.1987C251.036 70.3247 251.01 70.4596 251.011 70.5956V72.8156C251.013 72.9528 251.043 73.0882 251.098 73.214C251.153 73.3397 251.232 73.4533 251.331 73.5483C251.43 73.6432 251.547 73.7176 251.675 73.7671C251.803 73.8167 251.939 73.8403 252.077 73.8368V73.8368Z" fill="#E6E6E6"/>
<path opacity="0.4" d="M240.763 150.196L368.769 150.196V69.5392L240.763 69.5392V150.196Z" fill="#E0E0E0"/>
<path d="M358.317 69.5392C358.317 69.9185 358.429 70.2894 358.64 70.6048C358.851 70.9202 359.15 71.1661 359.501 71.3112C359.851 71.4564 360.237 71.4944 360.609 71.4204C360.981 71.3464 361.323 71.1637 361.591 70.8955C361.86 70.6272 362.042 70.2854 362.116 69.9134C362.19 69.5413 362.152 69.1556 362.007 68.8052C361.862 68.4547 361.616 68.1551 361.301 67.9443C360.985 67.7336 360.614 67.6211 360.235 67.6211C359.726 67.6211 359.238 67.8232 358.879 68.1829C358.519 68.5426 358.317 69.0305 358.317 69.5392Z" fill="#E6E6E6"/>
<path d="M177.156 333.817H187.421V244.777H177.156V333.817Z" fill="#F0F0F0"/>
<path d="M65.8008 339.456H183.479V333.817H65.8008V339.456Z" fill="#F0F0F0"/>
<path d="M177.156 244.777H61.858V333.817H177.156V244.777Z" fill="#F5F5F5"/>
<path d="M162.762 255.735H76.2526C72.7608 255.735 69.9301 258.566 69.9301 262.057V278.61C69.9301 282.102 72.7608 284.932 76.2526 284.932H162.762C166.253 284.932 169.084 282.102 169.084 278.61V262.057C169.084 258.566 166.253 255.735 162.762 255.735Z" fill="#F0F0F0"/>
<path d="M162.762 293.652H76.2526C72.7608 293.652 69.9301 296.483 69.9301 299.975V316.527C69.9301 320.019 72.7608 322.85 76.2526 322.85H162.762C166.253 322.85 169.084 320.019 169.084 316.527V299.975C169.084 296.483 166.253 293.652 162.762 293.652Z" fill="#F0F0F0"/>
<path d="M98.0263 272.34H140.988C141.518 272.34 142.028 272.13 142.404 271.756C142.78 271.381 142.992 270.873 142.995 270.342V270.342C142.992 269.811 142.78 269.302 142.404 268.926C142.028 268.55 141.519 268.338 140.988 268.335H98.0263C97.4948 268.338 96.9857 268.55 96.6098 268.926C96.2339 269.302 96.0217 269.811 96.0194 270.342V270.342C96.0218 270.873 96.2342 271.381 96.6103 271.756C96.9865 272.13 97.4956 272.34 98.0263 272.34Z" fill="#F5F5F5"/>
<path d="M98.0263 310.258H140.988C141.518 310.258 142.028 310.048 142.404 309.674C142.78 309.299 142.992 308.791 142.995 308.26V308.26C142.992 307.729 142.78 307.22 142.404 306.844C142.028 306.468 141.519 306.256 140.988 306.253H98.0263C97.4948 306.256 96.9857 306.468 96.6098 306.844C96.2339 307.22 96.0217 307.729 96.0194 308.26V308.26C96.0218 308.791 96.2342 309.299 96.6103 309.674C96.9865 310.048 97.4956 310.258 98.0263 310.258V310.258Z" fill="#F5F5F5"/>
<path d="M222 379.673C317.089 379.673 394.174 375.173 394.174 369.621C394.174 364.069 317.089 359.569 222 359.569C126.911 359.569 49.8257 364.069 49.8257 369.621C49.8257 375.173 126.911 379.673 222 379.673Z" fill="#F5F5F5"/>
<path d="M260.051 90.0874H95.9484L108.7 313.57H272.794L260.051 90.0874Z" fill="#263238"/>
<path d="M263.239 90.0874H99.1362L111.888 313.57H275.99L263.239 90.0874Z" fill="#FCCD06"/>
<path opacity="0.5" d="M251.934 97.6001H106.64L117.056 299.895H266.125L251.934 97.6001Z" fill="black"/>
<path d="M106.64 97.6001C117.438 165.035 110.032 232.47 120.848 299.895H269.899C259.101 232.47 266.507 165.035 255.691 97.6001H106.64Z" fill="white"/>
<g opacity="0.3">
<path d="M137.116 158.215C140.408 158.241 143.564 159.53 145.933 161.815C148.302 164.1 149.705 167.207 149.85 170.496C149.916 172.078 149.66 173.657 149.097 175.137C148.533 176.616 147.675 177.966 146.573 179.103C145.472 180.24 144.15 181.142 142.689 181.752C141.228 182.362 139.658 182.669 138.075 182.653C134.804 182.626 131.668 181.341 129.319 179.064C126.97 176.787 125.587 173.694 125.457 170.425C125.388 168.848 125.638 167.273 126.192 165.794C126.746 164.316 127.592 162.964 128.68 161.82C129.771 160.686 131.082 159.787 132.533 159.176C133.983 158.565 135.542 158.256 137.116 158.268M137.027 155.702C135.113 155.69 133.217 156.069 131.454 156.814C129.691 157.56 128.099 158.658 126.775 160.04C125.451 161.423 124.423 163.06 123.753 164.854C123.084 166.647 122.787 168.558 122.881 170.469C123.036 174.416 124.705 178.152 127.54 180.901C130.376 183.651 134.161 185.203 138.111 185.237C140.033 185.253 141.939 184.878 143.713 184.136C145.487 183.394 147.092 182.299 148.43 180.918C149.768 179.538 150.813 177.9 151.499 176.104C152.186 174.308 152.501 172.391 152.425 170.469C152.234 166.506 150.532 162.765 147.668 160.019C144.804 157.272 140.996 155.727 137.027 155.702V155.702Z" fill="#FCCD06"/>
</g>
<path d="M219.531 268.993H172.467C172.115 268.987 171.766 269.056 171.443 269.196C171.119 269.336 170.83 269.543 170.593 269.803C170.356 270.064 170.177 270.372 170.068 270.707C169.96 271.042 169.924 271.396 169.963 271.746V271.746C170.049 272.494 170.403 273.187 170.959 273.694C171.516 274.202 172.238 274.491 172.991 274.508H220.055C220.408 274.514 220.757 274.445 221.08 274.304C221.403 274.164 221.693 273.956 221.929 273.694C222.164 273.432 222.341 273.123 222.447 272.787C222.553 272.45 222.585 272.096 222.542 271.746V271.746C222.458 271 222.107 270.311 221.553 269.804C221 269.298 220.281 269.01 219.531 268.993V268.993Z" fill="#E0E0E0"/>
<path d="M244.706 257.404H171.517C171.163 257.398 170.811 257.466 170.486 257.605C170.16 257.744 169.867 257.95 169.626 258.21C169.385 258.47 169.202 258.777 169.089 259.113C168.976 259.449 168.935 259.804 168.969 260.157C169.032 260.903 169.371 261.599 169.919 262.109C170.468 262.62 171.186 262.908 171.935 262.919H245.088C245.443 262.929 245.796 262.864 246.123 262.728C246.451 262.592 246.746 262.388 246.99 262.129C247.233 261.871 247.419 261.564 247.535 261.229C247.651 260.893 247.695 260.537 247.663 260.184V260.184C247.606 259.435 247.271 258.735 246.723 258.221C246.176 257.707 245.457 257.415 244.706 257.404V257.404Z" fill="#E0E0E0"/>
<g opacity="0.3">
<path d="M138.617 206.016C141.884 206.039 145.016 207.325 147.358 209.603C149.7 211.882 151.07 214.978 151.182 218.244C151.242 219.824 150.982 221.401 150.42 222.88C149.857 224.358 149.001 225.708 147.905 226.848C146.808 227.984 145.491 228.885 144.035 229.496C142.578 230.107 141.013 230.414 139.434 230.4C136.158 230.378 133.017 229.095 130.663 226.818C128.308 224.541 126.921 221.445 126.789 218.173C126.735 216.589 127.001 215.012 127.573 213.534C128.144 212.056 129.008 210.709 130.112 209.574C131.217 208.438 132.54 207.538 134.001 206.927C135.463 206.315 137.033 206.005 138.617 206.016M138.617 203.441C136.693 203.429 134.786 203.806 133.011 204.549C131.236 205.292 129.63 206.386 128.288 207.765C126.946 209.144 125.897 210.78 125.203 212.574C124.509 214.369 124.184 216.285 124.249 218.208C124.407 222.166 126.084 225.91 128.932 228.662C131.78 231.414 135.58 232.962 139.54 232.984C141.459 232.992 143.359 232.611 145.126 231.864C146.893 231.118 148.49 230.021 149.822 228.64C151.154 227.259 152.192 225.623 152.875 223.83C153.557 222.038 153.869 220.125 153.793 218.208C153.66 214.263 152.006 210.523 149.177 207.77C146.348 205.017 142.564 203.466 138.617 203.441V203.441Z" fill="#FCCD06"/>
</g>
<path d="M193.406 167.379H168.232C167.492 167.373 166.783 167.083 166.251 166.569C165.718 166.055 165.404 165.356 165.372 164.617V164.617C165.36 164.26 165.42 163.904 165.549 163.57C165.677 163.237 165.872 162.933 166.12 162.676C166.369 162.419 166.667 162.215 166.996 162.075C167.325 161.936 167.679 161.864 168.036 161.864H193.202C193.942 161.87 194.652 162.158 195.187 162.67C195.722 163.181 196.041 163.878 196.079 164.617V164.617C196.092 164.976 196.033 165.333 195.904 165.669C195.776 166.004 195.581 166.31 195.331 166.567C195.082 166.825 194.782 167.03 194.452 167.17C194.121 167.309 193.765 167.38 193.406 167.379V167.379Z" fill="#E0E0E0"/>
<path d="M222.462 167.379H205.412C204.671 167.373 203.961 167.083 203.428 166.569C202.894 166.056 202.578 165.357 202.544 164.617V164.617C202.532 164.26 202.592 163.904 202.721 163.57C202.849 163.237 203.043 162.933 203.292 162.676C203.541 162.419 203.838 162.215 204.167 162.075C204.497 161.936 204.85 161.864 205.208 161.864H222.266C223.005 161.87 223.714 162.159 224.248 162.67C224.781 163.182 225.098 163.879 225.135 164.617V164.617C225.148 164.976 225.088 165.333 224.96 165.669C224.831 166.004 224.636 166.31 224.387 166.567C224.137 166.825 223.838 167.03 223.507 167.17C223.176 167.309 222.821 167.38 222.462 167.379V167.379Z" fill="#E0E0E0"/>
<path d="M236.208 178.967H168.631C167.892 178.963 167.182 178.673 166.651 178.159C166.12 177.644 165.808 176.944 165.781 176.205V176.205C165.769 175.848 165.829 175.492 165.957 175.159C166.086 174.825 166.28 174.521 166.529 174.264C166.777 174.007 167.075 173.803 167.404 173.664C167.733 173.524 168.087 173.452 168.445 173.453H236.013C236.75 173.457 237.457 173.745 237.986 174.258C238.516 174.771 238.827 175.469 238.854 176.205C238.867 176.562 238.809 176.917 238.682 177.251C238.555 177.584 238.362 177.889 238.115 178.146C237.869 178.404 237.573 178.609 237.245 178.75C236.917 178.891 236.565 178.965 236.208 178.967V178.967Z" fill="#E0E0E0"/>
<g opacity="0.3">
<path d="M140.544 253.754C143.856 253.819 147.028 255.104 149.453 257.361C151.878 259.619 153.385 262.692 153.686 265.991C153.845 267.537 153.682 269.099 153.207 270.579C152.732 272.058 151.954 273.423 150.924 274.587C149.886 275.731 148.615 276.639 147.197 277.252C145.779 277.864 144.246 278.167 142.702 278.139C139.36 278.085 136.154 276.813 133.685 274.561C131.216 272.309 129.654 269.233 129.293 265.911C129.14 264.354 129.32 262.782 129.819 261.299C130.318 259.816 131.125 258.455 132.188 257.306C133.257 256.166 134.552 255.261 135.991 254.649C137.43 254.038 138.981 253.733 140.544 253.754M140.419 251.188C138.518 251.151 136.63 251.516 134.879 252.26C133.128 253.003 131.554 254.108 130.261 255.503C128.967 256.897 127.982 258.549 127.372 260.35C126.761 262.152 126.538 264.062 126.718 265.956C127.401 274.107 134.798 280.723 142.95 280.723C151.102 280.723 156.945 274.107 156.27 265.956C155.918 261.973 154.105 258.261 151.18 255.535C148.256 252.808 144.426 251.26 140.428 251.188H140.419Z" fill="#FCCD06"/>
</g>
<path d="M247.752 221.227H169.777C169.419 221.227 169.065 221.299 168.736 221.438C168.407 221.578 168.109 221.782 167.861 222.039C167.612 222.295 167.418 222.6 167.289 222.933C167.161 223.267 167.101 223.623 167.113 223.98V223.98C167.145 224.717 167.458 225.413 167.988 225.925C168.519 226.438 169.226 226.727 169.963 226.733H247.974C248.331 226.733 248.685 226.661 249.014 226.522C249.344 226.382 249.641 226.178 249.89 225.921C250.138 225.665 250.333 225.36 250.461 225.027C250.59 224.693 250.65 224.337 250.638 223.98V223.98C250.61 223.236 250.293 222.531 249.754 222.017C249.215 221.503 248.497 221.22 247.752 221.227V221.227Z" fill="#E0E0E0"/>
<path d="M229.273 209.63H169.439C169.081 209.63 168.726 209.702 168.397 209.842C168.067 209.982 167.769 210.187 167.52 210.444C167.271 210.702 167.077 211.007 166.949 211.342C166.821 211.677 166.762 212.034 166.775 212.392V212.392C166.8 213.127 167.109 213.825 167.637 214.338C168.166 214.851 168.872 215.14 169.608 215.144H229.45C229.808 215.145 230.162 215.073 230.491 214.933C230.82 214.794 231.118 214.59 231.366 214.333C231.615 214.076 231.809 213.772 231.938 213.438C232.066 213.105 232.126 212.749 232.114 212.392V212.392C232.093 211.652 231.785 210.949 231.254 210.434C230.724 209.918 230.013 209.63 229.273 209.63V209.63Z" fill="#E0E0E0"/>
<path d="M138.466 179.127L137.418 177.404C135.118 173.648 130.314 170.3 128.662 169.315L129.905 167.112C133.167 169.087 136.073 171.596 138.501 174.536C142.275 169.466 147.79 164.253 155.258 158.623L156.865 160.701C148.873 166.713 143.208 172.245 139.576 177.511C139.212 178.052 138.839 178.594 138.466 179.127Z" fill="#FCCD06"/>
<path d="M139.798 226.901C139.451 226.324 139.096 225.747 138.741 225.179C136.432 221.423 131.637 218.075 130.003 217.08L131.264 214.878C134.509 216.858 137.4 219.367 139.816 222.302C143.598 217.24 149.157 212.019 156.741 206.389L158.313 208.467C150.214 214.478 144.513 220.011 140.899 225.276L139.798 226.901Z" fill="#FCCD06"/>
<path d="M142.844 274.783L141.672 273.06C139.114 269.304 134.159 265.956 132.454 264.97L133.609 262.768C136.964 264.757 139.987 267.258 142.568 270.183C146.049 265.121 151.342 259.9 158.695 254.279L160.355 256.357C152.505 262.368 147.115 267.901 143.838 273.167L142.844 274.783Z" fill="#FCCD06"/>
<path d="M199.001 114.552C197.438 117.962 195.836 121.369 194.197 124.773C197.577 126.454 200.467 128.978 202.589 132.101C204.711 135.224 205.992 138.841 206.309 142.604H218.11C217.329 130.536 209.568 120.031 199.001 114.552Z" fill="#FCCD06"/>
<path d="M154.041 142.622H165.843C165.553 139.284 166.162 135.929 167.604 132.905C169.047 129.88 171.271 127.297 174.048 125.421C171.751 122.011 169.418 118.601 167.05 115.191C158.437 120.768 153.286 130.989 154.041 142.622Z" fill="#263238"/>
<path d="M183.035 110.591C177.372 110.535 171.817 112.134 167.051 115.191C169.419 118.601 171.751 122.011 174.048 125.421C177.125 123.41 180.727 122.354 184.402 122.384C187.802 122.404 191.15 123.228 194.17 124.79C195.804 121.38 197.405 117.974 198.974 114.57C194.054 111.991 188.589 110.627 183.035 110.591V110.591Z" fill="#FCCD06"/>
<path opacity="0.5" d="M183.035 110.591C177.372 110.535 171.817 112.134 167.051 115.191C169.419 118.601 171.751 122.011 174.048 125.421C177.125 123.41 180.727 122.354 184.402 122.384C187.802 122.404 191.15 123.228 194.17 124.79C195.804 121.38 197.405 117.974 198.974 114.57C194.054 111.991 188.589 110.627 183.035 110.591V110.591Z" fill="#263238"/>
<path d="M197.456 134.541C197.456 134.541 185.539 139.416 184.278 140.304C183.977 140.532 183.724 140.818 183.535 141.145C183.346 141.472 183.224 141.834 183.177 142.208C183.13 142.583 183.158 142.964 183.26 143.327C183.362 143.691 183.536 144.031 183.772 144.326C184.216 144.958 184.89 145.392 185.649 145.536C186.408 145.68 187.193 145.523 187.839 145.099C189.144 144.158 197.473 134.541 197.456 134.541ZM184.935 143.421C184.819 143.275 184.733 143.108 184.683 142.929C184.633 142.75 184.619 142.563 184.642 142.378C184.665 142.193 184.725 142.015 184.818 141.854C184.911 141.693 185.035 141.553 185.183 141.44C185.503 141.235 185.89 141.159 186.263 141.231C186.637 141.302 186.969 141.513 187.19 141.822C187.306 141.968 187.392 142.135 187.442 142.314C187.493 142.493 187.506 142.68 187.483 142.865C187.46 143.049 187.4 143.227 187.307 143.388C187.214 143.549 187.09 143.69 186.942 143.802C186.626 144.012 186.243 144.093 185.869 144.028C185.496 143.964 185.162 143.759 184.935 143.456V143.421Z" fill="#263238"/>
<path d="M211.584 128.902C211.642 129.436 211.585 129.977 211.418 130.488C211.251 130.999 210.977 131.469 210.614 131.865C210.251 132.262 209.807 132.576 209.313 132.788C208.819 133 208.285 133.104 207.748 133.093C206.608 133.071 205.517 132.632 204.679 131.86C203.842 131.088 203.316 130.035 203.201 128.902C203.14 128.37 203.194 127.832 203.358 127.322C203.522 126.813 203.793 126.345 204.153 125.949C204.513 125.553 204.953 125.238 205.444 125.026C205.936 124.814 206.467 124.71 207.002 124.719C208.144 124.739 209.24 125.174 210.083 125.944C210.927 126.715 211.461 127.766 211.584 128.902V128.902Z" fill="white"/>
<path d="M206.389 127.943C206.398 128.027 206.388 128.113 206.362 128.193C206.336 128.274 206.293 128.348 206.236 128.411C206.179 128.474 206.109 128.524 206.031 128.558C205.954 128.592 205.87 128.609 205.785 128.609C205.603 128.608 205.428 128.539 205.293 128.416C205.159 128.293 205.074 128.124 205.057 127.943C205.047 127.858 205.055 127.773 205.081 127.691C205.107 127.61 205.15 127.535 205.207 127.472C205.264 127.409 205.334 127.359 205.413 127.325C205.491 127.292 205.576 127.275 205.661 127.277C205.843 127.278 206.018 127.347 206.153 127.47C206.287 127.593 206.371 127.762 206.389 127.943V127.943Z" fill="#263238"/>
<path d="M209.568 127.943C209.577 128.028 209.567 128.114 209.54 128.195C209.514 128.276 209.47 128.351 209.412 128.414C209.354 128.477 209.283 128.527 209.204 128.56C209.126 128.594 209.041 128.61 208.955 128.609C208.774 128.604 208.601 128.534 208.467 128.411C208.334 128.289 208.248 128.123 208.227 127.943C208.217 127.857 208.225 127.771 208.251 127.689C208.278 127.607 208.322 127.532 208.38 127.469C208.438 127.405 208.509 127.355 208.589 127.322C208.668 127.289 208.754 127.274 208.84 127.277C209.022 127.278 209.197 127.347 209.332 127.47C209.466 127.593 209.55 127.761 209.568 127.943V127.943Z" fill="#263238"/>
<path d="M207.588 131.424C206.709 131.417 205.865 131.085 205.217 130.491C205.156 130.43 205.122 130.347 205.122 130.261C205.122 130.174 205.156 130.091 205.217 130.03C205.247 129.999 205.282 129.974 205.322 129.957C205.362 129.94 205.404 129.931 205.448 129.931C205.491 129.931 205.533 129.94 205.573 129.957C205.613 129.974 205.649 129.999 205.678 130.03C206.204 130.514 206.891 130.786 207.605 130.793V130.793C207.937 130.801 208.267 130.738 208.573 130.61C208.879 130.481 209.154 130.29 209.381 130.047C209.442 129.984 209.524 129.947 209.612 129.944C209.655 129.943 209.698 129.95 209.739 129.966C209.779 129.981 209.816 130.004 209.848 130.034C209.879 130.064 209.904 130.1 209.922 130.139C209.94 130.179 209.95 130.221 209.951 130.265C209.952 130.308 209.945 130.351 209.929 130.391C209.914 130.432 209.891 130.469 209.861 130.5C209.568 130.806 209.215 131.046 208.823 131.205C208.431 131.364 208.01 131.439 207.588 131.424V131.424Z" fill="#263238"/>
<path d="M187.919 116.417C187.992 116.945 187.95 117.483 187.795 117.994C187.64 118.504 187.376 118.975 187.021 119.373C186.667 119.772 186.23 120.089 185.741 120.302C185.252 120.515 184.722 120.619 184.189 120.608C183.04 120.581 181.939 120.144 181.086 119.375C180.232 118.606 179.682 117.556 179.536 116.417C179.457 115.891 179.493 115.354 179.644 114.843C179.794 114.333 180.055 113.862 180.407 113.464C180.759 113.065 181.194 112.748 181.682 112.536C182.17 112.323 182.698 112.22 183.23 112.234C184.381 112.261 185.484 112.697 186.343 113.463C187.202 114.229 187.761 115.276 187.919 116.417Z" fill="white"/>
<path d="M182.697 115.44C182.709 115.523 182.702 115.608 182.678 115.689C182.653 115.769 182.612 115.844 182.556 115.907C182.501 115.97 182.432 116.02 182.355 116.055C182.279 116.089 182.195 116.106 182.111 116.106C181.928 116.101 181.752 116.032 181.616 115.91C181.479 115.788 181.39 115.621 181.365 115.44C181.352 115.356 181.358 115.271 181.381 115.189C181.405 115.108 181.446 115.033 181.502 114.969C181.558 114.906 181.627 114.855 181.705 114.821C181.782 114.788 181.867 114.771 181.951 114.774C182.135 114.776 182.311 114.845 182.448 114.968C182.585 115.09 182.674 115.258 182.697 115.44V115.44Z" fill="#263238"/>
<path d="M185.867 115.44C185.879 115.524 185.872 115.609 185.847 115.691C185.822 115.772 185.78 115.847 185.724 115.91C185.667 115.974 185.597 116.024 185.52 116.058C185.442 116.091 185.357 116.108 185.272 116.106C185.09 116.099 184.915 116.029 184.779 115.908C184.643 115.786 184.553 115.62 184.526 115.44C184.515 115.355 184.522 115.27 184.546 115.189C184.571 115.107 184.613 115.032 184.67 114.969C184.726 114.906 184.796 114.855 184.874 114.822C184.952 114.788 185.036 114.772 185.121 114.774C185.304 114.778 185.48 114.848 185.617 114.97C185.753 115.092 185.842 115.258 185.867 115.44Z" fill="#263238"/>
<path d="M185.956 118.104H181.8C181.721 118.091 181.649 118.05 181.598 117.989C181.546 117.928 181.517 117.851 181.517 117.771C181.517 117.691 181.546 117.614 181.598 117.553C181.649 117.492 181.721 117.451 181.8 117.438H185.956C186.035 117.451 186.107 117.492 186.159 117.553C186.21 117.614 186.239 117.691 186.239 117.771C186.239 117.851 186.21 117.928 186.159 117.989C186.107 118.05 186.035 118.091 185.956 118.104V118.104Z" fill="#263238"/>
<path d="M166.829 128.902C166.887 129.436 166.83 129.977 166.663 130.488C166.496 130.999 166.221 131.469 165.858 131.865C165.495 132.262 165.052 132.576 164.558 132.788C164.064 133 163.53 133.104 162.992 133.093C161.853 133.071 160.762 132.632 159.924 131.86C159.087 131.088 158.561 130.035 158.446 128.902C158.385 128.37 158.439 127.832 158.603 127.322C158.767 126.813 159.038 126.345 159.398 125.949C159.758 125.553 160.198 125.238 160.689 125.026C161.181 124.814 161.711 124.71 162.246 124.719C163.388 124.741 164.483 125.177 165.326 125.947C166.169 126.716 166.704 127.767 166.829 128.902V128.902Z" fill="white"/>
<path d="M161.616 127.943C161.625 128.027 161.616 128.113 161.589 128.193C161.563 128.274 161.52 128.348 161.463 128.411C161.406 128.474 161.336 128.524 161.258 128.558C161.181 128.592 161.097 128.609 161.012 128.609C160.83 128.608 160.655 128.539 160.52 128.416C160.386 128.293 160.301 128.124 160.284 127.943C160.274 127.858 160.282 127.773 160.308 127.691C160.334 127.61 160.377 127.535 160.434 127.472C160.491 127.409 160.561 127.359 160.64 127.325C160.718 127.292 160.803 127.275 160.888 127.277C161.07 127.278 161.245 127.347 161.38 127.47C161.514 127.593 161.598 127.762 161.616 127.943V127.943Z" fill="#263238"/>
<path d="M164.795 127.943C164.805 128.028 164.797 128.113 164.771 128.195C164.745 128.276 164.702 128.351 164.645 128.414C164.588 128.477 164.518 128.527 164.439 128.561C164.361 128.594 164.276 128.611 164.191 128.609C164.01 128.604 163.837 128.534 163.703 128.411C163.57 128.289 163.484 128.123 163.463 127.943C163.453 127.858 163.461 127.773 163.487 127.691C163.513 127.61 163.556 127.535 163.613 127.472C163.67 127.409 163.74 127.359 163.819 127.325C163.897 127.292 163.982 127.275 164.067 127.277C164.25 127.276 164.426 127.344 164.561 127.468C164.696 127.591 164.779 127.761 164.795 127.943V127.943Z" fill="#263238"/>
<path d="M160.728 131.424C160.687 131.424 160.646 131.417 160.608 131.402C160.57 131.386 160.535 131.364 160.506 131.335C160.445 131.273 160.411 131.191 160.411 131.104C160.411 131.018 160.445 130.935 160.506 130.873C160.794 130.567 161.142 130.324 161.529 130.159C161.916 129.994 162.332 129.91 162.753 129.914C163.632 129.924 164.477 130.259 165.124 130.855C165.155 130.885 165.179 130.921 165.196 130.961C165.213 131.001 165.222 131.043 165.222 131.086C165.222 131.129 165.213 131.172 165.196 131.212C165.179 131.252 165.155 131.287 165.124 131.317C165.06 131.377 164.975 131.409 164.888 131.409C164.801 131.409 164.717 131.377 164.653 131.317C164.127 130.827 163.436 130.554 162.717 130.554C162.386 130.546 162.057 130.608 161.751 130.735C161.445 130.862 161.17 131.051 160.941 131.291C160.889 131.36 160.813 131.408 160.728 131.424V131.424Z" fill="#263238"/>
<path d="M227.985 98.1771C225.214 92.343 218.75 88.4802 211.779 88.4802H197.571C196.595 88.5232 195.626 88.3077 194.76 87.8555C193.895 87.4033 193.164 86.7304 192.643 85.905C190.662 82.1931 185.938 79.5469 180.575 79.5469C175.211 79.5469 170.807 82.2109 169.244 85.905C168.596 87.4678 166.74 88.4802 164.608 88.4802H150.4C143.43 88.4802 137.4 92.343 135.304 98.1771C135.227 98.3808 135.196 98.5994 135.216 98.8165C135.238 99.2719 135.436 99.7012 135.766 100.015C136.097 100.329 136.536 100.504 136.992 100.504H226.573C226.847 100.504 227.116 100.434 227.355 100.3C227.594 100.166 227.794 99.9728 227.936 99.7388C228.078 99.5048 228.157 99.2381 228.165 98.9645C228.174 98.6909 228.112 98.4196 227.985 98.1771V98.1771ZM181.152 90.0874C180.092 90.0655 179.079 89.6479 178.311 88.9166C177.544 88.1853 177.078 87.1934 177.005 86.1358C176.969 85.6265 177.04 85.1153 177.212 84.6345C177.383 84.1537 177.653 83.7138 178.004 83.3425C178.354 82.9712 178.778 82.6765 179.248 82.4772C179.718 82.2778 180.224 82.1781 180.735 82.1842C181.801 82.1953 182.824 82.6083 183.6 83.3409C184.375 84.0734 184.846 85.0715 184.917 86.1358C184.953 86.6482 184.882 87.1624 184.708 87.6457C184.534 88.1289 184.261 88.5706 183.906 88.9425C183.552 89.3143 183.124 89.6082 182.65 89.8054C182.176 90.0025 181.665 90.0986 181.152 90.0874V90.0874Z" fill="#263238"/>
<path d="M320.053 363.29C319.358 363.375 318.656 363.201 318.082 362.801C318.006 362.707 317.96 362.593 317.949 362.473C317.938 362.353 317.962 362.232 318.02 362.126C318.062 362.035 318.125 361.955 318.204 361.892C318.282 361.828 318.374 361.784 318.472 361.762C319.52 361.469 321.945 362.766 322.024 362.828C322.055 362.841 322.08 362.864 322.096 362.893C322.112 362.922 322.118 362.955 322.113 362.988C322.112 363.017 322.101 363.046 322.081 363.068C322.062 363.091 322.036 363.106 322.007 363.112C321.362 363.227 320.708 363.286 320.053 363.29V363.29ZM318.881 362.029C318.784 362.014 318.685 362.014 318.588 362.029C318.527 362.04 318.47 362.065 318.421 362.102C318.372 362.139 318.331 362.187 318.304 362.242C318.215 362.437 318.304 362.535 318.304 362.588C318.659 363.005 320.311 363.014 321.501 362.846C320.683 362.418 319.796 362.142 318.881 362.029Z" fill="#FCCD06"/>
<path d="M322.007 363.112H321.944C321.119 362.757 319.396 361.336 319.431 360.608C319.431 360.43 319.538 360.217 319.964 360.173C320.283 360.145 320.601 360.241 320.852 360.439C321.516 361.135 321.966 362.007 322.149 362.952C322.16 362.974 322.165 362.998 322.165 363.023C322.165 363.048 322.16 363.072 322.149 363.094C322.128 363.109 322.105 363.118 322.08 363.121C322.055 363.124 322.03 363.121 322.007 363.112V363.112ZM320.115 360.448H320.026C319.751 360.448 319.742 360.581 319.742 360.617C319.742 361.061 320.906 362.171 321.767 362.65C321.598 361.892 321.22 361.196 320.675 360.643C320.514 360.522 320.316 360.46 320.115 360.466V360.448Z" fill="#FCCD06"/>
<path d="M329.164 362.961H322.637L320.302 347.847H326.829L329.164 362.961Z" fill="#FFC3BD"/>
<path d="M322.593 362.206H329.697C329.83 362.21 329.96 362.254 330.068 362.334C330.176 362.413 330.257 362.523 330.3 362.65L332.236 368.449C332.277 368.579 332.288 368.716 332.267 368.851C332.246 368.985 332.195 369.114 332.117 369.225C332.039 369.337 331.936 369.429 331.817 369.494C331.697 369.56 331.564 369.597 331.428 369.603C328.853 369.603 325.123 369.417 321.891 369.417C318.117 369.417 318.455 369.621 314.023 369.621C311.359 369.621 310.303 366.912 311.359 366.664C316.341 365.554 316.918 365.429 321.021 362.712C321.48 362.386 322.029 362.209 322.593 362.206V362.206Z" fill="#263238"/>
<path opacity="0.2" d="M320.302 347.856L321.509 355.644H328.036L326.829 347.856H320.302Z" fill="black"/>
<path d="M328.418 200.2L323.978 204.684L330.78 207.091C330.78 207.091 333.444 203.432 331.57 200.928L328.418 200.2Z" fill="#FFC3BD"/>
<path d="M322.486 210.953L329.279 211.948L330.798 207.091L323.996 204.684L322.486 210.953Z" fill="#FFC3BD"/>
<path d="M331.384 144.983C331.961 146.227 332.423 147.283 332.884 148.438C333.346 149.592 333.772 150.702 334.216 151.839C335.06 154.121 335.815 156.447 336.516 158.801C337.23 161.182 337.823 163.597 338.292 166.038L338.63 167.903L338.905 169.803C339.003 170.433 339.065 171.091 339.118 171.739C339.172 172.387 339.26 172.973 339.26 173.79V174.945V175.966L339.207 176.969L339.109 177.919C338.994 179.198 338.825 180.397 338.665 181.613C338.31 184.011 337.902 186.355 337.449 188.717C336.508 193.362 335.477 197.899 334.234 202.473L326.145 200.874C326.66 196.363 327.192 191.781 327.619 187.27C327.823 185.014 328.045 182.768 328.169 180.566C328.222 179.482 328.285 178.381 328.285 177.342V176.561V175.841V175.122L328.222 174.536C328.182 174.068 328.117 173.603 328.027 173.142C327.947 172.645 327.876 172.147 327.761 171.641L327.432 170.123L327.05 168.595C326.5 166.553 325.878 164.502 325.168 162.45C324.457 160.399 323.667 158.357 322.832 156.332C322.424 155.311 321.998 154.299 321.554 153.304C321.11 152.309 320.666 151.27 320.23 150.409L331.384 144.983Z" fill="#263238"/>
<path d="M300.721 197.021C300.721 197.021 301.805 246.962 304.735 266.853C307.79 287.543 318.943 354.134 318.943 354.134H329.99C329.99 354.134 326.029 290.758 324.768 270.396C323.392 248.196 323.694 197.021 323.694 197.021H300.721Z" fill="#FCCD06"/>
<path d="M316.288 349.73C316.235 349.73 317.425 354.321 317.425 354.321H330.869L330.771 350.227L316.288 349.73Z" fill="#263238"/>
<path d="M298.232 116.061C298.266 115.507 298 115.041 297.638 115.019C297.275 114.996 296.954 115.427 296.92 115.98C296.886 116.533 297.152 117 297.515 117.022C297.877 117.044 298.198 116.614 298.232 116.061Z" fill="#263238"/>
<path d="M297.96 117.021C297.239 118.713 296.296 120.302 295.154 121.745C295.527 122.016 295.955 122.201 296.408 122.287C296.861 122.373 297.327 122.357 297.773 122.242L297.96 117.021Z" fill="#ED847E"/>
<path d="M300.304 112.953C300.235 112.953 300.168 112.935 300.108 112.9C299.791 112.65 299.417 112.481 299.02 112.406C298.622 112.332 298.213 112.355 297.826 112.474C297.787 112.489 297.744 112.497 297.702 112.496C297.659 112.495 297.617 112.486 297.578 112.468C297.539 112.451 297.504 112.426 297.475 112.395C297.446 112.364 297.424 112.327 297.409 112.287C297.395 112.247 297.389 112.203 297.392 112.16C297.394 112.117 297.406 112.075 297.425 112.036C297.444 111.998 297.47 111.963 297.502 111.934C297.535 111.906 297.572 111.884 297.613 111.87C298.1 111.712 298.618 111.674 299.122 111.761C299.626 111.847 300.102 112.056 300.508 112.367C300.575 112.42 300.619 112.497 300.631 112.581C300.642 112.666 300.621 112.751 300.57 112.82C300.539 112.861 300.499 112.895 300.452 112.918C300.406 112.941 300.355 112.953 300.304 112.953V112.953Z" fill="#263238"/>
<path d="M315.507 122.118C314.405 126.895 313.162 135.642 316.395 138.821C316.395 138.821 314.92 143.661 306.049 143.661C296.281 143.661 301.565 138.821 301.565 138.821C306.893 137.551 306.937 133.608 306.138 129.897L315.507 122.118Z" fill="#FFC3BD"/>
<path d="M319.831 141.059C320.79 139.114 321.847 136.876 319.831 136.184C317.629 135.411 305.454 134.63 301.183 136.068C300.042 136.359 299.063 137.091 298.462 138.104C297.861 139.116 297.687 140.326 297.977 141.467L319.831 141.059Z" fill="#FCCD06"/>
<path d="M329.173 140.695C334.794 143.288 337.653 162.948 337.653 162.948L326.331 166.5C324.308 161.298 322.667 155.956 321.42 150.516C319.68 142.311 323.418 138.048 329.173 140.695Z" fill="#263238"/>
<path d="M259.589 171.286L254.368 166.793L249.67 173.631C249.67 173.631 253.888 177.014 258.55 175.629L259.589 171.286Z" fill="#FFC3BD"/>
<path d="M247.486 164.617L246.766 171.375L249.67 173.63L254.368 166.793L247.486 164.617Z" fill="#FFC3BD"/>
<path d="M316.705 114.845C316.048 121.629 316.004 125.625 312.452 129.106C311.308 130.24 309.877 131.04 308.313 131.423C306.749 131.806 305.11 131.756 303.572 131.279C302.034 130.802 300.654 129.915 299.581 128.714C298.508 127.514 297.782 126.044 297.48 124.462C296.237 118.37 297.48 108.3 304.255 105.601C305.698 104.979 307.278 104.747 308.838 104.929C310.398 105.11 311.884 105.699 313.145 106.635C314.406 107.571 315.398 108.823 316.023 110.264C316.648 111.705 316.883 113.284 316.705 114.845V114.845Z" fill="#FFC3BD"/>
<path d="M302.808 117.021C302.213 112.332 302.311 110.556 304.815 109.517C302.213 109.002 299.957 108.931 298.883 107.412C297.808 105.894 297.551 102.013 302.772 100.237C302.293 101.125 303.811 102.972 308.615 101.303C313.42 99.6335 320.417 99.4559 321.047 104.34C323.587 103.452 327.841 111.293 322.823 117.021C318.641 121.816 315.853 125.128 315.027 127.677C314.988 127.796 314.925 127.906 314.84 127.999C314.756 128.092 314.653 128.166 314.538 128.216C314.423 128.267 314.299 128.292 314.174 128.291C314.048 128.29 313.924 128.262 313.81 128.209C312.079 127.401 308.98 128.094 307.594 128.467C307.399 128.517 307.193 128.5 307.009 128.418C306.825 128.336 306.674 128.193 306.582 128.014C305.685 126.167 303.261 120.892 302.808 117.021Z" fill="#263238"/>
<path d="M320.106 104.935C320.106 104.935 322.166 102.031 326.118 104.189C324.086 104.094 322.053 104.346 320.106 104.935Z" fill="#263238"/>
<path d="M320.444 105.556C320.444 105.556 323.312 103.78 321.074 100.433C321.211 102.166 320.997 103.908 320.444 105.556Z" fill="#263238"/>
<path d="M306.129 117.216C305.818 118.895 304.985 120.433 303.749 121.611C302.107 123.165 300.686 122.064 300.641 120.066C300.597 118.29 301.396 115.289 303.305 114.49C305.215 113.69 306.467 115.209 306.129 117.216Z" fill="#FFC3BD"/>
<path opacity="0.3" d="M301.636 224.771C302.275 239.671 303.279 256.969 304.735 266.853C305.294 270.618 306.111 275.893 307.088 282.011C311.013 260.592 313.357 232.993 301.636 224.771Z" fill="black"/>
<path d="M296.743 363.29C295.908 363.29 295.1 363.174 294.843 362.801C294.775 362.702 294.74 362.584 294.74 362.464C294.74 362.344 294.775 362.226 294.843 362.126C294.962 361.948 295.142 361.818 295.349 361.762C296.441 361.469 298.679 362.766 298.776 362.828C298.804 362.843 298.825 362.867 298.837 362.896C298.848 362.926 298.849 362.958 298.839 362.988C298.832 363.018 298.817 363.046 298.795 363.069C298.773 363.091 298.745 363.106 298.714 363.112C298.063 363.226 297.404 363.285 296.743 363.29ZM295.757 362.029C295.657 362.014 295.555 362.014 295.455 362.029C295.392 362.041 295.331 362.066 295.278 362.103C295.224 362.139 295.179 362.187 295.145 362.242C295.029 362.437 295.065 362.535 295.1 362.588C295.393 363.005 297.036 363.014 298.261 362.846C297.488 362.412 296.637 362.134 295.757 362.029V362.029Z" fill="#FCCD06"/>
<path d="M298.723 363.112H298.661C297.888 362.757 296.37 361.336 296.521 360.608C296.521 360.43 296.681 360.217 297.107 360.173C297.265 360.153 297.426 360.166 297.579 360.212C297.732 360.258 297.874 360.335 297.995 360.439C298.803 361.123 298.883 362.881 298.883 362.952C298.882 362.979 298.876 363.006 298.863 363.031C298.851 363.056 298.834 363.077 298.812 363.094C298.785 363.108 298.754 363.114 298.723 363.112ZM297.222 360.448H297.134C296.85 360.448 296.832 360.581 296.823 360.617C296.734 361.061 297.755 362.171 298.546 362.65C298.497 361.915 298.22 361.214 297.755 360.643C297.604 360.523 297.415 360.46 297.222 360.466V360.448Z" fill="#FCCD06"/>
<path d="M305.898 362.961H299.38L299.256 347.847H305.783L305.898 362.961Z" fill="#FFC3BD"/>
<path d="M299.443 362.206H306.547C306.674 362.204 306.797 362.248 306.895 362.33C306.993 362.411 307.058 362.525 307.079 362.65L308.172 368.449C308.196 368.592 308.189 368.738 308.151 368.878C308.113 369.018 308.044 369.147 307.95 369.258C307.856 369.368 307.739 369.456 307.607 369.516C307.474 369.575 307.331 369.605 307.186 369.603C304.62 369.603 300.908 369.417 297.684 369.417C293.901 369.417 290.634 369.621 286.202 369.621C283.538 369.621 282.881 366.912 284.009 366.664C289.151 365.554 293.324 365.43 297.826 362.712C298.309 362.4 298.868 362.225 299.443 362.206Z" fill="#263238"/>
<path opacity="0.2" d="M299.265 347.856L299.318 355.644H305.845L305.792 347.856H299.265Z" fill="black"/>
<path d="M289.08 197.021C289.08 197.021 286.416 245.798 286.469 265.69C286.469 286.38 296.947 354.134 296.947 354.134H307.994C307.994 354.134 305.117 287.588 306.36 267.288C307.683 245.088 314.094 197.038 314.094 197.038L289.08 197.021Z" fill="#FCCD06"/>
<path d="M294.976 349.73C294.923 349.73 295.429 354.321 295.429 354.321H308.873L309.388 350.227L294.976 349.73Z" fill="#263238"/>
<path d="M291.459 140.632C291.459 140.632 280.342 168.72 285.181 217.267H325.781C326.207 211.939 321.962 165.532 328.018 140.295C324.177 139.551 320.291 139.059 316.386 138.821C311.446 138.536 306.495 138.536 301.556 138.821C298.149 139.163 294.773 139.769 291.459 140.632V140.632Z" fill="#263238"/>
<path opacity="0.2" d="M285.714 166.056C285.11 170.496 284.613 175.566 284.293 181.152C292.179 173.906 294.878 155.853 294.878 155.853L285.714 166.056Z" fill="black"/>
<path d="M295.642 154.006C294.043 158.161 292.427 162.166 290.651 166.189C288.875 170.212 287.037 174.181 284.968 178.159L284.16 179.642L283.752 180.388C283.583 180.69 283.601 180.708 283.139 181.48C282.343 182.732 281.239 183.76 279.933 184.464C278.853 185.032 277.675 185.387 276.461 185.512C274.793 185.665 273.111 185.529 271.488 185.112C270.205 184.795 268.947 184.385 267.723 183.887C265.526 182.977 263.398 181.909 261.356 180.69C260.353 180.113 259.394 179.491 258.444 178.914C257.493 178.337 256.632 177.6 255.611 176.889L260.406 169.537C263.847 171.433 267.46 173 271.195 174.217C271.988 174.462 272.799 174.646 273.619 174.767C274.088 174.867 274.572 174.867 275.04 174.767C275.094 174.767 274.925 174.714 274.632 174.865C274.275 175.047 273.97 175.315 273.744 175.646C273.557 175.957 273.797 175.495 273.877 175.318L274.197 174.616L274.836 173.222C276.523 169.457 278.086 165.559 279.605 161.678C281.123 157.797 282.597 153.748 283.956 149.832L295.642 154.006Z" fill="#263238"/>
<path d="M300.055 143.581C302.133 149.388 287.428 172.769 287.428 172.769L278.708 164.129C278.708 164.129 280.937 156.785 283.876 147.941C286.771 139.247 298.075 138.031 300.055 143.581Z" fill="#263238"/>
</svg>
