<svg xmlns="http://www.w3.org/2000/svg" xmlns:xlink="http://www.w3.org/1999/xlink" width="50" zoomAndPan="magnify" viewBox="0 0 112.5 112.499997" height="50" preserveAspectRatio="xMidYMid meet" version="1.0"><defs><clipPath id="182c0265af"><path d="M 0 55 L 21 55 L 21 112.003906 L 0 112.003906 Z M 0 55 " clip-rule="nonzero"/></clipPath><clipPath id="9b1056936c"><path d="M 99 76 L 112.003906 76 L 112.003906 112.003906 L 99 112.003906 Z M 99 76 " clip-rule="nonzero"/></clipPath><clipPath id="cc555dcfa9"><path d="M 67 58 L 101 58 L 101 112.003906 L 67 112.003906 Z M 67 58 " clip-rule="nonzero"/></clipPath><clipPath id="e8e6e6f8b2"><path d="M 78 98 L 87 98 L 87 112.003906 L 78 112.003906 Z M 78 98 " clip-rule="nonzero"/></clipPath><clipPath id="50ebf9e0d9"><path d="M 87 98 L 96 98 L 96 112.003906 L 87 112.003906 Z M 87 98 " clip-rule="nonzero"/></clipPath><clipPath id="22e440d785"><path d="M 17 91 L 70 91 L 70 112.003906 L 17 112.003906 Z M 17 91 " clip-rule="nonzero"/></clipPath></defs><path fill="#4cafab" d="M 32.90625 59.757812 L 25.339844 59.757812 L 26.304688 22.316406 L 31.941406 22.316406 Z M 32.90625 59.757812 " fill-opacity="1" fill-rule="nonzero"/><path fill="#4cafab" d="M 83.882812 24.40625 L 92.816406 24.40625 L 92.816406 32.238281 L 83.882812 32.238281 Z M 83.882812 24.40625 " fill-opacity="1" fill-rule="nonzero"/><g clip-path="url(#182c0265af)"><path fill="#ffb950" d="M 20.53125 72.027344 L 0.0625 55.136719 L 0.0625 112.207031 L 20.53125 112.207031 Z M 20.53125 72.027344 " fill-opacity="1" fill-rule="nonzero"/></g><path fill="#00354c" d="M 36.949219 58.933594 L 18.839844 43.988281 L 18.839844 94.492188 L 36.949219 94.492188 Z M 36.949219 58.933594 " fill-opacity="1" fill-rule="nonzero"/><path fill="#00354c" d="M 35.5625 72.855469 L 70.820312 72.855469 L 70.820312 93.585938 L 35.5625 93.585938 Z M 35.5625 72.855469 " fill-opacity="1" fill-rule="nonzero"/><path fill="#4cafab" d="M 60.523438 96.640625 L 42.707031 96.640625 L 46.574219 29.625 L 56.660156 29.625 Z M 60.523438 96.640625 " fill-opacity="1" fill-rule="nonzero"/><g clip-path="url(#9b1056936c)"><path fill="#00354c" d="M 112.417969 112.148438 L 99.679688 112.148438 L 99.679688 76.230469 L 107.285156 76.230469 L 112.417969 82.980469 Z M 112.417969 112.148438 " fill-opacity="1" fill-rule="nonzero"/></g><path fill="#00354c" d="M 81.828125 27.175781 L 94.871094 27.175781 L 94.871094 60.683594 L 81.828125 60.683594 Z M 81.828125 27.175781 " fill-opacity="1" fill-rule="nonzero"/><g clip-path="url(#cc555dcfa9)"><path fill="#cf3e16" d="M 67.890625 58.714844 L 100.898438 58.714844 L 100.898438 112.148438 L 67.890625 112.148438 Z M 67.890625 58.714844 " fill-opacity="1" fill-rule="nonzero"/></g><g clip-path="url(#e8e6e6f8b2)"><path fill="#00354c" d="M 78.882812 98.808594 L 86.957031 98.808594 L 86.957031 112.101562 L 78.882812 112.101562 Z M 78.882812 98.808594 " fill-opacity="1" fill-rule="nonzero"/></g><g clip-path="url(#50ebf9e0d9)"><path fill="#00354c" d="M 87.84375 98.824219 L 95.925781 98.824219 L 95.925781 112.117188 L 87.84375 112.117188 Z M 87.84375 98.824219 " fill-opacity="1" fill-rule="nonzero"/></g><path fill="#ffb950" d="M 73.246094 64.097656 L 95.542969 64.097656 L 95.542969 69.160156 L 73.246094 69.160156 Z M 73.246094 64.097656 " fill-opacity="1" fill-rule="nonzero"/><path fill="#ffb950" d="M 73.246094 73.578125 L 95.542969 73.578125 L 95.542969 78.640625 L 73.246094 78.640625 Z M 73.246094 73.578125 " fill-opacity="1" fill-rule="nonzero"/><path fill="#ffb950" d="M 73.246094 83.222656 L 95.542969 83.222656 L 95.542969 88.285156 L 73.246094 88.285156 Z M 73.246094 83.222656 " fill-opacity="1" fill-rule="nonzero"/><path fill="#4cafab" d="M 81.828125 29.769531 L 94.871094 29.769531 L 94.871094 40.3125 L 81.828125 40.3125 Z M 81.828125 29.769531 " fill-opacity="1" fill-rule="nonzero"/><path fill="#4cafab" d="M 81.828125 46.460938 L 94.871094 46.460938 L 94.871094 53.933594 L 81.828125 53.933594 Z M 81.828125 46.460938 " fill-opacity="1" fill-rule="nonzero"/><path fill="#00354c" d="M 79.351562 32.601562 L 97.34375 32.601562 L 97.34375 34.890625 L 79.351562 34.890625 Z M 79.351562 32.601562 " fill-opacity="1" fill-rule="nonzero"/><path fill="#ffb950" d="M 104.777344 85.171875 L 107.902344 85.171875 L 107.902344 92.078125 L 104.777344 92.078125 Z M 104.777344 85.171875 " fill-opacity="1" fill-rule="nonzero"/><path fill="#ffb950" d="M 104.777344 95.5625 L 107.902344 95.5625 L 107.902344 102.464844 L 104.777344 102.464844 Z M 104.777344 95.5625 " fill-opacity="1" fill-rule="nonzero"/><g clip-path="url(#22e440d785)"><path fill="#ffb950" d="M 17.851562 91.980469 L 69.792969 91.980469 L 69.792969 112.148438 L 17.851562 112.148438 Z M 17.851562 91.980469 " fill-opacity="1" fill-rule="nonzero"/></g><path fill="#00354c" d="M 25.769531 97.636719 L 28.585938 97.636719 L 28.585938 104.085938 L 25.769531 104.085938 Z M 25.769531 97.636719 " fill-opacity="1" fill-rule="nonzero"/><path fill="#00354c" d="M 30.292969 97.636719 L 33.109375 97.636719 L 33.109375 104.085938 L 30.292969 104.085938 Z M 30.292969 97.636719 " fill-opacity="1" fill-rule="nonzero"/><path fill="#00354c" d="M 36.035156 97.636719 L 38.851562 97.636719 L 38.851562 104.085938 L 36.035156 104.085938 Z M 36.035156 97.636719 " fill-opacity="1" fill-rule="nonzero"/><path fill="#00354c" d="M 40.558594 97.636719 L 43.375 97.636719 L 43.375 104.085938 L 40.558594 104.085938 Z M 40.558594 97.636719 " fill-opacity="1" fill-rule="nonzero"/><path fill="#00354c" d="M 46.699219 97.636719 L 49.515625 97.636719 L 49.515625 104.085938 L 46.699219 104.085938 Z M 46.699219 97.636719 " fill-opacity="1" fill-rule="nonzero"/><path fill="#00354c" d="M 51.222656 97.636719 L 54.039062 97.636719 L 54.039062 104.085938 L 51.222656 104.085938 Z M 51.222656 97.636719 " fill-opacity="1" fill-rule="nonzero"/><path fill="#00354c" d="M 56.964844 97.636719 L 59.78125 97.636719 L 59.78125 104.085938 L 56.964844 104.085938 Z M 56.964844 97.636719 " fill-opacity="1" fill-rule="nonzero"/><path fill="#00354c" d="M 61.488281 97.636719 L 64.304688 97.636719 L 64.304688 104.085938 L 61.488281 104.085938 Z M 61.488281 97.636719 " fill-opacity="1" fill-rule="nonzero"/><path fill="#cf3e16" d="M 45.125 54.777344 L 58.109375 54.777344 L 57.429688 42.964844 L 45.804688 42.964844 Z M 45.125 54.777344 " fill-opacity="1" fill-rule="nonzero"/><path fill="#cf3e16" d="M 43.609375 81.050781 L 59.625 81.050781 L 58.820312 67.070312 L 44.414062 67.070312 Z M 43.609375 81.050781 " fill-opacity="1" fill-rule="nonzero"/><path fill="#ffb950" d="M 26.773438 60.707031 L 29.898438 60.707031 L 29.898438 67.609375 L 26.773438 67.609375 Z M 26.773438 60.707031 " fill-opacity="1" fill-rule="nonzero"/><path fill="#ffb950" d="M 26.773438 71.382812 L 29.898438 71.382812 L 29.898438 78.289062 L 26.773438 78.289062 Z M 26.773438 71.382812 " fill-opacity="1" fill-rule="nonzero"/><path fill="#ffb950" d="M 26.773438 82.0625 L 29.898438 82.0625 L 29.898438 88.964844 L 26.773438 88.964844 Z M 26.773438 82.0625 " fill-opacity="1" fill-rule="nonzero"/><path fill="#cf3e16" d="M 9.507812 74.445312 L 12.632812 74.445312 L 12.632812 81.351562 L 9.507812 81.351562 Z M 9.507812 74.445312 " fill-opacity="1" fill-rule="nonzero"/><path fill="#cf3e16" d="M 9.507812 85.125 L 12.632812 85.125 L 12.632812 92.027344 L 9.507812 92.027344 Z M 9.507812 85.125 " fill-opacity="1" fill-rule="nonzero"/><path fill="#cf3e16" d="M 9.507812 95.804688 L 12.632812 95.804688 L 12.632812 102.707031 L 9.507812 102.707031 Z M 9.507812 95.804688 " fill-opacity="1" fill-rule="nonzero"/><path fill="#4cafab" d="M 52.164062 26.539062 C 52.164062 26.539062 51.800781 26.175781 51.890625 25.582031 C 51.980469 24.992188 52.347656 24.902344 52.347656 24.902344 C 52.347656 24.902344 51.570312 23.171875 53.394531 22.445312 C 55.21875 21.714844 55.671875 23.308594 55.671875 23.308594 C 55.671875 23.308594 55.445312 21.988281 57.222656 21.125 C 58.761719 20.375 59.410156 21.171875 59.410156 21.171875 C 59.410156 21.171875 58.636719 19.125 60.59375 18.214844 C 62.554688 17.304688 63.285156 18.214844 63.285156 18.214844 C 63.285156 18.214844 66.066406 16.667969 67.339844 18.441406 C 68.617188 20.214844 66.746094 21.671875 66.746094 21.671875 C 66.746094 21.671875 67.660156 21.808594 67.523438 22.761719 C 67.386719 23.71875 66.292969 23.71875 66.292969 23.71875 C 66.292969 23.71875 66.839844 25.039062 65.015625 26.265625 C 63.195312 27.496094 61.234375 25.628906 61.234375 25.628906 C 61.234375 25.628906 60.59375 26.539062 59.183594 26.402344 C 57.769531 26.265625 57.679688 25.175781 57.679688 25.175781 C 57.679688 25.175781 57.359375 25.902344 56.492188 25.855469 C 55.628906 25.8125 55.445312 24.902344 55.445312 24.902344 C 55.445312 24.902344 55.355469 25.855469 54.625 25.902344 C 53.894531 25.945312 53.667969 25.582031 53.667969 25.582031 C 53.667969 25.582031 53.347656 27.222656 52.164062 26.539062 Z M 52.164062 26.539062 " fill-opacity="1" fill-rule="nonzero"/><path fill="#4cafab" d="M 88.96875 22.625 C 88.96875 22.625 88.480469 22.140625 88.601562 21.351562 C 88.722656 20.5625 89.210938 20.441406 89.210938 20.441406 C 89.210938 20.441406 88.175781 18.136719 90.609375 17.164062 C 93.042969 16.195312 93.648438 18.316406 93.648438 18.316406 C 93.648438 18.316406 93.34375 16.558594 95.714844 15.40625 C 97.769531 14.40625 98.632812 15.464844 98.632812 15.464844 C 98.632812 15.464844 97.601562 12.734375 100.214844 11.519531 C 102.828125 10.308594 103.800781 11.519531 103.800781 11.519531 C 103.800781 11.519531 107.507812 9.457031 109.210938 11.824219 C 110.914062 14.191406 108.421875 16.132812 108.421875 16.132812 C 108.421875 16.132812 109.636719 16.316406 109.453125 17.589844 C 109.273438 18.863281 107.8125 18.863281 107.8125 18.863281 C 107.8125 18.863281 108.542969 20.625 106.113281 22.261719 C 103.679688 23.902344 101.066406 21.410156 101.066406 21.410156 C 101.066406 21.410156 100.214844 22.625 98.328125 22.445312 C 96.445312 22.261719 96.324219 20.804688 96.324219 20.804688 C 96.324219 20.804688 95.898438 21.777344 94.742188 21.714844 C 93.585938 21.65625 93.34375 20.441406 93.34375 20.441406 C 93.34375 20.441406 93.222656 21.714844 92.25 21.777344 C 91.277344 21.835938 90.972656 21.351562 90.972656 21.351562 C 90.972656 21.351562 90.546875 23.539062 88.96875 22.625 Z M 88.96875 22.625 " fill-opacity="1" fill-rule="nonzero"/></svg>
