<svg xmlns="http://www.w3.org/2000/svg" xmlns:xlink="http://www.w3.org/1999/xlink" width="50" zoomAndPan="magnify" viewBox="0 0 112.5 112.499997" height="50" preserveAspectRatio="xMidYMid meet" version="1.0"><defs><clipPath id="a95c1114e1"><path d="M 63 72 L 112.003906 72 L 112.003906 106 L 63 106 Z M 63 72 " clip-rule="nonzero"/></clipPath><clipPath id="fe69b1055e"><path d="M 97 104 L 112.003906 104 L 112.003906 105 L 97 105 Z M 97 104 " clip-rule="nonzero"/></clipPath><clipPath id="c34142bcb2"><path d="M 93 72 L 112.003906 72 L 112.003906 105 L 93 105 Z M 93 72 " clip-rule="nonzero"/></clipPath><clipPath id="44e73fff6a"><path d="M 64 88 L 83 88 L 83 107.132812 L 64 107.132812 Z M 64 88 " clip-rule="nonzero"/></clipPath><clipPath id="33b9add764"><path d="M 73 105 L 79 105 L 79 107.132812 L 73 107.132812 Z M 73 105 " clip-rule="nonzero"/></clipPath><clipPath id="f72d2e30af"><path d="M 73 107 L 74 107 L 74 107.132812 L 73 107.132812 Z M 73 107 " clip-rule="nonzero"/></clipPath><clipPath id="d15c93dbbb"><path d="M 65 90 L 83 90 L 83 107.132812 L 65 107.132812 Z M 65 90 " clip-rule="nonzero"/></clipPath><clipPath id="fb64eba5fc"><path d="M 15 5.132812 L 33 5.132812 L 33 35 L 15 35 Z M 15 5.132812 " clip-rule="nonzero"/></clipPath></defs><path fill="#832013" d="M 63.785156 45.425781 C 63.785156 47.183594 62.359375 48.605469 60.597656 48.605469 L 50.214844 48.605469 C 48.453125 48.605469 47.027344 47.183594 47.027344 45.425781 L 47.027344 39.890625 C 47.027344 38.132812 48.453125 36.710938 50.214844 36.710938 L 60.597656 36.710938 C 62.359375 36.710938 63.785156 38.132812 63.785156 39.890625 Z M 63.5 32.6875 L 47.3125 32.6875 C 44.570312 32.6875 42.34375 34.90625 42.34375 37.644531 L 42.34375 46.269531 C 42.34375 49.011719 44.570312 51.230469 47.3125 51.230469 L 63.5 51.230469 C 66.242188 51.230469 68.46875 49.011719 68.46875 46.269531 L 68.46875 37.644531 C 68.46875 34.90625 66.242188 32.6875 63.5 32.6875 " fill-opacity="1" fill-rule="nonzero"/><path fill="#f03f27" d="M 95.453125 89.714844 C 95.453125 92.1875 93.445312 94.191406 90.964844 94.191406 L 19.847656 94.191406 C 17.371094 94.191406 15.359375 92.1875 15.359375 89.714844 L 15.359375 45.921875 C 15.359375 43.449219 17.371094 41.441406 19.847656 41.441406 L 90.964844 41.441406 C 93.445312 41.441406 95.453125 43.449219 95.453125 45.921875 L 95.453125 89.714844 " fill-opacity="1" fill-rule="nonzero"/><path fill="#832013" d="M 29.28125 92.953125 C 29.28125 94.660156 27.894531 96.046875 26.183594 96.046875 C 24.472656 96.046875 23.085938 94.660156 23.085938 92.953125 L 23.085938 42.679688 C 23.085938 40.972656 24.472656 39.589844 26.183594 39.589844 C 27.894531 39.589844 29.28125 40.972656 29.28125 42.679688 L 29.28125 92.953125 " fill-opacity="1" fill-rule="nonzero"/><path fill="#832013" d="M 87.726562 92.953125 C 87.726562 94.660156 86.339844 96.046875 84.628906 96.046875 C 82.917969 96.046875 81.53125 94.660156 81.53125 92.953125 L 81.53125 42.679688 C 81.53125 40.972656 82.917969 39.589844 84.628906 39.589844 C 86.339844 39.589844 87.726562 40.972656 87.726562 42.679688 L 87.726562 92.953125 " fill-opacity="1" fill-rule="nonzero"/><path fill="#ffffff" d="M 66.148438 54.4375 L 61.246094 54.4375 L 61.246094 51.414062 L 66.148438 51.414062 L 66.148438 54.4375 " fill-opacity="1" fill-rule="nonzero"/><path fill="#f7991c" d="M 65.332031 53.859375 L 62.0625 53.859375 L 62.0625 51.992188 L 65.332031 51.992188 L 65.332031 53.859375 " fill-opacity="1" fill-rule="nonzero"/><path fill="#ffffff" d="M 65.054688 66.101562 L 60.15625 66.101562 L 60.15625 63.078125 L 65.054688 63.078125 L 65.054688 66.101562 " fill-opacity="1" fill-rule="nonzero"/><path fill="#227e8f" d="M 64.238281 65.523438 L 60.96875 65.523438 L 60.96875 63.660156 L 64.238281 63.660156 L 64.238281 65.523438 " fill-opacity="1" fill-rule="nonzero"/><path fill="#ffffff" d="M 69.097656 59.945312 C 69.097656 61.261719 68.03125 62.328125 66.710938 62.328125 C 65.390625 62.328125 64.324219 61.261719 64.324219 59.945312 C 64.324219 58.628906 65.390625 57.5625 66.710938 57.5625 C 68.03125 57.5625 69.097656 58.628906 69.097656 59.945312 " fill-opacity="1" fill-rule="nonzero"/><path fill="#227e8f" d="M 68.371094 59.945312 C 68.371094 60.859375 67.628906 61.601562 66.710938 61.601562 C 65.792969 61.601562 65.050781 60.859375 65.050781 59.945312 C 65.050781 59.03125 65.792969 58.289062 66.710938 58.289062 C 67.628906 58.289062 68.371094 59.03125 68.371094 59.945312 " fill-opacity="1" fill-rule="nonzero"/><path fill="#ffffff" d="M 69.269531 48.988281 C 69.269531 49.886719 68.539062 50.613281 67.640625 50.613281 C 66.742188 50.613281 66.011719 49.886719 66.011719 48.988281 C 66.011719 48.09375 66.742188 47.367188 67.640625 47.367188 C 68.539062 47.367188 69.269531 48.09375 69.269531 48.988281 " fill-opacity="1" fill-rule="nonzero"/><path fill="#f7991c" d="M 68.773438 48.988281 C 68.773438 49.613281 68.265625 50.117188 67.640625 50.117188 C 67.015625 50.117188 66.507812 49.613281 66.507812 48.988281 C 66.507812 48.363281 67.015625 47.859375 67.640625 47.859375 C 68.265625 47.859375 68.773438 48.363281 68.773438 48.988281 " fill-opacity="1" fill-rule="nonzero"/><path fill="#ffffff" d="M 68.433594 55.53125 L 72.554688 48.410156 L 76.679688 55.53125 Z M 68.433594 55.53125 " fill-opacity="1" fill-rule="nonzero"/><path fill="#f7991c" d="M 70.09375 54.554688 L 72.554688 50.296875 L 75.019531 54.554688 Z M 70.09375 54.554688 " fill-opacity="1" fill-rule="nonzero"/><path fill="#ffffff" d="M 69.300781 64.140625 L 74.546875 62.738281 L 73.140625 67.972656 Z M 69.300781 64.140625 " fill-opacity="1" fill-rule="nonzero"/><path fill="#227e8f" d="M 70.53125 64.457031 L 73.664062 63.621094 L 72.824219 66.746094 Z M 70.53125 64.457031 " fill-opacity="1" fill-rule="nonzero"/><path fill="#f7991c" d="M 31.242188 57.410156 L 20.917969 57.410156 L 20.917969 52.878906 L 31.242188 52.878906 L 31.242188 57.410156 " fill-opacity="1" fill-rule="nonzero"/><path fill="#f7991c" d="M 79.570312 57.410156 L 89.894531 57.410156 L 89.894531 52.878906 L 79.570312 52.878906 Z M 79.570312 57.410156 " fill-opacity="1" fill-rule="nonzero"/><path fill="#c7331f" d="M 65.335938 94.191406 L 64.152344 94.191406 L 64.152344 89.199219 C 64.152344 88.769531 63.800781 88.421875 63.375 88.421875 L 45.359375 88.421875 C 44.929688 88.421875 44.582031 88.769531 44.582031 89.199219 L 44.582031 92.085938 L 36.878906 92.085938 L 36.878906 89.867188 C 36.878906 89.257812 36.683594 88.695312 36.355469 88.238281 C 40.230469 87.921875 44.203125 87.265625 48.203125 86.230469 C 54.003906 84.734375 59.375 82.582031 64.164062 79.945312 L 65.601562 93.652344 C 65.507812 93.828125 65.417969 94.007812 65.335938 94.191406 " fill-opacity="1" fill-rule="nonzero"/><path fill="#c7331f" d="M 78.808594 74.261719 L 78.804688 74.234375 L 73.125 73.90625 C 76.445312 71.183594 79.273438 68.199219 81.53125 65.046875 L 81.53125 73.980469 L 78.808594 74.261719 M 87.726562 73.332031 L 87.726562 57.410156 L 89.894531 57.410156 L 89.894531 52.878906 L 87.726562 52.878906 L 87.726562 42.679688 C 87.726562 42.242188 87.632812 41.824219 87.46875 41.441406 L 90.964844 41.441406 C 93.445312 41.441406 95.453125 43.449219 95.453125 45.921875 L 95.453125 72.789062 L 93.851562 72.699219 L 93.851562 72.695312 L 87.726562 73.332031 " fill-opacity="1" fill-rule="nonzero"/><path fill="#6f1a0f" d="M 81.53125 73.980469 L 81.53125 65.046875 C 83.296875 62.585938 84.707031 60.023438 85.722656 57.410156 L 87.726562 57.410156 L 87.726562 73.332031 L 81.53125 73.980469 M 87.726562 52.878906 L 87.074219 52.878906 C 87.828125 49.25 87.792969 45.578125 86.863281 41.992188 C 86.691406 41.335938 86.492188 40.695312 86.265625 40.0625 C 86.792969 40.394531 87.21875 40.871094 87.464844 41.441406 L 87.46875 41.441406 C 87.632812 41.824219 87.726562 42.242188 87.726562 42.679688 L 87.726562 52.878906 " fill-opacity="1" fill-rule="nonzero"/><path fill="#cc7d17" d="M 89.894531 57.410156 L 85.722656 57.410156 C 86.308594 55.914062 86.761719 54.402344 87.074219 52.878906 L 89.894531 52.878906 L 89.894531 57.410156 " fill-opacity="1" fill-rule="nonzero"/><path fill="#bdbcbc" d="M 82.101562 105.695312 L 66.769531 104.8125 L 63.472656 73.351562 L 78.804688 74.234375 L 82.101562 105.695312 " fill-opacity="1" fill-rule="nonzero"/><path fill="#bdbcbc" d="M 82.089844 105.695312 L 97.144531 104.125 L 93.851562 72.695312 L 78.796875 74.265625 L 82.089844 105.695312 " fill-opacity="1" fill-rule="nonzero"/><g clip-path="url(#a95c1114e1)"><path fill="#bdbcbc" d="M 109.160156 73.578125 L 93.851562 72.699219 L 93.851562 72.695312 L 78.808594 74.261719 L 78.804688 74.234375 L 63.472656 73.351562 L 66.769531 104.8125 L 82.089844 105.695312 L 97.144531 104.125 L 97.136719 104.066406 L 112.445312 104.949219 L 109.160156 73.578125 " fill-opacity="1" fill-rule="nonzero"/></g><path fill="#339ea1" d="M 107.769531 74.597656 L 93.464844 73.777344 L 93.464844 73.773438 L 79.40625 75.238281 L 79.402344 75.210938 L 65.078125 74.386719 L 68.15625 103.785156 L 82.476562 104.613281 L 96.542969 103.148438 L 96.535156 103.09375 L 110.84375 103.914062 L 107.769531 74.597656 " fill-opacity="1" fill-rule="nonzero"/><path fill="#84b339" d="M 82.476562 104.613281 L 96.542969 103.148438 L 96.535156 103.09375 L 110.84375 103.914062 L 109.335938 89.527344 C 103.804688 92.441406 97.0625 91.511719 97.0625 91.511719 C 88.441406 90.148438 88.433594 99.015625 81.738281 101.484375 C 74.203125 104.449219 70.59375 102.746094 68.015625 102.464844 L 68.15625 103.785156 L 82.476562 104.613281 " fill-opacity="1" fill-rule="nonzero"/><path fill="#84b339" d="M 93.464844 73.773438 L 79.40625 75.238281 L 79.402344 75.210938 L 65.078125 74.386719 L 65.90625 82.300781 C 68.90625 84.738281 73.980469 86.042969 79.558594 85.460938 C 88.085938 84.574219 94.554688 79.605469 94.007812 74.367188 C 93.988281 74.175781 93.957031 73.988281 93.917969 73.800781 L 93.464844 73.777344 L 93.464844 73.773438 " fill-opacity="1" fill-rule="nonzero"/><path fill="#ffffff" d="M 67.207031 88.132812 L 67.03125 87.386719 C 67.074219 87.375 68.097656 87.140625 69.59375 86.925781 L 69.703125 87.6875 C 68.242188 87.894531 67.21875 88.132812 67.207031 88.132812 M 74.75 87.378906 C 73.980469 87.347656 73.132812 87.359375 72.226562 87.417969 L 72.175781 86.652344 C 73.109375 86.589844 73.988281 86.578125 74.789062 86.613281 L 74.75 87.378906 M 79.335938 88.742188 C 78.835938 88.292969 78.125 87.949219 77.214844 87.714844 L 77.40625 86.96875 C 78.4375 87.234375 79.261719 87.636719 79.851562 88.171875 L 79.335938 88.742188 M 81.132812 93.285156 C 80.867188 92.601562 80.613281 91.8125 80.339844 90.804688 L 81.082031 90.605469 C 81.351562 91.585938 81.59375 92.347656 81.851562 93.003906 L 81.132812 93.285156 M 84.285156 97.507812 C 83.535156 97.019531 82.90625 96.40625 82.359375 95.632812 L 82.988281 95.1875 C 83.480469 95.882812 84.042969 96.429688 84.707031 96.867188 L 84.285156 97.507812 M 89.371094 98.886719 C 88.417969 98.859375 87.539062 98.75 86.75 98.554688 L 86.9375 97.808594 C 87.667969 97.988281 88.496094 98.09375 89.394531 98.117188 L 89.371094 98.886719 " fill-opacity="1" fill-rule="nonzero"/><path fill="#ffffff" d="M 97.691406 97.445312 L 94.449219 96.460938 L 95.4375 93.226562 L 94.058594 92.808594 L 93.070312 96.042969 L 89.832031 95.054688 L 89.410156 96.429688 L 92.652344 97.417969 L 91.664062 100.648438 L 93.042969 101.070312 L 94.03125 97.835938 L 97.269531 98.820312 L 97.691406 97.445312 " fill-opacity="1" fill-rule="nonzero"/><path fill="#a6a5a5" d="M 82.101562 105.695312 L 82.097656 105.695312 L 82.101562 105.695312 M 82.089844 105.695312 L 78.957031 105.515625 L 82.089844 105.695312 M 67.710938 104.867188 L 66.769531 104.8125 L 67.710938 104.867188 " fill-opacity="1" fill-rule="nonzero"/><path fill="#a6a5a5" d="M 82.097656 105.695312 L 82.089844 105.695312 L 78.957031 105.515625 C 79.40625 105.207031 79.828125 104.859375 80.214844 104.480469 L 81.984375 104.582031 L 82.101562 105.695312 L 82.097656 105.695312 M 67.710938 104.867188 L 66.769531 104.8125 L 66.660156 103.796875 C 66.980469 104.179688 67.332031 104.539062 67.710938 104.867188 M 65.601562 93.652344 L 63.472656 73.351562 L 78.804688 74.234375 L 78.902344 75.183594 L 65.078125 74.386719 L 65.90625 82.300781 L 66.898438 91.792969 C 66.394531 92.351562 65.957031 92.976562 65.601562 93.652344 " fill-opacity="1" fill-rule="nonzero"/><path fill="#2c898c" d="M 80.628906 91.816406 C 80.457031 91.625 80.273438 91.4375 80.085938 91.257812 C 79.9375 91.117188 79.78125 90.980469 79.621094 90.847656 L 79.621094 88.632812 C 79.621094 88.566406 79.617188 88.503906 79.609375 88.441406 L 79.851562 88.171875 C 79.6875 88.027344 79.507812 87.886719 79.308594 87.757812 C 79.070312 87.476562 78.722656 87.289062 78.332031 87.265625 C 78.046875 87.152344 77.738281 87.054688 77.40625 86.96875 L 77.332031 87.265625 L 74.757812 87.265625 L 74.789062 86.613281 C 74.496094 86.601562 74.191406 86.59375 73.875 86.59375 C 73.335938 86.59375 72.765625 86.613281 72.175781 86.652344 L 72.21875 87.265625 L 69.640625 87.265625 L 69.59375 86.925781 C 68.097656 87.140625 67.074219 87.375 67.03125 87.386719 L 67.207031 88.132812 C 67.214844 88.132812 67.53125 88.058594 68.058594 87.960938 C 67.949219 88.15625 67.882812 88.386719 67.882812 88.632812 L 67.882812 90.847656 C 67.53125 91.136719 67.203125 91.453125 66.898438 91.792969 L 65.90625 82.300781 C 68.429688 84.351562 72.417969 85.597656 76.941406 85.597656 C 77.796875 85.597656 78.667969 85.554688 79.558594 85.460938 C 79.695312 85.449219 79.835938 85.433594 79.976562 85.414062 L 80.535156 90.753906 L 80.339844 90.804688 C 80.4375 91.171875 80.535156 91.507812 80.628906 91.816406 " fill-opacity="1" fill-rule="nonzero"/><path fill="#729b31" d="M 81.984375 104.582031 L 80.214844 104.480469 C 80.816406 103.886719 81.339844 103.214844 81.761719 102.472656 L 81.984375 104.582031 " fill-opacity="1" fill-rule="nonzero"/><path fill="#729b31" d="M 76.941406 85.597656 C 72.417969 85.597656 68.429688 84.351562 65.90625 82.300781 L 65.078125 74.386719 L 78.902344 75.183594 L 79.976562 85.414062 C 79.835938 85.433594 79.695312 85.449219 79.558594 85.460938 C 78.667969 85.554688 77.796875 85.597656 76.941406 85.597656 " fill-opacity="1" fill-rule="nonzero"/><path fill="#dedede" d="M 80.648438 91.839844 C 80.640625 91.832031 80.636719 91.824219 80.628906 91.816406 C 80.535156 91.507812 80.4375 91.171875 80.339844 90.804688 L 80.535156 90.753906 L 80.648438 91.839844 M 79.609375 88.441406 C 79.574219 88.183594 79.464844 87.949219 79.308594 87.757812 C 79.507812 87.886719 79.6875 88.027344 79.851562 88.171875 L 79.609375 88.441406 M 67.207031 88.132812 L 67.03125 87.386719 C 67.074219 87.375 68.097656 87.140625 69.59375 86.925781 L 69.640625 87.265625 L 69.253906 87.265625 C 68.742188 87.265625 68.292969 87.542969 68.058594 87.960938 C 67.53125 88.058594 67.214844 88.132812 67.207031 88.132812 M 78.332031 87.265625 C 78.304688 87.265625 78.28125 87.265625 78.253906 87.265625 L 77.332031 87.265625 L 77.40625 86.96875 C 77.738281 87.054688 78.046875 87.152344 78.332031 87.265625 M 74.757812 87.265625 L 72.21875 87.265625 L 72.175781 86.652344 C 72.765625 86.613281 73.335938 86.59375 73.875 86.59375 C 74.191406 86.59375 74.496094 86.601562 74.789062 86.613281 L 74.757812 87.265625 " fill-opacity="1" fill-rule="nonzero"/><g clip-path="url(#fe69b1055e)"><path fill="#c8c7c7" d="M 112.445312 104.949219 L 97.136719 104.066406 L 112.445312 104.949219 " fill-opacity="1" fill-rule="nonzero"/></g><g clip-path="url(#c34142bcb2)"><path fill="#979595" d="M 112.445312 104.949219 L 97.136719 104.066406 L 97.113281 104.066406 L 97.015625 103.121094 L 110.84375 103.914062 L 107.769531 74.597656 L 93.945312 73.804688 L 93.828125 72.695312 L 109.160156 73.578125 L 112.445312 104.949219 " fill-opacity="1" fill-rule="nonzero"/></g><path fill="#287b7f" d="M 110.84375 103.914062 L 109.335938 89.527344 C 105.964844 91.304688 102.140625 91.652344 99.671875 91.652344 C 98.089844 91.652344 97.0625 91.511719 97.0625 91.511719 C 96.613281 91.4375 96.1875 91.394531 95.785156 91.378906 L 94.027344 74.609375 C 94.023438 74.527344 94.015625 74.445312 94.007812 74.367188 C 94 74.296875 93.992188 74.222656 93.980469 74.15625 L 93.945312 73.804688 L 107.769531 74.597656 L 110.84375 103.914062 " fill-opacity="1" fill-rule="nonzero"/><path fill="#668b2b" d="M 110.84375 103.914062 L 97.015625 103.121094 L 96.542969 98.597656 L 97.269531 98.820312 L 97.691406 97.445312 L 96.378906 97.046875 L 95.785156 91.378906 C 96.1875 91.394531 96.613281 91.4375 97.0625 91.511719 C 97.0625 91.511719 98.089844 91.652344 99.671875 91.652344 C 102.140625 91.652344 105.964844 91.304688 109.335938 89.527344 L 110.84375 103.914062 " fill-opacity="1" fill-rule="nonzero"/><path fill="#668b2b" d="M 94.027344 74.609375 L 93.980469 74.15625 C 93.992188 74.222656 94 74.296875 94.007812 74.367188 C 94.015625 74.445312 94.023438 74.527344 94.027344 74.609375 " fill-opacity="1" fill-rule="nonzero"/><path fill="#c8c7c7" d="M 97.269531 98.820312 L 96.542969 98.597656 L 96.378906 97.046875 L 97.691406 97.445312 L 97.269531 98.820312 " fill-opacity="1" fill-rule="nonzero"/><path fill="#0d3642" d="M 14.105469 66.953125 L 14.105469 65.082031 C 14.105469 64.070312 14.925781 63.25 15.941406 63.25 L 20.992188 63.25 C 22.007812 63.25 22.828125 64.070312 22.828125 65.082031 L 22.828125 66.953125 L 25.132812 66.953125 C 25.136719 66.90625 25.140625 66.863281 25.140625 66.820312 L 25.140625 63.921875 C 25.140625 62.375 23.882812 61.121094 22.328125 61.121094 L 14.601562 61.121094 C 13.050781 61.121094 11.792969 62.375 11.792969 63.921875 L 11.792969 66.820312 C 11.792969 66.863281 11.796875 66.90625 11.796875 66.953125 L 14.105469 66.953125 " fill-opacity="1" fill-rule="nonzero"/><path fill="#124f5d" d="M 8.578125 97.578125 C 8.578125 99.125 7.320312 100.378906 5.769531 100.378906 L 2.863281 100.378906 C 1.3125 100.378906 0.0546875 99.125 0.0546875 97.578125 L 0.0546875 89.867188 C 0.0546875 88.316406 1.3125 87.0625 2.863281 87.0625 L 5.769531 87.0625 C 7.320312 87.0625 8.578125 88.316406 8.578125 89.867188 L 8.578125 97.578125 " fill-opacity="1" fill-rule="nonzero"/><path fill="#0c3540" d="M 2.945312 90.722656 L 0.0546875 90.722656 L 0.0546875 91.28125 L 2.945312 91.28125 C 3.101562 91.28125 3.226562 91.15625 3.226562 91 C 3.226562 90.847656 3.101562 90.722656 2.945312 90.722656 " fill-opacity="1" fill-rule="nonzero"/><path fill="#0c3540" d="M 2.160156 92.710938 C 2.160156 93.058594 1.878906 93.339844 1.527344 93.339844 C 1.179688 93.339844 0.898438 93.058594 0.898438 92.710938 C 0.898438 92.363281 1.179688 92.082031 1.527344 92.082031 C 1.878906 92.082031 2.160156 92.363281 2.160156 92.710938 " fill-opacity="1" fill-rule="nonzero"/><path fill="#124f5d" d="M 28.355469 97.578125 C 28.355469 99.125 29.609375 100.378906 31.164062 100.378906 L 34.066406 100.378906 C 35.621094 100.378906 36.878906 99.125 36.878906 97.578125 L 36.878906 89.867188 C 36.878906 88.316406 35.621094 87.0625 34.066406 87.0625 L 31.164062 87.0625 C 29.609375 87.0625 28.355469 88.316406 28.355469 89.867188 L 28.355469 97.578125 " fill-opacity="1" fill-rule="nonzero"/><path fill="#0c3540" d="M 33.988281 90.722656 L 36.878906 90.722656 L 36.878906 91.28125 L 33.988281 91.28125 C 33.832031 91.28125 33.703125 91.15625 33.703125 91 C 33.703125 90.847656 33.832031 90.722656 33.988281 90.722656 " fill-opacity="1" fill-rule="nonzero"/><path fill="#0c3540" d="M 34.773438 92.710938 C 34.773438 93.058594 35.054688 93.339844 35.402344 93.339844 C 35.753906 93.339844 36.035156 93.058594 36.035156 92.710938 C 36.035156 92.363281 35.753906 92.082031 35.402344 92.082031 C 35.054688 92.082031 34.773438 92.363281 34.773438 92.710938 " fill-opacity="1" fill-rule="nonzero"/><path fill="#227e8f" d="M 30.054688 69.558594 C 30.054688 68.011719 28.671875 66.753906 26.964844 66.753906 L 9.96875 66.753906 C 8.261719 66.753906 6.878906 68.011719 6.878906 69.558594 L 3.101562 100.050781 C 3.101562 101.597656 4.484375 104.632812 6.191406 104.632812 L 30.742188 104.632812 C 32.445312 104.632812 33.828125 101.597656 33.828125 100.050781 L 30.054688 69.558594 " fill-opacity="1" fill-rule="nonzero"/><path fill="#227e8f" d="M 30.054688 69.558594 C 30.054688 68.011719 28.671875 66.753906 26.964844 66.753906 L 9.96875 66.753906 C 8.261719 66.753906 6.878906 68.011719 6.878906 69.558594 L 3.101562 100.050781 C 3.101562 101.597656 4.484375 104.632812 6.191406 104.632812 L 30.742188 104.632812 C 32.445312 104.632812 33.828125 101.597656 33.828125 100.050781 L 30.054688 69.558594 " fill-opacity="1" fill-rule="nonzero"/><path fill="#176374" d="M 29.921875 104.632812 L 27.917969 88.425781 C 27.917969 87.164062 26.789062 86.140625 25.398438 86.140625 L 11.535156 86.140625 C 10.144531 86.140625 9.015625 87.164062 9.015625 88.425781 L 7.007812 104.632812 L 29.921875 104.632812 " fill-opacity="1" fill-rule="nonzero"/><path fill="#176374" d="M 8.621094 66.324219 L 9.828125 76.074219 C 9.828125 77.230469 10.859375 78.164062 12.128906 78.164062 L 24.800781 78.164062 C 26.074219 78.164062 27.105469 77.230469 27.105469 76.074219 L 28.3125 66.324219 L 8.621094 66.324219 " fill-opacity="1" fill-rule="nonzero"/><path fill="#0c3540" d="M 27.015625 90.871094 C 27.015625 91.03125 26.882812 91.164062 26.71875 91.164062 L 10.214844 91.164062 C 10.050781 91.164062 9.917969 91.03125 9.917969 90.871094 C 9.917969 90.707031 10.050781 90.570312 10.214844 90.570312 L 26.71875 90.570312 C 26.882812 90.570312 27.015625 90.707031 27.015625 90.871094 " fill-opacity="1" fill-rule="nonzero"/><path fill="#0c3540" d="M 14.03125 80.238281 C 14.03125 80.703125 13.652344 81.078125 13.1875 81.078125 C 12.722656 81.078125 12.34375 80.703125 12.34375 80.238281 L 12.34375 75.6875 C 12.34375 75.222656 12.722656 74.847656 13.1875 74.847656 C 13.652344 74.847656 14.03125 75.222656 14.03125 75.6875 L 14.03125 80.238281 " fill-opacity="1" fill-rule="nonzero"/><path fill="#0c3540" d="M 24.585938 80.238281 C 24.585938 80.703125 24.210938 81.078125 23.746094 81.078125 C 23.28125 81.078125 22.902344 80.703125 22.902344 80.238281 L 22.902344 75.6875 C 22.902344 75.222656 23.28125 74.847656 23.746094 74.847656 C 24.210938 74.847656 24.585938 75.222656 24.585938 75.6875 L 24.585938 80.238281 " fill-opacity="1" fill-rule="nonzero"/><path fill="#c7331f" d="M 30.054688 69.550781 L 30.054688 69.550781 M 30.054688 69.542969 L 30.054688 69.542969 M 30.054688 69.535156 L 30.054688 69.535156 M 30.054688 69.511719 L 30.054688 69.511719 M 29.433594 67.875 C 29.40625 67.839844 29.375 67.804688 29.34375 67.769531 C 29.375 67.804688 29.40625 67.839844 29.433594 67.875 " fill-opacity="1" fill-rule="nonzero"/><path fill="#1c6877" d="M 30.742188 104.632812 L 29.921875 104.632812 L 27.917969 88.425781 C 27.917969 88.183594 27.875 87.949219 27.796875 87.734375 C 29.699219 82.5625 30.488281 75.910156 29.34375 67.769531 C 29.375 67.804688 29.40625 67.839844 29.433594 67.875 C 29.816406 68.335938 30.042969 68.898438 30.054688 69.511719 C 30.054688 69.511719 30.054688 69.515625 30.054688 69.519531 C 30.054688 69.523438 30.054688 69.527344 30.054688 69.535156 C 30.054688 69.535156 30.054688 69.539062 30.054688 69.542969 C 30.054688 69.546875 30.054688 69.546875 30.054688 69.550781 C 30.054688 69.554688 30.054688 69.554688 30.054688 69.558594 L 33.828125 100.050781 C 33.828125 100.152344 33.824219 100.261719 33.8125 100.378906 C 33.644531 101.992188 32.332031 104.632812 30.742188 104.632812 M 7.007812 104.632812 L 6.191406 104.632812 C 4.484375 104.632812 3.101562 101.597656 3.101562 100.050781 L 3.554688 96.40625 C 4.527344 98.214844 5.910156 99.527344 7.539062 100.34375 L 7.007812 104.632812 " fill-opacity="1" fill-rule="nonzero"/><path fill="#135261" d="M 29.921875 104.632812 L 7.007812 104.632812 L 7.539062 100.34375 C 8.867188 101.003906 10.355469 101.335938 11.917969 101.335938 C 16.90625 101.335938 22.644531 97.953125 26.265625 91.164062 L 26.71875 91.164062 C 26.882812 91.164062 27.015625 91.03125 27.015625 90.871094 C 27.015625 90.707031 26.882812 90.570312 26.71875 90.570312 L 26.574219 90.570312 C 27.019531 89.679688 27.429688 88.734375 27.796875 87.734375 C 27.875 87.949219 27.917969 88.183594 27.917969 88.425781 L 29.921875 104.632812 " fill-opacity="1" fill-rule="nonzero"/><path fill="#0b2d38" d="M 26.71875 91.164062 L 26.265625 91.164062 C 26.371094 90.96875 26.472656 90.773438 26.574219 90.570312 L 26.71875 90.570312 C 26.882812 90.570312 27.015625 90.707031 27.015625 90.871094 C 27.015625 91.03125 26.882812 91.164062 26.71875 91.164062 " fill-opacity="1" fill-rule="nonzero"/><path fill="#f7991c" d="M 45.359375 100.839844 C 44.929688 100.839844 44.582031 100.492188 44.582031 100.0625 L 44.582031 89.199219 C 44.582031 88.769531 44.929688 88.421875 45.359375 88.421875 L 63.375 88.421875 C 63.800781 88.421875 64.152344 88.769531 64.152344 89.199219 L 64.152344 100.0625 C 64.152344 100.492188 63.800781 100.839844 63.375 100.839844 L 45.359375 100.839844 " fill-opacity="1" fill-rule="nonzero"/><path fill="#f04127" d="M 44.582031 99.050781 L 64.152344 99.050781 L 64.152344 95.453125 L 44.582031 95.453125 Z M 44.582031 99.050781 " fill-opacity="1" fill-rule="nonzero"/><path fill="#bdbcbc" d="M 61.703125 90.90625 C 61.703125 91.328125 61.363281 91.671875 60.941406 91.671875 L 47.792969 91.671875 C 47.371094 91.671875 47.027344 91.328125 47.027344 90.90625 C 47.027344 90.488281 47.371094 90.144531 47.792969 90.144531 L 60.941406 90.144531 C 61.363281 90.144531 61.703125 90.488281 61.703125 90.90625 " fill-opacity="1" fill-rule="nonzero"/><path fill="#cc7d17" d="M 63.375 100.839844 L 54.570312 100.839844 L 54.570312 99.148438 C 54.777344 99.121094 54.980469 99.089844 55.179688 99.050781 L 64.152344 99.050781 L 64.152344 100.0625 C 64.152344 100.492188 63.800781 100.839844 63.375 100.839844 M 64.152344 95.453125 L 61.570312 95.453125 C 62.660156 94.113281 63.292969 92.507812 63.292969 90.785156 C 63.292969 89.964844 63.148438 89.171875 62.878906 88.421875 L 63.375 88.421875 C 63.800781 88.421875 64.152344 88.769531 64.152344 89.199219 L 64.152344 95.453125 " fill-opacity="1" fill-rule="nonzero"/><path fill="#c7351f" d="M 64.152344 99.050781 L 55.179688 99.050781 C 57.839844 98.558594 60.113281 97.242188 61.570312 95.453125 L 64.152344 95.453125 L 64.152344 99.050781 " fill-opacity="1" fill-rule="nonzero"/><path fill="#227e8f" d="M 35.78125 104.5 C 35.347656 104.5 35 104.152344 35 103.726562 L 35 92.859375 C 35 92.429688 35.347656 92.085938 35.78125 92.085938 L 53.792969 92.085938 C 54.222656 92.085938 54.570312 92.429688 54.570312 92.859375 L 54.570312 103.726562 C 54.570312 104.152344 54.222656 104.5 53.792969 104.5 L 35.78125 104.5 " fill-opacity="1" fill-rule="nonzero"/><path fill="#bdbcbc" d="M 52.125 94.8125 C 52.125 95.234375 51.78125 95.574219 51.359375 95.574219 L 38.214844 95.574219 C 37.789062 95.574219 37.449219 95.234375 37.449219 94.8125 C 37.449219 94.390625 37.789062 94.046875 38.214844 94.046875 L 51.359375 94.046875 C 51.78125 94.046875 52.125 94.390625 52.125 94.8125 " fill-opacity="1" fill-rule="nonzero"/><path fill="#134652" d="M 49.066406 98.867188 C 49.066406 99.242188 48.765625 99.546875 48.390625 99.546875 L 36.71875 99.546875 C 36.347656 99.546875 36.042969 99.242188 36.042969 98.867188 C 36.042969 98.496094 36.347656 98.191406 36.71875 98.191406 L 48.390625 98.191406 C 48.765625 98.191406 49.066406 98.496094 49.066406 98.867188 " fill-opacity="1" fill-rule="nonzero"/><path fill="#f7991c" d="M 53.769531 103.015625 C 53.769531 103.417969 53.441406 103.742188 53.039062 103.742188 L 51.132812 103.742188 C 50.730469 103.742188 50.40625 103.417969 50.40625 103.015625 L 50.40625 100.167969 C 50.40625 99.765625 50.730469 99.441406 51.132812 99.441406 L 53.039062 99.441406 C 53.441406 99.441406 53.769531 99.765625 53.769531 100.167969 L 53.769531 103.015625 " fill-opacity="1" fill-rule="nonzero"/><path fill="#f46a22" d="M 53.019531 101.59375 C 53.019531 102.351562 52.601562 102.964844 52.085938 102.964844 C 51.570312 102.964844 51.15625 102.351562 51.15625 101.59375 C 51.15625 100.835938 51.570312 100.21875 52.085938 100.21875 C 52.601562 100.21875 53.019531 100.835938 53.019531 101.59375 " fill-opacity="1" fill-rule="nonzero"/><path fill="#134652" d="M 48.835938 100.242188 C 48.835938 100.425781 48.6875 100.578125 48.5 100.578125 L 36.605469 100.578125 C 36.421875 100.578125 36.273438 100.425781 36.273438 100.242188 C 36.273438 100.054688 36.421875 99.90625 36.605469 99.90625 L 48.5 99.90625 C 48.6875 99.90625 48.835938 100.054688 48.835938 100.242188 " fill-opacity="1" fill-rule="nonzero"/><path fill="#134652" d="M 48.835938 101.097656 C 48.835938 101.28125 48.6875 101.429688 48.5 101.429688 L 36.605469 101.429688 C 36.421875 101.429688 36.273438 101.28125 36.273438 101.097656 C 36.273438 100.910156 36.421875 100.761719 36.605469 100.761719 L 48.5 100.761719 C 48.6875 100.761719 48.835938 100.910156 48.835938 101.097656 " fill-opacity="1" fill-rule="nonzero"/><path fill="#1c6877" d="M 53.792969 104.5 L 35.78125 104.5 C 35.347656 104.5 35 104.152344 35 103.726562 L 35 99.644531 C 35.417969 100.078125 35.882812 100.476562 36.390625 100.839844 C 36.320312 100.898438 36.273438 100.992188 36.273438 101.097656 C 36.273438 101.28125 36.421875 101.429688 36.605469 101.429688 L 37.332031 101.429688 C 39.015625 102.375 41.058594 102.925781 43.257812 102.925781 C 46.023438 102.925781 48.535156 102.058594 50.40625 100.636719 L 50.40625 103.015625 C 50.40625 103.417969 50.730469 103.742188 51.132812 103.742188 L 53.039062 103.742188 C 53.441406 103.742188 53.769531 103.417969 53.769531 103.015625 L 53.769531 100.167969 C 53.769531 99.765625 53.441406 99.441406 53.039062 99.441406 L 51.710938 99.441406 C 52.96875 98.039062 53.714844 96.3125 53.714844 94.445312 C 53.714844 93.625 53.566406 92.832031 53.300781 92.085938 L 53.792969 92.085938 C 54.222656 92.085938 54.570312 92.429688 54.570312 92.859375 L 54.570312 103.726562 C 54.570312 104.152344 54.222656 104.5 53.792969 104.5 " fill-opacity="1" fill-rule="nonzero"/><path fill="#cc7d17" d="M 53.039062 103.742188 L 51.132812 103.742188 C 50.730469 103.742188 50.40625 103.417969 50.40625 103.015625 L 50.40625 100.636719 C 50.886719 100.273438 51.320312 99.871094 51.710938 99.441406 L 53.039062 99.441406 C 53.441406 99.441406 53.769531 99.765625 53.769531 100.167969 L 53.769531 103.015625 C 53.769531 103.417969 53.441406 103.742188 53.039062 103.742188 M 52.085938 100.21875 C 51.570312 100.21875 51.15625 100.835938 51.15625 101.59375 C 51.15625 102.351562 51.570312 102.964844 52.085938 102.964844 C 52.601562 102.964844 53.019531 102.351562 53.019531 101.59375 C 53.019531 100.835938 52.601562 100.21875 52.085938 100.21875 " fill-opacity="1" fill-rule="nonzero"/><path fill="#c9571b" d="M 52.085938 102.964844 C 51.570312 102.964844 51.15625 102.351562 51.15625 101.59375 C 51.15625 100.835938 51.570312 100.21875 52.085938 100.21875 C 52.601562 100.21875 53.019531 100.835938 53.019531 101.59375 C 53.019531 102.351562 52.601562 102.964844 52.085938 102.964844 " fill-opacity="1" fill-rule="nonzero"/><path fill="#103b46" d="M 37.332031 101.429688 L 36.605469 101.429688 C 36.421875 101.429688 36.273438 101.28125 36.273438 101.097656 C 36.273438 100.992188 36.320312 100.898438 36.390625 100.839844 C 36.691406 101.050781 37.003906 101.25 37.332031 101.429688 " fill-opacity="1" fill-rule="nonzero"/><path fill="#f03f27" d="M 73.753906 87.351562 C 72.613281 87.351562 71.691406 86.429688 71.691406 85.296875 C 71.691406 84.160156 72.613281 83.238281 73.753906 83.238281 C 74.890625 83.238281 75.8125 84.160156 75.8125 85.296875 C 75.8125 86.429688 74.890625 87.351562 73.753906 87.351562 Z M 73.753906 82.101562 C 71.984375 82.101562 70.554688 83.53125 70.554688 85.296875 C 70.554688 87.058594 71.984375 88.488281 73.753906 88.488281 C 75.519531 88.488281 76.953125 87.058594 76.953125 85.296875 C 76.953125 83.53125 75.519531 82.101562 73.753906 82.101562 " fill-opacity="1" fill-rule="nonzero"/><path fill="#852113" d="M 79.621094 92.695312 C 79.621094 93.449219 79.007812 94.058594 78.253906 94.058594 L 69.253906 94.058594 C 68.496094 94.058594 67.882812 93.449219 67.882812 92.695312 L 67.882812 88.632812 C 67.882812 87.875 68.496094 87.265625 69.253906 87.265625 L 78.253906 87.265625 C 79.007812 87.265625 79.621094 87.875 79.621094 88.632812 L 79.621094 92.695312 " fill-opacity="1" fill-rule="nonzero"/><g clip-path="url(#44e73fff6a)"><path fill="#f03f27" d="M 82.964844 97.933594 C 82.964844 103.007812 78.839844 107.121094 73.753906 107.121094 C 68.667969 107.121094 64.542969 103.007812 64.542969 97.933594 C 64.542969 92.855469 68.667969 88.742188 73.753906 88.742188 C 78.839844 88.742188 82.964844 92.855469 82.964844 97.933594 " fill-opacity="1" fill-rule="nonzero"/></g><path fill="#ffffff" d="M 81.097656 97.933594 C 81.097656 101.980469 77.808594 105.257812 73.753906 105.257812 C 69.699219 105.257812 66.410156 101.980469 66.410156 97.933594 C 66.410156 93.886719 69.699219 90.605469 73.753906 90.605469 C 77.808594 90.605469 81.097656 93.886719 81.097656 97.933594 " fill-opacity="1" fill-rule="nonzero"/><path fill="#f03f27" d="M 67.472656 98.425781 L 68.4375 98.421875 L 68.4375 97.457031 L 67.472656 97.457031 L 67.472656 98.425781 " fill-opacity="1" fill-rule="nonzero"/><path fill="#852113" d="M 77.53125 101.660156 L 77.171875 102.0625 L 77.894531 102.703125 L 78.195312 102.359375 L 78.535156 102.054688 L 77.890625 101.339844 L 77.53125 101.660156 " fill-opacity="1" fill-rule="nonzero"/><path fill="#f03f27" d="M 80.035156 97.429688 L 79.066406 97.429688 L 79.066406 98.414062 L 80.035156 98.414062 L 80.035156 97.429688 " fill-opacity="1" fill-rule="nonzero"/><path fill="#f03f27" d="M 73.273438 103.234375 L 73.273438 104.199219 L 74.242188 104.199219 L 74.238281 103.234375 L 73.273438 103.234375 " fill-opacity="1" fill-rule="nonzero"/><path fill="#852113" d="M 77.800781 94.511719 L 78.523438 93.871094 L 78.203125 93.511719 L 77.804688 93.148438 L 77.15625 93.863281 L 77.496094 94.171875 L 77.800781 94.511719 " fill-opacity="1" fill-rule="nonzero"/><path fill="#f03f27" d="M 74.222656 91.667969 L 73.253906 91.667969 L 73.257812 92.632812 L 74.222656 92.632812 L 74.222656 91.667969 " fill-opacity="1" fill-rule="nonzero"/><path fill="#852113" d="M 70.328125 93.847656 L 69.644531 93.167969 L 68.960938 93.851562 L 69.644531 94.53125 L 70.328125 93.847656 " fill-opacity="1" fill-rule="nonzero"/><path fill="#852113" d="M 68.972656 102.027344 L 69.660156 102.710938 L 70.339844 102.027344 L 69.65625 101.34375 L 68.972656 102.027344 " fill-opacity="1" fill-rule="nonzero"/><g clip-path="url(#33b9add764)"><path fill="#d3d2d2" d="M 73.753906 107.121094 C 73.75 107.121094 73.746094 107.121094 73.738281 107.121094 C 73.746094 107.121094 73.75 107.121094 73.753906 107.121094 C 75.683594 107.121094 77.476562 106.527344 78.957031 105.515625 C 77.476562 106.527344 75.683594 107.121094 73.753906 107.121094 " fill-opacity="1" fill-rule="nonzero"/></g><g clip-path="url(#f72d2e30af)"><path fill="#d3d2d2" d="M 73.734375 107.121094 C 73.730469 107.121094 73.730469 107.121094 73.726562 107.121094 C 73.730469 107.121094 73.734375 107.121094 73.734375 107.121094 M 73.722656 107.121094 C 73.71875 107.121094 73.714844 107.121094 73.707031 107.121094 C 73.714844 107.121094 73.71875 107.121094 73.722656 107.121094 M 73.707031 107.121094 C 73.703125 107.121094 73.699219 107.121094 73.695312 107.121094 C 73.699219 107.121094 73.703125 107.121094 73.707031 107.121094 M 73.691406 107.121094 C 73.6875 107.121094 73.683594 107.121094 73.679688 107.121094 C 73.683594 107.121094 73.6875 107.121094 73.691406 107.121094 M 73.675781 107.121094 C 73.675781 107.121094 73.667969 107.121094 73.664062 107.121094 C 73.667969 107.121094 73.671875 107.121094 73.675781 107.121094 M 73.664062 107.121094 C 73.660156 107.121094 73.65625 107.121094 73.652344 107.121094 C 73.65625 107.121094 73.660156 107.121094 73.664062 107.121094 M 73.648438 107.121094 C 73.644531 107.121094 73.640625 107.121094 73.636719 107.121094 C 73.640625 107.121094 73.644531 107.121094 73.648438 107.121094 M 73.632812 107.121094 C 73.628906 107.121094 73.625 107.121094 73.621094 107.121094 C 73.625 107.121094 73.628906 107.121094 73.632812 107.121094 M 73.617188 107.121094 C 73.613281 107.121094 73.609375 107.121094 73.605469 107.121094 C 73.609375 107.121094 73.613281 107.121094 73.617188 107.121094 M 73.601562 107.121094 C 73.597656 107.121094 73.59375 107.121094 73.59375 107.121094 C 73.59375 107.121094 73.597656 107.121094 73.601562 107.121094 M 73.589844 107.121094 C 73.585938 107.121094 73.582031 107.121094 73.574219 107.121094 C 73.582031 107.121094 73.585938 107.121094 73.589844 107.121094 M 73.570312 107.121094 C 73.570312 107.117188 73.566406 107.117188 73.5625 107.117188 C 73.566406 107.117188 73.566406 107.117188 73.570312 107.121094 M 73.558594 107.117188 C 73.554688 107.117188 73.550781 107.117188 73.546875 107.117188 C 73.550781 107.117188 73.554688 107.117188 73.558594 107.117188 M 73.542969 107.117188 C 73.539062 107.117188 73.535156 107.117188 73.53125 107.117188 C 73.535156 107.117188 73.539062 107.117188 73.542969 107.117188 M 73.527344 107.117188 C 73.523438 107.117188 73.523438 107.117188 73.519531 107.117188 C 73.519531 107.117188 73.523438 107.117188 73.527344 107.117188 M 73.511719 107.117188 C 73.511719 107.117188 73.507812 107.117188 73.503906 107.117188 C 73.507812 107.117188 73.511719 107.117188 73.511719 107.117188 M 73.5 107.117188 C 73.496094 107.117188 73.492188 107.117188 73.488281 107.117188 C 73.492188 107.117188 73.496094 107.117188 73.5 107.117188 M 73.484375 107.117188 C 73.480469 107.117188 73.476562 107.117188 73.472656 107.117188 C 73.476562 107.117188 73.480469 107.117188 73.484375 107.117188 M 73.46875 107.117188 C 73.464844 107.117188 73.460938 107.117188 73.457031 107.117188 C 73.460938 107.117188 73.464844 107.117188 73.46875 107.117188 M 73.453125 107.117188 C 73.449219 107.117188 73.445312 107.117188 73.445312 107.117188 C 73.445312 107.117188 73.449219 107.117188 73.453125 107.117188 M 73.4375 107.117188 C 73.433594 107.117188 73.433594 107.117188 73.429688 107.117188 C 73.433594 107.117188 73.433594 107.117188 73.4375 107.117188 M 73.425781 107.113281 C 73.421875 107.113281 73.417969 107.113281 73.414062 107.113281 C 73.417969 107.113281 73.421875 107.113281 73.425781 107.113281 M 73.410156 107.113281 C 73.40625 107.113281 73.402344 107.113281 73.398438 107.113281 C 73.402344 107.113281 73.40625 107.113281 73.410156 107.113281 M 73.394531 107.113281 C 73.390625 107.113281 73.386719 107.113281 73.386719 107.113281 C 73.390625 107.113281 73.390625 107.113281 73.394531 107.113281 M 73.378906 107.113281 C 73.375 107.113281 73.375 107.113281 73.367188 107.113281 C 73.375 107.113281 73.375 107.113281 73.378906 107.113281 M 73.363281 107.113281 C 73.363281 107.113281 73.359375 107.113281 73.355469 107.113281 C 73.359375 107.113281 73.363281 107.113281 73.363281 107.113281 M 73.351562 107.113281 C 73.347656 107.113281 73.34375 107.113281 73.34375 107.113281 C 73.34375 107.113281 73.347656 107.113281 73.351562 107.113281 M 73.335938 107.113281 C 73.332031 107.113281 73.328125 107.113281 73.324219 107.113281 C 73.328125 107.113281 73.332031 107.113281 73.335938 107.113281 M 73.320312 107.113281 C 73.316406 107.113281 73.316406 107.113281 73.3125 107.113281 C 73.316406 107.113281 73.316406 107.113281 73.320312 107.113281 M 73.304688 107.109375 C 73.304688 107.109375 73.300781 107.109375 73.296875 107.109375 C 73.300781 107.109375 73.304688 107.109375 73.304688 107.109375 M 73.292969 107.109375 C 73.289062 107.109375 73.285156 107.109375 73.28125 107.109375 C 73.285156 107.109375 73.289062 107.109375 73.292969 107.109375 M 73.273438 107.109375 C 73.273438 107.109375 73.269531 107.109375 73.269531 107.109375 C 73.269531 107.109375 73.273438 107.109375 73.273438 107.109375 M 73.261719 107.109375 C 73.261719 107.109375 73.257812 107.109375 73.253906 107.109375 C 73.257812 107.109375 73.261719 107.109375 73.261719 107.109375 M 73.246094 107.109375 C 73.242188 107.109375 73.238281 107.109375 73.238281 107.105469 C 73.238281 107.109375 73.242188 107.109375 73.246094 107.109375 M 73.230469 107.105469 C 73.230469 107.105469 73.226562 107.105469 73.222656 107.105469 C 73.226562 107.105469 73.230469 107.105469 73.230469 107.105469 M 73.21875 107.105469 C 73.214844 107.105469 73.214844 107.105469 73.210938 107.105469 C 73.214844 107.105469 73.214844 107.105469 73.21875 107.105469 M 73.199219 107.105469 C 73.199219 107.105469 73.195312 107.105469 73.195312 107.105469 C 73.195312 107.105469 73.199219 107.105469 73.199219 107.105469 M 73.1875 107.105469 C 73.183594 107.105469 73.183594 107.105469 73.179688 107.105469 C 73.183594 107.105469 73.183594 107.105469 73.1875 107.105469 M 73.171875 107.105469 C 73.171875 107.101562 73.171875 107.101562 73.167969 107.101562 C 73.171875 107.101562 73.171875 107.101562 73.171875 107.105469 M 73.15625 107.101562 C 73.152344 107.101562 73.152344 107.101562 73.152344 107.101562 C 73.152344 107.101562 73.152344 107.101562 73.15625 107.101562 M 73.140625 107.101562 C 73.140625 107.101562 73.140625 107.101562 73.136719 107.101562 C 73.140625 107.101562 73.140625 107.101562 73.140625 107.101562 M 73.128906 107.101562 L 73.128906 107.101562 M 73.109375 107.097656 C 73.109375 107.097656 73.105469 107.097656 73.105469 107.097656 C 73.109375 107.097656 73.109375 107.097656 73.109375 107.097656 M 73.097656 107.097656 C 73.097656 107.097656 73.097656 107.097656 73.09375 107.097656 C 73.097656 107.097656 73.097656 107.097656 73.097656 107.097656 M 73.066406 107.097656 C 73.066406 107.097656 73.066406 107.097656 73.0625 107.097656 C 73.066406 107.097656 73.066406 107.097656 73.066406 107.097656 M 73.054688 107.09375 C 73.054688 107.09375 73.050781 107.09375 73.050781 107.09375 C 73.050781 107.09375 73.054688 107.09375 73.054688 107.09375 " fill-opacity="1" fill-rule="nonzero"/></g><path fill="#2a8286" d="M 82.964844 97.933594 C 82.964844 97.925781 82.964844 97.921875 82.964844 97.917969 C 82.964844 97.921875 82.964844 97.925781 82.964844 97.933594 M 82.964844 97.914062 C 82.964844 97.910156 82.964844 97.90625 82.964844 97.902344 C 82.964844 97.90625 82.964844 97.910156 82.964844 97.914062 M 82.964844 97.898438 C 82.964844 97.894531 82.964844 97.894531 82.964844 97.890625 C 82.964844 97.894531 82.964844 97.894531 82.964844 97.898438 M 82.964844 97.886719 C 82.964844 97.882812 82.964844 97.878906 82.964844 97.871094 C 82.964844 97.878906 82.964844 97.882812 82.964844 97.886719 M 82.964844 97.871094 C 82.964844 97.867188 82.964844 97.863281 82.964844 97.859375 C 82.964844 97.863281 82.964844 97.867188 82.964844 97.871094 M 82.964844 97.855469 C 82.964844 97.851562 82.964844 97.847656 82.964844 97.84375 C 82.964844 97.847656 82.964844 97.851562 82.964844 97.855469 M 82.964844 97.839844 C 82.964844 97.835938 82.964844 97.832031 82.964844 97.828125 C 82.964844 97.832031 82.964844 97.835938 82.964844 97.839844 M 82.964844 97.828125 C 82.964844 97.824219 82.964844 97.816406 82.964844 97.816406 C 82.964844 97.816406 82.964844 97.824219 82.964844 97.828125 M 82.964844 97.8125 C 82.964844 97.808594 82.964844 97.804688 82.964844 97.800781 C 82.964844 97.804688 82.964844 97.808594 82.964844 97.8125 M 82.964844 97.796875 C 82.964844 97.792969 82.964844 97.789062 82.964844 97.785156 C 82.964844 97.789062 82.964844 97.792969 82.964844 97.796875 M 82.960938 97.78125 C 82.960938 97.777344 82.960938 97.773438 82.960938 97.769531 C 82.960938 97.773438 82.960938 97.777344 82.960938 97.78125 M 82.960938 97.765625 C 82.960938 97.761719 82.960938 97.761719 82.960938 97.757812 C 82.960938 97.761719 82.960938 97.761719 82.960938 97.765625 M 82.960938 97.75 C 82.960938 97.746094 82.960938 97.746094 82.960938 97.738281 C 82.960938 97.742188 82.960938 97.75 82.960938 97.75 M 82.960938 97.734375 C 82.960938 97.734375 82.960938 97.730469 82.960938 97.726562 C 82.960938 97.730469 82.960938 97.734375 82.960938 97.734375 M 82.960938 97.722656 C 82.960938 97.71875 82.960938 97.714844 82.960938 97.710938 C 82.960938 97.714844 82.960938 97.71875 82.960938 97.722656 M 82.960938 97.707031 C 82.960938 97.703125 82.960938 97.703125 82.960938 97.699219 C 82.960938 97.703125 82.960938 97.703125 82.960938 97.707031 M 82.960938 97.6875 C 82.960938 97.6875 82.960938 97.6875 82.960938 97.683594 C 82.960938 97.6875 82.960938 97.6875 82.960938 97.6875 M 82.960938 97.675781 C 82.960938 97.675781 82.960938 97.671875 82.960938 97.671875 C 82.960938 97.671875 82.960938 97.675781 82.960938 97.675781 M 82.960938 97.660156 C 82.960938 97.65625 82.960938 97.65625 82.960938 97.65625 C 82.960938 97.65625 82.960938 97.65625 82.960938 97.660156 M 82.957031 97.628906 C 82.957031 97.628906 82.957031 97.628906 82.957031 97.625 C 82.957031 97.628906 82.957031 97.628906 82.957031 97.628906 " fill-opacity="1" fill-rule="nonzero"/><path fill="#257175" d="M 80.085938 91.257812 C 79.9375 91.117188 79.78125 90.980469 79.621094 90.847656 C 79.78125 90.980469 79.9375 91.117188 80.085938 91.257812 " fill-opacity="1" fill-rule="nonzero"/><path fill="#711b0f" d="M 79.621094 90.847656 C 79.332031 90.609375 79.027344 90.386719 78.707031 90.183594 C 79.027344 90.386719 79.332031 90.609375 79.621094 90.847656 " fill-opacity="1" fill-rule="nonzero"/><g clip-path="url(#d15c93dbbb)"><path fill="#c7331f" d="M 73.753906 107.121094 C 73.75 107.121094 73.746094 107.121094 73.738281 107.121094 C 73.738281 107.121094 73.738281 107.121094 73.734375 107.121094 C 73.734375 107.121094 73.730469 107.121094 73.726562 107.121094 C 73.726562 107.121094 73.722656 107.121094 73.722656 107.121094 C 73.71875 107.121094 73.714844 107.121094 73.707031 107.121094 C 73.703125 107.121094 73.699219 107.121094 73.695312 107.121094 C 73.695312 107.121094 73.691406 107.121094 73.691406 107.121094 C 73.6875 107.121094 73.683594 107.121094 73.679688 107.121094 C 73.679688 107.121094 73.679688 107.121094 73.675781 107.121094 C 73.671875 107.121094 73.667969 107.121094 73.664062 107.121094 C 73.660156 107.121094 73.65625 107.121094 73.652344 107.121094 C 73.648438 107.121094 73.648438 107.121094 73.648438 107.121094 C 73.644531 107.121094 73.640625 107.121094 73.636719 107.121094 C 73.636719 107.121094 73.632812 107.121094 73.632812 107.121094 C 73.628906 107.121094 73.625 107.121094 73.621094 107.121094 C 73.621094 107.121094 73.617188 107.121094 73.617188 107.121094 C 73.613281 107.121094 73.609375 107.121094 73.605469 107.121094 C 73.605469 107.121094 73.605469 107.121094 73.601562 107.121094 C 73.597656 107.121094 73.59375 107.121094 73.59375 107.121094 C 73.589844 107.121094 73.589844 107.121094 73.589844 107.121094 C 73.585938 107.121094 73.582031 107.121094 73.574219 107.121094 C 73.574219 107.121094 73.574219 107.121094 73.570312 107.121094 C 73.566406 107.117188 73.566406 107.117188 73.5625 107.117188 C 73.5625 107.117188 73.558594 107.117188 73.558594 107.117188 C 73.554688 107.117188 73.550781 107.117188 73.546875 107.117188 C 73.546875 107.117188 73.542969 107.117188 73.542969 107.117188 C 73.539062 107.117188 73.535156 107.117188 73.53125 107.117188 C 73.53125 107.117188 73.527344 107.117188 73.527344 107.117188 C 73.523438 107.117188 73.519531 107.117188 73.519531 107.117188 C 73.515625 107.117188 73.515625 107.117188 73.511719 107.117188 C 73.511719 107.117188 73.507812 107.117188 73.503906 107.117188 C 73.5 107.117188 73.5 107.117188 73.5 107.117188 C 73.496094 107.117188 73.492188 107.117188 73.488281 107.117188 C 73.484375 107.117188 73.484375 107.117188 73.484375 107.117188 C 73.480469 107.117188 73.476562 107.117188 73.472656 107.117188 C 73.472656 107.117188 73.472656 107.117188 73.46875 107.117188 C 73.464844 107.117188 73.460938 107.117188 73.457031 107.117188 C 73.457031 107.117188 73.457031 107.117188 73.453125 107.117188 C 73.449219 107.117188 73.445312 107.117188 73.445312 107.117188 C 73.441406 107.117188 73.441406 107.117188 73.4375 107.117188 C 73.433594 107.117188 73.433594 107.117188 73.429688 107.117188 C 73.429688 107.113281 73.425781 107.113281 73.425781 107.113281 C 73.421875 107.113281 73.417969 107.113281 73.414062 107.113281 C 73.410156 107.113281 73.410156 107.113281 73.410156 107.113281 C 73.40625 107.113281 73.402344 107.113281 73.398438 107.113281 C 73.398438 107.113281 73.394531 107.113281 73.394531 107.113281 C 73.390625 107.113281 73.390625 107.113281 73.386719 107.113281 C 73.382812 107.113281 73.382812 107.113281 73.378906 107.113281 C 73.375 107.113281 73.375 107.113281 73.367188 107.113281 C 73.367188 107.113281 73.367188 107.113281 73.363281 107.113281 C 73.363281 107.113281 73.359375 107.113281 73.355469 107.113281 C 73.351562 107.113281 73.351562 107.113281 73.351562 107.113281 C 73.347656 107.113281 73.34375 107.113281 73.34375 107.113281 C 73.339844 107.113281 73.339844 107.113281 73.335938 107.113281 C 73.332031 107.113281 73.328125 107.113281 73.324219 107.113281 C 73.324219 107.113281 73.320312 107.113281 73.320312 107.113281 C 73.316406 107.113281 73.316406 107.113281 73.3125 107.113281 C 73.308594 107.113281 73.308594 107.113281 73.304688 107.109375 C 73.304688 107.109375 73.300781 107.109375 73.296875 107.109375 C 73.296875 107.109375 73.292969 107.109375 73.292969 107.109375 C 73.289062 107.109375 73.285156 107.109375 73.28125 107.109375 C 73.277344 107.109375 73.277344 107.109375 73.273438 107.109375 C 73.273438 107.109375 73.269531 107.109375 73.269531 107.109375 C 73.265625 107.109375 73.265625 107.109375 73.261719 107.109375 C 73.261719 107.109375 73.257812 107.109375 73.253906 107.109375 C 73.25 107.109375 73.246094 107.109375 73.246094 107.109375 C 73.242188 107.109375 73.238281 107.109375 73.238281 107.105469 C 73.234375 107.105469 73.234375 107.105469 73.230469 107.105469 C 73.230469 107.105469 73.226562 107.105469 73.222656 107.105469 C 73.222656 107.105469 73.21875 107.105469 73.21875 107.105469 C 73.214844 107.105469 73.214844 107.105469 73.210938 107.105469 C 73.207031 107.105469 73.203125 107.105469 73.199219 107.105469 C 73.199219 107.105469 73.195312 107.105469 73.195312 107.105469 C 73.191406 107.105469 73.1875 107.105469 73.1875 107.105469 C 73.183594 107.105469 73.183594 107.105469 73.179688 107.105469 C 73.179688 107.105469 73.175781 107.105469 73.171875 107.105469 C 73.171875 107.101562 73.171875 107.101562 73.167969 107.101562 C 73.164062 107.101562 73.160156 107.101562 73.15625 107.101562 C 73.152344 107.101562 73.152344 107.101562 73.152344 107.101562 C 73.148438 107.101562 73.144531 107.101562 73.140625 107.101562 C 73.140625 107.101562 73.140625 107.101562 73.136719 107.101562 C 73.132812 107.101562 73.132812 107.101562 73.128906 107.101562 C 73.121094 107.101562 73.117188 107.101562 73.109375 107.097656 C 73.109375 107.097656 73.109375 107.097656 73.105469 107.097656 C 73.105469 107.097656 73.101562 107.097656 73.097656 107.097656 C 73.097656 107.097656 73.097656 107.097656 73.09375 107.097656 C 73.085938 107.097656 73.074219 107.097656 73.066406 107.097656 C 73.066406 107.097656 73.066406 107.097656 73.0625 107.097656 C 73.0625 107.09375 73.058594 107.09375 73.054688 107.09375 C 73.054688 107.09375 73.050781 107.09375 73.050781 107.09375 C 73.042969 107.09375 73.03125 107.09375 73.019531 107.09375 C 73.019531 107.09375 73.015625 107.089844 73.011719 107.089844 C 69.5625 106.816406 66.652344 104.648438 65.320312 101.628906 C 66.226562 102.207031 67.242188 102.632812 68.324219 102.867188 C 69.667969 104.335938 71.601562 105.257812 73.753906 105.257812 C 77.808594 105.257812 81.097656 101.980469 81.097656 97.933594 C 81.097656 96.191406 80.488281 94.589844 79.46875 93.332031 C 79.402344 92.21875 79.136719 91.15625 78.707031 90.183594 C 79.027344 90.386719 79.332031 90.609375 79.621094 90.847656 C 79.78125 90.980469 79.9375 91.117188 80.085938 91.257812 C 81.789062 92.871094 82.875 95.121094 82.957031 97.625 C 82.957031 97.628906 82.957031 97.628906 82.957031 97.628906 C 82.960938 97.636719 82.960938 97.644531 82.960938 97.65625 C 82.960938 97.65625 82.960938 97.65625 82.960938 97.660156 C 82.960938 97.664062 82.960938 97.667969 82.960938 97.671875 C 82.960938 97.671875 82.960938 97.675781 82.960938 97.675781 C 82.960938 97.679688 82.960938 97.679688 82.960938 97.683594 C 82.960938 97.6875 82.960938 97.6875 82.960938 97.6875 C 82.960938 97.691406 82.960938 97.695312 82.960938 97.699219 C 82.960938 97.703125 82.960938 97.703125 82.960938 97.707031 C 82.960938 97.707031 82.960938 97.710938 82.960938 97.710938 C 82.960938 97.714844 82.960938 97.71875 82.960938 97.722656 C 82.960938 97.722656 82.960938 97.726562 82.960938 97.726562 C 82.960938 97.730469 82.960938 97.734375 82.960938 97.734375 C 82.960938 97.738281 82.960938 97.738281 82.960938 97.738281 C 82.960938 97.746094 82.960938 97.746094 82.960938 97.75 C 82.960938 97.753906 82.960938 97.753906 82.960938 97.757812 C 82.960938 97.761719 82.960938 97.761719 82.960938 97.765625 C 82.960938 97.765625 82.960938 97.769531 82.960938 97.769531 C 82.960938 97.773438 82.960938 97.777344 82.960938 97.78125 C 82.960938 97.785156 82.960938 97.785156 82.964844 97.785156 C 82.964844 97.789062 82.964844 97.792969 82.964844 97.796875 C 82.964844 97.796875 82.964844 97.796875 82.964844 97.800781 C 82.964844 97.804688 82.964844 97.808594 82.964844 97.8125 C 82.964844 97.8125 82.964844 97.8125 82.964844 97.816406 C 82.964844 97.816406 82.964844 97.824219 82.964844 97.828125 C 82.964844 97.832031 82.964844 97.835938 82.964844 97.839844 C 82.964844 97.84375 82.964844 97.84375 82.964844 97.84375 C 82.964844 97.847656 82.964844 97.851562 82.964844 97.855469 C 82.964844 97.859375 82.964844 97.859375 82.964844 97.859375 C 82.964844 97.863281 82.964844 97.867188 82.964844 97.871094 C 82.964844 97.878906 82.964844 97.882812 82.964844 97.886719 C 82.964844 97.886719 82.964844 97.886719 82.964844 97.890625 C 82.964844 97.894531 82.964844 97.894531 82.964844 97.898438 C 82.964844 97.902344 82.964844 97.902344 82.964844 97.902344 C 82.964844 97.90625 82.964844 97.910156 82.964844 97.914062 C 82.964844 97.917969 82.964844 97.917969 82.964844 97.917969 C 82.964844 97.921875 82.964844 97.925781 82.964844 97.933594 C 82.964844 99.585938 82.527344 101.132812 81.761719 102.472656 C 81.339844 103.214844 80.816406 103.886719 80.214844 104.480469 C 79.828125 104.859375 79.40625 105.207031 78.957031 105.515625 C 77.476562 106.527344 75.683594 107.121094 73.753906 107.121094 " fill-opacity="1" fill-rule="nonzero"/></g><path fill="#d3d2d2" d="M 73.753906 105.257812 C 71.601562 105.257812 69.667969 104.335938 68.324219 102.867188 C 68.953125 103 69.605469 103.074219 70.273438 103.074219 C 75.363281 103.074219 79.484375 98.960938 79.484375 93.882812 C 79.484375 93.699219 79.480469 93.515625 79.46875 93.332031 C 80.488281 94.589844 81.097656 96.191406 81.097656 97.933594 C 81.097656 101.980469 77.808594 105.257812 73.753906 105.257812 M 73.273438 103.234375 L 73.273438 104.199219 L 74.242188 104.199219 L 74.238281 103.234375 L 73.273438 103.234375 M 77.890625 101.339844 L 77.53125 101.660156 L 77.171875 102.0625 L 77.894531 102.703125 L 78.195312 102.359375 L 78.535156 102.054688 L 77.890625 101.339844 M 80.035156 97.429688 L 79.066406 97.429688 L 79.066406 98.414062 L 80.035156 98.414062 L 80.035156 97.429688 " fill-opacity="1" fill-rule="nonzero"/><path fill="#711b0f" d="M 77.894531 102.703125 L 77.171875 102.0625 L 77.53125 101.660156 L 77.890625 101.339844 L 78.535156 102.054688 L 78.195312 102.359375 L 77.894531 102.703125 " fill-opacity="1" fill-rule="nonzero"/><path fill="#c7331f" d="M 80.035156 98.414062 L 79.066406 98.414062 L 79.066406 97.429688 L 80.035156 97.429688 L 80.035156 98.414062 " fill-opacity="1" fill-rule="nonzero"/><path fill="#c7331f" d="M 74.242188 104.199219 L 73.273438 104.199219 L 73.273438 103.234375 L 74.238281 103.234375 L 74.242188 104.199219 " fill-opacity="1" fill-rule="nonzero"/><path fill="#f7991c" d="M 72.46875 97.984375 L 73.753906 93.480469 L 75.039062 97.984375 Z M 72.46875 97.984375 " fill-opacity="1" fill-rule="nonzero"/><path fill="#852113" d="M 75.039062 98.058594 L 73.753906 102.558594 L 72.46875 98.058594 Z M 75.039062 98.058594 " fill-opacity="1" fill-rule="nonzero"/><path fill="#f03f27" d="M 75.027344 97.9375 C 75.027344 98.640625 74.457031 99.207031 73.753906 99.207031 C 73.046875 99.207031 72.480469 98.640625 72.480469 97.9375 C 72.480469 97.234375 73.046875 96.667969 73.753906 96.667969 C 74.457031 96.667969 75.027344 97.234375 75.027344 97.9375 " fill-opacity="1" fill-rule="nonzero"/><path fill="#d5d4d5" d="M 31.433594 33.972656 L 28.929688 38.871094 L 26.40625 34.355469 L 28.910156 29.457031 L 31.433594 33.972656 " fill-opacity="1" fill-rule="nonzero"/><path fill="#d3d2d2" d="M 30.507812 35.78125 L 31.433594 33.972656 L 30.507812 35.78125 M 27.730469 31.765625 L 28.910156 29.457031 L 27.730469 31.765625 " fill-opacity="1" fill-rule="nonzero"/><path fill="#b2b1b1" d="M 30.507812 35.78125 C 30.339844 35.277344 30.117188 34.765625 29.835938 34.265625 C 29.253906 33.222656 28.511719 32.367188 27.730469 31.765625 L 28.910156 29.457031 L 31.433594 33.972656 L 30.507812 35.78125 " fill-opacity="1" fill-rule="nonzero"/><path fill="#d5d4d5" d="M 32.476562 33.390625 L 37.972656 33.84375 L 35.449219 29.328125 L 29.957031 28.878906 L 32.476562 33.390625 " fill-opacity="1" fill-rule="nonzero"/><path fill="#d3d2d2" d="M 34.503906 33.558594 L 32.476562 33.390625 L 29.957031 28.878906 L 32.476562 33.390625 L 34.503906 33.558594 M 32.542969 29.089844 L 29.957031 28.878906 L 32.542969 29.089844 " fill-opacity="1" fill-rule="nonzero"/><path fill="#b2b1b1" d="M 34.503906 33.558594 L 32.476562 33.390625 L 29.957031 28.878906 L 32.542969 29.089844 C 32.644531 30.066406 32.984375 31.144531 33.566406 32.191406 C 33.847656 32.691406 34.164062 33.152344 34.503906 33.558594 " fill-opacity="1" fill-rule="nonzero"/><path fill="#d5d4d5" d="M 24.898438 23.082031 L 8.507812 32.199219 L 7.246094 29.933594 L 20.242188 14.753906 L 24.898438 23.082031 " fill-opacity="1" fill-rule="nonzero"/><path fill="#b2b1b1" d="M 19.433594 26.125 C 20.171875 23.742188 20.023438 21.230469 18.8125 19.054688 C 18.519531 18.53125 18.175781 18.050781 17.792969 17.613281 L 20.242188 14.753906 L 24.898438 23.082031 L 19.433594 26.125 " fill-opacity="1" fill-rule="nonzero"/><path fill="#d5d4d5" d="M 26.628906 22.121094 L 43.015625 13.003906 L 41.75 10.738281 L 21.972656 13.792969 L 26.628906 22.121094 " fill-opacity="1" fill-rule="nonzero"/><path fill="#d3d2d2" d="M 21.972656 13.792969 L 25.699219 13.214844 L 21.972656 13.792969 " fill-opacity="1" fill-rule="nonzero"/><path fill="#b2b1b1" d="M 26.628906 22.121094 L 21.972656 13.792969 L 25.699219 13.214844 C 25.871094 13.773438 26.101562 14.316406 26.394531 14.839844 C 27.605469 17.011719 29.675781 18.457031 32.09375 19.082031 L 26.628906 22.121094 " fill-opacity="1" fill-rule="nonzero"/><g clip-path="url(#fb64eba5fc)"><path fill="#d1d0d0" d="M 24.597656 13.507812 C 28.308594 20.148438 34.285156 33.980469 32.636719 34.898438 C 30.984375 35.816406 22.332031 23.472656 18.621094 16.832031 C 14.910156 10.195312 14.855469 6.957031 16.503906 6.035156 C 18.15625 5.117188 20.886719 6.871094 24.597656 13.507812 " fill-opacity="1" fill-rule="nonzero"/></g><path fill="#227e8f" d="M 20.722656 8.484375 C 19.25 6.738281 17.976562 6.410156 17.015625 6.949219 C 16.050781 7.484375 15.660156 8.734375 16.375 10.902344 C 16.375 10.902344 17.046875 8.695312 17.765625 8.296875 C 18.488281 7.894531 20.722656 8.484375 20.722656 8.484375 " fill-opacity="1" fill-rule="nonzero"/><path fill="#227e8f" d="M 21.679688 23.613281 L 9.03125 30.652344 L 9.207031 30.96875 L 21.859375 23.929688 L 21.679688 23.613281 " fill-opacity="1" fill-rule="nonzero"/><path fill="#227e8f" d="M 41.421875 12.632812 L 28.769531 19.667969 L 28.949219 19.984375 L 41.597656 12.949219 L 41.421875 12.632812 " fill-opacity="1" fill-rule="nonzero"/><path fill="#d5d4d5" d="M 32.082031 33.015625 C 32.199219 33.226562 32.125 33.492188 31.914062 33.609375 C 31.703125 33.726562 31.4375 33.652344 31.320312 33.441406 L 29.121094 29.507812 C 29.003906 29.296875 29.078125 29.03125 29.289062 28.914062 C 29.5 28.796875 29.765625 28.875 29.882812 29.082031 L 32.082031 33.015625 " fill-opacity="1" fill-rule="nonzero"/><path fill="#231f20" d="M 35.03125 39.421875 C 34.84375 39.421875 34.660156 39.339844 34.53125 39.179688 C 33.046875 37.328125 32.707031 36.050781 32.691406 35.996094 C 32.605469 35.65625 32.808594 35.3125 33.148438 35.222656 C 33.488281 35.136719 33.835938 35.339844 33.921875 35.675781 C 33.929688 35.691406 34.238281 36.777344 35.527344 38.390625 C 35.746094 38.664062 35.699219 39.0625 35.425781 39.28125 C 35.308594 39.375 35.167969 39.421875 35.03125 39.421875 Z M 40.136719 43.957031 C 40.011719 43.957031 39.890625 43.921875 39.78125 43.847656 C 38.765625 43.164062 37.828125 42.449219 36.992188 41.722656 C 36.730469 41.488281 36.703125 41.089844 36.933594 40.824219 C 37.164062 40.5625 37.566406 40.535156 37.832031 40.765625 C 38.628906 41.460938 39.523438 42.140625 40.492188 42.796875 C 40.785156 42.992188 40.859375 43.386719 40.664062 43.675781 C 40.542969 43.859375 40.339844 43.957031 40.136719 43.957031 Z M 46.144531 47.253906 C 46.054688 47.253906 45.964844 47.238281 45.878906 47.199219 C 44.792969 46.707031 43.746094 46.1875 42.765625 45.65625 C 42.457031 45.488281 42.34375 45.101562 42.511719 44.792969 C 42.679688 44.484375 43.066406 44.371094 43.375 44.539062 C 44.324219 45.058594 45.34375 45.5625 46.40625 46.042969 C 46.726562 46.1875 46.867188 46.5625 46.722656 46.878906 C 46.617188 47.117188 46.386719 47.253906 46.144531 47.253906 Z M 52.550781 49.707031 C 52.484375 49.707031 52.417969 49.695312 52.351562 49.671875 C 51.226562 49.308594 50.125 48.921875 49.085938 48.527344 C 48.757812 48.402344 48.589844 48.035156 48.71875 47.707031 C 48.84375 47.378906 49.210938 47.214844 49.539062 47.339844 C 50.558594 47.730469 51.640625 48.105469 52.746094 48.464844 C 53.078125 48.574219 53.261719 48.933594 53.15625 49.265625 C 53.066406 49.535156 52.816406 49.707031 52.550781 49.707031 Z M 59.160156 51.542969 C 59.109375 51.542969 59.0625 51.539062 59.011719 51.527344 C 57.867188 51.253906 56.738281 50.964844 55.664062 50.667969 C 55.328125 50.574219 55.128906 50.222656 55.222656 49.886719 C 55.316406 49.546875 55.667969 49.351562 56.003906 49.445312 C 57.066406 49.738281 58.175781 50.023438 59.308594 50.292969 C 59.648438 50.375 59.859375 50.714844 59.777344 51.058594 C 59.707031 51.347656 59.449219 51.542969 59.160156 51.542969 Z M 65.882812 52.921875 C 65.847656 52.921875 65.8125 52.917969 65.773438 52.910156 C 64.625 52.710938 63.484375 52.496094 62.382812 52.269531 C 62.039062 52.199219 61.816406 51.863281 61.886719 51.519531 C 61.957031 51.175781 62.292969 50.953125 62.640625 51.027344 C 63.726562 51.25 64.855469 51.464844 65.992188 51.660156 C 66.339844 51.722656 66.570312 52.050781 66.511719 52.394531 C 66.457031 52.703125 66.1875 52.921875 65.882812 52.921875 Z M 72.675781 53.9375 L 72.59375 53.929688 C 71.445312 53.785156 70.292969 53.628906 69.179688 53.460938 C 68.832031 53.410156 68.589844 53.085938 68.644531 52.738281 C 68.695312 52.394531 69.023438 52.15625 69.367188 52.207031 C 70.472656 52.371094 71.613281 52.527344 72.753906 52.671875 C 73.101562 52.714844 73.347656 53.03125 73.304688 53.378906 C 73.265625 53.699219 72.992188 53.9375 72.675781 53.9375 Z M 79.496094 54.761719 L 79.410156 54.757812 C 78.304688 54.613281 77.160156 54.46875 76.011719 54.332031 C 75.664062 54.289062 75.414062 53.976562 75.453125 53.625 C 75.496094 53.277344 75.816406 53.03125 76.160156 53.070312 C 77.316406 53.207031 78.46875 53.351562 79.578125 53.5 C 79.925781 53.546875 80.171875 53.863281 80.125 54.210938 C 80.082031 54.53125 79.808594 54.761719 79.496094 54.761719 Z M 86.285156 55.792969 C 86.25 55.792969 86.214844 55.792969 86.175781 55.785156 C 85.089844 55.597656 83.953125 55.414062 82.800781 55.238281 C 82.453125 55.1875 82.210938 54.863281 82.265625 54.515625 C 82.320312 54.167969 82.644531 53.929688 82.992188 53.984375 C 84.152344 54.160156 85.300781 54.34375 86.394531 54.535156 C 86.742188 54.59375 86.972656 54.921875 86.914062 55.269531 C 86.859375 55.578125 86.589844 55.792969 86.285156 55.792969 Z M 93.015625 57.164062 C 92.964844 57.164062 92.917969 57.15625 92.867188 57.144531 C 91.824219 56.894531 90.703125 56.648438 89.535156 56.414062 C 89.191406 56.34375 88.96875 56.007812 89.039062 55.664062 C 89.105469 55.320312 89.441406 55.097656 89.789062 55.167969 C 90.972656 55.40625 92.105469 55.65625 93.164062 55.910156 C 93.507812 55.992188 93.714844 56.335938 93.632812 56.675781 C 93.566406 56.96875 93.304688 57.164062 93.015625 57.164062 Z M 99.589844 59.125 C 99.515625 59.125 99.4375 59.113281 99.363281 59.085938 C 98.40625 58.71875 97.324219 58.359375 96.15625 58.015625 C 95.816406 57.914062 95.625 57.5625 95.726562 57.226562 C 95.824219 56.890625 96.179688 56.699219 96.515625 56.796875 C 97.71875 57.148438 98.828125 57.519531 99.820312 57.898438 C 100.148438 58.023438 100.3125 58.390625 100.183594 58.71875 C 100.089844 58.96875 99.847656 59.125 99.589844 59.125 Z M 105.386719 62.65625 C 105.199219 62.65625 105.015625 62.574219 104.890625 62.414062 C 104.363281 61.753906 103.523438 61.097656 102.398438 60.46875 C 102.09375 60.296875 101.984375 59.910156 102.15625 59.605469 C 102.328125 59.300781 102.714844 59.191406 103.023438 59.363281 C 104.289062 60.074219 105.253906 60.835938 105.886719 61.625 C 106.105469 61.898438 106.058594 62.296875 105.785156 62.515625 C 105.667969 62.609375 105.527344 62.65625 105.386719 62.65625 Z M 103.816406 68.464844 C 103.628906 68.464844 103.445312 68.386719 103.316406 68.230469 C 103.097656 67.953125 103.140625 67.554688 103.414062 67.335938 C 104.421875 66.53125 105.082031 65.738281 105.378906 64.980469 C 105.503906 64.65625 105.875 64.492188 106.203125 64.621094 C 106.53125 64.75 106.691406 65.117188 106.5625 65.445312 C 106.183594 66.410156 105.394531 67.378906 104.210938 68.328125 C 104.09375 68.421875 103.953125 68.464844 103.816406 68.464844 Z M 97.828125 71.792969 C 97.582031 71.792969 97.34375 71.644531 97.242188 71.40625 C 97.105469 71.082031 97.257812 70.707031 97.582031 70.574219 C 98.703125 70.101562 99.730469 69.613281 100.628906 69.128906 C 100.941406 68.964844 101.324219 69.078125 101.492188 69.386719 C 101.660156 69.695312 101.542969 70.082031 101.234375 70.246094 C 100.296875 70.753906 99.234375 71.253906 98.078125 71.742188 C 97.996094 71.777344 97.914062 71.792969 97.828125 71.792969 " fill-opacity="1" fill-rule="nonzero"/></svg>
