<svg width="510" height="503" viewBox="0 0 510 503" fill="none" xmlns="http://www.w3.org/2000/svg">
<g opacity="0.3">
<path d="M51.3425 77.062V79.835" stroke="black" stroke-linejoin="round"/>
<path d="M51.3425 85.8248V106.789" stroke="black" stroke-linejoin="round" stroke-dasharray="5.4 5.4"/>
<path d="M51.3425 109.783V112.556H54.2838" stroke="black" stroke-linejoin="round"/>
<path d="M60.0604 112.556H241.995" stroke="black" stroke-linejoin="round" stroke-dasharray="4.91 4.91"/>
<path d="M244.878 112.556H247.819V115.329" stroke="black" stroke-linejoin="round"/>
<path d="M247.819 120.898V396.501" stroke="black" stroke-linejoin="round" stroke-dasharray="5.02 5.02"/>
<path d="M247.819 399.285V402.058H250.76" stroke="black" stroke-linejoin="round"/>
<path d="M254.29 402.058H259.584" stroke="black" stroke-linejoin="round" stroke-dasharray="3 3"/>
<path d="M261.349 402.058H264.29" stroke="black" stroke-linejoin="round"/>
<path d="M14.8712 394.294V391.521" stroke="black" stroke-linejoin="round"/>
<path d="M14.8712 385.819V274.577" stroke="black" stroke-linejoin="round" stroke-dasharray="5.14 5.14"/>
<path d="M14.8712 271.727V268.954H17.8125" stroke="black" stroke-linejoin="round"/>
<path d="M23.1771 268.954H63.3666" stroke="black" stroke-linejoin="round" stroke-dasharray="4.56 4.56"/>
<path d="M66.0488 268.954H68.9901V271.727" stroke="black" stroke-linejoin="round"/>
<path d="M68.9902 277.229V395.425" stroke="black" stroke-linejoin="round" stroke-dasharray="4.96 4.96"/>
<path d="M68.9902 398.176V400.949H71.9315" stroke="black" stroke-linejoin="round"/>
<path d="M77.9197 400.949H206.594" stroke="black" stroke-linejoin="round" stroke-dasharray="5.09 5.09"/>
<path d="M209.583 400.949H212.524V398.176" stroke="black" stroke-linejoin="round"/>
<path d="M212.524 392.608V161.372" stroke="black" stroke-linejoin="round" stroke-dasharray="5.02 5.02"/>
<path d="M212.524 158.588V155.815H215.465" stroke="black" stroke-linejoin="round"/>
<path d="M221.207 155.815H447.896" stroke="black" stroke-linejoin="round" stroke-dasharray="4.88 4.88"/>
<path d="M450.766 155.815H453.708" stroke="black" stroke-linejoin="round"/>
<path d="M65.4606 50.2858C65.4606 46.7557 63.9732 43.3701 61.3255 40.8739C58.6779 38.3777 55.0869 36.9754 51.3426 36.9754C47.5982 36.9754 44.0072 38.3777 41.3596 40.8739C38.7119 43.3701 37.2245 46.7557 37.2245 50.2858C37.2245 57.6287 51.3426 72.4698 51.3426 72.4698C51.3426 72.4698 65.4606 57.6287 65.4606 50.2858Z" stroke="black" stroke-linejoin="round"/>
<path d="M57.3899 50.2858C57.3899 49.1582 57.0352 48.0559 56.3707 47.1184C55.7063 46.1808 54.7618 45.45 53.6568 45.0185C52.5518 44.587 51.3359 44.4741 50.1629 44.6941C48.9898 44.9141 47.9123 45.4571 47.0666 46.2544C46.2209 47.0517 45.6449 48.0676 45.4116 49.1736C45.1783 50.2795 45.298 51.4258 45.7557 52.4676C46.2134 53.5094 46.9885 54.3998 47.983 55.0263C48.9775 55.6527 50.1466 55.9871 51.3427 55.9871C52.9455 55.9842 54.4819 55.3826 55.6153 54.314C56.7487 53.2454 57.3868 51.797 57.3899 50.2858V50.2858Z" stroke="black" stroke-linejoin="round"/>
<path d="M471.732 136.282C471.636 133.461 470.38 130.785 468.229 128.821C466.079 126.857 463.202 125.759 460.208 125.759C457.214 125.759 454.337 126.857 452.186 128.821C450.035 130.785 448.779 133.461 448.684 136.282C448.684 142.283 460.214 154.396 460.214 154.396C460.214 154.396 471.732 142.283 471.732 136.282Z" stroke="black" stroke-linejoin="round"/>
<path d="M460.214 140.941C462.943 140.941 465.155 138.855 465.155 136.282C465.155 133.709 462.943 131.624 460.214 131.624C457.485 131.624 455.272 133.709 455.272 136.282C455.272 138.855 457.485 140.941 460.214 140.941Z" stroke="black" stroke-linejoin="round"/>
<path d="M455.237 204.121C455.307 201.233 454.763 198.36 453.639 195.673C452.514 192.986 450.832 190.537 448.689 188.471C446.547 186.406 443.989 184.764 441.165 183.643C438.34 182.523 435.307 181.946 432.243 181.946C429.178 181.946 426.145 182.523 423.321 183.643C420.496 184.764 417.938 186.406 415.796 188.471C413.654 190.537 411.971 192.986 410.847 195.673C409.722 198.36 409.179 201.233 409.248 204.121C409.248 216.089 432.237 240.259 432.237 240.259C432.237 240.259 455.237 216.089 455.237 204.121Z" stroke="black" stroke-linejoin="round"/>
<path d="M432.236 213.416C437.681 213.416 442.095 209.255 442.095 204.121C442.095 198.987 437.681 194.826 432.236 194.826C426.791 194.826 422.377 198.987 422.377 204.121C422.377 209.255 426.791 213.416 432.236 213.416Z" stroke="black" stroke-linejoin="round"/>
<path d="M75.4729 223.721C75.4729 219.243 73.5863 214.949 70.2282 211.783C66.8701 208.617 62.3155 206.839 57.5665 206.839C52.8174 206.839 48.2628 208.617 44.9047 211.783C41.5466 214.949 39.66 219.243 39.66 223.721C39.66 233.038 57.5665 251.85 57.5665 251.85C57.5665 251.85 75.4729 233.038 75.4729 223.721Z" stroke="black" stroke-linejoin="round"/>
<path d="M65.2374 223.721C65.2374 222.29 64.7875 220.892 63.9446 219.703C63.1017 218.513 61.9037 217.587 60.5021 217.039C59.1004 216.492 57.5581 216.349 56.0701 216.628C54.5821 216.907 53.2153 217.595 52.1425 218.607C51.0697 219.618 50.3391 220.907 50.0431 222.31C49.7472 223.713 49.8991 225.167 50.4797 226.488C51.0602 227.81 52.0434 228.939 53.3049 229.734C54.5664 230.528 56.0494 230.953 57.5666 230.953C58.5739 230.953 59.5714 230.766 60.5021 230.402C61.4327 230.039 62.2784 229.506 62.9907 228.834C63.703 228.163 64.268 227.366 64.6535 226.488C65.039 225.611 65.2374 224.67 65.2374 223.721V223.721Z" stroke="black" stroke-linejoin="round"/>
<path d="M24.036 414.481C24.036 413.055 23.7381 411.643 23.1592 410.325C22.5804 409.008 21.732 407.811 20.6624 406.802C19.5929 405.794 18.3232 404.994 16.9257 404.448C15.5283 403.903 14.0306 403.622 12.518 403.622C11.0054 403.622 9.50767 403.903 8.11025 404.448C6.71282 404.994 5.44308 405.794 4.37354 406.802C3.304 407.811 2.45559 409.008 1.87676 410.325C1.29792 411.643 1 413.055 1 414.481C1 420.482 12.518 432.583 12.518 432.583C12.518 432.583 24.036 420.482 24.036 414.481Z" stroke="black" stroke-linejoin="round"/>
<path d="M12.5182 419.14C15.2472 419.14 17.4596 417.054 17.4596 414.481C17.4596 411.908 15.2472 409.822 12.5182 409.822C9.78921 409.822 7.5769 411.908 7.5769 414.481C7.5769 417.054 9.78921 419.14 12.5182 419.14Z" stroke="black" stroke-linejoin="round"/>
</g>
<path d="M354.881 62.8421V400.372C354.881 409.343 351.104 417.947 344.381 424.294C337.657 430.641 328.536 434.213 319.021 434.225H148.734C139.211 434.225 130.078 430.658 123.344 424.31C116.61 417.961 112.827 409.35 112.827 400.372V62.8421C112.83 53.8657 116.614 45.2579 123.348 38.9117C130.081 32.5655 139.213 29.0004 148.734 29.0004H219.936L220.006 29.2444C222.112 36.3876 226.96 41.0352 232.336 41.0352H235.419C240.795 41.0352 245.643 36.3876 247.748 29.2444L247.831 29.0004H319.021C328.534 29.0121 337.653 32.5824 344.377 38.9274C351.1 45.2723 354.878 53.8734 354.881 62.8421V62.8421Z" fill="#D6D6D6"/>
<path d="M261.29 276.219V169.414H313.292C313.742 169.415 314.183 169.295 314.562 169.066C314.942 168.838 315.244 168.513 315.433 168.127L354.881 86.7121V76.0416L311.727 164.977H261.29V29.0004H256.584V83.7173C209.618 79.347 182.099 100.222 167.24 118.724C157.899 130.524 150.955 143.852 146.757 158.034L112.827 137.724V142.982L173.593 179.353V244.252L112.862 233.803V238.318L256.619 263.031V275.232L112.862 383.49V389.169L177.876 340.209L227.418 403.433C227.638 403.712 227.923 403.939 228.252 404.095C228.581 404.251 228.944 404.332 229.313 404.332C229.511 404.332 229.708 404.309 229.901 404.265L308.009 385.409V434.225H312.715V342.372C312.714 341.962 312.592 341.561 312.364 341.212C312.135 340.864 311.809 340.582 311.421 340.397L293.879 332.034L323.857 301.198L354.881 312.468V307.776L323.974 296.573C323.533 296.41 323.049 296.377 322.587 296.478C322.125 296.579 321.707 296.809 321.386 297.139L289.479 329.96L229.407 301.309L260.396 277.961C260.675 277.753 260.9 277.488 261.055 277.187C261.21 276.885 261.29 276.554 261.29 276.219ZM307.974 343.736V380.717L230.23 399.496L181.523 337.38L225.36 304.36L307.974 343.736ZM256.584 258.483L178.264 245.017V182.103L256.584 229.023V258.483ZM256.584 223.732L150.934 160.507C154.924 146.391 161.71 133.113 170.934 121.375C191.476 95.7965 220.277 84.6268 256.525 88.0986L256.584 223.732Z" fill="white"/>
<path d="M354.928 230.553H347.881L330.092 272.492H294.515L313.292 231.485H285.62V191.421H327.127L354.928 140.542V230.553Z" fill="#C4C4C4"/>
<path d="M157.228 68.1885H121.933V95.9185H157.228V68.1885Z" fill="#C4C4C4"/>
<path d="M188.523 68.1885H163.111V88.1541H188.523V68.1885Z" fill="#C4C4C4"/>
<path d="M161.557 156.503L248.913 209.689V98.1369C248.913 98.1369 186.429 92.4577 161.557 156.503Z" fill="#C4C4C4"/>
<path d="M212.524 68.1885H196.053V81.1329H212.524V68.1885Z" fill="#C4C4C4"/>
<path d="M243.113 328.851L211.347 349.926L228.995 380.983L292.526 377.656L296.056 348.816L271.349 338.834L260.761 354.362L250.172 348.816L259.584 332.178L243.113 328.851Z" fill="#C4C4C4"/>
<path d="M141.322 266.281V326.2L112.827 339.865V265.016L141.322 266.281Z" fill="#C4C4C4"/>
<path d="M188.759 303.472V268.388L149.228 266.636V322.417L188.759 303.472Z" fill="#C4C4C4"/>
<path d="M194.688 268.654V300.633L218.407 289.263V269.697L194.688 268.654Z" fill="#C4C4C4"/>
<path d="M370.329 152.92V110.027H366.211V55.1108C366.208 46.1333 362.424 37.5244 355.691 31.1764C348.957 24.8284 339.826 21.2609 330.304 21.2579H137.451C127.929 21.2609 118.798 24.8284 112.065 31.1764C105.331 37.5244 101.547 46.1333 101.544 55.1108V424.552C101.544 433.531 105.327 442.141 112.061 448.49C118.795 454.839 127.928 458.405 137.451 458.405H330.304C339.827 458.405 348.96 454.839 355.694 448.49C362.428 442.141 366.211 433.531 366.211 424.552V189.479H370.329V164.134H366.211V152.92H370.329ZM354.881 400.372C354.881 409.342 351.105 417.946 344.381 424.294C337.657 430.641 328.536 434.213 319.021 434.225H148.734C139.211 434.225 130.078 430.658 123.344 424.309C116.61 417.961 112.827 409.35 112.827 400.372V62.8419C112.83 53.8655 116.614 45.2577 123.348 38.9115C130.081 32.5653 139.213 29.0002 148.734 29.0002H219.936L220.007 29.2442C222.112 36.3874 226.96 41.035 232.336 41.035H235.419C240.795 41.035 245.643 36.3874 247.749 29.2442L247.831 29.0002H319.021C328.534 29.0119 337.653 32.5822 344.377 38.9272C351.1 45.2721 354.878 53.8732 354.881 62.8419V400.372Z" fill="#707070" stroke="#263238" stroke-linejoin="round"/>
<path d="M326.151 25.9279H141.604C136.889 25.9279 132.221 26.8036 127.865 28.505C123.509 30.2064 119.552 32.7001 116.218 35.8438C112.885 38.9875 110.241 42.7195 108.438 46.8266C106.635 50.9337 105.708 55.3356 105.709 59.7807V419.894C105.709 428.87 109.491 437.479 116.222 443.828C122.953 450.176 132.083 453.744 141.604 453.747H326.151C335.672 453.744 344.802 450.176 351.533 443.828C358.265 437.479 362.046 428.87 362.046 419.894V59.7807C362.048 55.3356 361.12 50.9337 359.317 46.8266C357.514 42.7195 354.87 38.9875 351.537 35.8438C348.204 32.7001 344.246 30.2064 339.89 28.505C335.534 26.8036 330.866 25.9279 326.151 25.9279V25.9279ZM354.881 400.372C354.881 409.343 351.105 417.947 344.381 424.294C337.657 430.641 328.536 434.213 319.021 434.225H148.734C139.211 434.225 130.078 430.658 123.344 424.31C116.61 417.961 112.827 409.35 112.827 400.372V62.8421C112.83 53.8657 116.615 45.2579 123.348 38.9117C130.082 32.5654 139.213 29.0003 148.734 29.0003H219.936L220.007 29.2444C222.113 36.3876 226.96 41.0352 232.336 41.0352H235.419C240.796 41.0352 245.643 36.3876 247.749 29.2444L247.831 29.0003H319.021C328.534 29.0121 337.653 32.5824 344.377 38.9274C351.1 45.2723 354.878 53.8733 354.881 62.8421V400.372Z" fill="#263238" stroke="#263238" stroke-linejoin="round"/>
<path d="M233.136 33.7922C234.995 33.7922 236.501 32.3719 236.501 30.6199C236.501 28.8679 234.995 27.4476 233.136 27.4476C231.278 27.4476 229.771 28.8679 229.771 30.6199C229.771 32.3719 231.278 33.7922 233.136 33.7922Z" fill="white"/>
<path d="M134.345 42.7987C134.345 46.0154 130.521 47.169 130.498 49.6314V49.7978H134.215V50.907H129.25V49.9975C129.25 46.5478 133.086 45.8823 133.086 42.8764C133.086 41.7672 132.698 41.2015 131.756 41.2015C130.815 41.2015 130.439 41.8337 130.439 42.7766V43.7194H129.262V42.8542C129.262 41.2237 130.062 40.1367 131.804 40.1367C133.545 40.1367 134.345 41.1682 134.345 42.7987Z" fill="#263238"/>
<path d="M140.534 42.7877V43.065C140.599 43.5251 140.5 43.9924 140.253 44.3939C140.006 44.7954 139.625 45.1082 139.169 45.2834C139.621 45.4632 139.999 45.777 140.245 46.1772C140.491 46.5775 140.593 47.0425 140.534 47.5018V48.3226C140.534 49.9532 139.734 51.018 137.981 51.018C136.228 51.018 135.451 49.9088 135.451 48.3226V47.5573H136.628V48.367C136.628 49.3209 137.051 49.8977 137.957 49.8977C138.863 49.8977 139.275 49.332 139.275 48.2561V47.4353C139.275 46.3815 138.804 45.8824 137.851 45.8491H137.228V44.7399H137.969C138.165 44.7419 138.359 44.7039 138.537 44.6283C138.716 44.5528 138.875 44.4415 139.004 44.3023C139.133 44.1631 139.228 43.9992 139.282 43.822C139.337 43.6447 139.351 43.4584 139.322 43.2758V42.7877C139.322 41.6785 138.922 41.1239 138.004 41.1239C137.087 41.1239 136.675 41.7229 136.675 42.6768V43.2314H135.498V42.7877C135.498 41.1572 136.298 40.1035 138.028 40.1035C139.757 40.1035 140.534 41.1572 140.534 42.7877Z" fill="#263238"/>
<path d="M142.981 43.5973V45.0725H141.804V43.5973H142.981ZM142.981 49.3984V50.8736H141.804V49.3984H142.981Z" fill="#263238"/>
<path d="M145.534 44.5513C145.699 44.2712 145.944 44.0404 146.242 43.8855C146.539 43.7305 146.877 43.6576 147.216 43.675C148.675 43.675 149.311 44.6733 149.311 46.204V48.2893C149.311 49.9198 148.487 50.9847 146.758 50.9847C145.028 50.9847 144.228 49.8754 144.228 48.2893V47.5683H145.405V48.3669C145.405 49.3208 145.828 49.8976 146.734 49.8976C147.64 49.8976 148.052 49.3208 148.052 48.3669V46.2927C148.052 45.3277 147.64 44.7509 146.734 44.7509C146.571 44.737 146.406 44.7554 146.251 44.8049C146.096 44.8544 145.953 44.9339 145.833 45.0383C145.712 45.1427 145.616 45.2698 145.55 45.4113C145.484 45.5528 145.451 45.7057 145.452 45.8601V46.1042H144.275L144.581 40.181H148.993V41.2902H145.663L145.534 44.5513Z" fill="#263238"/>
<path d="M155.604 42.7655V42.9652H154.428V42.6768C154.428 41.7118 154.004 41.1461 153.087 41.1461C152.169 41.1461 151.71 41.7229 151.71 42.8654V45.2612C151.846 44.9155 152.098 44.6207 152.426 44.4208C152.755 44.2208 153.144 44.1266 153.534 44.152C154.993 44.152 155.64 45.1392 155.64 46.681V48.3005C155.64 49.931 154.781 50.9958 153.051 50.9958C151.322 50.9958 150.451 49.8866 150.451 48.3005V42.8432C150.451 41.1572 151.251 40.1035 153.051 40.1035C154.852 40.1035 155.604 41.135 155.604 42.7655ZM151.71 46.7587V48.367C151.71 49.3209 152.134 49.8977 153.051 49.8977C153.969 49.8977 154.393 49.3209 154.393 48.367V46.7587C154.393 45.8047 153.957 45.228 153.051 45.228C152.146 45.228 151.71 45.8047 151.71 46.7587Z" fill="#263238"/>
<path d="M279.114 43.2426H275.914V50.774H279.114V43.2426Z" fill="#263238"/>
<path d="M283.373 41.7341H280.173V50.7741H283.373V41.7341Z" fill="#263238"/>
<path d="M287.632 40.6581H284.432V50.7629H287.632V40.6581Z" fill="#263238"/>
<path d="M291.879 38.7946H288.691V50.7628H291.879V38.7946Z" fill="#263238"/>
<path d="M331.41 50.5632H312.245V39.4712H331.41V50.5632ZM313.315 49.5538H330.351V40.5249H313.315V49.5538Z" fill="#263238"/>
<path d="M325.022 41.6119H314.904V48.4668H325.022V41.6119Z" fill="#263238"/>
<path d="M333.151 43.7418H330.739V46.3484H333.151V43.7418Z" fill="#263238"/>
<path d="M305.221 48.1563C305.093 48.1615 304.966 48.1306 304.856 48.0676C300.95 45.8492 298.374 47.9123 298.268 47.9899C298.124 48.1075 297.937 48.1665 297.747 48.154C297.557 48.1416 297.381 48.0586 297.256 47.9234C297.194 47.8573 297.148 47.7803 297.118 47.6971C297.088 47.6138 297.076 47.5258 297.083 47.4381C297.089 47.3504 297.114 47.2649 297.156 47.1864C297.198 47.1078 297.256 47.0379 297.326 46.9806C297.456 46.8585 300.762 44.1965 305.562 46.9029C305.643 46.9486 305.714 47.0089 305.771 47.0806C305.827 47.1522 305.868 47.2337 305.891 47.3203C305.914 47.4069 305.919 47.4969 305.905 47.5852C305.891 47.6735 305.858 47.7583 305.809 47.8346C305.748 47.9306 305.662 48.0104 305.559 48.0667C305.456 48.1229 305.34 48.1537 305.221 48.1563V48.1563Z" fill="#263238"/>
<path d="M306.644 45.8935C306.515 45.8917 306.389 45.8572 306.279 45.7937C300.644 42.6324 296.867 45.6938 296.809 45.7271C296.664 45.8371 296.48 45.89 296.295 45.8746C296.11 45.8592 295.938 45.7767 295.816 45.6446C295.694 45.5124 295.632 45.3408 295.641 45.1659C295.651 44.991 295.732 44.8263 295.867 44.7066C295.867 44.7066 300.491 40.9797 307.009 44.6401C307.172 44.7304 307.291 44.8778 307.339 45.0502C307.388 45.2226 307.362 45.4061 307.268 45.5607C307.202 45.6614 307.11 45.7447 307.001 45.8029C306.892 45.8611 306.769 45.8922 306.644 45.8935V45.8935Z" fill="#263238"/>
<path d="M307.974 43.2648C307.845 43.266 307.718 43.2312 307.609 43.1649C300.456 39.1607 295.715 42.932 295.515 43.0984C295.371 43.2159 295.184 43.275 294.994 43.2625C294.805 43.25 294.628 43.1671 294.503 43.0318C294.442 42.9657 294.395 42.8888 294.365 42.8055C294.335 42.7222 294.323 42.6342 294.33 42.5466C294.336 42.4589 294.361 42.3733 294.403 42.2948C294.445 42.2163 294.503 42.1463 294.574 42.089C294.632 42.089 300.268 37.4858 308.339 42.0114C308.42 42.056 308.49 42.1153 308.547 42.1859C308.603 42.2566 308.644 42.3371 308.667 42.4228C308.69 42.5085 308.695 42.5977 308.681 42.6851C308.667 42.7726 308.634 42.8565 308.586 42.932C308.523 43.0325 308.433 43.116 308.326 43.1743C308.219 43.2326 308.098 43.2637 307.974 43.2648Z" fill="#263238"/>
<path d="M301.268 50.9847C302.262 50.9847 303.068 50.2249 303.068 49.2877C303.068 48.3504 302.262 47.5906 301.268 47.5906C300.274 47.5906 299.468 48.3504 299.468 49.2877C299.468 50.2249 300.274 50.9847 301.268 50.9847Z" fill="#263238"/>
<path d="M471.637 336.87C471.696 336.87 472.814 332.81 472.814 332.544C473.273 329.472 472.237 323.282 468.908 321.763C468.352 321.533 467.751 321.416 467.144 321.418C466.537 321.421 465.937 321.543 465.383 321.777C464.829 322.011 464.333 322.352 463.927 322.777C463.521 323.203 463.214 323.703 463.025 324.247C462.131 326.554 463.261 329.383 464.602 331.324C466.155 333.609 471.637 336.859 471.637 336.87Z" fill="#263238"/>
<path d="M406.188 335.506C408.835 336.615 415.306 336.449 415.306 336.449C415.306 336.449 413.918 332.455 413.8 332.211C412.377 329.416 407.918 324.791 404.235 325.257C403.628 325.347 403.048 325.557 402.533 325.873C402.018 326.189 401.579 326.604 401.246 327.091C400.913 327.578 400.693 328.126 400.599 328.698C400.506 329.271 400.543 329.856 400.706 330.415C401.341 332.822 403.929 334.596 406.188 335.506Z" fill="#263238"/>
<path d="M490.956 314.753C487.285 314.387 482.932 319.123 481.544 321.951C481.426 322.206 480.085 326.233 480.155 326.233H480.226C479.532 326.976 478.802 327.775 478.014 328.673C476.579 330.326 474.979 332.211 473.379 334.385C471.629 336.701 470.026 339.112 468.579 341.606C466.937 344.387 465.563 347.301 464.473 350.314V350.425C464.473 349.415 464.473 346.564 464.414 346.343C463.99 343.27 461.249 337.558 457.625 336.926C457.021 336.834 456.403 336.864 455.812 337.014C455.221 337.164 454.67 337.43 454.196 337.794C453.722 338.159 453.334 338.614 453.06 339.129C452.785 339.645 452.629 340.209 452.602 340.786C452.378 343.237 454.26 345.677 456.131 347.23C458.202 348.971 463.943 350.657 464.367 350.791C463.337 353.883 462.527 357.036 461.943 360.23C461.59 362.093 461.296 363.968 461.025 365.865C461.025 364.977 461.025 364.19 461.025 364.09C460.602 361.006 457.861 355.294 454.237 354.662C453.632 354.572 453.014 354.604 452.423 354.755C451.832 354.906 451.281 355.173 450.807 355.538C450.333 355.904 449.946 356.359 449.671 356.875C449.397 357.391 449.241 357.956 449.213 358.533C448.99 360.973 450.872 363.424 452.743 364.966C454.613 366.508 459.472 368.061 460.767 368.46C460.661 369.181 460.567 369.902 460.472 370.678C460.025 374.161 459.602 377.644 459.072 381.05C458.896 382.247 458.661 383.423 458.437 384.599C458.437 383.823 458.437 383.157 458.437 383.057C458.014 379.985 455.284 374.272 451.649 373.64C451.044 373.551 450.426 373.582 449.835 373.733C449.244 373.885 448.693 374.151 448.219 374.517C447.745 374.882 447.358 375.338 447.083 375.854C446.808 376.37 446.652 376.934 446.625 377.511C446.413 379.951 448.296 382.403 450.155 383.945C452.013 385.486 456.414 386.895 457.943 387.361C457.672 388.559 457.414 389.757 457.096 390.91C456.849 391.687 456.684 392.452 456.402 393.229C456.119 394.005 455.872 394.759 455.625 395.514C455.061 396.944 454.508 398.431 453.931 399.817C453.531 400.782 453.143 401.703 452.755 402.624C452.955 401.426 453.296 399.085 453.296 398.886C453.251 396.157 452.47 393.485 451.025 391.121C451.035 390.817 451.015 390.512 450.966 390.212C450.89 389.639 450.687 389.088 450.37 388.594C450.053 388.1 449.63 387.674 449.127 387.345C448.625 387.015 448.054 386.789 447.453 386.681C446.851 386.573 446.233 386.586 445.637 386.718C442.107 387.616 439.813 393.517 439.637 396.612C439.637 396.789 439.754 398.83 439.86 400.05C439.684 399.318 439.519 398.608 439.319 397.832C438.942 396.345 438.531 394.881 438.084 393.295L437.236 390.966C437.013 390.2 436.66 389.413 436.378 388.625C435.672 386.806 434.872 384.998 434.025 383.19C435.401 382.88 440.284 381.704 442.26 380.295C444.237 378.887 446.284 376.568 446.26 374.117C446.277 373.54 446.165 372.966 445.931 372.433C445.697 371.9 445.347 371.419 444.903 371.021C444.46 370.624 443.932 370.318 443.355 370.126C442.778 369.933 442.165 369.857 441.554 369.902C437.884 370.279 434.707 375.781 434.048 378.776C434.048 378.975 433.789 381.205 433.695 382.425C433.166 381.316 432.648 380.273 432.083 379.186C430.448 376.08 428.683 372.986 426.942 369.88C426.401 368.926 425.883 367.983 425.366 367.029C425.86 366.918 431.683 365.643 433.883 364.057C435.836 362.648 437.895 360.341 437.884 357.889C437.9 357.312 437.788 356.739 437.554 356.205C437.321 355.672 436.97 355.191 436.527 354.793C436.083 354.396 435.555 354.091 434.978 353.898C434.401 353.705 433.788 353.629 433.178 353.674C429.519 354.052 426.342 359.553 425.671 362.548C425.671 362.781 425.318 365.987 425.283 366.807C424.107 364.711 422.989 362.615 421.965 360.507C420.57 357.661 419.368 354.734 418.365 351.744C418.601 351.744 424.695 350.391 426.942 348.761C428.895 347.352 430.966 345.045 430.942 342.594C430.959 342.017 430.847 341.443 430.613 340.909C430.379 340.376 430.029 339.895 429.585 339.498C429.141 339.1 428.614 338.795 428.037 338.602C427.46 338.409 426.846 338.333 426.236 338.379C422.565 338.756 419.389 344.257 418.718 347.252C418.718 347.452 418.436 349.903 418.354 351.068H418.142C417.228 348.032 416.602 344.925 416.271 341.784C416.071 340.065 415.977 338.401 415.918 336.781C417.095 336.648 422.377 335.983 424.577 334.729C426.777 333.476 429.001 331.402 429.283 329.006C429.366 328.435 429.32 327.853 429.15 327.3C428.979 326.746 428.686 326.232 428.292 325.792C427.897 325.352 427.408 324.995 426.857 324.744C426.307 324.493 425.706 324.354 425.095 324.336C421.401 324.336 417.601 329.472 416.589 332.422C416.53 332.589 416.165 334.275 415.906 335.506C415.906 334.785 415.906 334.031 415.906 333.287C415.906 330.659 416.095 328.263 416.271 326.133C416.377 324.913 416.495 323.826 416.624 322.805C417.695 322.107 421.954 319.278 423.271 317.259C424.589 315.241 425.624 312.423 424.636 310.138C424.431 309.595 424.107 309.098 423.685 308.681C423.262 308.263 422.752 307.934 422.186 307.714C421.62 307.494 421.012 307.389 420.4 307.406C419.789 307.422 419.188 307.559 418.636 307.809C415.365 309.406 414.495 315.629 415.036 318.69C415.036 318.945 416.33 323.005 416.377 322.972H416.448C416.306 323.959 416.153 325.013 416.024 326.166C415.801 328.296 415.565 330.703 415.506 333.343C415.405 336.184 415.476 339.028 415.718 341.861C415.979 345.038 416.542 348.186 417.401 351.267C417.397 351.304 417.397 351.342 417.401 351.378C416.812 350.513 415.048 348.162 414.953 347.995C412.8 345.655 407.177 342.316 403.788 343.669C403.231 343.909 402.733 344.257 402.327 344.69C401.922 345.124 401.618 345.632 401.435 346.184C401.251 346.735 401.193 347.317 401.265 347.891C401.336 348.465 401.534 349.018 401.847 349.515C403.106 351.667 406.106 352.721 408.541 353.064C411.283 353.442 417.059 351.855 417.518 351.733C418.471 354.849 419.65 357.899 421.048 360.862C421.836 362.604 422.695 364.323 423.577 366.042C423.048 365.31 422.577 364.667 422.495 364.589C420.342 362.237 414.718 358.899 411.33 360.252C410.772 360.492 410.274 360.84 409.869 361.273C409.463 361.706 409.159 362.215 408.976 362.766C408.793 363.318 408.735 363.899 408.806 364.473C408.877 365.047 409.076 365.601 409.389 366.097C410.647 368.249 413.648 369.314 416.083 369.647C418.518 369.98 423.495 368.726 424.801 368.382C425.154 369.037 425.495 369.691 425.836 370.346C427.507 373.485 429.189 376.613 430.742 379.73C431.295 380.839 431.789 381.948 432.283 383.057C431.825 382.414 431.425 381.87 431.354 381.793C429.201 379.452 423.565 376.102 420.177 377.467C419.619 377.706 419.121 378.054 418.716 378.488C418.31 378.921 418.007 379.431 417.825 379.982C417.642 380.534 417.586 381.116 417.659 381.69C417.732 382.264 417.932 382.817 418.248 383.312C419.495 385.453 422.495 386.518 424.93 386.851C427.366 387.183 431.872 386.063 433.425 385.653C433.895 386.762 434.378 387.938 434.789 389.058C435.048 389.834 435.354 390.555 435.566 391.354C435.778 392.153 436.025 392.896 436.248 393.661C436.636 395.147 437.036 396.678 437.366 398.098C437.601 399.118 437.801 400.083 438.013 401.06C437.484 399.95 436.401 397.832 436.283 397.665C434.531 395.037 429.507 390.933 425.942 391.787C425.346 391.943 424.793 392.217 424.318 392.59C423.843 392.964 423.457 393.428 423.187 393.952C422.917 394.477 422.768 395.049 422.75 395.632C422.732 396.215 422.845 396.794 423.083 397.333C423.977 399.64 426.777 401.115 429.13 401.769C431.719 402.513 437.448 401.836 438.166 401.769C438.507 403.378 438.825 404.953 439.095 406.45C440.06 411.608 440.66 415.934 441.037 418.973C441.095 419.506 441.154 419.994 441.201 420.448H430.107L433.495 482.719H453.731L457.119 420.448H446.649L446.884 419.994C448.296 417.21 450.272 413.205 452.39 408.314C453.072 406.761 453.755 405.097 454.449 403.378C455.143 403.522 460.814 404.609 463.461 404.043C465.814 403.533 468.755 402.257 469.837 400.017C470.107 399.499 470.259 398.934 470.282 398.358C470.306 397.781 470.2 397.207 469.973 396.671C469.745 396.135 469.401 395.651 468.962 395.249C468.523 394.847 468 394.537 467.426 394.338C463.896 393.229 458.602 396.967 456.637 399.462C456.531 399.618 455.461 401.348 454.813 402.446C455.096 401.747 455.366 401.06 455.649 400.339C456.202 398.908 456.719 397.455 457.272 395.902C457.519 395.147 457.755 394.382 458.002 393.606C458.249 392.829 458.437 392.008 458.661 391.199C459.131 389.313 459.519 387.383 459.837 385.442C461.167 385.897 465.931 387.45 468.39 387.294C470.849 387.139 473.92 386.274 475.343 384.222C475.695 383.749 475.937 383.212 476.054 382.646C476.17 382.079 476.159 381.496 476.02 380.934C475.881 380.372 475.618 379.843 475.248 379.384C474.878 378.924 474.41 378.543 473.873 378.265C470.602 376.668 464.72 379.608 462.39 381.793C462.249 381.926 460.755 383.678 459.967 384.654C460.155 383.479 460.355 382.314 460.52 381.116C460.967 377.666 461.32 374.172 461.696 370.678L462.049 367.473C462.52 367.639 468.131 369.614 470.896 369.425C473.343 369.27 476.426 368.416 477.838 366.364C478.19 365.891 478.433 365.354 478.55 364.787C478.668 364.22 478.658 363.636 478.52 363.073C478.382 362.51 478.121 361.981 477.752 361.52C477.383 361.059 476.915 360.676 476.379 360.396C473.096 358.81 467.226 361.738 464.896 363.935C464.72 364.101 462.543 366.619 462.072 367.262C462.331 364.911 462.625 362.57 463.002 360.285C463.494 357.183 464.206 354.114 465.131 351.101C465.343 351.179 471.19 353.264 474.014 353.075C476.473 352.909 479.544 352.066 480.967 350.003C481.319 349.531 481.561 348.994 481.677 348.427C481.794 347.86 481.783 347.277 481.644 346.715C481.505 346.153 481.242 345.625 480.872 345.165C480.502 344.705 480.033 344.324 479.497 344.047C476.226 342.449 470.355 345.389 468.014 347.574C467.861 347.718 466.237 349.637 465.484 350.569L465.296 350.469C466.305 347.462 467.601 344.548 469.167 341.762C470.002 340.209 470.896 338.778 471.802 337.402C472.849 337.891 477.685 340.098 480.214 340.198C482.744 340.297 485.826 339.754 487.485 337.868C487.889 337.434 488.192 336.924 488.374 336.371C488.556 335.819 488.612 335.237 488.54 334.663C488.468 334.089 488.269 333.536 487.955 333.039C487.642 332.542 487.221 332.113 486.72 331.779C483.65 329.86 477.473 332.167 474.896 334.108C474.755 334.208 473.461 335.428 472.543 336.327C472.967 335.716 473.39 335.073 473.802 334.485C475.343 332.267 476.896 330.381 478.285 328.695C479.085 327.741 479.826 326.898 480.532 326.111C481.826 326.111 487.038 325.944 489.32 324.935C491.603 323.926 494.097 322.107 494.638 319.711C494.765 319.155 494.769 318.581 494.65 318.024C494.531 317.467 494.291 316.939 493.945 316.474C493.599 316.008 493.155 315.615 492.641 315.319C492.127 315.023 491.553 314.83 490.956 314.753V314.753ZM450.366 407.604C448.154 412.407 446.119 416.333 444.648 419.051C444.354 419.605 444.084 420.082 443.837 420.537H443.601C443.519 420.005 443.448 419.428 443.354 418.773C442.907 415.712 442.178 411.342 441.107 406.151C440.766 404.509 440.366 402.768 439.931 400.982C441.657 400.335 443.342 399.594 444.978 398.763C446.86 400.693 451.696 402.945 452.319 403.2C451.66 404.731 451.013 406.217 450.366 407.604Z" fill="#263238"/>
<path opacity="0.3" d="M406.188 335.506C408.835 336.615 415.306 336.449 415.306 336.449C415.306 336.449 413.918 332.455 413.8 332.211C412.377 329.416 407.918 324.791 404.235 325.257C403.628 325.347 403.048 325.557 402.533 325.873C402.018 326.189 401.579 326.604 401.246 327.091C400.913 327.578 400.693 328.126 400.599 328.698C400.506 329.271 400.543 329.856 400.706 330.415C401.341 332.822 403.929 334.596 406.188 335.506Z" fill="#263238"/>
<path opacity="0.3" d="M471.637 336.87C471.696 336.87 472.814 332.81 472.814 332.544C473.273 329.472 472.237 323.282 468.908 321.763C468.352 321.533 467.751 321.416 467.144 321.418C466.537 321.421 465.937 321.543 465.383 321.777C464.829 322.011 464.333 322.352 463.927 322.777C463.521 323.203 463.214 323.703 463.025 324.247C462.131 326.554 463.261 329.383 464.602 331.324C466.155 333.609 471.637 336.859 471.637 336.87Z" fill="#263238"/>
<path opacity="0.3" d="M490.956 314.753C487.285 314.387 482.932 319.123 481.544 321.951C481.426 322.206 480.085 326.233 480.155 326.233H480.226C479.532 326.976 478.802 327.775 478.014 328.673C476.579 330.326 474.979 332.211 473.379 334.385C471.629 336.701 470.026 339.112 468.579 341.606C466.937 344.387 465.563 347.301 464.473 350.314V350.425C464.473 349.415 464.473 346.564 464.414 346.343C463.99 343.27 461.249 337.558 457.625 336.926C457.021 336.834 456.403 336.864 455.812 337.014C455.221 337.164 454.67 337.43 454.196 337.794C453.722 338.159 453.334 338.614 453.06 339.129C452.785 339.645 452.629 340.209 452.602 340.786C452.378 343.237 454.26 345.677 456.131 347.23C458.202 348.971 463.943 350.657 464.367 350.791C463.337 353.883 462.527 357.036 461.943 360.23C461.59 362.093 461.296 363.968 461.025 365.865C461.025 364.977 461.025 364.19 461.025 364.09C460.602 361.006 457.861 355.294 454.237 354.662C453.632 354.572 453.014 354.604 452.423 354.755C451.832 354.906 451.281 355.173 450.807 355.538C450.333 355.904 449.946 356.359 449.671 356.875C449.397 357.391 449.241 357.956 449.213 358.533C448.99 360.973 450.872 363.424 452.743 364.966C454.613 366.508 459.472 368.061 460.767 368.46C460.661 369.181 460.567 369.902 460.472 370.678C460.025 374.161 459.602 377.644 459.072 381.05C458.896 382.247 458.661 383.423 458.437 384.599C458.437 383.823 458.437 383.157 458.437 383.057C458.014 379.985 455.284 374.272 451.649 373.64C451.044 373.551 450.426 373.582 449.835 373.733C449.244 373.885 448.693 374.151 448.219 374.517C447.745 374.882 447.358 375.338 447.083 375.854C446.808 376.37 446.652 376.934 446.625 377.511C446.413 379.951 448.296 382.403 450.155 383.945C452.013 385.486 456.414 386.895 457.943 387.361C457.672 388.559 457.414 389.757 457.096 390.91C456.849 391.687 456.684 392.452 456.402 393.229C456.119 394.005 455.872 394.759 455.625 395.514C455.061 396.944 454.508 398.431 453.931 399.817C453.531 400.782 453.143 401.703 452.755 402.624C452.955 401.426 453.296 399.085 453.296 398.886C453.251 396.157 452.47 393.485 451.025 391.121C451.035 390.817 451.015 390.512 450.966 390.212C450.89 389.639 450.687 389.088 450.37 388.594C450.053 388.1 449.63 387.674 449.127 387.345C448.625 387.015 448.054 386.789 447.453 386.681C446.851 386.573 446.233 386.586 445.637 386.718C442.107 387.616 439.813 393.517 439.637 396.612C439.637 396.789 439.754 398.83 439.86 400.05C439.684 399.318 439.519 398.608 439.319 397.832C438.942 396.345 438.531 394.881 438.084 393.295L437.236 390.966C437.013 390.2 436.66 389.413 436.378 388.625C435.672 386.806 434.872 384.998 434.025 383.19C435.401 382.88 440.284 381.704 442.26 380.295C444.237 378.887 446.284 376.568 446.26 374.117C446.277 373.54 446.165 372.966 445.931 372.433C445.697 371.9 445.347 371.419 444.903 371.021C444.46 370.624 443.932 370.318 443.355 370.126C442.778 369.933 442.165 369.857 441.554 369.902C437.884 370.279 434.707 375.781 434.048 378.776C434.048 378.975 433.789 381.205 433.695 382.425C433.166 381.316 432.648 380.273 432.083 379.186C430.448 376.08 428.683 372.986 426.942 369.88C426.401 368.926 425.883 367.983 425.366 367.029C425.86 366.918 431.683 365.643 433.883 364.057C435.836 362.648 437.895 360.341 437.884 357.889C437.9 357.312 437.788 356.739 437.554 356.205C437.321 355.672 436.97 355.191 436.527 354.793C436.083 354.396 435.555 354.091 434.978 353.898C434.401 353.705 433.788 353.629 433.178 353.674C429.519 354.052 426.342 359.553 425.671 362.548C425.671 362.781 425.318 365.987 425.283 366.807C424.107 364.711 422.989 362.615 421.965 360.507C420.57 357.661 419.368 354.734 418.365 351.744C418.601 351.744 424.695 350.391 426.942 348.761C428.895 347.352 430.966 345.045 430.942 342.594C430.959 342.017 430.847 341.443 430.613 340.909C430.379 340.376 430.029 339.895 429.585 339.498C429.141 339.1 428.614 338.795 428.037 338.602C427.46 338.409 426.846 338.333 426.236 338.379C422.565 338.756 419.389 344.257 418.718 347.252C418.718 347.452 418.436 349.903 418.354 351.068H418.142C417.228 348.032 416.602 344.925 416.271 341.784C416.071 340.065 415.977 338.401 415.918 336.781C417.095 336.648 422.377 335.983 424.577 334.729C426.777 333.476 429.001 331.402 429.283 329.006C429.366 328.435 429.32 327.853 429.15 327.3C428.979 326.746 428.686 326.232 428.292 325.792C427.897 325.352 427.408 324.995 426.857 324.744C426.307 324.493 425.706 324.354 425.095 324.336C421.401 324.336 417.601 329.472 416.589 332.422C416.53 332.589 416.165 334.275 415.906 335.506C415.906 334.785 415.906 334.031 415.906 333.287C415.906 330.659 416.095 328.263 416.271 326.133C416.377 324.913 416.495 323.826 416.624 322.805C417.695 322.107 421.954 319.278 423.271 317.259C424.589 315.241 425.624 312.423 424.636 310.138C424.431 309.595 424.107 309.098 423.685 308.681C423.262 308.263 422.752 307.934 422.186 307.714C421.62 307.494 421.012 307.389 420.4 307.406C419.789 307.422 419.188 307.559 418.636 307.809C415.365 309.406 414.495 315.629 415.036 318.69C415.036 318.945 416.33 323.005 416.377 322.972H416.448C416.306 323.959 416.153 325.013 416.024 326.166C415.801 328.296 415.565 330.703 415.506 333.343C415.405 336.184 415.476 339.028 415.718 341.861C415.979 345.038 416.542 348.186 417.401 351.267C417.397 351.304 417.397 351.342 417.401 351.378C416.812 350.513 415.048 348.162 414.953 347.995C412.8 345.655 407.177 342.316 403.788 343.669C403.231 343.909 402.733 344.257 402.327 344.69C401.922 345.124 401.618 345.632 401.435 346.184C401.251 346.735 401.193 347.317 401.265 347.891C401.336 348.465 401.534 349.018 401.847 349.515C403.106 351.667 406.106 352.721 408.541 353.064C411.283 353.442 417.059 351.855 417.518 351.733C418.471 354.849 419.65 357.899 421.048 360.862C421.836 362.604 422.695 364.323 423.577 366.042C423.048 365.31 422.577 364.667 422.495 364.589C420.342 362.237 414.718 358.899 411.33 360.252C410.772 360.492 410.274 360.84 409.869 361.273C409.463 361.706 409.159 362.215 408.976 362.766C408.793 363.318 408.735 363.899 408.806 364.473C408.877 365.047 409.076 365.601 409.389 366.097C410.647 368.249 413.648 369.314 416.083 369.647C418.518 369.98 423.495 368.726 424.801 368.382C425.154 369.037 425.495 369.691 425.836 370.346C427.507 373.485 429.189 376.613 430.742 379.73C431.295 380.839 431.789 381.948 432.283 383.057C431.825 382.414 431.425 381.87 431.354 381.793C429.201 379.452 423.565 376.102 420.177 377.467C419.619 377.706 419.121 378.054 418.716 378.488C418.31 378.921 418.007 379.431 417.825 379.982C417.642 380.534 417.586 381.116 417.659 381.69C417.732 382.264 417.932 382.817 418.248 383.312C419.495 385.453 422.495 386.518 424.93 386.851C427.366 387.183 431.872 386.063 433.425 385.653C433.895 386.762 434.378 387.938 434.789 389.058C435.048 389.834 435.354 390.555 435.566 391.354C435.778 392.153 436.025 392.896 436.248 393.661C436.636 395.147 437.036 396.678 437.366 398.098C437.601 399.118 437.801 400.083 438.013 401.06C437.484 399.95 436.401 397.832 436.283 397.665C434.531 395.037 429.507 390.933 425.942 391.787C425.346 391.943 424.793 392.217 424.318 392.59C423.843 392.964 423.457 393.428 423.187 393.952C422.917 394.477 422.768 395.049 422.75 395.632C422.732 396.215 422.845 396.794 423.083 397.333C423.977 399.64 426.777 401.115 429.13 401.769C431.719 402.513 437.448 401.836 438.166 401.769C438.507 403.378 438.825 404.953 439.095 406.45C440.06 411.608 440.66 415.934 441.037 418.973C441.095 419.506 441.154 419.994 441.201 420.448H430.107L433.495 482.719H453.731L457.119 420.448H446.649L446.884 419.994C448.296 417.21 450.272 413.205 452.39 408.314C453.072 406.761 453.755 405.097 454.449 403.378C455.143 403.522 460.814 404.609 463.461 404.043C465.814 403.533 468.755 402.257 469.837 400.017C470.107 399.499 470.259 398.934 470.282 398.358C470.306 397.781 470.2 397.207 469.973 396.671C469.745 396.135 469.401 395.651 468.962 395.249C468.523 394.847 468 394.537 467.426 394.338C463.896 393.229 458.602 396.967 456.637 399.462C456.531 399.618 455.461 401.348 454.813 402.446C455.096 401.747 455.366 401.06 455.649 400.339C456.202 398.908 456.719 397.455 457.272 395.902C457.519 395.147 457.755 394.382 458.002 393.606C458.249 392.829 458.437 392.008 458.661 391.199C459.131 389.313 459.519 387.383 459.837 385.442C461.167 385.897 465.931 387.45 468.39 387.294C470.849 387.139 473.92 386.274 475.343 384.222C475.695 383.749 475.937 383.212 476.054 382.646C476.17 382.079 476.159 381.496 476.02 380.934C475.881 380.372 475.618 379.843 475.248 379.384C474.878 378.924 474.41 378.543 473.873 378.265C470.602 376.668 464.72 379.608 462.39 381.793C462.249 381.926 460.755 383.678 459.967 384.654C460.155 383.479 460.355 382.314 460.52 381.116C460.967 377.666 461.32 374.172 461.696 370.678L462.049 367.473C462.52 367.639 468.131 369.614 470.896 369.425C473.343 369.27 476.426 368.416 477.838 366.364C478.19 365.891 478.433 365.354 478.55 364.787C478.668 364.22 478.658 363.636 478.52 363.073C478.382 362.51 478.121 361.981 477.752 361.52C477.383 361.059 476.915 360.676 476.379 360.396C473.096 358.81 467.226 361.738 464.896 363.935C464.72 364.101 462.543 366.619 462.072 367.262C462.331 364.911 462.625 362.57 463.002 360.285C463.494 357.183 464.206 354.114 465.131 351.101C465.343 351.179 471.19 353.264 474.014 353.075C476.473 352.909 479.544 352.066 480.967 350.003C481.319 349.531 481.561 348.994 481.677 348.427C481.794 347.86 481.783 347.277 481.644 346.715C481.505 346.153 481.242 345.625 480.872 345.165C480.502 344.705 480.033 344.324 479.497 344.047C476.226 342.449 470.355 345.389 468.014 347.574C467.861 347.718 466.237 349.637 465.484 350.569L465.296 350.469C466.305 347.462 467.601 344.548 469.167 341.762C470.002 340.209 470.896 338.778 471.802 337.402C472.849 337.891 477.685 340.098 480.214 340.198C482.744 340.297 485.826 339.754 487.485 337.868C487.889 337.434 488.192 336.924 488.374 336.371C488.556 335.819 488.612 335.237 488.54 334.663C488.468 334.089 488.269 333.536 487.955 333.039C487.642 332.542 487.221 332.113 486.72 331.779C483.65 329.86 477.473 332.167 474.896 334.108C474.755 334.208 473.461 335.428 472.543 336.327C472.967 335.716 473.39 335.073 473.802 334.485C475.343 332.267 476.896 330.381 478.285 328.695C479.085 327.741 479.826 326.898 480.532 326.111C481.826 326.111 487.038 325.944 489.32 324.935C491.603 323.926 494.097 322.107 494.638 319.711C494.765 319.155 494.769 318.581 494.65 318.024C494.531 317.467 494.291 316.939 493.945 316.474C493.599 316.008 493.155 315.615 492.641 315.319C492.127 315.023 491.553 314.83 490.956 314.753V314.753ZM450.366 407.604C448.154 412.407 446.119 416.333 444.648 419.051C444.354 419.605 444.084 420.082 443.837 420.537H443.601C443.519 420.005 443.448 419.428 443.354 418.773C442.907 415.712 442.178 411.342 441.107 406.151C440.766 404.509 440.366 402.768 439.931 400.982C441.657 400.335 443.342 399.594 444.978 398.763C446.86 400.693 451.696 402.945 452.319 403.2C451.66 404.731 451.013 406.217 450.366 407.604Z" fill="#263238"/>
<path d="M407.824 482.807H507.521" stroke="#263238" stroke-linejoin="round"/>
<path d="M56.0486 482.807H397.235" stroke="#263238" stroke-linejoin="round"/>
<path d="M10.3062 482.807H45.4601" stroke="#263238" stroke-linejoin="round"/>
<path d="M341.128 479.147C341.068 479.963 340.934 480.772 340.728 481.565C339.763 484.893 334.269 483.695 331.045 484.893C327.821 486.091 323.621 487.633 320.715 488.542C317.809 489.452 308.786 490.073 304.244 489.152C301.256 488.553 299.821 487.023 299.762 485.436C299.742 484.564 300.079 483.718 300.703 483.074C302.633 480.944 310.044 478.204 314.245 475.165C318.445 472.126 323.927 464.816 323.927 464.816C330.057 466.347 340.398 465.127 340.398 465.127C340.398 465.127 341.034 468.454 341.034 469.386C341.26 472.636 341.291 475.894 341.128 479.147V479.147Z" fill="white" stroke="#263238" stroke-linecap="round" stroke-linejoin="round"/>
<path d="M341.127 479.147C341.068 479.962 340.934 480.771 340.727 481.565C339.763 484.893 334.268 483.695 331.045 484.893C327.821 486.091 323.621 487.632 320.715 488.542C317.809 489.452 308.785 490.073 304.244 489.152C301.256 488.553 299.82 487.022 299.761 485.436C301.409 486.545 305.42 488.553 313.044 487.921C323.633 487.067 327.245 483.606 331.609 481.887C334.706 480.754 337.888 479.838 341.127 479.147Z" fill="white" stroke="#263238" stroke-linecap="round" stroke-linejoin="round"/>
<path d="M340.681 466.657C340.54 465.814 340.41 465.138 340.41 465.138C337.165 465.489 333.899 465.637 330.634 465.581L330.398 465.748C330.398 465.748 331.045 465.437 331.375 467.878C331.559 469.492 331.559 471.121 331.375 472.736C331.375 472.736 338.716 471.094 339.763 468.787C340.069 468.11 340.387 467.367 340.681 466.657Z" fill="white" stroke="#263238" stroke-linecap="round" stroke-linejoin="round"/>
<path d="M377.234 491.792C374.27 493.567 359.728 501.231 357.234 501.675C354.74 502.119 345.469 501.52 342.845 499.457C340.786 497.859 340.233 495.719 341.563 493.911C341.993 493.347 342.537 492.868 343.163 492.502C346.292 490.583 351.763 485.126 354.269 482.031C356.775 478.936 360.681 473.479 360.681 473.479L360.987 471.86L376.94 472.303C376.94 472.303 377.246 475.542 377.399 476.141C377.982 478.221 378.402 480.337 378.658 482.475C378.846 483.728 379.058 484.904 379.187 485.98C379.435 488.575 379.282 490.55 377.234 491.792Z" fill="white" stroke="#263238" stroke-linecap="round" stroke-linejoin="round"/>
<path d="M377.234 491.792C374.27 493.567 359.728 501.231 357.234 501.675C354.74 502.119 345.469 501.52 342.845 499.457C340.786 497.859 340.233 495.719 341.563 493.911C341.763 494.942 343.269 500.166 352.987 499.789C363.752 499.357 372.223 490.283 377.034 487.255C377.799 486.767 378.517 486.346 379.187 485.98C379.435 488.575 379.282 490.55 377.234 491.792Z" fill="white" stroke="#263238" stroke-linecap="round" stroke-linejoin="round"/>
<path d="M376.881 472.336L360.928 471.893L360.622 473.512L359.869 474.544C360.269 474.544 365.058 474.3 366.399 475.431C367.74 476.562 367.964 480.445 371.246 479.413C373.479 478.648 375.538 477.493 377.317 476.008C377.152 475.143 376.881 472.336 376.881 472.336Z" fill="white" stroke="#263238" stroke-linecap="round" stroke-linejoin="round"/>
<path d="M312.009 325.201C312.009 325.201 310.715 357.146 313.303 376.613C315.892 396.079 316.527 410.077 316.833 410.998C317.139 411.918 323.28 450.541 323.598 452.981C323.916 455.421 324.892 458.15 324.892 459.059C324.892 459.969 325.857 460.28 330.704 461.5C333.927 462.169 337.286 461.957 340.387 460.89C340.387 460.89 342.646 439.904 342.646 434.424C342.646 428.945 339.74 403.999 339.74 403.089C339.74 402.18 341.669 360.507 341.669 360.507L343.281 361.716C343.281 361.716 345.54 397.31 346.516 403.999C347.493 410.687 347.799 416.777 349.093 420.126C350.387 423.476 353.293 444.762 354.575 447.857C355.858 450.951 356.834 462.454 356.834 462.454L357.799 466.103C357.799 466.103 359.093 469.43 367.211 469.43C375.329 469.43 376.894 467.6 376.894 467.6C376.894 467.6 377.211 451.484 377.211 443.874C377.211 436.265 373.011 413.76 372.376 408.591C371.741 403.422 370.752 382.425 372.046 378.165C373.341 373.906 375.576 348.971 375.576 338.323C375.684 333.346 375.467 328.367 374.929 323.415C374.929 323.415 344.281 325.234 333.951 323.715C323.621 322.195 313.951 320.065 313.951 320.065L312.009 325.201Z" fill="#263238" stroke="#263238" stroke-linecap="round" stroke-linejoin="round"/>
<path d="M321.374 323.992C321.374 323.992 335.245 327.941 357.505 326.122L357.822 320.642L322.339 309.384L321.374 323.992Z" fill="#808080" stroke="#263238" stroke-linecap="round" stroke-linejoin="round"/>
<path d="M340.183 323.001L331.025 322.679L330.89 326.082L340.049 326.404L340.183 323.001Z" fill="white" stroke="#263238" stroke-linecap="round" stroke-linejoin="round"/>
<path d="M360.411 234.246C360.411 234.246 349.116 233.037 343.634 234.557C338.151 236.077 331.375 237.885 329.433 242.765C327.492 247.646 317.986 319.888 317.986 319.888C317.986 319.888 328.469 323.082 337.822 323.082C347.175 323.082 357.187 322.472 357.187 322.472C357.187 322.472 358.152 283.528 360.411 276.54C362.67 269.552 360.411 234.246 360.411 234.246Z" fill="#FFC100" stroke="#263238" stroke-linecap="round" stroke-linejoin="round"/>
<path d="M334.786 239.227C334.786 239.227 335.186 246.781 337.528 248.622C339.869 250.463 340.069 251.029 340.069 251.029L341.434 265.448C341.434 265.448 346.528 256.752 347.116 255.643C347.688 253.652 348.081 251.618 348.293 249.565C349.996 248.358 351.63 247.065 353.187 245.694C354.94 244.03 356.316 232.971 356.316 231.673C356.316 230.376 355.928 223.376 355.928 223.376C355.928 223.376 351.81 232.039 347.316 235.91C342.822 239.782 338.516 240.159 337.539 239.97C336.563 239.782 334.786 239.227 334.786 239.227Z" fill="white" stroke="#263238" stroke-linecap="round" stroke-linejoin="round"/>
<path d="M334.598 237.008C334.598 237.008 334.198 263.751 334.198 274.621C334.198 285.492 330.668 299.146 326.962 308.363C323.256 317.581 315.197 342.383 312.691 348.106C311.05 351.887 309.679 355.766 308.585 359.719C308.585 359.719 304.868 356.946 304.668 347.917C304.468 338.889 306.821 328.373 307.209 321.918C307.597 315.462 307.797 301.952 307.797 301.952C307.797 301.952 307.797 305.08 302.715 307.498C297.632 309.916 294.479 311.003 291.173 305.102C287.867 299.201 288.244 295.696 291.373 290.35C294.503 285.004 297.432 271.172 299.973 264.905C302.515 258.638 302.326 249.786 305.068 247.945C307.809 246.104 320.903 241.124 326.186 238.173C331.468 235.223 333.621 235.223 333.621 235.223C333.621 235.223 334.398 234.801 334.598 237.008Z" fill="white" stroke="#263238" stroke-linecap="round" stroke-linejoin="round"/>
<path d="M297.056 287.71C297.056 287.71 293.138 295.341 294.256 297.97C295.373 300.599 298.962 303.516 303.197 301.131C307.433 298.746 308.774 298.502 307.374 293.5C305.974 288.497 300.679 284.815 297.056 287.71Z" stroke="#263238" stroke-linecap="round" stroke-linejoin="round"/>
<path d="M309.974 261.943C309.844 259.37 309.762 257.662 309.762 257.662Z" fill="white"/>
<path d="M309.974 261.943C309.844 259.37 309.762 257.662 309.762 257.662" stroke="#263238" stroke-linecap="round" stroke-linejoin="round"/>
<path d="M307.821 301.919C307.821 301.919 310.562 287.898 310.562 279.968C310.562 275.631 310.327 269.353 310.115 264.561" fill="white"/>
<path d="M307.821 301.919C307.821 301.919 310.562 287.898 310.562 279.968C310.562 275.631 310.327 269.353 310.115 264.561" stroke="#263238" stroke-linecap="round" stroke-linejoin="round"/>
<path d="M333.621 235.167C333.621 235.167 331.915 235.167 327.845 237.23C326.939 242.089 325.198 253.391 326.374 263.751C327.386 272.514 330.727 281.643 332.998 287.044C333.739 282.932 334.132 278.77 334.174 274.599C334.174 263.729 334.574 236.986 334.574 236.986C334.398 234.801 333.621 235.167 333.621 235.167Z" fill="white" stroke="#263238" stroke-linecap="round" stroke-linejoin="round"/>
<path d="M321.939 211.33C321.939 211.33 323.551 221.069 325.174 225.273C326.798 229.477 330.645 234.047 332.234 236.92C333.822 239.793 337.292 242.832 341.14 242.832C344.987 242.832 350.246 237.874 351.258 236.177C352.269 234.479 355.105 231.396 355.317 229.521C355.528 227.647 355.517 224.563 355.517 224.563C356.754 224.177 357.851 223.471 358.683 222.526C359.515 221.581 360.048 220.434 360.223 219.217C360.785 216.92 360.571 214.516 359.611 212.34C358.667 210.209 357.513 208.166 356.164 206.239C353.328 201.802 344.022 199.362 335.104 200.693C326.186 202.024 321.739 205.607 321.939 211.33Z" fill="white" stroke="#263238" stroke-linecap="round" stroke-linejoin="round"/>
<path d="M322.186 219.04C326.054 218.341 330.033 218.39 333.88 219.184C333.88 219.184 334.892 222.622 332.704 224.907C330.515 227.192 326.421 226.438 325.209 226.016C323.998 225.595 322.115 223.643 322.186 219.04Z" fill="white" stroke="#263238" stroke-linecap="round" stroke-linejoin="round"/>
<path d="M337.927 218.873C341.809 218.121 345.811 218.121 349.693 218.873C349.693 218.873 350.751 222.289 348.516 224.619C346.281 226.948 342.257 226.227 341.045 225.861C339.833 225.495 337.927 223.476 337.927 218.873Z" fill="white" stroke="#263238" stroke-linecap="round" stroke-linejoin="round"/>
<path d="M333.88 219.161C335.144 218.592 336.588 218.489 337.928 218.873" stroke="#263238" stroke-linecap="round" stroke-linejoin="round"/>
<path d="M349.634 218.851L355.14 215.346" stroke="#263238" stroke-linecap="round" stroke-linejoin="round"/>
<path d="M334.198 220.749C334.198 220.749 336.374 219.946 337.727 220.749" stroke="#263238" stroke-linecap="round" stroke-linejoin="round"/>
<path d="M339.033 217.564C341.365 216.647 343.933 216.408 346.41 216.876" stroke="#263238" stroke-linecap="round" stroke-linejoin="round"/>
<path d="M332.622 218.13C330.637 217.075 328.296 216.788 326.092 217.331" stroke="#263238" stroke-linecap="round" stroke-linejoin="round"/>
<path d="M334.198 222.689C334.198 222.689 333.951 231.019 334.069 231.363C334.756 231.996 335.653 232.388 336.61 232.472C337.675 232.357 338.729 232.165 339.763 231.895" stroke="#263238" stroke-linecap="round" stroke-linejoin="round"/>
<path d="M335.163 234.568C335.163 234.568 337.587 236.509 342.057 234.79" stroke="#263238" stroke-linecap="round" stroke-linejoin="round"/>
<path d="M318.292 202.168C318.292 202.168 311.609 204.076 312.821 208.092C314.033 212.107 321.739 213.438 329.433 211.519C334.939 210.037 340.303 208.123 345.469 205.796C344.965 206.382 344.725 207.131 344.802 207.883C344.879 208.634 345.267 209.327 345.881 209.811C348.105 211.719 347.905 205.796 347.905 205.796C347.905 205.796 347.705 212.673 350.54 213.627C353.375 214.58 353.575 215.146 353.575 215.146C353.575 215.146 352.564 218.973 353.775 219.35C354.987 219.727 355.187 215.346 355.187 215.346C355.187 215.346 355.599 213.05 357.623 212.673L359.646 212.284C359.646 212.284 359.246 199.495 358.023 194.726C356.799 189.956 344.457 184.41 333.728 188.071C322.998 191.731 317.88 196.634 318.292 202.168Z" fill="#263238" stroke="#263238" stroke-linecap="round" stroke-linejoin="round"/>
<path d="M295.091 292.879L299.797 285.869L303.703 291.77C301.94 292.742 300.113 293.605 298.232 294.354C297.129 293.977 296.075 293.482 295.091 292.879V292.879Z" fill="white" stroke="#263238" stroke-linecap="round" stroke-linejoin="round"/>
<path d="M304.668 296.561C305.81 297.022 306.99 297.393 308.197 297.671C309.37 297.605 310.515 297.309 311.559 296.801C312.602 296.293 313.521 295.584 314.256 294.72C315.433 292.879 313.468 292.69 313.468 292.69L311.115 294.72L307.197 294.543L304.668 296.561Z" fill="white" stroke="#263238" stroke-linecap="round" stroke-linejoin="round"/>
<path d="M292.55 278.126L303.891 294.354L313.468 294.543L303.303 278.126H292.55Z" fill="#263238" stroke="#263238" stroke-linecap="round" stroke-linejoin="round"/>
<path d="M304.291 288.642C304.291 288.642 295.103 291.592 295.103 292.879C295.186 293.537 295.539 294.138 296.087 294.552C296.635 294.967 297.333 295.163 298.032 295.097C299.597 295.097 305.656 291.404 306.268 290.294C306.88 289.185 306.233 288.453 304.291 288.642Z" fill="white" stroke="#263238" stroke-linecap="round" stroke-linejoin="round"/>
<path d="M298.997 295.275C299.138 295.782 299.408 296.248 299.783 296.635C300.158 297.021 300.627 297.316 301.15 297.493C302.915 298.037 308.209 294.543 309.174 293.245C310.139 291.947 307.209 292.324 305.068 293.068C302.927 293.811 298.997 295.275 298.997 295.275Z" fill="white" stroke="#263238" stroke-linecap="round" stroke-linejoin="round"/>
<path d="M295.28 282.375C295.035 282.555 294.831 282.78 294.679 283.035C294.527 283.291 294.431 283.572 294.395 283.863C294.359 284.153 294.384 284.448 294.469 284.729C294.554 285.011 294.698 285.274 294.891 285.503C296.268 287.344 299.597 287.721 299.597 287.721L295.28 282.375Z" fill="white" stroke="#263238" stroke-linecap="round" stroke-linejoin="round"/>
<path d="M356.305 231.662C356.305 231.662 348.681 279.79 346.893 284.027C345.104 288.265 350.222 320.808 350.222 325.234C350.222 329.66 354.716 330.403 356.469 331.324C358.222 332.244 372.517 338.7 374.658 342.016C376.799 345.333 382.294 352.343 382.294 352.343C382.294 352.343 379.011 321.041 378.576 304.126C378.399 297.305 378.964 287.166 378.964 287.166C378.964 287.166 387.2 246.969 386.4 244.018C385.6 241.068 372.517 236.254 366.834 234.435C363.387 233.31 359.871 232.384 356.305 231.662V231.662Z" fill="white" stroke="#263238" stroke-linecap="round" stroke-linejoin="round"/>
<path d="M365.881 237.896C366.082 236.642 366.27 235.3 366.411 234.258C363.099 233.198 359.725 232.32 356.305 231.629C356.305 231.629 348.681 279.757 346.893 283.994C346.549 285.216 346.43 286.484 346.54 287.743C347.575 286.368 351.952 280.467 355.893 273.856C360.411 266.325 365.47 240.513 365.881 237.896Z" fill="white" stroke="#263238" stroke-linecap="round" stroke-linejoin="round"/>
<path d="M351.222 328.562C354.916 329.652 358.715 330.395 362.563 330.78C369.411 331.512 385.599 337.602 391.364 344.279C393.226 346.268 394.866 348.431 396.259 350.735C396.259 350.735 388.176 351.844 386.611 351.988C385.046 352.133 381.529 352.354 381.529 352.354C381.529 352.354 375.27 343.869 372.117 341.473C368.964 339.077 352.387 331.324 351.222 328.562Z" fill="white" stroke="#263238" stroke-linecap="round" stroke-linejoin="round"/>
<path d="M322.339 458.826V464.084C322.34 464.516 322.476 464.939 322.729 465.299C322.982 465.66 323.341 465.943 323.762 466.114C326.214 466.992 328.77 467.584 331.374 467.877C334.589 468.374 337.889 467.884 340.786 466.48C341.145 466.284 341.443 466.003 341.65 465.664C341.856 465.325 341.964 464.941 341.963 464.55V459.736C341.965 459.466 341.904 459.199 341.786 458.954C341.667 458.709 341.493 458.491 341.275 458.315C341.058 458.14 340.803 458.011 340.527 457.939C340.252 457.866 339.963 457.851 339.68 457.895C336.151 458.438 329.209 459.17 324.045 457.562C323.841 457.51 323.628 457.504 323.421 457.543C323.214 457.583 323.021 457.668 322.855 457.79C322.689 457.913 322.556 458.071 322.467 458.251C322.377 458.431 322.333 458.628 322.339 458.826Z" fill="#808080" stroke="#263238" stroke-linecap="round" stroke-linejoin="round"/>
<path d="M356.057 464.417V470.351C356.057 470.839 356.21 471.317 356.496 471.724C356.783 472.13 357.191 472.448 357.669 472.636C360.436 473.624 363.32 474.291 366.258 474.622C369.894 475.195 373.63 474.642 376.905 473.046C377.327 472.831 377.677 472.509 377.918 472.118C378.159 471.727 378.281 471.28 378.27 470.828V465.437C378.271 465.134 378.202 464.834 378.067 464.558C377.932 464.283 377.735 464.038 377.49 463.842C377.245 463.645 376.957 463.501 376.646 463.421C376.336 463.34 376.011 463.324 375.693 463.374C371.705 463.984 363.928 464.805 358.046 462.986C357.812 462.919 357.565 462.906 357.324 462.946C357.084 462.987 356.857 463.082 356.663 463.221C356.469 463.361 356.313 463.542 356.207 463.75C356.102 463.958 356.051 464.187 356.057 464.417V464.417Z" fill="#808080" stroke="#263238" stroke-linecap="round" stroke-linejoin="round"/>
<path d="M369.235 333.609L362.87 339.133L372.293 347.773L375.846 342.25L369.235 333.609Z" fill="white" stroke="#263238" stroke-linecap="round" stroke-linejoin="round"/>
<path d="M378.011 267.068C378.011 267.068 376.646 277.949 377.223 281.82C377.799 285.691 386.999 307.221 386.999 307.221L367.446 333.908C367.446 333.908 369.799 343.303 376.446 346.253C376.446 346.253 395.67 328.606 399.329 324.868C407.165 316.86 410.165 309.905 410.165 306.954C410.165 304.004 390.917 250.285 390.529 248.988C390.141 247.69 388.176 242.721 383.293 241.423" fill="white"/>
<path d="M378.011 267.068C378.011 267.068 376.646 277.949 377.223 281.82C377.799 285.691 386.999 307.221 386.999 307.221L367.446 333.908C367.446 333.908 369.799 343.303 376.446 346.253C376.446 346.253 395.67 328.606 399.329 324.868C407.165 316.86 410.165 309.905 410.165 306.954C410.165 304.004 390.917 250.285 390.529 248.988C390.141 247.69 388.176 242.721 383.293 241.423" stroke="#263238" stroke-linecap="round" stroke-linejoin="round"/>
<path d="M388.882 307.176C388.882 307.176 394.459 304.026 400.318 306.123" stroke="#263238" stroke-linecap="round" stroke-linejoin="round"/>
<path d="M395.577 303.76C397.996 303.352 400.489 303.823 402.553 305.08" stroke="#263238" stroke-linecap="round" stroke-linejoin="round"/>
<path d="M329.539 71.9705C334.82 71.971 340.033 73.0825 344.8 75.224C349.567 77.3655 353.767 80.483 357.093 84.3492H423.048C427.886 84.4641 432.485 86.3568 435.864 89.6237C439.243 92.8905 441.134 97.2728 441.134 101.836C441.134 106.399 439.243 110.781 435.864 114.048C432.485 117.315 427.886 119.207 423.048 119.322H361.87C359.268 124.7 355.211 129.336 350.105 132.766L330.351 147.185C330.276 147.237 330.185 147.265 330.092 147.263C330.007 147.264 329.923 147.237 329.857 147.185L308.174 132.333C303.727 129.229 300.127 125.172 297.672 120.497C295.217 115.821 293.978 110.662 294.056 105.446C294.068 96.5753 297.81 88.0708 304.461 81.7961C311.112 75.5214 320.13 71.9881 329.539 71.9705V71.9705Z" fill="#263238"/>
<path d="M423.942 115.884H338.41V81.687L423.942 81.687C428.75 81.687 433.362 83.4878 436.762 86.6934C440.162 89.8989 442.072 94.2465 442.072 98.7798V98.7798C442.074 101.025 441.606 103.249 440.695 105.324C439.785 107.399 438.45 109.285 436.766 110.873C435.082 112.462 433.083 113.722 430.883 114.581C428.682 115.441 426.324 115.884 423.942 115.884V115.884Z" fill="white" stroke="#263238" stroke-linecap="round" stroke-linejoin="round"/>
<path d="M425.872 93.7661H380.012" stroke="#263238" stroke-linejoin="round"/>
<path d="M425.872 99.2235H380.012" stroke="#263238" stroke-linejoin="round"/>
<path d="M425.872 104.67H380.012" stroke="#263238" stroke-linejoin="round"/>
<path d="M309.304 128.961L330.975 143.825L350.728 129.405C355.64 126.118 359.572 121.696 362.147 116.562C364.722 111.429 365.853 105.757 365.431 100.093C365.008 94.4283 363.048 88.9615 359.737 84.218C356.426 79.4745 351.876 75.6138 346.525 73.0073C341.174 70.4008 335.201 69.136 329.182 69.3347C323.163 69.5333 317.299 71.1886 312.154 74.1415C307.009 77.0944 302.757 81.2455 299.806 86.1956C296.855 91.1458 295.304 96.7285 295.303 102.407C295.23 107.564 296.462 112.662 298.897 117.28C301.332 121.898 304.899 125.903 309.304 128.961Z" fill="white" stroke="#263238" stroke-linecap="round" stroke-linejoin="round"/>
<path d="M361.07 102.573C361.072 108.332 359.263 113.962 355.872 118.751C352.48 123.541 347.658 127.275 342.016 129.48C336.374 131.686 330.164 132.265 324.173 131.144C318.182 130.022 312.678 127.251 308.357 123.181C304.036 119.11 301.093 113.923 299.899 108.276C298.705 102.628 299.314 96.7734 301.65 91.4522C303.985 86.1311 307.941 81.5823 313.019 78.3811C318.096 75.1799 324.067 73.4701 330.175 73.4679C334.234 73.4547 338.256 74.1984 342.009 75.6561C345.762 77.1139 349.172 79.2569 352.044 81.9619C354.915 84.667 357.191 87.8806 358.74 91.4179C360.289 94.9552 361.081 98.7464 361.07 102.573V102.573Z" fill="#FFC100" stroke="#263238" stroke-linejoin="round"/>
<path d="M352.599 122.605L330.387 117.159L306.856 121.674C307.151 122.006 307.468 122.328 307.786 122.639C310.671 125.507 314.146 127.791 317.998 129.352C321.851 130.912 326 131.717 330.192 131.717C334.385 131.717 338.534 130.912 342.386 129.352C346.239 127.791 349.713 125.507 352.599 122.639V122.605Z" fill="white" stroke="#263238" stroke-linecap="round" stroke-linejoin="round"/>
<path d="M326.421 115.717C324.52 116.675 322.818 117.949 321.398 119.478C319.198 121.907 315.515 128.351 315.856 128.107C316.198 127.863 326.551 121.907 326.551 121.907L326.421 115.717Z" fill="#FFC100" stroke="#263238" stroke-linecap="round" stroke-linejoin="round"/>
<path d="M335.045 114.497L326.927 122.883L329.245 130.536L338.787 119.123L335.045 114.497Z" fill="#FFC100" stroke="#263238" stroke-linecap="round" stroke-linejoin="round"/>
<path d="M320.104 85.2255C320.104 85.2255 314.821 86.2016 314.221 81.8314C313.621 77.4611 320.798 71.2607 331.104 71.2607C341.41 71.2607 349.528 79.4022 349.14 87.2997C348.786 92.3948 346.941 97.2977 343.81 101.464C341.884 102.95 339.641 104.028 337.233 104.625C335.433 104.858 334.151 102.407 335.045 99.2791C335.939 96.1512 333.116 95.2638 334.28 92.3577C335.445 89.4516 336.986 89.4405 337.492 88.4644C337.998 87.4883 332.339 85.4252 327.186 85.6692C322.033 85.9132 320.104 85.2255 320.104 85.2255Z" fill="#263238" stroke="#263238" stroke-linecap="round" stroke-linejoin="round"/>
<path d="M325.774 110.981L325.68 111.447C325.41 112.944 324.574 117.625 324.351 120.454C324.104 123.859 326.704 123.781 327.704 122.761C328.704 121.74 334.151 116.693 335.045 114.508C335.939 112.323 338.01 105.757 338.01 105.757L325.774 110.981Z" fill="white" stroke="#263238" stroke-linecap="round" stroke-linejoin="round"/>
<path d="M320.104 85.2253C320.104 85.2253 318.304 94.709 317.657 99.6449C317.01 104.581 316.363 107.531 318.563 110.737C320.763 113.943 326.928 111.846 330.022 110.615C333.269 109.102 336.413 107.397 339.434 105.513C339.434 105.513 343.81 105.757 345.611 103.694C345.914 103.325 346.126 102.898 346.232 102.442C346.338 101.987 346.334 101.515 346.221 101.061C346.109 100.607 345.89 100.182 345.58 99.8181C345.271 99.4542 344.879 99.16 344.434 98.9572C343.678 98.9316 342.924 99.0468 342.216 99.2961C341.507 99.5454 340.858 99.924 340.304 100.41C339.54 101.264 339.669 102.24 338.763 102.24C337.857 102.24 336.575 102.473 336.834 101.63C337.093 100.787 339.022 97.9811 338.504 96.162C337.987 94.3429 334.128 93.1228 337.328 91.4257C340.528 89.7287 343.905 89.8507 342.363 87.2995C340.822 84.7483 332.822 82.0752 327.798 83.0402C325.158 83.5059 322.578 84.2385 320.104 85.2253V85.2253Z" fill="white" stroke="#263238" stroke-linecap="round" stroke-linejoin="round"/>
<path d="M321.774 88.0205C321.774 88.0205 324.798 87.4215 324.609 90.3277C324.539 91.4369 319.197 96.7721 319.974 97.9811C320.501 98.7623 321.204 99.4249 322.033 99.9222" stroke="#263238" stroke-linecap="round" stroke-linejoin="round"/>
<path d="M328.222 91.0598C328.633 90.7408 329.116 90.5139 329.634 90.396C330.152 90.278 330.692 90.2722 331.213 90.3789C331.733 90.4856 332.222 90.7021 332.641 91.0122C333.06 91.3222 333.4 91.7177 333.634 92.169" stroke="#263238" stroke-linecap="round" stroke-linejoin="round"/>
<path d="M320.762 103.45C320.762 103.45 321.539 105.269 324.621 105.025C326.005 105.031 327.372 104.742 328.621 104.182" stroke="#263238" stroke-linecap="round" stroke-linejoin="round"/>
<path d="M329.998 95.053C329.822 95.8516 329.304 96.4284 328.822 96.3397C328.34 96.2509 328.151 95.5189 328.34 94.7202C328.528 93.9216 329.034 93.3448 329.516 93.4336C329.998 93.5223 330.175 94.2544 329.998 95.053Z" fill="#263238"/>
<path d="M322.504 92.3575C322.339 93.134 321.857 93.6997 321.422 93.622C320.986 93.5444 320.763 92.8456 320.928 92.0691C321.092 91.2927 321.575 90.727 322.01 90.8157C322.445 90.9045 322.669 91.5811 322.504 92.3575Z" fill="#263238"/>
<path d="M176.335 129.849C171.053 129.849 165.838 130.962 161.071 133.105C156.304 135.249 152.105 138.369 148.781 142.239H82.8261C80.3511 142.18 77.8886 142.589 75.5838 143.441C73.279 144.293 71.1784 145.572 69.4058 147.202C67.6333 148.831 66.2246 150.779 65.2628 152.93C64.3009 155.08 63.8054 157.391 63.8054 159.725C63.8054 162.059 64.3009 164.37 65.2628 166.521C66.2246 168.671 67.6333 170.619 69.4058 172.249C71.1784 173.878 73.279 175.157 75.5838 176.009C77.8886 176.862 80.3511 177.27 82.8261 177.212H144.004C146.603 182.591 150.661 187.228 155.769 190.655L175.523 205.075C175.592 205.13 175.679 205.161 175.77 205.164C175.859 205.161 175.945 205.134 176.017 205.086L197.712 190.2C202.157 187.097 205.756 183.042 208.211 178.369C210.666 173.695 211.906 168.539 211.83 163.324C211.817 154.452 208.074 145.945 201.421 139.67C194.767 133.395 185.746 129.863 176.335 129.849V129.849Z" fill="#263238"/>
<path d="M80.9435 173.862H166.475V139.665H80.9435C76.133 139.668 71.5203 141.471 68.1188 144.678C64.7172 147.885 62.8049 152.234 62.8018 156.769C62.8049 161.303 64.7176 165.651 68.1195 168.856C71.5214 172.061 76.134 173.862 80.9435 173.862V173.862Z" fill="white" stroke="#263238" stroke-linecap="round" stroke-linejoin="round"/>
<path d="M79.014 151.745H124.874" stroke="#263238" stroke-linejoin="round"/>
<path d="M79.014 157.202H124.874" stroke="#263238" stroke-linejoin="round"/>
<path d="M79.014 162.659H124.874" stroke="#263238" stroke-linejoin="round"/>
<path d="M195.582 186.939L173.899 201.803L154.146 187.383C149.234 184.097 145.301 179.674 142.727 174.541C140.152 169.407 139.021 163.735 139.443 158.071C139.866 152.406 141.826 146.94 145.137 142.196C148.448 137.453 152.998 133.592 158.349 130.985C163.7 128.379 169.673 127.114 175.692 127.313C181.711 127.511 187.575 129.167 192.72 132.12C197.864 135.073 202.117 139.224 205.068 144.174C208.019 149.124 209.57 154.707 209.571 160.385C209.646 165.541 208.416 170.639 205.983 175.257C203.551 179.876 199.985 183.88 195.582 186.939Z" fill="white" stroke="#263238" stroke-linecap="round" stroke-linejoin="round"/>
<path d="M179.353 189.128C196.193 186.574 207.648 171.633 204.938 155.756C202.229 139.88 186.381 129.08 169.541 131.635C152.702 134.189 141.247 149.13 143.956 165.006C146.665 180.883 162.513 191.683 179.353 189.128Z" fill="#FFC100" stroke="#263238" stroke-linejoin="round"/>
<path d="M201.276 174.805C203.5 162.947 191.147 158.089 189.911 152.055C189.911 152.055 193.006 151.467 194.041 146.398C195.076 141.329 192.794 134.508 181.841 132.367C170.887 130.226 158.063 139.022 155.957 146.986C153.851 154.95 159.887 158.677 156.781 161.605C156.248 162.049 155.639 162.406 154.981 162.659C153.428 163.546 151.24 164.811 149.769 165.576C147.298 166.863 145.922 179.552 158.828 181.105C171.734 182.658 174.746 178.776 181.888 177.999C186.382 177.511 193.817 177.944 198.712 178.332" fill="#263238"/>
<path d="M201.276 174.805C203.5 162.947 191.147 158.089 189.911 152.055C189.911 152.055 193.006 151.467 194.041 146.398C195.076 141.329 192.794 134.508 181.841 132.367C170.887 130.226 158.063 139.022 155.957 146.986C153.851 154.95 159.887 158.677 156.781 161.605C156.248 162.049 155.639 162.406 154.981 162.659C153.428 163.546 151.24 164.811 149.769 165.576C147.298 166.863 145.922 179.552 158.828 181.105C171.734 182.658 174.746 178.776 181.888 177.999C186.382 177.511 193.817 177.944 198.712 178.332" stroke="#263238" stroke-linecap="round" stroke-linejoin="round"/>
<path d="M197.959 171.932C193.629 171.932 188.252 174.849 186.393 174.849C184.535 174.849 184.323 167.451 184.323 167.451L174.605 165.498C174.605 165.498 175.64 172.708 175.228 175.637C174.817 178.565 167.781 178.964 164.887 179.33C161.993 179.696 160.346 181.482 159.522 185.575C159.515 185.66 159.515 185.745 159.522 185.83C163.238 187.784 167.345 188.985 171.581 189.357C175.77 188.659 179.993 187.871 183.346 187.061C185.593 186.518 187.782 186.041 189.852 185.63C194.722 182.995 198.74 179.161 201.476 174.538C201.315 173.78 200.872 173.102 200.227 172.624C199.582 172.146 198.778 171.901 197.959 171.932V171.932Z" fill="white" stroke="#263238" stroke-linecap="round" stroke-linejoin="round"/>
<path d="M160.169 186.196C166.768 189.436 174.385 190.323 181.621 188.693C188.858 187.063 195.227 183.025 199.559 177.323C194.406 177.944 193.935 180.506 190.935 180.506C187.629 180.506 183.7 180.118 179.17 182.059C174.64 184 173.993 184.788 167.593 184.788C165.043 184.781 162.518 185.26 160.169 186.196V186.196Z" fill="#FFC100" stroke="#263238" stroke-linecap="round" stroke-linejoin="round"/>
<path d="M183.288 141.329C183.288 141.329 190.523 146.598 190.935 153.808C191.347 161.017 188.864 166.275 186.394 168.815C183.923 171.355 180.605 170.368 177.299 168.227C175.114 166.728 173.223 164.881 171.711 162.77C170.704 162.673 169.761 162.264 169.029 161.605C168.19 160.957 167.606 160.063 167.37 159.065C167.37 159.065 173.57 158.877 175.017 154.972C176.464 151.068 175.229 147.574 177.299 144.845C178.831 143.084 180.936 141.848 183.288 141.329V141.329Z" fill="white" stroke="#263238" stroke-linecap="round" stroke-linejoin="round"/>
<path d="M181.429 151.268C181.429 151.268 177.899 149.715 176.464 152.632" stroke="#263238" stroke-linecap="round" stroke-linejoin="round"/>
<path d="M185.558 150.269C185.558 150.269 188.041 148.517 188.864 150.458" stroke="#263238" stroke-linecap="round" stroke-linejoin="round"/>
<path d="M184.535 165.11C184.036 165.216 183.519 165.218 183.019 165.116C182.52 165.015 182.049 164.812 181.641 164.522" stroke="#263238" stroke-linecap="round" stroke-linejoin="round"/>
<path d="M185.77 151.855C185.319 153.774 185.11 155.736 185.146 157.701C185.358 160.041 184.535 160.629 183.288 160.241" stroke="#263238" stroke-linecap="round" stroke-linejoin="round"/>
<path d="M179.217 156.669C179.626 156.669 179.958 155.994 179.958 155.161C179.958 154.328 179.626 153.652 179.217 153.652C178.808 153.652 178.476 154.328 178.476 155.161C178.476 155.994 178.808 156.669 179.217 156.669Z" fill="#263238"/>
<path d="M187.853 155.859C188.262 155.859 188.594 155.184 188.594 154.351C188.594 153.518 188.262 152.842 187.853 152.842C187.443 152.842 187.111 153.518 187.111 154.351C187.111 155.184 187.443 155.859 187.853 155.859Z" fill="#263238"/>
<path d="M175.288 321.563C170.007 321.563 164.794 322.675 160.027 324.816C155.26 326.958 151.06 330.075 147.734 333.942H81.7791C76.9408 334.056 72.3417 335.949 68.9628 339.216C65.5839 342.483 63.6927 346.865 63.6927 351.428C63.6927 355.991 65.5839 360.373 68.9628 363.64C72.3417 366.907 76.9408 368.8 81.7791 368.915H142.957C145.56 374.291 149.618 378.928 154.722 382.358L174.476 396.778C174.551 396.83 174.642 396.857 174.735 396.855C174.82 396.856 174.904 396.829 174.97 396.778L196.653 381.926C201.1 378.821 204.7 374.764 207.155 370.089C209.61 365.414 210.849 360.255 210.771 355.039C210.759 346.168 207.017 337.663 200.366 331.388C193.715 325.114 184.697 321.58 175.288 321.563V321.563Z" fill="#263238"/>
<path d="M80.226 365.92H165.758V331.724H80.226C75.4177 331.724 70.8062 333.524 67.4062 336.73C64.0062 339.935 62.0961 344.283 62.0961 348.816V348.816C62.0945 351.062 62.5623 353.286 63.4728 355.361C64.3832 357.436 65.7184 359.322 67.4021 360.91C69.0857 362.498 71.0849 363.758 73.2853 364.618C75.4857 365.478 77.8442 365.92 80.226 365.92Z" fill="white" stroke="#263238" stroke-linecap="round" stroke-linejoin="round"/>
<path d="M78.2966 343.803H124.157" stroke="#263238" stroke-linejoin="round"/>
<path d="M78.2966 349.26H124.157" stroke="#263238" stroke-linejoin="round"/>
<path d="M78.2966 354.706H124.157" stroke="#263238" stroke-linejoin="round"/>
<path d="M194.876 378.998L173.193 393.861L153.44 379.441C148.528 376.155 144.596 371.732 142.021 366.599C139.446 361.465 138.315 355.794 138.737 350.129C139.16 344.465 141.121 338.998 144.432 334.254C147.743 329.511 152.292 325.65 157.643 323.044C162.994 320.437 168.967 319.172 174.986 319.371C181.005 319.57 186.869 321.225 192.014 324.178C197.159 327.131 201.411 331.282 204.362 336.232C207.313 341.182 208.864 346.765 208.865 352.443C208.938 357.599 207.708 362.697 205.275 367.314C202.842 371.932 199.278 375.937 194.876 378.998V378.998Z" fill="white" stroke="#263238" stroke-linecap="round" stroke-linejoin="round"/>
<path d="M142.922 352.21C142.922 357.969 144.733 363.598 148.126 368.387C151.52 373.175 156.343 376.907 161.986 379.11C167.63 381.314 173.839 381.891 179.83 380.767C185.821 379.644 191.324 376.871 195.643 372.799C199.962 368.727 202.903 363.539 204.095 357.891C205.286 352.243 204.675 346.388 202.337 341.068C200 335.748 196.042 331.2 190.963 328.001C185.884 324.801 179.913 323.094 173.805 323.094C169.747 323.086 165.728 323.835 161.977 325.295C158.227 326.756 154.819 328.9 151.95 331.606C149.081 334.311 146.806 337.523 145.257 341.059C143.707 344.595 142.914 348.385 142.922 352.21Z" fill="#FFC100" stroke="#263238" stroke-linejoin="round"/>
<path d="M150.016 370.789C152.804 373.958 156.272 376.534 160.192 378.348C164.112 380.161 168.395 381.171 172.759 381.31C177.123 381.449 181.469 380.715 185.511 379.156C189.552 377.597 193.197 375.248 196.206 372.265L181.335 369.137L160.758 368.172L150.016 370.789Z" fill="#FFC100" stroke="#263238" stroke-linecap="round" stroke-linejoin="round"/>
<path d="M164.97 361.106C166.311 356.459 164.746 349.271 164.746 349.271C168.111 346.11 178.194 361.472 178.194 361.472C178.194 361.472 177.97 364.223 181.335 369.081C181.524 369.365 181.728 369.639 181.947 369.902C179.864 373.052 175.452 379.009 172.146 378.388C168.84 377.766 163.676 371.732 160.758 368.116C163.817 366.353 163.946 364.656 164.97 361.106Z" fill="white" stroke="#263238" stroke-linecap="round" stroke-linejoin="round"/>
<path d="M161.499 343.159C161.499 343.159 159.934 342.937 159.711 345.688C159.487 348.439 160.828 349.925 161.934 349.925H163.723C164.009 351.566 164.402 353.189 164.899 354.784C165.793 357.956 165.793 359.653 172.97 362.393C180.147 365.133 181.935 364.722 183.958 361.761C185.982 358.799 185.97 348.029 186.194 343.381C186.417 338.734 187.312 333.398 187.312 333.398C185.83 331.98 184.083 330.833 182.158 330.015C178.794 328.54 168.487 330.226 165.346 331.712C162.205 333.199 163.334 340.797 163.334 340.797L161.499 343.159Z" fill="white" stroke="#263238" stroke-linecap="round" stroke-linejoin="round"/>
<path d="M182.829 357.379C180.741 357.897 178.533 357.776 176.523 357.036" stroke="#263238" stroke-linecap="round" stroke-linejoin="round"/>
<path d="M182.793 345.899C182.793 346.598 183.099 347.174 183.464 347.174C183.829 347.174 184.146 346.598 184.146 345.899C184.146 345.2 183.841 344.634 183.464 344.634C183.088 344.634 182.793 345.2 182.793 345.899Z" fill="#263238"/>
<path d="M176.299 346.742C176.299 347.452 176.593 348.018 176.97 348.018C177.346 348.018 177.641 347.452 177.641 346.742C177.641 346.032 177.346 345.478 176.97 345.478C176.593 345.478 176.299 346.043 176.299 346.742Z" fill="#263238"/>
<path d="M184.817 341.884C184.474 341.623 184.056 341.463 183.616 341.426C183.176 341.388 182.735 341.474 182.347 341.673" stroke="#263238" stroke-linecap="round" stroke-linejoin="round"/>
<path d="M177.417 342.305C177.417 342.305 174.723 341.251 172.711 344.213" stroke="#263238" stroke-linecap="round" stroke-linejoin="round"/>
<path d="M181.052 344.801L181.9 353.297L177.641 353.719" stroke="#263238" stroke-linecap="round" stroke-linejoin="round"/>
<path d="M157.017 328.362C157.24 324.979 162.899 326.244 166.429 324.979C169.958 323.715 176.288 319.91 181.664 319.91C183.071 319.81 184.47 320.178 185.618 320.95C186.766 321.723 187.59 322.85 187.947 324.136L187.712 320.753C187.712 320.753 191.3 322.661 191.076 326.244C190.853 329.827 188.17 334.064 186.37 333.853C184.57 333.642 169.335 333.01 168.44 335.129C167.546 337.247 170.911 341.251 170.911 341.251C170.688 343.37 167.382 342.937 167.099 343.791C166.972 345.835 167.047 347.884 167.323 349.914C167.34 351.104 167.019 352.276 166.393 353.308C166.35 354.362 166.676 355.399 167.323 356.259C167.859 356.816 168.518 357.256 169.254 357.548C169.99 357.839 170.784 357.974 171.582 357.945C171.582 357.945 176.735 353.508 180.547 354.14C184.359 354.773 185.253 356.47 185.253 356.47H185.359C185.253 357.224 185.135 357.923 185.006 358.588C184.37 357.656 182.511 355.383 179.652 355.383C176.123 355.383 172.252 359.398 172.252 359.398C172.252 359.398 176.064 361.716 178.076 361.716C180.088 361.716 179.652 359.398 180.994 359.609C182.335 359.819 181.888 361.084 182.558 361.084C183.399 360.941 184.155 360.515 184.688 359.886C184.518 360.526 184.257 361.142 183.911 361.716C181.888 364.678 180.1 365.044 172.923 362.348C165.746 359.653 165.746 357.912 164.852 354.739L164.605 353.841C164.817 352.334 165.176 350.849 165.676 349.404C165.734 346.842 165.381 344.368 164.629 343.514C163.452 342.239 161.487 343.093 161.487 343.093C161.487 343.093 156.793 331.746 157.017 328.362Z" fill="#263238" stroke="#263238" stroke-linecap="round" stroke-linejoin="round"/>
</svg>
