<svg width="444" height="444" viewBox="0 0 444 444" fill="none" xmlns="http://www.w3.org/2000/svg">
<path d="M444 339.571H0V339.793H444V339.571Z" fill="#EBEBEB"/>
<path d="M399.511 353.859H370.101V354.081H399.511V353.859Z" fill="#EBEBEB"/>
<path d="M294.123 356.274H286.407V356.496H294.123V356.274Z" fill="#EBEBEB"/>
<path d="M369.213 345.618H352.172V345.84H369.213V345.618Z" fill="#EBEBEB"/>
<path d="M84.9372 347.11H46.5845V347.332H84.9372V347.11Z" fill="#EBEBEB"/>
<path d="M98.4703 347.11H92.8492V347.332H98.4703V347.11Z" fill="#EBEBEB"/>
<path d="M199.933 350.857H116.745V351.079H199.933V350.857Z" fill="#EBEBEB"/>
<path d="M210.456 299.966H38.992C37.6488 299.964 36.3614 299.429 35.4124 298.478C34.4634 297.527 33.9304 296.239 33.9304 294.896V53.8659C33.9421 52.5304 34.4803 51.2534 35.428 50.3123C36.3757 49.3713 37.6564 48.8421 38.992 48.8398H210.456C211.801 48.8398 213.09 49.3741 214.041 50.325C214.992 51.2759 215.526 52.5655 215.526 53.9103V294.896C215.526 296.241 214.992 297.53 214.041 298.481C213.09 299.432 211.801 299.966 210.456 299.966V299.966ZM38.992 49.0174C37.7077 49.0198 36.4767 49.5317 35.5694 50.4407C34.662 51.3497 34.1524 52.5816 34.1524 53.8659V294.896C34.1524 296.18 34.662 297.412 35.5694 298.321C36.4767 299.23 37.7077 299.742 38.992 299.744H210.456C211.741 299.742 212.973 299.23 213.882 298.322C214.79 297.413 215.302 296.181 215.304 294.896V53.8659C215.302 52.5807 214.79 51.3489 213.882 50.4401C212.973 49.5314 211.741 49.0198 210.456 49.0174H38.992Z" fill="#EBEBEB"/>
<path d="M402.539 299.966H231.067C229.723 299.964 228.434 299.429 227.484 298.479C226.533 297.528 225.998 296.24 225.996 294.896V53.8659C226.01 52.5296 226.55 51.2526 227.499 50.3118C228.448 49.371 229.73 48.8421 231.067 48.8398H402.539C403.873 48.8445 405.152 49.3746 406.098 50.3155C407.043 51.2563 407.58 52.5319 407.592 53.8659V294.896C407.592 296.237 407.06 297.524 406.113 298.475C405.166 299.425 403.881 299.962 402.539 299.966V299.966ZM231.067 49.0174C229.781 49.0198 228.55 49.5314 227.641 50.4401C226.732 51.3489 226.22 52.5807 226.218 53.8659V294.896C226.22 296.181 226.732 297.413 227.641 298.322C228.55 299.23 229.781 299.742 231.067 299.744H402.539C403.825 299.742 405.056 299.23 405.965 298.322C406.874 297.413 407.385 296.181 407.388 294.896V53.8659C407.385 52.5807 406.874 51.3489 405.965 50.4401C405.056 49.5314 403.825 49.0198 402.539 49.0174H231.067Z" fill="#EBEBEB"/>
<path d="M210.456 160.825V176.419L218.448 177.173C219.52 182.312 221.554 187.202 224.442 191.586L219.283 197.802L230.312 208.831L236.528 203.671C240.909 206.557 245.796 208.587 250.931 209.656L251.686 217.648H267.377L268.132 209.656C273.27 208.587 278.16 206.557 282.544 203.671L288.76 208.831L299.789 197.802L294.63 191.586C297.515 187.202 299.546 182.312 300.615 177.173L308.651 176.419V160.825L300.615 160.062C299.553 154.919 297.528 150.023 294.647 145.632L299.807 139.416L288.778 128.396L282.562 133.555C278.184 130.673 273.304 128.64 268.176 127.561L267.421 119.569H251.775L251.02 127.561C245.885 128.637 240.999 130.67 236.617 133.555L230.401 128.396L219.336 139.416L224.495 145.632C221.61 150.013 219.576 154.9 218.501 160.035L210.456 160.825ZM259.545 147.505C263.721 147.505 267.804 148.744 271.276 151.064C274.749 153.384 277.456 156.682 279.054 160.541C280.652 164.4 281.07 168.645 280.256 172.742C279.441 176.838 277.43 180.6 274.476 183.554C271.523 186.507 267.761 188.518 263.664 189.333C259.568 190.148 255.322 189.729 251.464 188.131C247.605 186.533 244.307 183.826 241.987 180.354C239.667 176.881 238.428 172.798 238.428 168.622C238.428 165.846 238.975 163.097 240.039 160.533C241.102 157.968 242.661 155.639 244.626 153.678C246.59 151.716 248.922 150.162 251.488 149.103C254.054 148.043 256.804 147.501 259.58 147.505H259.545Z" fill="#F0F0F0"/>
<path d="M184.136 230.623L188.576 234.334L196.505 226.405L192.794 221.965C194.887 218.808 196.361 215.282 197.136 211.575L202.908 211.033V199.8L197.136 199.258C196.367 195.566 194.906 192.053 192.829 188.904L196.541 184.464L188.611 176.534L184.171 180.246C181.021 178.173 177.508 176.712 173.817 175.939L173.275 170.167H162.033L161.492 175.939C157.799 176.718 154.286 178.185 151.138 180.264L146.698 176.552L138.768 184.482L142.48 188.922C140.403 192.07 138.941 195.584 138.173 199.276L132.401 199.818V211.024L138.173 211.566C138.941 215.258 140.403 218.772 142.48 221.92L138.768 226.36L146.698 234.29L151.138 230.578C154.288 232.651 157.8 234.112 161.492 234.885L162.033 240.657H173.24L173.782 234.885C177.47 234.126 180.982 232.68 184.136 230.623V230.623ZM152.47 205.43C152.47 202.428 153.36 199.494 155.028 196.998C156.696 194.502 159.066 192.557 161.84 191.408C164.614 190.26 167.665 189.96 170.609 190.546C173.554 191.133 176.258 192.579 178.38 194.702C180.502 196.825 181.946 199.53 182.531 202.475C183.115 205.419 182.814 208.471 181.664 211.244C180.514 214.017 178.567 216.386 176.07 218.053C173.573 219.719 170.638 220.608 167.637 220.606C165.644 220.606 163.671 220.213 161.83 219.451C159.99 218.688 158.317 217.57 156.909 216.16C155.5 214.751 154.383 213.078 153.622 211.237C152.86 209.396 152.468 207.422 152.47 205.43Z" fill="#F5F5F5"/>
<path d="M233.944 306.537C238.339 305.624 242.521 303.885 246.269 301.414L251.597 305.854L261.072 296.396L256.632 291.068C259.104 287.321 260.842 283.138 261.756 278.743L268.629 278.104V264.784L261.756 264.135C260.846 259.728 259.108 255.533 256.632 251.774L261.072 246.446L251.606 237.007L246.278 241.447C242.528 238.98 238.346 237.241 233.953 236.323L233.304 229.459H219.984L219.336 236.297C214.942 237.215 210.761 238.953 207.011 241.42L201.683 236.98L192.243 246.42L196.683 251.748C194.216 255.498 192.478 259.679 191.559 264.073L184.686 264.721V278.041L191.559 278.681C192.476 283.075 194.214 287.257 196.683 291.006L192.243 296.334L201.683 305.765L207.011 301.325C210.752 303.828 214.934 305.597 219.336 306.537L219.984 313.411H233.304L233.944 306.537ZM208.565 271.417C208.566 267.845 209.627 264.354 211.613 261.385C213.599 258.416 216.42 256.102 219.721 254.736C223.021 253.371 226.653 253.014 230.156 253.712C233.659 254.41 236.876 256.131 239.401 258.657C241.926 261.184 243.646 264.402 244.342 267.905C245.038 271.409 244.68 275.04 243.313 278.34C241.945 281.64 239.63 284.46 236.66 286.444C233.69 288.429 230.198 289.488 226.627 289.488C224.254 289.488 221.904 289.02 219.712 288.112C217.521 287.204 215.529 285.873 213.852 284.194C212.174 282.516 210.844 280.524 209.937 278.332C209.03 276.139 208.563 273.79 208.565 271.417V271.417Z" fill="#FAFAFA"/>
<path d="M125.619 145.071L84.7689 139.49L79.1876 180.34L120.038 185.921L125.619 145.071Z" fill="#F5F5F5"/>
<path d="M90.7776 150.691L90.417 153.33L117.014 156.964L117.375 154.324L90.7776 150.691Z" fill="#E0E0E0"/>
<path d="M89.6418 158.977L89.2811 161.616L115.878 165.25L116.239 162.611L89.6418 158.977Z" fill="#E0E0E0"/>
<path d="M88.4789 167.541L88.1183 170.181L103.779 172.32L104.14 169.681L88.4789 167.541Z" fill="#E0E0E0"/>
<path d="M354.329 99.692L313.1 99.8359L313.244 141.066L354.473 140.922L354.329 99.692Z" fill="#F0F0F0"/>
<path d="M347.476 109.939L320.632 110.037L320.641 112.701L347.485 112.603L347.476 109.939Z" fill="#E0E0E0"/>
<path d="M347.515 118.303L320.671 118.402L320.681 121.066L347.525 120.967L347.515 118.303Z" fill="#E0E0E0"/>
<path d="M336.5 126.993L320.694 127.051L320.704 129.715L336.51 129.657L336.5 126.993Z" fill="#E0E0E0"/>
<path d="M379.072 200.244L338.169 205.425L343.351 246.328L384.254 241.146L379.072 200.244Z" fill="#F5F5F5"/>
<path d="M373.534 211.294L346.903 214.667L347.238 217.31L373.869 213.937L373.534 211.294Z" fill="#E0E0E0"/>
<path d="M374.586 219.585L347.955 222.959L348.289 225.602L374.921 222.228L374.586 219.585Z" fill="#E0E0E0"/>
<path d="M364.721 229.549L349.04 231.535L349.375 234.178L365.056 232.191L364.721 229.549Z" fill="#E0E0E0"/>
<path d="M159.758 266.63L118.528 266.774L118.672 308.004L159.902 307.86L159.758 266.63Z" fill="#F0F0F0"/>
<path d="M152.951 276.911L126.107 277.009L126.117 279.673L152.961 279.575L152.951 276.911Z" fill="#E0E0E0"/>
<path d="M152.982 285.276L126.138 285.374L126.147 288.038L152.991 287.94L152.982 285.276Z" fill="#E0E0E0"/>
<path d="M141.976 293.965L126.169 294.023L126.179 296.687L141.985 296.629L141.976 293.965Z" fill="#E0E0E0"/>
<path d="M341.858 286.818L300.628 286.962L300.772 328.192L342.002 328.048L341.858 286.818Z" fill="#F0F0F0"/>
<path d="M335.046 297.067L308.202 297.165L308.212 299.829L335.056 299.731L335.046 297.067Z" fill="#E0E0E0"/>
<path d="M335.085 305.432L308.241 305.53L308.251 308.194L335.095 308.096L335.085 305.432Z" fill="#E0E0E0"/>
<path d="M324.07 314.121L308.264 314.179L308.274 316.843L324.08 316.785L324.07 314.121Z" fill="#E0E0E0"/>
<path d="M168.121 96.9992L127.871 105.937L136.809 146.186L177.059 137.249L168.121 96.9992Z" fill="#F0F0F0"/>
<path d="M163.613 108.536L137.408 114.355L137.985 116.956L164.191 111.136L163.613 108.536Z" fill="#E0E0E0"/>
<path d="M165.43 116.705L139.224 122.524L139.802 125.125L166.008 119.305L165.43 116.705Z" fill="#E0E0E0"/>
<path d="M156.527 127.535L141.097 130.962L141.674 133.563L157.105 130.136L156.527 127.535Z" fill="#E0E0E0"/>
<path d="M88.1252 143.945H87.3881L86.3669 139.238H89.1375L88.1252 143.945Z" fill="#E0E0E0"/>
<path d="M87.7521 142.781C89.8217 142.781 91.4995 141.457 91.4995 139.824C91.4995 138.191 89.8217 136.867 87.7521 136.867C85.6825 136.867 84.0048 138.191 84.0048 139.824C84.0048 141.457 85.6825 142.781 87.7521 142.781Z" fill="#E6E6E6"/>
<path d="M163.454 102.857H162.717L161.705 98.1592H164.475L163.454 102.857Z" fill="#E0E0E0"/>
<path d="M163.09 101.703C165.165 101.703 166.846 100.379 166.846 98.7456C166.846 97.1125 165.165 95.7886 163.09 95.7886C161.016 95.7886 159.334 97.1125 159.334 98.7456C159.334 100.379 161.016 101.703 163.09 101.703Z" fill="#E6E6E6"/>
<path d="M333.124 104.038H332.387L331.366 99.3403H334.137L333.124 104.038Z" fill="#E0E0E0"/>
<path d="M332.751 102.883C334.821 102.883 336.499 101.559 336.499 99.9263C336.499 98.2932 334.821 96.9692 332.751 96.9692C330.682 96.9692 329.004 98.2932 329.004 99.9263C329.004 101.559 330.682 102.883 332.751 102.883Z" fill="#E6E6E6"/>
<path d="M375.269 206.149H374.532L373.52 201.452H376.29L375.269 206.149Z" fill="#E0E0E0"/>
<path d="M374.905 204.995C376.974 204.995 378.652 203.671 378.652 202.038C378.652 200.404 376.974 199.081 374.905 199.081C372.835 199.081 371.157 200.404 371.157 202.038C371.157 203.671 372.835 204.995 374.905 204.995Z" fill="#E6E6E6"/>
<path d="M321.98 291.504H321.234L320.222 286.797H322.992L321.98 291.504Z" fill="#E0E0E0"/>
<path d="M321.607 290.34C323.677 290.34 325.354 289.016 325.354 287.383C325.354 285.75 323.677 284.426 321.607 284.426C319.537 284.426 317.86 285.75 317.86 287.383C317.86 289.016 319.537 290.34 321.607 290.34Z" fill="#E6E6E6"/>
<path d="M138.066 270.369H137.329L136.317 265.663H139.087L138.066 270.369Z" fill="#E0E0E0"/>
<path d="M137.702 269.206C139.772 269.206 141.45 267.882 141.45 266.249C141.45 264.616 139.772 263.292 137.702 263.292C135.633 263.292 133.955 264.616 133.955 266.249C133.955 267.882 135.633 269.206 137.702 269.206Z" fill="#E6E6E6"/>
<path d="M222 379.673C317.089 379.673 394.174 375.173 394.174 369.621C394.174 364.069 317.089 359.569 222 359.569C126.911 359.569 49.8257 364.069 49.8257 369.621C49.8257 375.173 126.911 379.673 222 379.673Z" fill="#F5F5F5"/>
<path d="M127.579 220.97C127.579 215.118 131.424 210.314 136.157 210.314C140.89 210.314 144.735 215.074 144.735 220.97C144.735 226.866 140.89 231.573 136.157 231.573C131.424 231.573 127.579 226.822 127.579 220.97ZM129.355 220.97C129.355 225.836 132.41 229.797 136.157 229.797C139.904 229.797 142.959 225.836 142.959 220.97C142.959 216.104 139.913 212.09 136.157 212.09C132.401 212.09 129.355 216.104 129.355 220.97Z" fill="#263238"/>
<path d="M110.698 220.97C110.698 215.118 114.543 210.314 119.276 210.314C124.009 210.314 127.854 215.074 127.854 220.97C127.854 226.866 124.009 231.573 119.276 231.573C114.543 231.573 110.698 226.822 110.698 220.97ZM112.474 220.97C112.474 225.836 115.52 229.797 119.276 229.797C123.032 229.797 126.078 225.836 126.078 220.97C126.078 216.104 123.024 212.09 119.276 212.09C115.529 212.09 112.474 216.104 112.474 220.97Z" fill="#263238"/>
<path d="M93.8083 220.97C93.8083 215.118 97.6623 210.314 102.395 210.314C107.128 210.314 110.973 215.074 110.973 220.97C110.973 226.866 107.119 231.573 102.395 231.573C97.6711 231.573 93.8083 226.822 93.8083 220.97ZM95.5843 220.97C95.5843 225.836 98.6391 229.797 102.395 229.797C106.152 229.797 109.197 225.836 109.197 220.97C109.197 216.104 106.143 212.09 102.395 212.09C98.6479 212.09 95.5843 216.104 95.5843 220.97Z" fill="#263238"/>
<path d="M76.9274 220.97C76.9274 215.118 80.7813 210.314 85.5143 210.314C90.2474 210.314 94.0924 215.074 94.0924 220.97C94.0924 226.866 90.2385 231.573 85.5143 231.573C80.7902 231.573 76.9274 226.822 76.9274 220.97ZM78.7034 220.97C78.7034 225.836 81.7581 229.797 85.5143 229.797C89.2706 229.797 92.3164 225.836 92.3164 220.97C92.3164 216.104 89.2617 212.09 85.5143 212.09C81.767 212.09 78.7034 216.104 78.7034 220.97Z" fill="#263238"/>
<path d="M144.46 220.97C144.46 215.118 148.305 210.314 153.038 210.314C157.771 210.314 161.625 215.074 161.625 220.97C161.625 226.866 157.771 231.573 153.038 231.573C148.305 231.573 144.46 226.822 144.46 220.97ZM146.236 220.97C146.236 225.836 149.291 229.797 153.038 229.797C156.785 229.797 159.849 225.836 159.849 220.97C159.849 216.104 156.794 212.09 153.038 212.09C149.282 212.09 146.236 216.104 146.236 220.97Z" fill="#263238"/>
<path d="M65.7653 367.445H171.508L171.508 221.174H65.7653L65.7653 367.445Z" fill="#263238"/>
<path opacity="0.7" d="M65.7653 367.445H171.508L171.508 221.174H65.7653L65.7653 367.445Z" fill="white"/>
<path opacity="0.6" d="M75.2935 367.445H171.508L171.508 221.174H75.2935L75.2935 367.445Z" fill="white"/>
<path opacity="0.2" d="M68.9354 367.446L68.4914 230.747L68.0474 367.446H68.9354Z" fill="black"/>
<path opacity="0.2" d="M73.3576 367.445L72.9136 239.263L72.4696 367.445H73.3576Z" fill="black"/>
<path opacity="0.2" d="M70.2585 221.281L70.7025 324.049L71.1465 221.281H70.2585Z" fill="black"/>
<path d="M155.595 228.127C155.686 228.601 155.91 229.038 156.241 229.389C156.571 229.74 156.995 229.99 157.462 230.109C157.929 230.228 158.421 230.211 158.879 230.061C159.337 229.911 159.743 229.634 160.05 229.262C160.356 228.89 160.551 228.438 160.61 227.96C160.669 227.481 160.591 226.996 160.385 226.56C160.178 226.125 159.852 225.757 159.444 225.499C159.036 225.242 158.564 225.106 158.082 225.108C157.354 225.184 156.686 225.544 156.22 226.108C155.755 226.673 155.531 227.398 155.595 228.127V228.127Z" fill="#263238"/>
<path d="M158.242 229.024C158.368 229.023 158.493 228.994 158.608 228.941C158.723 228.887 158.825 228.81 158.908 228.713C160.697 226.533 161.659 223.791 161.625 220.97C161.625 215.118 157.771 210.314 153.038 210.314C149.557 210.314 146.44 212.889 145.108 216.859C145.071 216.969 145.056 217.086 145.064 217.203C145.071 217.32 145.102 217.434 145.154 217.538C145.206 217.643 145.278 217.736 145.366 217.813C145.454 217.89 145.557 217.949 145.668 217.986C145.778 218.024 145.895 218.039 146.012 218.031C146.129 218.023 146.243 217.992 146.347 217.94C146.452 217.888 146.545 217.816 146.622 217.728C146.699 217.64 146.758 217.538 146.795 217.427C147.879 214.186 150.347 212.099 153.011 212.099C156.768 212.099 159.822 216.068 159.822 220.979C159.86 223.372 159.052 225.703 157.54 227.559C157.427 227.688 157.353 227.846 157.329 228.016C157.304 228.186 157.328 228.359 157.4 228.515C157.471 228.671 157.586 228.802 157.731 228.894C157.875 228.986 158.044 229.035 158.215 229.033L158.242 229.024Z" fill="#263238"/>
<g opacity="0.4">
<path d="M158.242 229.024C158.368 229.023 158.493 228.994 158.608 228.941C158.723 228.887 158.825 228.81 158.908 228.713C160.697 226.533 161.659 223.791 161.625 220.97C161.625 215.118 157.771 210.314 153.038 210.314C149.557 210.314 146.44 212.889 145.108 216.859C145.071 216.969 145.056 217.086 145.064 217.203C145.071 217.32 145.102 217.434 145.154 217.538C145.206 217.643 145.278 217.736 145.366 217.813C145.454 217.89 145.557 217.949 145.668 217.986C145.778 218.024 145.895 218.039 146.012 218.031C146.129 218.023 146.243 217.992 146.347 217.94C146.452 217.888 146.545 217.816 146.622 217.728C146.699 217.64 146.758 217.538 146.795 217.427C147.879 214.186 150.347 212.099 153.011 212.099C156.768 212.099 159.822 216.068 159.822 220.979C159.86 223.372 159.052 225.703 157.54 227.559C157.427 227.688 157.353 227.846 157.329 228.016C157.304 228.186 157.328 228.359 157.4 228.515C157.471 228.671 157.586 228.802 157.731 228.894C157.875 228.986 158.044 229.035 158.215 229.033L158.242 229.024Z" fill="white"/>
</g>
<path d="M138.715 228.127C138.807 228.598 139.031 229.032 139.361 229.38C139.691 229.728 140.113 229.975 140.578 230.092C141.043 230.21 141.532 230.193 141.987 230.043C142.443 229.894 142.846 229.618 143.151 229.248C143.456 228.877 143.65 228.428 143.709 227.953C143.768 227.477 143.692 226.994 143.487 226.56C143.283 226.126 142.959 225.759 142.555 225.502C142.15 225.245 141.68 225.109 141.201 225.108C140.473 225.184 139.805 225.544 139.34 226.108C138.874 226.673 138.65 227.398 138.715 228.127V228.127Z" fill="#263238"/>
<path d="M141.352 229.024C141.48 229.024 141.607 228.996 141.723 228.943C141.84 228.889 141.943 228.811 142.027 228.713C143.813 226.532 144.773 223.79 144.735 220.97C144.735 215.118 140.89 210.314 136.157 210.314C132.667 210.314 129.559 212.889 128.227 216.859C128.152 217.082 128.168 217.327 128.273 217.538C128.378 217.75 128.563 217.911 128.787 217.986C129.01 218.062 129.255 218.045 129.466 217.94C129.678 217.835 129.839 217.651 129.914 217.427C130.998 214.186 133.466 212.099 136.13 212.099C139.887 212.099 142.933 216.068 142.933 220.979C142.973 223.372 142.168 225.702 140.659 227.559C140.547 227.687 140.473 227.845 140.448 228.014C140.423 228.183 140.447 228.355 140.517 228.511C140.587 228.666 140.701 228.798 140.844 228.891C140.988 228.983 141.155 229.033 141.325 229.033L141.352 229.024Z" fill="#263238"/>
<g opacity="0.4">
<path d="M141.352 229.024C141.48 229.024 141.607 228.996 141.723 228.943C141.84 228.889 141.943 228.811 142.027 228.713C143.813 226.532 144.773 223.79 144.735 220.97C144.735 215.118 140.89 210.314 136.157 210.314C132.667 210.314 129.559 212.889 128.227 216.859C128.152 217.082 128.168 217.327 128.273 217.538C128.378 217.75 128.563 217.911 128.787 217.986C129.01 218.062 129.255 218.045 129.466 217.94C129.678 217.835 129.839 217.651 129.914 217.427C130.998 214.186 133.466 212.099 136.13 212.099C139.887 212.099 142.933 216.068 142.933 220.979C142.973 223.372 142.168 225.702 140.659 227.559C140.547 227.687 140.473 227.845 140.448 228.014C140.423 228.183 140.447 228.355 140.517 228.511C140.587 228.666 140.701 228.798 140.844 228.891C140.988 228.983 141.155 229.033 141.325 229.033L141.352 229.024Z" fill="white"/>
</g>
<path d="M121.825 228.127C121.916 228.6 122.139 229.038 122.469 229.388C122.8 229.739 123.223 229.989 123.689 230.108C124.156 230.227 124.647 230.212 125.105 230.062C125.563 229.913 125.969 229.637 126.276 229.266C126.583 228.894 126.778 228.443 126.838 227.965C126.899 227.487 126.822 227.002 126.617 226.566C126.412 226.13 126.087 225.762 125.68 225.504C125.273 225.245 124.802 225.108 124.32 225.108C123.592 225.184 122.922 225.543 122.456 226.108C121.989 226.672 121.763 227.397 121.825 228.127Z" fill="#263238"/>
<path d="M124.471 229.024C124.599 229.024 124.726 228.996 124.842 228.943C124.959 228.889 125.062 228.811 125.146 228.713C126.917 226.526 127.86 223.784 127.81 220.97C127.81 215.118 123.965 210.314 119.232 210.314C115.742 210.314 112.634 212.889 111.302 216.859C111.264 216.969 111.249 217.086 111.257 217.203C111.265 217.32 111.295 217.434 111.347 217.539C111.399 217.643 111.471 217.737 111.56 217.814C111.648 217.891 111.75 217.949 111.861 217.986C111.972 218.024 112.089 218.039 112.206 218.031C112.323 218.024 112.437 217.993 112.542 217.941C112.646 217.889 112.74 217.817 112.817 217.729C112.893 217.64 112.952 217.538 112.989 217.427C114.072 214.186 116.541 212.099 119.205 212.099C122.952 212.099 126.007 216.068 126.007 220.979C126.049 223.373 125.241 225.705 123.725 227.559C123.612 227.688 123.538 227.846 123.514 228.016C123.489 228.186 123.513 228.359 123.585 228.515C123.656 228.671 123.771 228.802 123.916 228.894C124.06 228.986 124.229 229.035 124.4 229.033L124.471 229.024Z" fill="#263238"/>
<g opacity="0.4">
<path d="M124.471 229.024C124.599 229.024 124.726 228.996 124.842 228.943C124.959 228.889 125.062 228.811 125.146 228.713C126.917 226.526 127.86 223.784 127.81 220.97C127.81 215.118 123.965 210.314 119.232 210.314C115.742 210.314 112.634 212.889 111.302 216.859C111.264 216.969 111.249 217.086 111.257 217.203C111.265 217.32 111.295 217.434 111.347 217.539C111.399 217.643 111.471 217.737 111.56 217.814C111.648 217.891 111.75 217.949 111.861 217.986C111.972 218.024 112.089 218.039 112.206 218.031C112.323 218.024 112.437 217.993 112.542 217.941C112.646 217.889 112.74 217.817 112.817 217.729C112.893 217.64 112.952 217.538 112.989 217.427C114.072 214.186 116.541 212.099 119.205 212.099C122.952 212.099 126.007 216.068 126.007 220.979C126.049 223.373 125.241 225.705 123.725 227.559C123.612 227.688 123.538 227.846 123.514 228.016C123.489 228.186 123.513 228.359 123.585 228.515C123.656 228.671 123.771 228.802 123.916 228.894C124.06 228.986 124.229 229.035 124.4 229.033L124.471 229.024Z" fill="white"/>
</g>
<path d="M104.944 228.127C105.035 228.6 105.258 229.038 105.589 229.388C105.919 229.739 106.342 229.989 106.809 230.108C107.275 230.227 107.766 230.212 108.224 230.062C108.682 229.913 109.089 229.637 109.395 229.266C109.702 228.894 109.897 228.443 109.958 227.965C110.018 227.487 109.941 227.002 109.736 226.566C109.531 226.13 109.206 225.762 108.799 225.504C108.393 225.245 107.921 225.108 107.439 225.108C106.711 225.184 106.041 225.543 105.575 226.108C105.108 226.672 104.882 227.397 104.944 228.127V228.127Z" fill="#263238"/>
<path d="M107.59 229.024C107.718 229.024 107.845 228.996 107.962 228.943C108.078 228.889 108.182 228.811 108.265 228.713C110.036 226.526 110.979 223.784 110.929 220.97C110.929 215.118 107.075 210.314 102.351 210.314C98.861 210.314 95.753 212.889 94.421 216.859C94.3743 216.971 94.3511 217.092 94.353 217.213C94.3549 217.335 94.3817 217.455 94.4319 217.566C94.4821 217.677 94.5545 217.776 94.6447 217.858C94.7349 217.939 94.8408 218.002 94.9561 218.041C95.0713 218.08 95.1934 218.095 95.3146 218.085C95.4359 218.074 95.5538 218.04 95.661 217.982C95.7682 217.924 95.8624 217.845 95.9378 217.75C96.0132 217.654 96.0682 217.544 96.0993 217.427C97.1827 214.186 99.6513 212.099 102.315 212.099C106.063 212.099 109.117 216.068 109.117 220.979C109.155 223.372 108.347 225.703 106.835 227.559C106.722 227.688 106.649 227.846 106.624 228.016C106.599 228.186 106.624 228.359 106.695 228.515C106.766 228.671 106.881 228.802 107.026 228.894C107.171 228.986 107.339 229.035 107.51 229.033L107.59 229.024Z" fill="#263238"/>
<g opacity="0.4">
<path d="M107.59 229.024C107.718 229.024 107.845 228.996 107.962 228.943C108.078 228.889 108.182 228.811 108.265 228.713C110.036 226.526 110.979 223.784 110.929 220.97C110.929 215.118 107.075 210.314 102.351 210.314C98.861 210.314 95.753 212.889 94.421 216.859C94.3743 216.971 94.3511 217.092 94.353 217.213C94.3549 217.335 94.3817 217.455 94.4319 217.566C94.4821 217.677 94.5545 217.776 94.6447 217.858C94.7349 217.939 94.8408 218.002 94.9561 218.041C95.0713 218.08 95.1934 218.095 95.3146 218.085C95.4359 218.074 95.5538 218.04 95.661 217.982C95.7682 217.924 95.8624 217.845 95.9378 217.75C96.0132 217.654 96.0682 217.544 96.0993 217.427C97.1827 214.186 99.6513 212.099 102.315 212.099C106.063 212.099 109.117 216.068 109.117 220.979C109.155 223.372 108.347 225.703 106.835 227.559C106.722 227.688 106.649 227.846 106.624 228.016C106.599 228.186 106.624 228.359 106.695 228.515C106.766 228.671 106.881 228.802 107.026 228.894C107.171 228.986 107.339 229.035 107.51 229.033L107.59 229.024Z" fill="white"/>
</g>
<path d="M88.063 228.127C88.063 229.797 89.1819 231.146 90.5494 231.146C91.253 231.014 91.8882 230.639 92.3451 230.088C92.8021 229.537 93.0522 228.843 93.0522 228.127C93.0522 227.411 92.8021 226.718 92.3451 226.166C91.8882 225.615 91.253 225.241 90.5494 225.108C89.1819 225.108 88.063 226.44 88.063 228.127Z" fill="#263238"/>
<path d="M90.7092 229.024C90.8375 229.024 90.9642 228.996 91.0807 228.943C91.1972 228.889 91.3007 228.811 91.3841 228.713C93.1514 226.524 94.0942 223.783 94.0481 220.97C94.0481 215.118 90.1942 210.314 85.47 210.314C81.9802 210.314 78.8633 212.889 77.5402 216.859C77.4934 216.971 77.4703 217.092 77.4722 217.213C77.474 217.335 77.5009 217.455 77.5511 217.566C77.6012 217.677 77.6737 217.776 77.7638 217.858C77.854 217.939 77.96 218.002 78.0752 218.041C78.1905 218.08 78.3125 218.095 78.4338 218.085C78.555 218.074 78.6729 218.04 78.7801 217.982C78.8873 217.924 78.9815 217.845 79.0569 217.75C79.1324 217.654 79.1873 217.544 79.2185 217.427C80.3018 214.186 82.7705 212.099 85.4345 212.099C89.1818 212.099 92.2366 216.068 92.2366 220.979C92.2742 223.372 91.466 225.703 89.9544 227.559C89.8767 227.647 89.8173 227.75 89.7797 227.861C89.7421 227.973 89.7269 228.091 89.7352 228.208C89.7435 228.325 89.7749 228.44 89.8278 228.545C89.8807 228.65 89.9539 228.743 90.0432 228.82C90.1347 228.897 90.2409 228.955 90.3553 228.99C90.4698 229.025 90.5901 229.037 90.7092 229.024Z" fill="#263238"/>
<g opacity="0.4">
<path d="M90.7092 229.024C90.8375 229.024 90.9642 228.996 91.0807 228.943C91.1972 228.889 91.3007 228.811 91.3841 228.713C93.1514 226.524 94.0942 223.783 94.0481 220.97C94.0481 215.118 90.1942 210.314 85.47 210.314C81.9802 210.314 78.8633 212.889 77.5402 216.859C77.4934 216.971 77.4703 217.092 77.4722 217.213C77.474 217.335 77.5009 217.455 77.5511 217.566C77.6012 217.677 77.6737 217.776 77.7638 217.858C77.854 217.939 77.96 218.002 78.0752 218.041C78.1905 218.08 78.3125 218.095 78.4338 218.085C78.555 218.074 78.6729 218.04 78.7801 217.982C78.8873 217.924 78.9815 217.845 79.0569 217.75C79.1324 217.654 79.1873 217.544 79.2185 217.427C80.3018 214.186 82.7705 212.099 85.4345 212.099C89.1818 212.099 92.2366 216.068 92.2366 220.979C92.2742 223.372 91.466 225.703 89.9544 227.559C89.8767 227.647 89.8173 227.75 89.7797 227.861C89.7421 227.973 89.7269 228.091 89.7352 228.208C89.7435 228.325 89.7749 228.44 89.8278 228.545C89.8807 228.65 89.9539 228.743 90.0432 228.82C90.1347 228.897 90.2409 228.955 90.3553 228.99C90.4698 229.025 90.5901 229.037 90.7092 229.024Z" fill="white"/>
</g>
<path d="M103.079 288.467H95.6376V301.156H103.079V288.467Z" fill="#FCCD06"/>
<path d="M115.129 279.231H107.688V301.156H115.129V279.231Z" fill="#FCCD06"/>
<path d="M127.188 282.695H119.747V301.156H127.188V282.695Z" fill="#FCCD06"/>
<path d="M139.247 273.459H131.806V301.156H139.247V273.459Z" fill="#FCCD06"/>
<path d="M151.297 264.225H143.856V301.157H151.297V264.225Z" fill="#FCCD06"/>
<path opacity="0.5" d="M103.079 288.467H95.6376V301.156H103.079V288.467Z" fill="white"/>
<path opacity="0.5" d="M115.129 279.231H107.688V301.156H115.129V279.231Z" fill="white"/>
<path opacity="0.5" d="M127.188 282.695H119.747V301.156H127.188V282.695Z" fill="white"/>
<path opacity="0.5" d="M139.247 273.459H131.806V301.156H139.247V273.459Z" fill="white"/>
<path opacity="0.5" d="M151.297 264.225H143.856V301.157H151.297V264.225Z" fill="white"/>
<path d="M161.225 299.398H85.4167V302.914H161.225V299.398Z" fill="#263238"/>
<path d="M88.6135 291.077L86.9796 289.017L111.293 269.668L123.325 276.647L155.808 248.959L157.513 250.957L123.619 279.862L111.533 272.847L88.6135 291.077Z" fill="#FCCD06"/>
<path d="M158.597 248.329L153.66 249.093L157.141 252.805L158.597 248.329Z" fill="#FCCD06"/>
<g opacity="0.3">
<path d="M128.405 314.352H85.5056C85.27 314.352 85.0442 314.259 84.8776 314.092C84.7111 313.926 84.6176 313.7 84.6176 313.464C84.6176 313.229 84.7111 313.003 84.8776 312.836C85.0442 312.67 85.27 312.576 85.5056 312.576H128.405C128.64 312.576 128.866 312.67 129.033 312.836C129.199 313.003 129.293 313.229 129.293 313.464C129.293 313.7 129.199 313.926 129.033 314.092C128.866 314.259 128.64 314.352 128.405 314.352Z" fill="black"/>
</g>
<g opacity="0.3">
<path d="M161.545 322.264H91.6328C91.3972 322.264 91.1714 322.171 91.0048 322.004C90.8383 321.838 90.7448 321.612 90.7448 321.376C90.7448 321.141 90.8383 320.915 91.0048 320.748C91.1714 320.582 91.3972 320.488 91.6328 320.488H161.545C161.78 320.488 162.006 320.582 162.173 320.748C162.339 320.915 162.433 321.141 162.433 321.376C162.433 321.612 162.339 321.838 162.173 322.004C162.006 322.171 161.78 322.264 161.545 322.264V322.264Z" fill="black"/>
<path d="M161.616 326.713H85.5056C85.27 326.713 85.0442 326.619 84.8776 326.453C84.7111 326.286 84.6176 326.061 84.6176 325.825C84.6176 325.589 84.7111 325.364 84.8776 325.197C85.0442 325.031 85.27 324.937 85.5056 324.937H161.616C161.852 324.937 162.077 325.031 162.244 325.197C162.41 325.364 162.504 325.589 162.504 325.825C162.504 326.061 162.41 326.286 162.244 326.453C162.077 326.619 161.852 326.713 161.616 326.713Z" fill="black"/>
<path d="M161.74 331.162H85.6032C85.3677 331.162 85.1418 331.069 84.9753 330.902C84.8088 330.736 84.7152 330.51 84.7152 330.274C84.7152 330.039 84.8088 329.813 84.9753 329.646C85.1418 329.48 85.3677 329.386 85.6032 329.386H161.74C161.976 329.386 162.202 329.48 162.368 329.646C162.535 329.813 162.628 330.039 162.628 330.274C162.628 330.51 162.535 330.736 162.368 330.902C162.202 331.069 161.976 331.162 161.74 331.162Z" fill="black"/>
<path d="M149.397 335.611H85.7009C85.4654 335.611 85.2395 335.517 85.073 335.351C84.9064 335.184 84.8129 334.958 84.8129 334.723C84.8129 334.487 84.9064 334.262 85.073 334.095C85.2395 333.929 85.4654 333.835 85.7009 333.835H149.397C149.633 333.835 149.858 333.929 150.025 334.095C150.192 334.262 150.285 334.487 150.285 334.723C150.285 334.958 150.192 335.184 150.025 335.351C149.858 335.517 149.633 335.611 149.397 335.611Z" fill="black"/>
</g>
<g opacity="0.3">
<path d="M161.545 343.594H91.6328C91.3972 343.594 91.1714 343.5 91.0048 343.334C90.8383 343.167 90.7448 342.941 90.7448 342.706C90.7448 342.47 90.8383 342.245 91.0048 342.078C91.1714 341.911 91.3972 341.818 91.6328 341.818H161.545C161.78 341.818 162.006 341.911 162.173 342.078C162.339 342.245 162.433 342.47 162.433 342.706C162.433 342.941 162.339 343.167 162.173 343.334C162.006 343.5 161.78 343.594 161.545 343.594V343.594Z" fill="black"/>
<path d="M161.616 348.043H85.5056C85.27 348.043 85.0442 347.949 84.8776 347.782C84.7111 347.616 84.6176 347.39 84.6176 347.155C84.6176 346.919 84.7111 346.693 84.8776 346.527C85.0442 346.36 85.27 346.267 85.5056 346.267H161.616C161.852 346.267 162.077 346.36 162.244 346.527C162.41 346.693 162.504 346.919 162.504 347.155C162.504 347.39 162.41 347.616 162.244 347.782C162.077 347.949 161.852 348.043 161.616 348.043Z" fill="black"/>
<path d="M161.74 352.536H85.6032C85.3677 352.536 85.1418 352.443 84.9753 352.276C84.8088 352.11 84.7152 351.884 84.7152 351.648C84.7152 351.413 84.8088 351.187 84.9753 351.02C85.1418 350.854 85.3677 350.76 85.6032 350.76H161.74C161.976 350.76 162.202 350.854 162.368 351.02C162.535 351.187 162.628 351.413 162.628 351.648C162.628 351.884 162.535 352.11 162.368 352.276C162.202 352.443 161.976 352.536 161.74 352.536Z" fill="black"/>
<path d="M149.397 356.976H85.7009C85.4654 356.976 85.2395 356.883 85.073 356.716C84.9064 356.55 84.8129 356.324 84.8129 356.088C84.8129 355.853 84.9064 355.627 85.073 355.46C85.2395 355.294 85.4654 355.2 85.7009 355.2H149.397C149.633 355.2 149.858 355.294 150.025 355.46C150.192 355.627 150.285 355.853 150.285 356.088C150.285 356.324 150.192 356.55 150.025 356.716C149.858 356.883 149.633 356.976 149.397 356.976Z" fill="black"/>
</g>
<g opacity="0.3">
<path d="M128.405 240.577H85.5056C85.27 240.577 85.0442 240.483 84.8776 240.317C84.7111 240.15 84.6176 239.924 84.6176 239.689C84.6176 239.453 84.7111 239.227 84.8776 239.061C85.0442 238.894 85.27 238.801 85.5056 238.801H128.405C128.64 238.801 128.866 238.894 129.033 239.061C129.199 239.227 129.293 239.453 129.293 239.689C129.293 239.924 129.199 240.15 129.033 240.317C128.866 240.483 128.64 240.577 128.405 240.577Z" fill="black"/>
</g>
<path d="M364.471 152.062H262.502C260.805 152.062 259.429 153.437 259.429 155.134V323.588C259.429 325.284 260.805 326.66 262.502 326.66H364.471C366.168 326.66 367.543 325.284 367.543 323.588V155.134C367.543 153.437 366.168 152.062 364.471 152.062Z" fill="#FCCD06"/>
<path d="M284.906 151.227H342.075C342.226 151.227 342.371 151.287 342.477 151.393C342.584 151.5 342.644 151.644 342.644 151.795V157.514H284.329V151.795C284.329 151.72 284.344 151.645 284.373 151.575C284.402 151.506 284.444 151.443 284.498 151.39C284.552 151.337 284.616 151.295 284.686 151.267C284.756 151.239 284.83 151.225 284.906 151.227V151.227Z" fill="#263238"/>
<path opacity="0.9" d="M363.272 157.514H263.709V321.181H363.272V157.514Z" fill="white"/>
<path d="M333 165.044H315.497L315.293 164.431C315.169 164.052 314.929 163.721 314.606 163.487C314.283 163.252 313.894 163.126 313.495 163.126C313.096 163.126 312.707 163.252 312.384 163.487C312.061 163.721 311.821 164.052 311.697 164.431L311.493 165.044H293.972C293.293 165.044 292.642 164.775 292.161 164.295C291.68 163.816 291.408 163.165 291.406 162.486V156.039C291.411 155.361 291.683 154.712 292.163 154.233C292.644 153.754 293.294 153.484 293.972 153.482H333.044C333.722 153.484 334.371 153.754 334.85 154.234C335.329 154.713 335.599 155.362 335.602 156.039V162.504C335.599 162.842 335.53 163.176 335.398 163.488C335.265 163.799 335.073 164.081 334.831 164.317C334.589 164.553 334.302 164.739 333.988 164.864C333.674 164.988 333.338 165.05 333 165.044V165.044ZM316.714 163.268H333C333.103 163.269 333.205 163.249 333.3 163.211C333.396 163.172 333.482 163.114 333.555 163.041C333.628 162.969 333.685 162.882 333.724 162.787C333.763 162.691 333.783 162.589 333.781 162.486V156.039C333.781 155.832 333.699 155.633 333.552 155.487C333.406 155.34 333.207 155.258 333 155.258H293.928C293.825 155.257 293.722 155.276 293.626 155.315C293.53 155.354 293.443 155.411 293.37 155.484C293.296 155.556 293.238 155.643 293.198 155.738C293.158 155.834 293.138 155.936 293.138 156.039V162.504C293.138 162.607 293.158 162.71 293.198 162.805C293.238 162.901 293.296 162.987 293.37 163.06C293.443 163.132 293.53 163.19 293.626 163.229C293.722 163.267 293.825 163.287 293.928 163.285H310.267C310.581 162.703 311.047 162.216 311.615 161.877C312.184 161.538 312.833 161.359 313.495 161.359C314.157 161.359 314.806 161.538 315.375 161.877C315.943 162.216 316.409 162.703 316.723 163.285L316.714 163.268Z" fill="#263238"/>
<g opacity="0.5">
<path d="M333 165.044H315.497L315.293 164.431C315.169 164.052 314.929 163.721 314.606 163.487C314.283 163.252 313.894 163.126 313.495 163.126C313.096 163.126 312.707 163.252 312.384 163.487C312.061 163.721 311.821 164.052 311.697 164.431L311.493 165.044H293.972C293.293 165.044 292.642 164.775 292.161 164.295C291.68 163.816 291.408 163.165 291.406 162.486V156.039C291.411 155.361 291.683 154.712 292.163 154.233C292.644 153.754 293.294 153.484 293.972 153.482H333.044C333.722 153.484 334.371 153.754 334.85 154.234C335.329 154.713 335.599 155.362 335.602 156.039V162.504C335.599 162.842 335.53 163.176 335.398 163.488C335.265 163.799 335.073 164.081 334.831 164.317C334.589 164.553 334.302 164.739 333.988 164.864C333.674 164.988 333.338 165.05 333 165.044V165.044ZM316.714 163.268H333C333.103 163.269 333.205 163.249 333.3 163.211C333.396 163.172 333.482 163.114 333.555 163.041C333.628 162.969 333.685 162.882 333.724 162.787C333.763 162.691 333.783 162.589 333.781 162.486V156.039C333.781 155.832 333.699 155.633 333.552 155.487C333.406 155.34 333.207 155.258 333 155.258H293.928C293.825 155.257 293.722 155.276 293.626 155.315C293.53 155.354 293.443 155.411 293.37 155.484C293.296 155.556 293.238 155.643 293.198 155.738C293.158 155.834 293.138 155.936 293.138 156.039V162.504C293.138 162.607 293.158 162.71 293.198 162.805C293.238 162.901 293.296 162.987 293.37 163.06C293.443 163.132 293.53 163.19 293.626 163.229C293.722 163.267 293.825 163.287 293.928 163.285H310.267C310.581 162.703 311.047 162.216 311.615 161.877C312.184 161.538 312.833 161.359 313.495 161.359C314.157 161.359 314.806 161.538 315.375 161.877C315.943 162.216 316.409 162.703 316.723 163.285L316.714 163.268Z" fill="white"/>
</g>
<path d="M330.265 152.452H296.716C296.231 152.452 295.837 152.846 295.837 153.331V155.436C295.837 155.921 296.231 156.315 296.716 156.315H330.265C330.75 156.315 331.144 155.921 331.144 155.436V153.331C331.144 152.846 330.75 152.452 330.265 152.452Z" fill="#263238"/>
<path opacity="0.2" d="M330.265 152.452H296.716C296.231 152.452 295.837 152.846 295.837 153.331V155.436C295.837 155.921 296.231 156.315 296.716 156.315H330.265C330.75 156.315 331.144 155.921 331.144 155.436V153.331C331.144 152.846 330.75 152.452 330.265 152.452Z" fill="white"/>
<path d="M355.485 294.627C357.883 284.469 351.592 274.292 341.435 271.895C331.278 269.497 321.1 275.788 318.703 285.945C316.305 296.102 322.596 306.28 332.753 308.677C342.911 311.075 353.088 304.784 355.485 294.627Z" fill="#FCCD06"/>
<path opacity="0.3" d="M337.102 290.305H355.999C355.999 294.043 354.891 297.696 352.814 300.804C350.738 303.911 347.787 306.333 344.334 307.764C340.881 309.194 337.081 309.568 333.416 308.839C329.75 308.11 326.383 306.31 323.74 303.667C321.098 301.025 319.298 297.657 318.569 293.992C317.84 290.326 318.214 286.527 319.644 283.074C321.074 279.621 323.496 276.67 326.604 274.593C329.712 272.517 333.365 271.409 337.102 271.409H337.174L337.102 290.305Z" fill="white"/>
<path opacity="0.3" d="M337.103 290.305L347.297 306.209C344.825 307.795 342.018 308.783 339.099 309.095C336.179 309.407 333.227 309.034 330.476 308.006C327.726 306.978 325.252 305.323 323.253 303.173C321.253 301.022 319.783 298.435 318.957 295.618C318.132 292.8 317.974 289.828 318.497 286.939C319.021 284.049 320.21 281.321 321.971 278.972C323.732 276.622 326.017 274.715 328.643 273.402C331.27 272.09 334.166 271.407 337.103 271.409H337.165L337.103 290.305Z" fill="white"/>
<path opacity="0.3" d="M337.103 290.305L321.172 300.464C319.351 297.608 318.331 294.315 318.219 290.929C318.107 287.544 318.908 284.191 320.536 281.22C322.165 278.25 324.562 275.773 327.476 274.046C330.39 272.32 333.715 271.409 337.103 271.409H337.165L337.103 290.305Z" fill="white"/>
<g opacity="0.5">
<path d="M270.884 186.827V231.422H356.132V186.827H270.884ZM355.431 193.789H340.681V187.493H355.431V193.789ZM308.322 193.789H293.138V187.493H308.322V193.789ZM308.988 187.493H324.164V193.789H309.024L308.988 187.493ZM308.322 194.455V230.756H293.138V194.472L308.322 194.455ZM308.988 194.455H324.164V230.756H309.024L308.988 194.455ZM324.83 194.455H340.015V230.756H324.83V194.455ZM324.83 193.789V187.493H340.015V193.789H324.83ZM292.472 187.493V193.789H271.55V187.493H292.472ZM271.55 194.472H292.472V230.774H271.55V194.472ZM340.681 230.774V194.472H355.431V230.774H340.681Z" fill="black"/>
<path d="M297.977 200.688H304.122C304.358 200.688 304.583 200.595 304.75 200.428C304.917 200.261 305.01 200.036 305.01 199.8C305.01 199.565 304.917 199.339 304.75 199.172C304.583 199.006 304.358 198.912 304.122 198.912H297.977C297.742 198.912 297.516 199.006 297.349 199.172C297.183 199.339 297.089 199.565 297.089 199.8C297.089 200.036 297.183 200.261 297.349 200.428C297.516 200.595 297.742 200.688 297.977 200.688Z" fill="black"/>
<path d="M313.464 208.742H320.133C320.368 208.742 320.594 208.649 320.761 208.482C320.927 208.316 321.021 208.09 321.021 207.854C321.021 207.619 320.927 207.393 320.761 207.226C320.594 207.06 320.368 206.966 320.133 206.966H313.464C313.228 206.966 313.003 207.06 312.836 207.226C312.669 207.393 312.576 207.619 312.576 207.854C312.576 208.09 312.669 208.316 312.836 208.482C313.003 208.649 313.228 208.742 313.464 208.742Z" fill="black"/>
<path d="M320.452 223.083H313.464C313.228 223.083 313.003 223.177 312.836 223.344C312.669 223.51 312.576 223.736 312.576 223.971C312.576 224.207 312.669 224.433 312.836 224.599C313.003 224.766 313.228 224.859 313.464 224.859H320.426C320.661 224.859 320.887 224.766 321.054 224.599C321.22 224.433 321.314 224.207 321.314 223.971C321.314 223.736 321.22 223.51 321.054 223.344C320.887 223.177 320.661 223.083 320.426 223.083H320.452Z" fill="black"/>
<path d="M335.904 215.021H328.56C328.324 215.021 328.099 215.114 327.932 215.281C327.765 215.447 327.672 215.673 327.672 215.909C327.672 216.144 327.765 216.37 327.932 216.536C328.099 216.703 328.324 216.797 328.56 216.797H335.921C336.157 216.797 336.383 216.703 336.549 216.536C336.716 216.37 336.809 216.144 336.809 215.909C336.809 215.673 336.716 215.447 336.549 215.281C336.383 215.114 336.157 215.021 335.921 215.021H335.904Z" fill="black"/>
<path d="M351.79 198.912H344.331C344.095 198.912 343.869 199.006 343.703 199.172C343.536 199.339 343.443 199.565 343.443 199.8C343.443 200.036 343.536 200.261 343.703 200.428C343.869 200.595 344.095 200.688 344.331 200.688H351.79C352.026 200.688 352.251 200.595 352.418 200.428C352.584 200.261 352.678 200.036 352.678 199.8C352.678 199.565 352.584 199.339 352.418 199.172C352.251 199.006 352.026 198.912 351.79 198.912Z" fill="black"/>
<path d="M350.831 223.083H344.331C344.095 223.083 343.869 223.177 343.703 223.344C343.536 223.51 343.443 223.736 343.443 223.971C343.443 224.207 343.536 224.433 343.703 224.599C343.869 224.766 344.095 224.859 344.331 224.859H350.831C351.067 224.859 351.292 224.766 351.459 224.599C351.625 224.433 351.719 224.207 351.719 223.971C351.719 223.736 351.625 223.51 351.459 223.344C351.292 223.177 351.067 223.083 350.831 223.083Z" fill="black"/>
<path d="M297.977 216.797H303.243C303.478 216.797 303.704 216.703 303.871 216.536C304.037 216.37 304.131 216.144 304.131 215.909C304.131 215.673 304.037 215.447 303.871 215.281C303.704 215.114 303.478 215.021 303.243 215.021H297.977C297.742 215.021 297.516 215.114 297.349 215.281C297.183 215.447 297.089 215.673 297.089 215.909C297.089 216.144 297.183 216.37 297.349 216.536C297.516 216.703 297.742 216.797 297.977 216.797Z" fill="black"/>
<path d="M304.122 223.083H297.977C297.742 223.083 297.516 223.177 297.349 223.344C297.183 223.51 297.089 223.736 297.089 223.971C297.089 224.207 297.183 224.433 297.349 224.599C297.516 224.766 297.742 224.859 297.977 224.859H304.122C304.358 224.859 304.583 224.766 304.75 224.599C304.917 224.433 305.01 224.207 305.01 223.971C305.01 223.736 304.917 223.51 304.75 223.344C304.583 223.177 304.358 223.083 304.122 223.083Z" fill="black"/>
<path d="M274.756 200.688H288.804C289.04 200.688 289.265 200.595 289.432 200.428C289.599 200.261 289.692 200.036 289.692 199.8C289.692 199.565 289.599 199.339 289.432 199.172C289.265 199.006 289.04 198.912 288.804 198.912H274.756C274.52 198.912 274.295 199.006 274.128 199.172C273.961 199.339 273.868 199.565 273.868 199.8C273.868 200.036 273.961 200.261 274.128 200.428C274.295 200.595 274.52 200.688 274.756 200.688Z" fill="black"/>
<path d="M274.756 208.742H284.107C284.342 208.742 284.568 208.649 284.734 208.482C284.901 208.316 284.995 208.09 284.995 207.854C284.995 207.619 284.901 207.393 284.734 207.226C284.568 207.06 284.342 206.966 284.107 206.966H274.756C274.52 206.966 274.295 207.06 274.128 207.226C273.961 207.393 273.868 207.619 273.868 207.854C273.868 208.09 273.961 208.316 274.128 208.482C274.295 208.649 274.52 208.742 274.756 208.742Z" fill="black"/>
<path d="M288.804 215.021H274.756C274.52 215.021 274.295 215.114 274.128 215.281C273.961 215.447 273.868 215.673 273.868 215.909C273.868 216.144 273.961 216.37 274.128 216.536C274.295 216.703 274.52 216.797 274.756 216.797H288.804C289.04 216.797 289.265 216.703 289.432 216.536C289.599 216.37 289.692 216.144 289.692 215.909C289.692 215.673 289.599 215.447 289.432 215.281C289.265 215.114 289.04 215.021 288.804 215.021Z" fill="black"/>
<path d="M281.78 223.083H274.756C274.52 223.083 274.295 223.177 274.128 223.344C273.961 223.51 273.868 223.736 273.868 223.971C273.868 224.207 273.961 224.433 274.128 224.599C274.295 224.766 274.52 224.859 274.756 224.859H281.78C282.016 224.859 282.241 224.766 282.408 224.599C282.574 224.433 282.668 224.207 282.668 223.971C282.668 223.736 282.574 223.51 282.408 223.344C282.241 223.177 282.016 223.083 281.78 223.083Z" fill="black"/>
</g>
<g opacity="0.5">
<path d="M305.019 177.476H271.772C271.537 177.476 271.311 177.382 271.144 177.216C270.978 177.049 270.884 176.823 270.884 176.588C270.884 176.352 270.978 176.126 271.144 175.96C271.311 175.793 271.537 175.7 271.772 175.7H305.019C305.255 175.7 305.48 175.793 305.647 175.96C305.813 176.126 305.907 176.352 305.907 176.588C305.907 176.823 305.813 177.049 305.647 177.216C305.48 177.382 305.255 177.476 305.019 177.476Z" fill="black"/>
</g>
<g opacity="0.5">
<path d="M293.36 182.458H271.772C271.537 182.458 271.311 182.364 271.144 182.198C270.978 182.031 270.884 181.805 270.884 181.57C270.884 181.334 270.978 181.108 271.144 180.942C271.311 180.775 271.537 180.682 271.772 180.682H293.36C293.595 180.682 293.821 180.775 293.987 180.942C294.154 181.108 294.248 181.334 294.248 181.57C294.248 181.805 294.154 182.031 293.987 182.198C293.821 182.364 293.595 182.458 293.36 182.458Z" fill="black"/>
</g>
<g opacity="0.5">
<path d="M314.672 239.121H271.772C271.537 239.121 271.311 239.027 271.144 238.861C270.978 238.694 270.884 238.468 270.884 238.233C270.884 237.997 270.978 237.771 271.144 237.605C271.311 237.438 271.537 237.345 271.772 237.345H314.672C314.907 237.345 315.133 237.438 315.299 237.605C315.466 237.771 315.56 237.997 315.56 238.233C315.56 238.468 315.466 238.694 315.299 238.861C315.133 239.027 314.907 239.121 314.672 239.121Z" fill="black"/>
</g>
<path d="M276.186 274.321H270.884V279.623H276.186V274.321Z" fill="#FCCD06"/>
<g opacity="0.5">
<path d="M306.36 277.864H280.04C279.804 277.864 279.578 277.771 279.412 277.604C279.245 277.438 279.152 277.212 279.152 276.976C279.152 276.741 279.245 276.515 279.412 276.348C279.578 276.182 279.804 276.088 280.04 276.088H306.36C306.595 276.088 306.821 276.182 306.988 276.348C307.154 276.515 307.248 276.741 307.248 276.976C307.248 277.212 307.154 277.438 306.988 277.604C306.821 277.771 306.595 277.864 306.36 277.864Z" fill="black"/>
</g>
<path d="M276.186 283.21H270.884V288.511H276.186V283.21Z" fill="#FCCD06"/>
<g opacity="0.5">
<path d="M306.36 286.744H280.04C279.804 286.744 279.578 286.651 279.412 286.484C279.245 286.318 279.152 286.092 279.152 285.856C279.152 285.621 279.245 285.395 279.412 285.228C279.578 285.062 279.804 284.968 280.04 284.968H306.36C306.595 284.968 306.821 285.062 306.988 285.228C307.154 285.395 307.248 285.621 307.248 285.856C307.248 286.092 307.154 286.318 306.988 286.484C306.821 286.651 306.595 286.744 306.36 286.744Z" fill="black"/>
</g>
<path d="M276.186 292.09H270.884V297.391H276.186V292.09Z" fill="#FCCD06"/>
<g opacity="0.5">
<path d="M306.36 295.633H280.04C279.804 295.633 279.578 295.54 279.412 295.373C279.245 295.207 279.152 294.981 279.152 294.745C279.152 294.51 279.245 294.284 279.412 294.117C279.578 293.951 279.804 293.857 280.04 293.857H306.36C306.595 293.857 306.821 293.951 306.988 294.117C307.154 294.284 307.248 294.51 307.248 294.745C307.248 294.981 307.154 295.207 306.988 295.373C306.821 295.54 306.595 295.633 306.36 295.633Z" fill="black"/>
</g>
<path d="M276.186 300.979H270.884V306.28H276.186V300.979Z" fill="#FCCD06"/>
<g opacity="0.5">
<path d="M306.36 304.522H280.04C279.804 304.522 279.578 304.429 279.412 304.262C279.245 304.095 279.152 303.87 279.152 303.634C279.152 303.399 279.245 303.173 279.412 303.006C279.578 302.84 279.804 302.746 280.04 302.746H306.36C306.595 302.746 306.821 302.84 306.988 303.006C307.154 303.173 307.248 303.399 307.248 303.634C307.248 303.87 307.154 304.095 306.988 304.262C306.821 304.429 306.595 304.522 306.36 304.522Z" fill="black"/>
</g>
<g opacity="0.5">
<path d="M354.916 247.06H277.891C277.655 247.06 277.429 246.966 277.263 246.8C277.096 246.633 277.003 246.407 277.003 246.172C277.003 245.936 277.096 245.71 277.263 245.544C277.429 245.377 277.655 245.284 277.891 245.284H354.916C355.151 245.284 355.377 245.377 355.544 245.544C355.71 245.71 355.804 245.936 355.804 246.172C355.804 246.407 355.71 246.633 355.544 246.8C355.377 246.966 355.151 247.06 354.916 247.06Z" fill="black"/>
<path d="M355.013 251.508H271.772C271.537 251.508 271.311 251.415 271.144 251.248C270.978 251.082 270.884 250.856 270.884 250.62C270.884 250.385 270.978 250.159 271.144 249.992C271.311 249.826 271.537 249.732 271.772 249.732H355.013C355.249 249.732 355.475 249.826 355.641 249.992C355.808 250.159 355.901 250.385 355.901 250.62C355.901 250.856 355.808 251.082 355.641 251.248C355.475 251.415 355.249 251.508 355.013 251.508Z" fill="black"/>
<path d="M355.111 255.958H271.87C271.634 255.958 271.409 255.864 271.242 255.698C271.075 255.531 270.982 255.305 270.982 255.07C270.982 254.834 271.075 254.608 271.242 254.442C271.409 254.275 271.634 254.182 271.87 254.182H355.111C355.347 254.182 355.572 254.275 355.739 254.442C355.906 254.608 355.999 254.834 355.999 255.07C355.999 255.305 355.906 255.531 355.739 255.698C355.572 255.864 355.347 255.958 355.111 255.958Z" fill="black"/>
<path d="M342.768 260.406H271.968C271.732 260.406 271.506 260.313 271.34 260.146C271.173 259.98 271.08 259.754 271.08 259.518C271.08 259.283 271.173 259.057 271.34 258.89C271.506 258.724 271.732 258.63 271.968 258.63H342.768C343.003 258.63 343.229 258.724 343.396 258.89C343.562 259.057 343.656 259.283 343.656 259.518C343.656 259.754 343.562 259.98 343.396 260.146C343.229 260.313 343.003 260.406 342.768 260.406Z" fill="black"/>
</g>
<path opacity="0.3" d="M276.186 283.21H270.884V288.511H276.186V283.21Z" fill="white"/>
<path opacity="0.5" d="M276.186 292.09H270.884V297.391H276.186V292.09Z" fill="white"/>
<path opacity="0.7" d="M276.186 300.979H270.884V306.28H276.186V300.979Z" fill="white"/>
<path d="M361.78 349.206C361.78 349.206 357.562 340.006 362.384 330.931C367.206 321.856 368.6 319.724 365.527 317.869C362.455 316.013 361.043 325.123 361.043 325.123C359.523 321.001 359.368 316.5 360.599 312.283C362.73 305.721 364.071 295.029 361.158 293.884C358.246 292.738 360.599 307.204 358.059 312.159C356.771 308.69 355.939 305.07 355.582 301.387C355.236 296.121 355.777 287.703 353.477 285.545C351.177 283.387 349.694 284.879 351.959 296.512C353.32 303.463 354.072 310.52 354.205 317.602C354.205 317.602 349.206 302.337 345.84 301.893C342.475 301.449 342.484 306.396 345.361 310.685C348.238 314.974 353.788 322.646 354.694 326.598C354.694 326.598 349.197 315.116 344.26 318.606C339.323 322.095 348.558 329.066 352.678 331.57C356.798 334.075 359.64 349.819 359.64 349.819L361.78 349.206Z" fill="#FCCD06"/>
<path opacity="0.2" d="M361.78 349.206C361.78 349.206 357.562 340.006 362.384 330.931C367.206 321.856 368.6 319.724 365.527 317.869C362.455 316.013 361.043 325.123 361.043 325.123C359.523 321.001 359.368 316.5 360.599 312.283C362.73 305.721 364.071 295.029 361.158 293.884C358.246 292.738 360.599 307.204 358.059 312.159C356.771 308.69 355.939 305.07 355.582 301.387C355.236 296.121 355.777 287.703 353.477 285.545C351.177 283.387 349.694 284.879 351.959 296.512C353.32 303.463 354.072 310.52 354.205 317.602C354.205 317.602 349.206 302.337 345.84 301.893C342.475 301.449 342.484 306.396 345.361 310.685C348.238 314.974 353.788 322.646 354.694 326.598C354.694 326.598 349.197 315.116 344.26 318.606C339.323 322.095 348.558 329.066 352.678 331.57C356.798 334.075 359.64 349.819 359.64 349.819L361.78 349.206Z" fill="black"/>
<path d="M358.45 352.98C358.45 352.98 362.561 343.718 357.633 334.723C352.705 325.727 351.284 323.605 354.33 321.696C357.376 319.787 358.903 328.889 358.903 328.889C360.374 324.751 360.477 320.249 359.196 316.048C356.985 309.513 355.511 298.848 358.414 297.658C361.318 296.468 359.134 310.978 361.727 315.879C362.975 312.397 363.766 308.767 364.08 305.081C364.364 299.798 363.716 291.388 365.998 289.195C368.28 287.002 369.772 288.476 367.641 300.144C366.365 307.115 365.699 314.183 365.652 321.27C365.652 321.27 370.474 305.934 373.848 305.472C377.222 305.01 377.258 309.912 374.434 314.246C371.61 318.579 366.158 326.34 365.296 330.301C365.296 330.301 370.625 318.757 375.633 322.184C380.641 325.612 371.459 332.707 367.374 335.273C363.29 337.84 360.608 353.593 360.608 353.593L358.45 352.98Z" fill="#FCCD06"/>
<path d="M377.4 346.382H343.469L346.213 370.66H374.647L377.4 346.382Z" fill="#263238"/>
<path d="M172.503 138.146H198.024C200.106 138.146 202.103 138.973 203.575 140.445C205.047 141.917 205.874 143.914 205.874 145.996V168.196C205.874 170.278 205.047 172.275 203.575 173.747C202.103 175.219 200.106 176.046 198.024 176.046H190.565L193.229 185.725L185.237 176.046H172.503C171.471 176.047 170.45 175.845 169.496 175.451C168.543 175.057 167.676 174.479 166.946 173.75C166.216 173.021 165.637 172.155 165.242 171.202C164.847 170.249 164.644 169.228 164.644 168.196V145.996C164.644 144.964 164.847 143.943 165.242 142.99C165.637 142.037 166.216 141.171 166.946 140.442C167.676 139.713 168.543 139.135 169.496 138.741C170.45 138.347 171.471 138.145 172.503 138.146V138.146Z" fill="#FCCD06"/>
<path opacity="0.7" d="M172.503 138.146H198.024C200.106 138.146 202.103 138.973 203.575 140.445C205.047 141.917 205.874 143.914 205.874 145.996V168.196C205.874 170.278 205.047 172.275 203.575 173.747C202.103 175.219 200.106 176.046 198.024 176.046H190.565L193.229 185.725L185.237 176.046H172.503C171.471 176.047 170.45 175.845 169.496 175.451C168.543 175.057 167.676 174.479 166.946 173.75C166.216 173.021 165.637 172.155 165.242 171.202C164.847 170.249 164.644 169.228 164.644 168.196V145.996C164.644 144.964 164.847 143.943 165.242 142.99C165.637 142.037 166.216 141.171 166.946 140.442C167.676 139.713 168.543 139.135 169.496 138.741C170.45 138.347 171.471 138.145 172.503 138.146V138.146Z" fill="white"/>
<path opacity="0.7" d="M181.401 161.936C185.79 161.936 189.348 158.377 189.348 153.988C189.348 149.599 185.79 146.041 181.401 146.041C177.011 146.041 173.453 149.599 173.453 153.988C173.453 158.377 177.011 161.936 181.401 161.936Z" fill="white"/>
<path d="M181.401 163.081C179.297 163.08 177.259 162.349 175.634 161.013C174.009 159.678 172.898 157.82 172.489 155.757C172.08 153.694 172.398 151.552 173.391 149.698C174.383 147.843 175.988 146.39 177.931 145.586C179.875 144.782 182.037 144.676 184.05 145.287C186.062 145.898 187.801 147.188 188.969 148.937C190.138 150.686 190.664 152.786 190.457 154.88C190.251 156.973 189.326 158.93 187.839 160.417C186.994 161.264 185.99 161.935 184.885 162.392C183.781 162.849 182.596 163.083 181.401 163.081V163.081ZM181.401 147.195C179.829 147.195 178.306 147.74 177.091 148.738C175.877 149.735 175.045 151.122 174.739 152.664C174.432 154.205 174.67 155.805 175.411 157.191C176.152 158.577 177.351 159.663 178.803 160.265C180.255 160.866 181.871 160.945 183.375 160.489C184.878 160.032 186.178 159.068 187.051 157.762C187.924 156.455 188.316 154.885 188.162 153.321C188.008 151.757 187.316 150.295 186.205 149.184C185.575 148.551 184.827 148.049 184.002 147.708C183.177 147.366 182.293 147.192 181.401 147.195V147.195Z" fill="#FCCD06"/>
<path d="M187.841 158.792L186.208 160.424L195.269 169.485L196.902 167.853L187.841 158.792Z" fill="#FCCD06"/>
<path d="M197.056 171.384C196.597 171.379 196.158 171.198 195.831 170.877L188.913 163.96C188.74 163.802 188.601 163.611 188.504 163.399C188.407 163.186 188.354 162.956 188.349 162.722C188.343 162.488 188.385 162.256 188.471 162.038C188.558 161.821 188.688 161.624 188.853 161.458C189.018 161.292 189.215 161.162 189.432 161.074C189.649 160.987 189.881 160.944 190.115 160.949C190.349 160.954 190.579 161.006 190.792 161.102C191.005 161.198 191.197 161.337 191.355 161.509L198.281 168.435C198.521 168.678 198.684 168.986 198.749 169.321C198.814 169.655 198.779 170.002 198.648 170.317C198.517 170.632 198.296 170.901 198.013 171.091C197.73 171.28 197.397 171.382 197.056 171.384V171.384Z" fill="#FCCD06"/>
<path d="M182.635 150.392C182.635 150.743 182.531 151.086 182.336 151.378C182.14 151.67 181.863 151.898 181.539 152.033C181.214 152.167 180.857 152.202 180.512 152.134C180.168 152.065 179.851 151.896 179.603 151.648C179.355 151.399 179.186 151.083 179.117 150.738C179.048 150.394 179.084 150.037 179.218 149.712C179.352 149.388 179.58 149.11 179.872 148.915C180.164 148.72 180.508 148.616 180.859 148.616C181.33 148.616 181.782 148.803 182.115 149.136C182.448 149.469 182.635 149.921 182.635 150.392Z" fill="white"/>
<path d="M185.272 151.688C185.272 151.863 185.22 152.035 185.123 152.181C185.025 152.327 184.886 152.441 184.724 152.508C184.562 152.575 184.383 152.593 184.211 152.559C184.039 152.524 183.88 152.44 183.756 152.316C183.632 152.192 183.548 152.033 183.513 151.861C183.479 151.689 183.497 151.51 183.564 151.348C183.631 151.186 183.745 151.047 183.891 150.949C184.037 150.852 184.209 150.8 184.384 150.8C184.62 150.8 184.846 150.893 185.012 151.06C185.179 151.226 185.272 151.452 185.272 151.688Z" fill="white"/>
<path d="M256.437 301.441H124.178V322.726H256.437V301.441Z" fill="#FCCD06"/>
<path opacity="0.8" d="M256.437 301.441H124.178V322.726H256.437V301.441Z" fill="white"/>
<path opacity="0.2" d="M256.437 307.07V305.339L165.887 306.058L256.437 307.07Z" fill="black"/>
<path opacity="0.2" d="M256.437 314.53V313.189L215.784 314.645L256.437 314.53Z" fill="black"/>
<path opacity="0.2" d="M256.437 319.52V317.789L190.893 318.792L256.437 319.52Z" fill="black"/>
<path opacity="0.2" d="M153.748 301.441L151.848 317.309L154.112 314.894C154.873 317.791 156.296 320.472 158.268 322.726C159.683 320.873 160.809 318.816 161.607 316.626L223.376 315.915L162.193 314.574C162.383 313.699 162.481 312.806 162.486 311.91C162.483 311.168 162.412 310.428 162.273 309.699L252.902 309.468L162.06 308.758C161.74 307.562 161.294 306.404 160.728 305.304C162.035 304.151 163.719 303.519 165.461 303.528H256.437V301.441H153.748Z" fill="black"/>
<path d="M155.791 311.963C155.798 314.515 156.816 316.96 158.622 318.762C160.427 320.565 162.874 321.578 165.426 321.58H257.964C258.057 321.58 258.15 321.599 258.236 321.634C258.322 321.67 258.4 321.722 258.466 321.788C258.532 321.854 258.585 321.933 258.62 322.019C258.656 322.105 258.674 322.197 258.674 322.291V323.054C258.674 323.243 258.6 323.424 258.466 323.557C258.333 323.69 258.152 323.765 257.964 323.765H121.265C119.706 323.765 118.162 323.456 116.723 322.857C115.284 322.257 113.977 321.378 112.879 320.271C111.781 319.164 110.913 317.851 110.326 316.406C109.738 314.962 109.442 313.416 109.455 311.857C109.532 308.705 110.845 305.71 113.111 303.519C115.378 301.327 118.415 300.115 121.567 300.144H257.964C258.152 300.144 258.333 300.219 258.466 300.352C258.6 300.485 258.674 300.666 258.674 300.854V301.609C258.674 301.798 258.6 301.978 258.466 302.112C258.333 302.245 258.152 302.32 257.964 302.32H165.71C163.125 302.314 160.64 303.32 158.787 305.122C156.933 306.924 155.858 309.379 155.791 311.963V311.963Z" fill="#FCCD06"/>
<path opacity="0.4" d="M155.791 311.963C155.798 314.515 156.816 316.96 158.622 318.762C160.427 320.565 162.874 321.578 165.426 321.58H257.964C258.057 321.58 258.15 321.599 258.236 321.634C258.322 321.67 258.4 321.722 258.466 321.788C258.532 321.854 258.585 321.933 258.62 322.019C258.656 322.105 258.674 322.197 258.674 322.291V323.054C258.674 323.243 258.6 323.424 258.466 323.557C258.333 323.69 258.152 323.765 257.964 323.765H121.265C119.706 323.765 118.162 323.456 116.723 322.857C115.284 322.257 113.977 321.378 112.879 320.271C111.781 319.164 110.913 317.851 110.326 316.406C109.738 314.962 109.442 313.416 109.455 311.857C109.532 308.705 110.845 305.71 113.111 303.519C115.378 301.327 118.415 300.115 121.567 300.144H257.964C258.152 300.144 258.333 300.219 258.466 300.352C258.6 300.485 258.674 300.666 258.674 300.854V301.609C258.674 301.798 258.6 301.978 258.466 302.112C258.333 302.245 258.152 302.32 257.964 302.32H165.71C163.125 302.314 160.64 303.32 158.787 305.122C156.933 306.924 155.858 309.379 155.791 311.963V311.963Z" fill="white"/>
<path d="M155.791 311.964C155.798 314.515 156.816 316.96 158.621 318.762C160.427 320.565 162.874 321.578 165.425 321.581H257.964C258.057 321.581 258.15 321.599 258.236 321.635C258.322 321.67 258.4 321.723 258.466 321.789C258.532 321.855 258.585 321.933 258.62 322.019C258.656 322.105 258.674 322.198 258.674 322.291V323.055C258.674 323.243 258.599 323.424 258.466 323.557C258.333 323.69 258.152 323.765 257.964 323.765H164.893C163.333 323.764 161.79 323.454 160.35 322.855C158.911 322.255 157.605 321.376 156.506 320.269C155.408 319.163 154.539 317.85 153.95 316.406C153.361 314.962 153.063 313.416 153.073 311.857C153.155 308.71 154.467 305.72 156.728 303.53C158.99 301.34 162.02 300.125 165.168 300.144H257.964C258.152 300.144 258.333 300.219 258.466 300.352C258.599 300.486 258.674 300.666 258.674 300.855V301.609C258.674 301.798 258.599 301.979 258.466 302.112C258.333 302.245 258.152 302.32 257.964 302.32H165.71C163.125 302.314 160.64 303.32 158.787 305.122C156.933 306.924 155.858 309.379 155.791 311.964V311.964Z" fill="#FCCD06"/>
<path d="M173.213 306.227V314.761L176.303 311.67L179.296 314.663V306.227H173.213Z" fill="#263238"/>
<path opacity="0.6" d="M155.791 311.964C155.798 314.515 156.816 316.96 158.621 318.762C160.427 320.565 162.874 321.578 165.425 321.581H257.964C258.057 321.581 258.15 321.599 258.236 321.635C258.322 321.67 258.4 321.723 258.466 321.789C258.532 321.855 258.585 321.933 258.62 322.019C258.656 322.105 258.674 322.198 258.674 322.291V323.055C258.674 323.243 258.599 323.424 258.466 323.557C258.333 323.69 258.152 323.765 257.964 323.765H164.893C163.333 323.764 161.79 323.454 160.35 322.855C158.911 322.255 157.605 321.376 156.506 320.269C155.408 319.163 154.539 317.85 153.95 316.406C153.361 314.962 153.063 313.416 153.073 311.857C153.155 308.71 154.467 305.72 156.728 303.53C158.99 301.34 162.02 300.125 165.168 300.144H257.964C258.152 300.144 258.333 300.219 258.466 300.352C258.599 300.486 258.674 300.666 258.674 300.855V301.609C258.674 301.798 258.599 301.979 258.466 302.112C258.333 302.245 258.152 302.32 257.964 302.32H165.71C163.125 302.314 160.64 303.32 158.787 305.122C156.933 306.924 155.858 309.379 155.791 311.964V311.964Z" fill="white"/>
<path d="M262.821 348.345H130.563V369.63H262.821V348.345Z" fill="#FCCD06"/>
<path opacity="0.7" d="M262.821 348.345H130.563V369.63H262.821V348.345Z" fill="white"/>
<path opacity="0.2" d="M262.821 353.966V352.234L172.272 352.963L262.821 353.966Z" fill="black"/>
<path opacity="0.2" d="M262.821 361.425V360.093L222.169 361.541L262.821 361.425Z" fill="black"/>
<path opacity="0.2" d="M262.821 366.416V364.693L197.278 365.687L262.821 366.416Z" fill="black"/>
<path opacity="0.2" d="M160.133 348.345L158.215 364.213L160.479 361.798C161.249 364.693 162.674 367.373 164.644 369.63C166.052 367.771 167.175 365.712 167.974 363.521L229.743 362.81L168.56 361.478C168.752 360.603 168.853 359.71 168.862 358.814C168.856 358.072 168.782 357.332 168.64 356.603L259.296 356.399L168.445 355.688C168.125 354.496 167.678 353.341 167.113 352.243C168.413 351.075 170.098 350.427 171.846 350.423H262.848V348.345H160.133Z" fill="black"/>
<path d="M162.175 358.859C162.171 360.127 162.417 361.383 162.899 362.556C163.381 363.728 164.09 364.794 164.985 365.692C165.881 366.589 166.944 367.301 168.116 367.787C169.287 368.272 170.542 368.522 171.81 368.52H264.349C264.537 368.52 264.718 368.595 264.851 368.728C264.984 368.862 265.059 369.042 265.059 369.231V369.994C265.059 370.183 264.984 370.364 264.851 370.497C264.718 370.63 264.537 370.705 264.349 370.705H120.377C118.819 370.703 117.277 370.393 115.84 369.793C114.402 369.193 113.097 368.315 112 367.209C110.902 366.103 110.034 364.792 109.445 363.35C108.856 361.908 108.558 360.363 108.567 358.806C108.641 355.65 109.955 352.651 112.223 350.456C114.491 348.261 117.532 347.046 120.688 347.075H264.349C264.537 347.075 264.718 347.15 264.851 347.283C264.984 347.417 265.059 347.597 265.059 347.786V348.549C265.059 348.738 264.984 348.918 264.851 349.052C264.718 349.185 264.537 349.26 264.349 349.26H172.094C169.517 349.254 167.039 350.253 165.186 352.046C163.334 353.838 162.254 356.283 162.175 358.859Z" fill="#263238"/>
<path opacity="0.2" d="M162.175 358.859C162.171 360.127 162.417 361.383 162.899 362.556C163.381 363.728 164.09 364.794 164.985 365.692C165.881 366.589 166.944 367.301 168.116 367.787C169.287 368.272 170.542 368.522 171.81 368.52H264.349C264.537 368.52 264.718 368.595 264.851 368.728C264.984 368.862 265.059 369.042 265.059 369.231V369.994C265.059 370.183 264.984 370.364 264.851 370.497C264.718 370.63 264.537 370.705 264.349 370.705H120.377C118.819 370.703 117.277 370.393 115.84 369.793C114.402 369.193 113.097 368.315 112 367.209C110.902 366.103 110.034 364.792 109.445 363.35C108.856 361.908 108.558 360.363 108.567 358.806C108.641 355.65 109.955 352.651 112.223 350.456C114.491 348.261 117.532 347.046 120.688 347.075H264.349C264.537 347.075 264.718 347.15 264.851 347.283C264.984 347.417 265.059 347.597 265.059 347.786V348.549C265.059 348.738 264.984 348.918 264.851 349.052C264.718 349.185 264.537 349.26 264.349 349.26H172.094C169.517 349.254 167.039 350.253 165.186 352.046C163.334 353.838 162.254 356.283 162.175 358.859Z" fill="white"/>
<path d="M162.175 358.859C162.171 360.127 162.417 361.383 162.899 362.556C163.381 363.728 164.09 364.794 164.985 365.692C165.881 366.589 166.944 367.301 168.116 367.787C169.287 368.272 170.542 368.522 171.81 368.52H264.349C264.537 368.52 264.718 368.595 264.851 368.728C264.984 368.862 265.059 369.042 265.059 369.231V369.994C265.059 370.183 264.984 370.364 264.851 370.497C264.718 370.63 264.537 370.705 264.349 370.705H171.277C169.719 370.705 168.176 370.397 166.737 369.797C165.298 369.198 163.993 368.32 162.895 367.214C161.797 366.108 160.929 364.796 160.34 363.353C159.752 361.909 159.455 360.364 159.467 358.806C159.539 355.651 160.851 352.652 163.117 350.456C165.384 348.261 168.424 347.046 171.579 347.075H264.349C264.537 347.075 264.718 347.15 264.851 347.283C264.984 347.417 265.059 347.597 265.059 347.786V348.549C265.059 348.738 264.984 348.918 264.851 349.052C264.718 349.185 264.537 349.26 264.349 349.26H172.094C169.517 349.254 167.039 350.253 165.186 352.046C163.334 353.838 162.254 356.283 162.175 358.859Z" fill="#263238"/>
<path d="M172.272 356.159V364.693L175.353 361.603L178.346 364.595V356.159H172.272Z" fill="#FCCD06"/>
<path opacity="0.4" d="M162.175 358.859C162.171 360.127 162.417 361.383 162.899 362.556C163.381 363.728 164.09 364.794 164.985 365.692C165.881 366.589 166.944 367.301 168.116 367.787C169.287 368.272 170.542 368.522 171.81 368.52H264.349C264.537 368.52 264.718 368.595 264.851 368.728C264.984 368.862 265.059 369.042 265.059 369.231V369.994C265.059 370.183 264.984 370.364 264.851 370.497C264.718 370.63 264.537 370.705 264.349 370.705H171.277C169.719 370.705 168.176 370.397 166.737 369.797C165.298 369.198 163.993 368.32 162.895 367.214C161.797 366.108 160.929 364.796 160.34 363.353C159.752 361.909 159.455 360.364 159.467 358.806C159.539 355.651 160.851 352.652 163.117 350.456C165.384 348.261 168.424 347.046 171.579 347.075H264.349C264.537 347.075 264.718 347.15 264.851 347.283C264.984 347.417 265.059 347.597 265.059 347.786V348.549C265.059 348.738 264.984 348.918 264.851 349.052C264.718 349.185 264.537 349.26 264.349 349.26H172.094C169.517 349.254 167.039 350.253 165.186 352.046C163.334 353.838 162.254 356.283 162.175 358.859Z" fill="white"/>
<path d="M118.663 346.143H167.663V324.884H118.663V346.143Z" fill="#FCCD06"/>
<path opacity="0.8" d="M118.663 346.143H167.663V324.884H118.663V346.143Z" fill="white"/>
<path opacity="0.2" d="M163.738 326.97H118.663V324.893H163.685L163.738 326.97Z" fill="black"/>
<path opacity="0.2" d="M163.738 328.782L123.077 329.652L163.738 330.514V328.782Z" fill="black"/>
<path opacity="0.2" d="M163.738 336.641L120.679 337.369L163.738 337.982V336.641Z" fill="black"/>
<path opacity="0.2" d="M163.738 341.241L121.061 342.102L163.738 342.963V341.241Z" fill="black"/>
<path opacity="0.2" d="M118.663 331.811L159.947 333.054L118.663 333.924V331.811Z" fill="black"/>
<path d="M228.029 335.407C228.025 337.96 227.008 340.407 225.202 342.211C223.396 344.016 220.948 345.03 218.395 345.033H116.399C116.211 345.033 116.03 345.108 115.897 345.241C115.763 345.374 115.689 345.555 115.689 345.743V346.498C115.689 346.686 115.763 346.867 115.897 347C116.03 347.133 116.211 347.208 116.399 347.208H218.927C220.487 347.211 222.031 346.904 223.471 346.306C224.91 345.707 226.217 344.83 227.316 343.723C228.414 342.616 229.282 341.303 229.869 339.859C230.457 338.415 230.752 336.868 230.738 335.309C230.666 332.154 229.354 329.155 227.088 326.96C224.821 324.764 221.781 323.55 218.626 323.579H116.399C116.211 323.579 116.03 323.653 115.897 323.787C115.763 323.92 115.689 324.101 115.689 324.289V325.053C115.689 325.241 115.763 325.422 115.897 325.555C116.03 325.688 116.211 325.763 116.399 325.763H218.111C220.696 325.758 223.18 326.763 225.034 328.565C226.887 330.367 227.962 332.823 228.029 335.407Z" fill="#263238"/>
<path opacity="0.4" d="M228.029 335.407C228.025 337.96 227.008 340.407 225.202 342.211C223.396 344.016 220.948 345.03 218.395 345.033H116.399C116.211 345.033 116.03 345.108 115.897 345.241C115.763 345.374 115.689 345.555 115.689 345.743V346.498C115.689 346.686 115.763 346.867 115.897 347C116.03 347.133 116.211 347.208 116.399 347.208H218.927C220.487 347.211 222.031 346.904 223.471 346.306C224.91 345.707 226.217 344.83 227.316 343.723C228.414 342.616 229.282 341.303 229.869 339.859C230.457 338.415 230.752 336.868 230.738 335.309C230.666 332.154 229.354 329.155 227.088 326.96C224.821 324.764 221.781 323.55 218.626 323.579H116.399C116.211 323.579 116.03 323.653 115.897 323.787C115.763 323.92 115.689 324.101 115.689 324.289V325.053C115.689 325.241 115.763 325.422 115.897 325.555C116.03 325.688 116.211 325.763 116.399 325.763H218.111C220.696 325.758 223.18 326.763 225.034 328.565C226.887 330.367 227.962 332.823 228.029 335.407Z" fill="white"/>
<path d="M265.228 335.531C265.228 338.357 264.105 341.068 262.107 343.066C260.108 345.064 257.398 346.187 254.572 346.187H163.738V324.875H254.581C257.405 324.877 260.113 326.001 262.11 327.999C264.106 329.997 265.228 332.706 265.228 335.531Z" fill="#FCCD06"/>
<path opacity="0.7" d="M163.738 324.893V346.205H254.59C257.416 346.205 260.126 345.082 262.124 343.084C264.123 341.085 265.246 338.375 265.246 335.549C265.246 332.722 264.123 330.012 262.124 328.014C260.126 326.015 257.416 324.893 254.59 324.893H163.738Z" fill="white"/>
<path opacity="0.2" d="M163.738 330.514V328.782L254.288 329.51L163.738 330.514Z" fill="black"/>
<path opacity="0.2" d="M163.738 337.982V336.641L204.391 338.097L163.738 337.982Z" fill="black"/>
<path opacity="0.2" d="M163.738 342.963V341.241L229.282 342.235L163.738 342.963Z" fill="black"/>
<path opacity="0.2" d="M254.732 326.971C256.48 326.974 258.165 327.623 259.465 328.791C258.899 329.893 258.449 331.05 258.124 332.245L167.281 332.956L257.92 333.178C257.778 333.909 257.704 334.653 257.698 335.398C257.699 336.295 257.803 337.189 258.008 338.062L196.816 339.394L258.577 340.113C259.112 341.587 259.799 343 260.628 344.331C262.487 343.037 263.886 341.185 264.621 339.043C265.356 336.901 265.389 334.58 264.716 332.418C264.043 330.255 262.699 328.363 260.878 327.017C259.057 325.67 256.854 324.938 254.59 324.928H163.738V327.006L254.732 326.971Z" fill="black"/>
<path d="M264.384 335.407C264.379 337.96 263.363 340.407 261.556 342.211C259.75 344.016 257.302 345.03 254.749 345.033H162.211C162.022 345.033 161.842 345.108 161.709 345.241C161.575 345.374 161.5 345.555 161.5 345.743V346.498C161.5 346.686 161.575 346.867 161.709 347C161.842 347.133 162.022 347.208 162.211 347.208H255.282C256.841 347.211 258.385 346.904 259.825 346.306C261.265 345.707 262.572 344.83 263.67 343.723C264.769 342.616 265.637 341.303 266.224 339.859C266.811 338.415 267.107 336.868 267.093 335.309C267.02 332.154 265.709 329.155 263.442 326.96C261.176 324.764 258.136 323.55 254.98 323.579H162.211C162.022 323.579 161.842 323.653 161.709 323.787C161.575 323.92 161.5 324.101 161.5 324.289V325.053C161.5 325.241 161.575 325.422 161.709 325.555C161.842 325.688 162.022 325.763 162.211 325.763H254.465C257.05 325.758 259.535 326.763 261.388 328.565C263.242 330.367 264.317 332.823 264.384 335.407V335.407Z" fill="#263238"/>
<path d="M254.288 332.707V341.241L251.197 338.15L248.205 341.143V332.707H254.288Z" fill="#FCCD06"/>
<path d="M278.29 212.756H276.07C275.658 212.764 275.253 212.871 274.89 213.067C274.527 213.263 274.217 213.543 273.983 213.884L271.781 217.098C271.344 217.733 271.066 218.464 270.97 219.229C270.874 219.994 270.964 220.771 271.231 221.494L271.568 222.382C275.253 222.559 279.374 220.038 279.374 220.038L280.635 219.451C280.895 219.338 281.13 219.174 281.327 218.969C281.524 218.763 281.678 218.521 281.78 218.256C281.883 217.991 281.931 217.708 281.924 217.424C281.916 217.14 281.852 216.86 281.736 216.601L280.608 214.159C280.398 213.727 280.067 213.364 279.656 213.116C279.245 212.867 278.771 212.742 278.29 212.756V212.756Z" fill="#EEC1BB"/>
<path d="M236.208 216.672C241.909 221.281 248.063 225.721 254.856 228.438L254.012 228.261C254.634 228.412 256.268 227.79 257.12 227.373C261.862 225.064 266.356 221.601 270.618 218.439C271.054 218.124 271.589 217.974 272.126 218.019C272.663 218.063 273.166 218.298 273.544 218.681C273.923 219.064 274.152 219.569 274.19 220.107C274.229 220.644 274.073 221.177 273.753 221.61C269.499 226.938 259.926 237.762 252.343 236.182C244.031 233.704 236.687 229.078 230.143 223.421C225.898 219.336 231.59 212.952 236.208 216.672Z" fill="#EBC0BB"/>
<path d="M224.247 210.394C222.169 216.184 225.516 221.938 233.571 228.714C237.575 228.119 242.983 219.905 242.983 219.905C242.983 219.905 231.652 208.574 224.247 210.394Z" fill="#FCCD06"/>
<path d="M231.173 174.43C231.173 174.43 223.243 166.314 212.907 176.499C202.571 186.684 200.555 220.428 200.555 220.428L227.532 225.668C227.532 225.668 231.022 221.663 232.816 210.11C234.61 198.557 235.56 187.51 237.833 184.935C240.106 182.36 231.173 174.43 231.173 174.43Z" fill="#263238"/>
<path d="M254.341 345.317L248.498 342.99L250.78 334.474L252.885 326.66L260.273 328.294L257.138 337.307L254.341 345.317Z" fill="#EEC1BB"/>
<path opacity="0.2" d="M257.067 337.493L250.718 334.634L252.858 326.74L260.255 328.338L257.067 337.493Z" fill="black"/>
<path d="M210.127 268.585C210.127 268.585 258.967 261.996 272.536 270.663C286.105 279.33 259.829 332.112 259.829 332.112L251.606 330.336C251.606 330.336 257.769 288.494 257.307 286.744C256.845 284.995 233.846 296.406 202.366 297.489L210.127 268.585Z" fill="#263238"/>
<path opacity="0.2" d="M210.127 268.585C210.127 268.585 258.967 261.996 272.536 270.663C286.105 279.33 259.829 332.112 259.829 332.112L251.606 330.336C251.606 330.336 257.769 288.494 257.307 286.744C256.845 284.995 233.846 296.406 202.366 297.489L210.127 268.585Z" fill="black"/>
<path d="M251.153 327.672L261.498 331.029L259.642 335.744L250.141 332.512L251.153 327.672Z" fill="#263238"/>
<path d="M259.749 346.631C258.63 346.631 256.659 344.855 256.25 344.429C256.227 344.406 256.208 344.379 256.197 344.349V344.296C256.195 344.239 256.21 344.183 256.241 344.136C256.295 344.074 257.591 342.36 258.834 342.306C259.022 342.287 259.212 342.31 259.39 342.373C259.568 342.436 259.73 342.537 259.864 342.67C260.175 342.964 260.282 343.248 260.175 343.514C260.006 343.94 259.287 344.171 258.479 344.313C259.133 344.406 259.748 344.68 260.255 345.104C260.344 345.193 260.413 345.3 260.457 345.418C260.502 345.536 260.521 345.662 260.513 345.787C260.513 346.302 260.237 346.507 260.042 346.578C259.949 346.614 259.849 346.632 259.749 346.631V346.631ZM256.996 344.526C258.026 345.414 259.394 346.373 259.882 346.178C259.882 346.178 260.06 346.116 260.078 345.761C260.081 345.693 260.071 345.626 260.046 345.563C260.022 345.5 259.984 345.444 259.935 345.397C259.456 344.864 257.973 344.615 256.996 344.544V344.526ZM258.932 342.75H258.852C258.067 342.957 257.371 343.415 256.872 344.056C258.23 343.994 259.616 343.736 259.758 343.372C259.802 343.257 259.651 343.088 259.554 342.999C259.384 342.845 259.161 342.762 258.932 342.768V342.75Z" fill="#577AFA"/>
<path d="M247.406 339.358C247.636 338.701 255.566 341.853 255.566 341.853C255.566 341.853 258.905 348.54 263.381 351.257C267.856 353.975 264.198 355.999 258.79 354.232L245.399 349.872C241.536 348.629 245.017 346.142 247.406 339.358Z" fill="#2E353A"/>
<path opacity="0.4" d="M251.153 327.672L261.498 331.029L259.642 335.744L250.141 332.512L251.153 327.672Z" fill="white"/>
<path d="M279.827 362.215L273.77 363.92L270.396 355.769L267.323 348.292L274.179 345.095L277.171 354.161L279.827 362.215Z" fill="#EEC1BB"/>
<path d="M271.08 359.64C271.08 358.948 279.622 359.702 279.622 359.702C279.622 359.702 284.728 365.164 289.79 366.487C294.851 367.81 291.93 370.793 286.238 370.66L272.163 370.305C268.123 370.207 270.733 366.824 271.08 359.64Z" fill="#2E353A"/>
<path d="M284.107 361.985C282.862 361.815 281.658 361.421 280.555 360.821L280.492 360.777C280.489 360.753 280.489 360.729 280.492 360.706C280.489 360.685 280.489 360.664 280.492 360.644V360.644C280.483 360.615 280.483 360.584 280.492 360.555C280.492 360.457 281.283 358.504 282.446 358.051C282.621 357.979 282.81 357.947 282.999 357.958C283.188 357.969 283.372 358.022 283.538 358.113C283.92 358.299 284.098 358.539 284.08 358.832C284.036 359.285 283.396 359.72 282.686 360.075C283.345 359.977 284.019 360.066 284.631 360.333C284.739 360.393 284.835 360.476 284.909 360.575C284.984 360.675 285.038 360.789 285.066 360.91C285.123 361.063 285.132 361.23 285.093 361.389C285.053 361.547 284.966 361.69 284.844 361.798C284.628 361.946 284.367 362.012 284.107 361.985V361.985ZM281.292 360.706C282.544 361.265 284.116 361.789 284.533 361.461C284.533 361.461 284.684 361.345 284.604 361.008C284.589 360.941 284.56 360.879 284.519 360.826C284.477 360.772 284.425 360.728 284.364 360.697C283.743 360.324 282.251 360.528 281.292 360.706ZM282.89 358.388C282.778 358.388 282.666 358.409 282.562 358.45C281.877 358.865 281.341 359.487 281.034 360.226C282.322 359.782 283.574 359.134 283.609 358.752C283.609 358.628 283.423 358.504 283.307 358.45C283.175 358.398 283.032 358.377 282.89 358.388V358.388Z" fill="#577AFA"/>
<path opacity="0.2" d="M277.225 354.348L270.449 355.937L267.341 348.371L274.188 345.139L277.225 354.348Z" fill="black"/>
<path d="M223.98 274.899C223.98 274.899 223.279 265.237 222.95 263.266C222.679 261.312 222.278 259.377 221.751 257.476C219.611 251.038 190.902 258.613 190.902 258.613L190.085 263.053C190.085 263.053 177.129 287.482 185.787 296.282C188.451 298.946 193.575 300.153 198.841 300.118C198.841 300.118 214.94 300.89 244.884 299.496C244.884 299.496 242.664 316.937 267.341 351.107L275.6 348.443C275.6 348.443 259.296 286.407 257.911 285.306C245.976 275.662 223.98 274.899 223.98 274.899Z" fill="#263238"/>
<path d="M265.849 350.689L276.106 347.057L277.5 351.932L267.989 355.147L265.849 350.689Z" fill="#263238"/>
<path d="M233.633 215.021C233.633 215.021 232.603 217.543 231.164 221.947C230.818 222.977 230.463 224.114 230.09 225.339C229.601 226.946 229.077 228.714 228.553 230.667C228.172 232.052 227.79 233.5 227.417 235.027C227.044 236.555 226.644 238.206 226.262 239.885C226.262 240.08 226.174 240.284 226.138 240.48C224.514 247.351 223.328 254.318 222.586 261.339L191.044 258.586C191.04 251.663 191.398 244.745 192.119 237.86C192.687 231.895 193.79 225.993 195.413 220.224C196.665 216.068 198.282 212.499 200.359 210.163C200.359 210.199 217.462 204.587 233.633 215.021Z" fill="#FCCD06"/>
<path d="M217.56 205.67C208.067 202.633 204.382 210.11 204.382 210.11L209.435 209.613L219.691 222.489L225.703 214.701L229.486 216.735C229.486 216.735 225.783 208.299 217.56 205.67Z" fill="#FCCD06"/>
<path opacity="0.6" d="M217.56 205.67C208.067 202.633 204.382 210.11 204.382 210.11L209.435 209.613L219.691 222.489L225.703 214.701L229.486 216.735C229.486 216.735 225.783 208.299 217.56 205.67Z" fill="white"/>
<path d="M219.425 221.787L210.722 208.76C214.825 206.904 217.542 199.054 218.137 194.632L224.282 203.92C222.275 206.904 220.934 210.314 225.534 212.889C225.552 212.889 219.416 221.76 219.425 221.787Z" fill="#EEC1BB"/>
<path opacity="0.2" d="M220.641 198.424L224.282 203.921C223.804 204.603 223.391 205.328 223.048 206.087C221.227 205.27 219.292 202.535 219.744 200.644C219.899 199.853 220.203 199.1 220.641 198.424V198.424Z" fill="black"/>
<path d="M190.556 259.589L200.422 260.238L200.066 263.026L189.588 262.271L190.556 259.589Z" fill="black"/>
<path d="M223.376 264.686L201.256 263.106L201.612 260.317L223.021 261.729L223.376 264.686Z" fill="black"/>
<path d="M215.269 264.677H215.18L212.516 264.5C212.198 264.479 211.901 264.335 211.688 264.097C211.476 263.86 211.365 263.548 211.379 263.23L211.45 261.454C211.45 261.286 211.485 261.12 211.554 260.966C211.623 260.813 211.724 260.677 211.85 260.566C211.968 260.453 212.107 260.367 212.26 260.312C212.413 260.257 212.576 260.234 212.738 260.246L215.509 260.406C215.67 260.415 215.828 260.456 215.974 260.527C216.119 260.598 216.249 260.697 216.355 260.818C216.462 260.94 216.543 261.081 216.595 261.235C216.646 261.388 216.666 261.55 216.654 261.711L216.521 263.558C216.492 263.868 216.347 264.156 216.115 264.364C215.882 264.571 215.58 264.683 215.269 264.677V264.677ZM212.303 261.445L212.223 263.221C212.221 263.308 212.251 263.392 212.309 263.456C212.367 263.521 212.448 263.56 212.534 263.567L215.198 263.754C215.286 263.759 215.372 263.729 215.439 263.671C215.505 263.613 215.546 263.531 215.553 263.443L215.686 261.605C215.691 261.56 215.686 261.515 215.672 261.472C215.658 261.429 215.636 261.39 215.606 261.356C215.577 261.324 215.541 261.298 215.502 261.28C215.462 261.261 215.419 261.251 215.375 261.25L212.605 261.09C212.516 261.087 212.43 261.119 212.365 261.179C212.332 261.207 212.305 261.242 212.286 261.282C212.268 261.322 212.258 261.366 212.259 261.409L212.303 261.445Z" fill="white"/>
<path opacity="0.5" d="M265.849 350.689L276.106 347.057L277.5 351.932L267.989 355.147L265.849 350.689Z" fill="white"/>
<path d="M239.698 192.243C239.652 192.245 239.607 192.233 239.567 192.209C239.528 192.186 239.496 192.151 239.476 192.11C239.23 191.631 238.878 191.215 238.447 190.892C238.017 190.568 237.518 190.348 236.989 190.245C236.956 190.244 236.924 190.237 236.894 190.222C236.864 190.208 236.837 190.188 236.816 190.163C236.794 190.138 236.778 190.109 236.768 190.077C236.758 190.045 236.755 190.012 236.759 189.979C236.767 189.916 236.8 189.858 236.849 189.817C236.898 189.775 236.961 189.754 237.025 189.757C237.639 189.862 238.22 190.11 238.721 190.48C239.222 190.85 239.63 191.332 239.911 191.888C239.926 191.917 239.935 191.948 239.938 191.98C239.941 192.012 239.938 192.045 239.928 192.075C239.918 192.106 239.902 192.134 239.88 192.159C239.859 192.183 239.833 192.203 239.804 192.217L239.698 192.243Z" fill="#263238"/>
<path d="M236.732 196.088C236.829 197.321 237.073 198.537 237.46 199.711C237.146 199.904 236.785 200.006 236.417 200.006C236.048 200.006 235.687 199.904 235.373 199.711L236.732 196.088Z" fill="#D4827D"/>
<path d="M238.694 194.765C238.464 195.316 237.984 195.653 237.611 195.493C237.238 195.334 237.123 194.765 237.354 194.215C237.584 193.664 238.064 193.327 238.437 193.487C238.81 193.646 238.916 194.206 238.694 194.765Z" fill="#263238"/>
<path d="M238.268 193.451H239.662C239.662 193.451 238.65 194.241 238.268 193.451Z" fill="#263238"/>
<path d="M218.253 199.542C218.286 199.633 218.331 199.72 218.386 199.8C218.475 199.978 218.572 200.137 218.67 200.315C219.24 201.408 220.015 202.382 220.952 203.183C223.98 205.696 226.591 206.496 228.944 205.847C229.06 205.847 229.166 205.776 229.282 205.741C232.763 204.426 235.498 200.413 237.815 194.996C238.819 192.899 239.476 190.652 239.76 188.345C239.76 188.345 239.76 188.265 239.76 188.247C239.76 188.229 239.76 188.061 239.76 187.981C239.873 186.654 239.654 185.319 239.12 184.099C238.587 182.878 237.756 181.81 236.705 180.992C235.808 180.253 234.831 179.616 233.793 179.092C223.705 173.853 213.377 189.792 218.253 199.542Z" fill="#EEC1BB"/>
<path d="M239.76 188.256C239.76 188.256 236.723 195.68 228.411 195.36C228.411 195.36 221.769 201.318 217.445 199.267C211.539 196.47 210.58 185.583 216.858 178.151C225.019 168.507 242.069 175.984 239.76 188.256Z" fill="#263238"/>
<path d="M232.896 195.041C233.455 193.922 233.5 191.604 231.644 190.982C229.788 190.361 226.493 194.259 230.4 197.465C230.96 197.927 231.768 197.367 232.896 195.041Z" fill="#EEC1BB"/>
<path d="M231.173 174.43C231.173 174.43 238.854 176.135 241.234 180.77C244.022 186.187 244.022 190.334 236.226 192.847C236.226 192.847 226.662 183.381 222.462 182.253C220.013 181.58 217.512 181.114 214.985 180.859C217.995 172.902 228.145 170.967 231.173 174.43Z" fill="#263238"/>
<path d="M228.429 195.36C223.598 205.013 212.978 221.414 201.656 209.844C201.656 209.844 205.723 196.755 213.937 191.356C222.151 185.957 228.429 195.36 228.429 195.36Z" fill="#263238"/>
<path d="M226.68 211.46C230.809 214.515 225.525 224.567 230.738 226.805C230.248 226.127 229.94 225.336 229.844 224.505C229.747 223.675 229.866 222.834 230.187 222.063C231.28 219.328 235.711 212.099 233.944 202.313L226.68 211.46Z" fill="#263238"/>
<path opacity="0.2" d="M205.288 232.656C205.288 232.656 198.539 237.23 192.154 237.798C192.715 231.855 193.806 225.973 195.413 220.224C196.23 219.764 197.141 219.497 198.077 219.443C202.819 219.532 204.551 223.981 204.551 223.981C205.064 226.843 205.311 229.748 205.288 232.656V232.656Z" fill="black"/>
<path d="M229.921 264.331L228.5 262.626C228.233 262.315 227.895 262.072 227.515 261.918C227.136 261.763 226.724 261.702 226.316 261.738L222.426 262.022C221.658 262.078 220.914 262.318 220.257 262.721C219.6 263.125 219.05 263.68 218.652 264.34L218.155 265.166C220.322 268.159 224.859 269.801 224.859 269.801L226.103 270.414C226.352 270.549 226.626 270.633 226.909 270.661C227.191 270.69 227.477 270.662 227.748 270.579C228.02 270.497 228.273 270.361 228.492 270.18C228.711 270 228.892 269.777 229.024 269.526L230.267 267.075C230.49 266.636 230.576 266.139 230.514 265.65C230.453 265.161 230.246 264.702 229.921 264.331V264.331Z" fill="#EEC1BB"/>
<path d="M202.579 223.51C202.471 229.103 202.872 234.693 203.778 240.213C204.111 241.979 204.541 243.725 205.066 245.444L204.675 244.671C206.726 247.806 209.728 250.709 212.347 253.551L216.734 258.08L221.174 262.635C221.565 263.029 221.797 263.554 221.824 264.108C221.851 264.663 221.672 265.208 221.321 265.638C220.97 266.068 220.473 266.353 219.924 266.438C219.376 266.523 218.815 266.402 218.35 266.098C216.512 264.935 214.798 263.71 213.022 262.467C207.606 258.391 202.144 254.581 197.926 249.147C194.25 241.004 193.353 231.955 193.664 223.11C194.188 217.205 202.748 217.64 202.677 223.563L202.579 223.51Z" fill="#EBC0BB"/>
<path d="M200.058 210.252C194.241 212.25 191.835 218.466 191.577 228.98C194.552 231.742 204.338 230.827 204.338 230.827C204.338 230.827 206.105 214.896 200.058 210.252Z" fill="#FCCD06"/>
<path d="M262.733 272.501V275.28C262.733 275.999 261.845 276.293 261.17 276.293H205.128C204.409 276.293 203.538 275.999 203.538 275.28V272.474L262.733 272.501Z" fill="#263238"/>
<path opacity="0.4" d="M262.733 272.501V275.28C262.733 275.999 261.845 276.293 261.17 276.293H205.128C204.409 276.293 203.538 275.999 203.538 275.28V272.474L262.733 272.501Z" fill="white"/>
<path opacity="0.2" d="M262.733 272.501V275.28C262.733 275.999 261.845 276.293 261.17 276.293H224.211C223.492 276.293 222.639 275.999 222.639 275.28V272.474L262.733 272.501Z" fill="black"/>
<path d="M272.11 243.392L265.432 273.647C265.314 274.134 265.037 274.567 264.644 274.879C264.252 275.191 263.767 275.364 263.265 275.369H226.857C226.631 275.363 226.409 275.304 226.209 275.198C226.009 275.091 225.837 274.941 225.704 274.757C225.572 274.573 225.484 274.361 225.447 274.138C225.41 273.915 225.424 273.686 225.49 273.469L232.159 243.437C232.294 242.98 232.582 242.583 232.975 242.313C233.368 242.043 233.841 241.916 234.317 241.954H270.769C271.728 241.954 272.323 242.424 272.11 243.392Z" fill="#263238"/>
<path opacity="0.4" d="M272.11 243.392L265.432 273.646C265.314 274.133 265.036 274.567 264.644 274.879C264.252 275.191 263.767 275.363 263.265 275.369H228.065C227.838 275.364 227.615 275.306 227.414 275.2C227.213 275.095 227.039 274.944 226.906 274.76C226.773 274.576 226.684 274.364 226.646 274.14C226.608 273.916 226.623 273.686 226.689 273.469L233.357 243.437C233.493 242.978 233.782 242.58 234.177 242.309C234.572 242.039 235.048 241.914 235.524 241.954H270.733C271.728 241.954 272.323 242.424 272.11 243.392Z" fill="white"/>
<path opacity="0.2" d="M254.137 258.772C254.137 261.356 251.357 263.461 249.324 263.461C247.29 263.461 246.083 261.356 246.66 258.772C247.237 256.188 249.27 254.155 251.26 254.083C250.682 256.668 251.926 258.772 253.924 258.772H254.137Z" fill="black"/>
</svg>
