<svg width="100" height="100" viewBox="0 0 110 60" fill="none" xmlns="http://www.w3.org/2000/svg">
<path fill-rule="evenodd" clip-rule="evenodd" d="M35.5035 20.8521H36.2414C35.7856 20.8607 35.3994 21.1428 35.2301 21.5422C35.2257 21.5508 35.2257 21.5595 35.2214 21.5682C35.191 21.642 35.1693 21.7201 35.1563 21.7982C35.1563 21.8026 35.1563 21.8069 35.1563 21.8113C35.152 21.8156 35.152 21.8199 35.152 21.8243C35.1476 21.8764 35.1433 21.9284 35.1433 21.9805V24.2114C35.1433 25.9432 35.5817 27.5795 36.3586 29.0031C34.7657 32.1368 31.5105 34.2896 27.7648 34.2896C24.0843 34.2896 20.8811 32.2149 19.2579 29.1724C18.5374 27.8182 18.1294 26.2774 18.1294 24.6455V21.9805C18.1294 21.8373 18.1554 21.6984 18.2075 21.5682C18.3724 21.1472 18.7804 20.8521 19.2579 20.8521H35.5035ZM20.3863 24.6455C20.3863 24.6541 20.3863 24.6672 20.3863 24.6802C20.3863 24.6672 20.3863 24.6541 20.3863 24.6455Z" fill="#007DFF"/>
<path fill-rule="evenodd" clip-rule="evenodd" d="M53.0253 20.852H54.1537C53.5287 20.852 53.0253 21.3599 53.0253 21.9805V24.2114C53.0253 25.8781 53.4332 27.4536 54.1537 28.8425C52.474 32.076 49.0973 34.2895 45.2128 34.2895C41.3933 34.2895 38.0643 32.1498 36.3586 29.0031C35.5817 27.5795 35.1433 25.9432 35.1433 24.2114V21.9805C35.1433 21.9241 35.1477 21.8677 35.1563 21.8112C35.1694 21.7288 35.1911 21.6463 35.2214 21.5682C35.2258 21.5595 35.2258 21.5508 35.2301 21.5421C35.3994 21.1428 35.7857 20.8607 36.2414 20.852H35.5036L42.7865 2.25829L43.3898 0.717489C43.5591 0.283462 43.9671 0.0143639 44.4011 0.00134277H44.4792C44.6051 0.00568388 44.731 0.0317244 44.8525 0.0794678C45.4341 0.305162 45.7162 0.960544 45.4905 1.54214L45.2084 2.25829L37.9254 20.852H53.0253ZM36.2718 20.852C36.2631 20.852 36.2501 20.852 36.2414 20.852H36.2718ZM37.4003 24.2114C37.4003 24.2331 37.4003 24.2592 37.4003 24.2809V24.2114Z" fill="#007DFF"/>
<path fill-rule="evenodd" clip-rule="evenodd" d="M97.8907 81.4639H10.4124C9.79175 81.4639 9.28394 80.9561 9.28394 80.3354V33.1523C9.28394 32.5273 9.79175 32.0238 10.4124 32.0238C11.0331 32.0238 11.5409 32.5273 11.5409 33.1523V79.2026H96.7622V33.1436C96.7622 32.5229 97.2701 32.0151 97.8907 32.0151C98.5157 32.0151 99.0192 32.5229 99.0192 33.1436V80.3354C99.0192 80.9561 98.5157 81.4639 97.8907 81.4639Z" fill="#FBE663"/>
<path fill-rule="evenodd" clip-rule="evenodd" d="M89.0496 23.109C88.5982 23.109 88.1728 22.8399 87.9992 22.3928L80.1086 2.25829H65.5209L73.086 21.5682C73.3117 22.1498 73.0253 22.8052 72.448 23.0309C71.8664 23.2609 71.211 22.9744 70.981 22.3928L63.0947 2.25829H10.4124C9.79175 2.25829 9.28394 1.75481 9.28394 1.12981C9.28394 0.504815 9.79175 0.00134277 10.4124 0.00134277H63.8369C63.8543 0.00134277 63.8716 0.00134277 63.889 0.00134277H80.8508C80.8681 0.00134277 80.8855 0.00134277 80.9029 0.00134277H97.8907C98.3551 0.00134277 98.7718 0.283462 98.9411 0.717489L107.114 21.5682C107.339 22.1498 107.053 22.8052 106.476 23.0309C105.89 23.2609 105.239 22.9744 105.009 22.3928L97.1225 2.25829H82.5305L90.0999 21.5682C90.3256 22.1498 90.0391 22.8052 89.4619 23.0309C89.323 23.0873 89.1841 23.109 89.0496 23.109Z" fill="#4F4F4F"/>
<path fill-rule="evenodd" clip-rule="evenodd" d="M54.1536 23.109C53.5286 23.109 53.0251 22.6055 53.0251 21.9805V1.12982C53.0251 0.504815 53.5286 0.00134277 54.1536 0.00134277C54.7743 0.00134277 55.2821 0.504815 55.2821 1.12982V21.9805C55.2821 22.6055 54.7743 23.109 54.1536 23.109Z" fill="#4F4F4F"/>
<path fill-rule="evenodd" clip-rule="evenodd" d="M2.24384 23.109C2.10495 23.109 1.96606 23.0873 1.83151 23.0309C1.24991 22.8052 0.963456 22.1498 1.19349 21.5682L9.36189 0.717499C9.59193 0.135902 10.243 -0.150558 10.8246 0.0794779C11.4062 0.305172 11.6883 0.960554 11.4626 1.54215L3.29418 22.3928C3.12057 22.8399 2.69089 23.109 2.24384 23.109Z" fill="#4F4F4F"/>
<path fill-rule="evenodd" clip-rule="evenodd" d="M19.2578 23.109C19.1189 23.109 18.98 23.0873 18.8454 23.0309C18.2638 22.8052 17.9774 22.1498 18.2074 21.5682L26.3758 0.717499C26.6058 0.135902 27.2569 -0.150558 27.8385 0.0794779C28.4201 0.305172 28.7022 0.960554 28.4765 1.54215L20.3081 22.3928C20.1302 22.8399 19.7091 23.109 19.2578 23.109Z" fill="#4F4F4F"/>
<path fill-rule="evenodd" clip-rule="evenodd" d="M36.2717 23.109C36.1328 23.109 35.9939 23.0873 35.8593 23.0309C35.2777 22.8052 34.9913 22.1498 35.2213 21.5682L43.3897 0.717499C43.6154 0.135902 44.2708 -0.150558 44.8524 0.0794779C45.434 0.305172 45.7161 0.960554 45.4904 1.54215L37.322 22.3928C37.1441 22.8399 36.7187 23.109 36.2717 23.109Z" fill="#4F4F4F"/>
<path fill-rule="evenodd" clip-rule="evenodd" d="M3.37242 23.109V24.6455C3.37242 28.7166 6.68406 32.0283 10.7509 32.0283C14.8177 32.0283 18.1294 28.7166 18.1294 24.6455V23.109H3.37242ZM10.7509 34.2896C5.4384 34.2896 1.11548 29.9623 1.11548 24.6455V21.9805C1.11548 21.3599 1.61895 20.8521 2.24395 20.8521H19.2578C19.8785 20.8521 20.3863 21.3599 20.3863 21.9805V24.6455C20.3863 29.9623 16.0634 34.2896 10.7509 34.2896Z" fill="#4F4F4F"/>
<path fill-rule="evenodd" clip-rule="evenodd" d="M20.3863 23.109V24.6455C20.3863 28.7166 23.6936 32.0283 27.7648 32.0283C31.8317 32.0283 35.1433 28.7166 35.1433 24.6455V23.109H20.3863ZM27.7648 34.2896C22.4523 34.2896 18.1294 29.9623 18.1294 24.6455V21.9805C18.1294 21.3599 18.6329 20.8521 19.2579 20.8521H36.2718C36.8924 20.8521 37.4002 21.3599 37.4002 21.9805V24.6455C37.4002 29.9623 33.0773 34.2896 27.7648 34.2896Z" fill="#4F4F4F"/>
<path fill-rule="evenodd" clip-rule="evenodd" d="M37.4003 23.109V24.2114C37.4003 28.5213 40.9029 32.0283 45.2128 32.0283C49.5183 32.0283 53.0253 28.5213 53.0253 24.2114V23.109H37.4003ZM45.2128 34.2896C39.6615 34.2896 35.1433 29.767 35.1433 24.2114V21.9805C35.1433 21.3599 35.6468 20.8521 36.2718 20.8521H54.1537C54.7744 20.8521 55.2822 21.3599 55.2822 21.9805V24.2114C55.2822 29.767 50.764 34.2896 45.2128 34.2896Z" fill="#4F4F4F"/>
<path fill-rule="evenodd" clip-rule="evenodd" d="M90.1778 23.109V24.6455C90.1778 28.7166 93.4851 32.0283 97.5563 32.0283C101.623 32.0283 104.935 28.7166 104.935 24.6455V23.109H90.1778ZM97.5563 34.2896C92.2438 34.2896 87.9209 29.9623 87.9209 24.6455V21.9805C87.9209 21.3599 88.4244 20.8521 89.0494 20.8521H106.063C106.684 20.8521 107.192 21.3599 107.192 21.9805V24.6455C107.192 29.9623 102.869 34.2896 97.5563 34.2896Z" fill="#4F4F4F"/>
<path fill-rule="evenodd" clip-rule="evenodd" d="M73.1639 23.109V24.6455C73.1639 28.7166 76.4712 32.0283 80.5424 32.0283C84.6092 32.0283 87.9209 28.7166 87.9209 24.6455V23.109H73.1639ZM80.5424 34.2896C75.2299 34.2896 70.907 29.9623 70.907 24.6455V21.9805C70.907 21.3599 71.4105 20.8521 72.0355 20.8521H89.0493C89.67 20.8521 90.1778 21.3599 90.1778 21.9805V24.6455C90.1778 29.9623 85.8549 34.2896 80.5424 34.2896Z" fill="#4F4F4F"/>
<path fill-rule="evenodd" clip-rule="evenodd" d="M55.2821 23.109V24.2114C55.2821 28.5213 58.7847 32.0283 63.0946 32.0283C67.4001 32.0283 70.9071 28.5213 70.9071 24.2114V23.109H55.2821ZM63.0946 34.2896C57.539 34.2896 53.0251 29.767 53.0251 24.2114V21.9805C53.0251 21.3599 53.5286 20.8521 54.1536 20.8521H72.0356C72.6562 20.8521 73.164 21.3599 73.164 21.9805V24.2114C73.164 29.767 68.6458 34.2896 63.0946 34.2896Z" fill="#4F4F4F"/>
<path fill-rule="evenodd" clip-rule="evenodd" d="M66.9444 81.464C66.3194 81.464 65.816 80.9562 65.816 80.3355V50.9648H42.4913V80.3355C42.4913 80.9562 41.9835 81.464 41.3628 81.464C40.7378 81.464 40.2344 80.9562 40.2344 80.3355V49.8364C40.2344 49.2114 40.7378 48.7079 41.3628 48.7079H66.9444C67.5651 48.7079 68.0729 49.2114 68.0729 49.8364V80.3355C68.0729 80.9562 67.5651 81.464 66.9444 81.464Z" fill="#4F4F4F"/>
<path fill-rule="evenodd" clip-rule="evenodd" d="M77.9645 58.2522H86.8707V42.5838H77.9645V58.2522ZM87.9992 60.5091H76.836C76.211 60.5091 75.7075 60.0057 75.7075 59.3807V41.451C75.7075 40.8303 76.211 40.3225 76.836 40.3225H87.9992C88.6242 40.3225 89.1277 40.8303 89.1277 41.451V59.3807C89.1277 60.0057 88.6242 60.5091 87.9992 60.5091Z" fill="#4F4F4F"/>
<path fill-rule="evenodd" clip-rule="evenodd" d="M21.4322 58.2522H30.3385V42.5838H21.4322V58.2522ZM31.467 60.5091H20.3038C19.6831 60.5091 19.1753 60.0057 19.1753 59.3807V41.451C19.1753 40.8303 19.6831 40.3225 20.3038 40.3225H31.467C32.092 40.3225 32.5954 40.8303 32.5954 41.451V59.3807C32.5954 60.0057 32.092 60.5091 31.467 60.5091Z" fill="#4F4F4F"/>
<path fill-rule="evenodd" clip-rule="evenodd" d="M107.174 81.4639H1.12847C0.503472 81.4639 0 80.9561 0 80.3354C0 79.7104 0.503472 79.2026 1.12847 79.2026H107.174C107.799 79.2026 108.303 79.7104 108.303 80.3354C108.303 80.9561 107.799 81.4639 107.174 81.4639Z" fill="#4F4F4F"/>
<path fill-rule="evenodd" clip-rule="evenodd" d="M61.7273 68.7557C61.1067 68.7557 60.5989 68.2522 60.5989 67.6272V62.4189C60.5989 61.7982 61.1067 61.2904 61.7273 61.2904C62.3523 61.2904 62.8558 61.7982 62.8558 62.4189V67.6272C62.8558 68.2522 62.3523 68.7557 61.7273 68.7557Z" fill="#605D7B"/>
<path fill-rule="evenodd" clip-rule="evenodd" d="M25.7725 2.2583H11.1804L3.89746 20.8521H18.4895L25.7725 2.2583Z" fill="#007DFF"/>
<path fill-rule="evenodd" clip-rule="evenodd" d="M42.7864 2.2583H28.1944L20.9114 20.8521H35.5034L42.7864 2.2583Z" fill="#007DFF"/>
<path fill-rule="evenodd" clip-rule="evenodd" d="M53.0251 2.2583H45.2083L37.9253 20.8521H53.0251V2.2583Z" fill="#007DFF"/>
<path fill-rule="evenodd" clip-rule="evenodd" d="M63.0945 2.2583H55.282V20.8521H70.3775L63.0945 2.2583Z" fill="#007DFF"/>
<path fill-rule="evenodd" clip-rule="evenodd" d="M80.7681 2.2583H65.5208L73.1336 20.8521H88.3853L80.7681 2.2583Z" fill="#007DFF"/>
<path fill-rule="evenodd" clip-rule="evenodd" d="M104.935 23.1089H90.178V24.6453C90.178 28.7165 93.4853 32.0282 97.5565 32.0282C97.6085 32.0282 97.665 32.0282 97.7214 32.0282C97.7778 32.0195 97.8342 32.0151 97.8907 32.0151C97.921 32.0151 97.9471 32.0151 97.9731 32.0195C101.849 31.8025 104.935 28.5776 104.935 24.6453V23.1089Z" fill="#007DFF"/>
<path fill-rule="evenodd" clip-rule="evenodd" d="M97.1223 2.2583H82.5303L89.8176 20.8521H104.405L97.1223 2.2583Z" fill="#007DFF"/>
<path fill-rule="evenodd" clip-rule="evenodd" d="M87.921 23.1089H73.1641V24.6453C73.1641 28.7165 76.4714 32.0282 80.5425 32.0282C84.6094 32.0282 87.921 28.7165 87.921 24.6453V23.1089Z" fill="#007DFF"/>
<path fill-rule="evenodd" clip-rule="evenodd" d="M70.907 23.1089H55.282V24.2113C55.282 28.5212 58.7846 32.0282 63.0945 32.0282C67.3783 32.0282 70.8679 28.5603 70.907 24.2808V23.1089Z" fill="#007DFF"/>
<path fill-rule="evenodd" clip-rule="evenodd" d="M18.1293 23.1089H3.37231V24.6453C3.37231 28.5993 6.49297 31.8372 10.3992 32.0238C10.4036 32.0238 10.4079 32.0238 10.4122 32.0238C10.447 32.0238 10.4817 32.0238 10.5121 32.0282C10.5902 32.0282 10.6727 32.0282 10.7508 32.0282C14.8176 32.0282 18.1293 28.7165 18.1293 24.6453V23.1089Z" fill="#007DFF"/>
<path fill-rule="evenodd" clip-rule="evenodd" d="M30.3386 42.5837H21.4324V58.2521H30.3386V42.5837Z" fill="#B3E5FC"/>
<path fill-rule="evenodd" clip-rule="evenodd" d="M75.7074 59.3806V41.4509C75.7074 40.8303 76.2109 40.3224 76.8359 40.3224H87.9991C88.6241 40.3224 89.1276 40.8303 89.1276 41.4509V59.3806C89.1276 60.0056 88.6241 60.5091 87.9991 60.5091H76.8359C76.2109 60.5091 75.7074 60.0056 75.7074 59.3806ZM32.5955 41.4509V59.3806C32.5955 60.0056 32.092 60.5091 31.467 60.5091H20.3038C19.6831 60.5091 19.1753 60.0056 19.1753 59.3806V41.4509C19.1753 40.8303 19.6831 40.3224 20.3038 40.3224H31.467C32.092 40.3224 32.5955 40.8303 32.5955 41.4509ZM45.2126 34.2895C41.3932 34.2895 38.0642 32.1497 36.3585 29.003C34.7656 32.1367 31.5104 34.2895 27.7647 34.2895C24.0842 34.2895 20.8811 32.2148 19.2578 29.1723C17.7517 31.9934 14.8871 33.9856 11.5408 34.2591V79.2027H40.2343V49.8363C40.2343 49.2113 40.7378 48.7079 41.3628 48.7079H66.9444C67.5651 48.7079 68.0729 49.2113 68.0729 49.8363V79.2027H96.7621V34.2591C93.4201 33.9856 90.5512 31.9934 89.0495 29.1723C87.4262 32.2148 84.2231 34.2895 80.5425 34.2895C76.7925 34.2895 73.5416 32.1367 71.9488 29.003C70.243 32.1497 66.914 34.2895 63.0946 34.2895C59.21 34.2895 55.829 32.0759 54.1536 28.8424C52.4739 32.0759 49.0972 34.2895 45.2126 34.2895Z" fill="#FBE663"/>
<path fill-rule="evenodd" clip-rule="evenodd" d="M61.7273 68.7556C61.1067 68.7556 60.5989 68.2522 60.5989 67.6272V62.4188C60.5989 61.7982 61.1067 61.2904 61.7273 61.2904C62.3523 61.2904 62.8558 61.7982 62.8558 62.4188V67.6272C62.8558 68.2522 62.3523 68.7556 61.7273 68.7556ZM65.8159 50.9648H42.4912V79.2027H65.8159V50.9648Z" fill="#F46A22"/>
<path fill-rule="evenodd" clip-rule="evenodd" d="M86.8706 42.5837H77.9644V58.2521H86.8706V42.5837Z" fill="#B3E5FC"/>
</svg>
